<?xml version="1.0" encoding="UTF-8" standalone="no"?>
<!DOCTYPE svg PUBLIC "-//W3C//DTD SVG 1.1//EN"
 "http://www.w3.org/Graphics/SVG/1.1/DTD/svg11.dtd">
<!-- Generated by graphviz version 5.0.0 (0)
 -->
<!-- Title: container.cpp Pages: 1 -->
<svg width="856pt" height="247pt"
 viewBox="0.00 0.00 856.00 247.00" xmlns="http://www.w3.org/2000/svg" xmlns:xlink="http://www.w3.org/1999/xlink">
<g id="graph0" class="graph" transform="scale(1 1) rotate(0) translate(4 243)">
<title>container.cpp</title>
<!-- Node1 -->
<g id="node1" class="node">
<title>Node1</title>
<g id="a_node1"><a xlink:title=" ">
<polygon fill="#bfbfbf" stroke="black" points="551.5,-239 469.5,-239 469.5,-220 551.5,-220 551.5,-239"/>
<text text-anchor="middle" x="510.5" y="-227" font-family="Helvetica,sans-Serif" font-size="10.00">container.cpp</text>
</a>
</g>
</g>
<!-- Node2 -->
<g id="node2" class="node">
<title>Node2</title>
<g id="a_node2"><a xlink:href="container_8h.html" target="_top" xlink:title=" ">
<polygon fill="none" stroke="black" points="469,-74 398,-74 398,-55 469,-55 469,-74"/>
<text text-anchor="middle" x="433.5" y="-62" font-family="Helvetica,sans-Serif" font-size="10.00">container.h</text>
</a>
</g>
</g>
<!-- Node1&#45;&gt;Node2 -->
<g id="edge1" class="edge">
<title>Node1&#45;&gt;Node2</title>
<path fill="none" stroke="midnightblue" d="M505.26,-219.77C500.01,-210.9 491.83,-196.69 485.5,-184 468.11,-149.13 450.41,-107.12 440.81,-83.65"/>
<polygon fill="midnightblue" stroke="midnightblue" points="444,-82.21 437,-74.26 437.52,-84.84 444,-82.21"/>
</g>
<!-- Node5 -->
<g id="node5" class="node">
<title>Node5</title>
<g id="a_node5"><a xlink:href="floattextedit_8h.html" target="_top" xlink:title=" ">
<polygon fill="none" stroke="black" points="405.5,-184 319.5,-184 319.5,-165 405.5,-165 405.5,-184"/>
<text text-anchor="middle" x="362.5" y="-172" font-family="Helvetica,sans-Serif" font-size="10.00">floattextedit.h</text>
</a>
</g>
</g>
<!-- Node1&#45;&gt;Node5 -->
<g id="edge4" class="edge">
<title>Node1&#45;&gt;Node5</title>
<path fill="none" stroke="midnightblue" d="M486.72,-219.98C462.27,-211.23 423.97,-197.51 396.35,-187.62"/>
<polygon fill="midnightblue" stroke="midnightblue" points="397.31,-184.25 386.71,-184.17 394.95,-190.84 397.31,-184.25"/>
</g>
<!-- Node7 -->
<g id="node7" class="node">
<title>Node7</title>
<g id="a_node7"><a xlink:href="mainwindow_8h.html" target="_top" xlink:title=" ">
<polygon fill="none" stroke="black" points="319,-129 232,-129 232,-110 319,-110 319,-129"/>
<text text-anchor="middle" x="275.5" y="-117" font-family="Helvetica,sans-Serif" font-size="10.00">mainwindow.h</text>
</a>
</g>
</g>
<!-- Node1&#45;&gt;Node7 -->
<g id="edge18" class="edge">
<title>Node1&#45;&gt;Node7</title>
<path fill="none" stroke="midnightblue" d="M469.27,-228.93C425.72,-227.35 357.05,-218.87 310.5,-184 295.73,-172.93 286.4,-153.71 281.12,-139.31"/>
<polygon fill="midnightblue" stroke="midnightblue" points="284.32,-137.84 277.85,-129.45 277.67,-140.04 284.32,-137.84"/>
</g>
<!-- Node12 -->
<g id="node12" class="node">
<title>Node12</title>
<g id="a_node12"><a xlink:href="floatimage_8h.html" target="_top" xlink:title=" ">
<polygon fill="none" stroke="black" points="551.5,-129 473.5,-129 473.5,-110 551.5,-110 551.5,-129"/>
<text text-anchor="middle" x="512.5" y="-117" font-family="Helvetica,sans-Serif" font-size="10.00">floatimage.h</text>
</a>
</g>
</g>
<!-- Node1&#45;&gt;Node12 -->
<g id="edge13" class="edge">
<title>Node1&#45;&gt;Node12</title>
<path fill="none" stroke="midnightblue" d="M505.04,-219.97C497.96,-207.88 487.02,-184.99 491.5,-165 493.58,-155.74 497.8,-146.14 501.93,-138.23"/>
<polygon fill="midnightblue" stroke="midnightblue" points="505.1,-139.72 506.92,-129.28 498.99,-136.31 505.1,-139.72"/>
</g>
<!-- Node15 -->
<g id="node15" class="node">
<title>Node15</title>
<g id="a_node15"><a xlink:title=" ">
<polygon fill="none" stroke="#bfbfbf" points="601,-184 500,-184 500,-165 601,-165 601,-184"/>
<text text-anchor="middle" x="550.5" y="-172" font-family="Helvetica,sans-Serif" font-size="10.00">ui_mainwindow.h</text>
</a>
</g>
</g>
<!-- Node1&#45;&gt;Node15 -->
<g id="edge19" class="edge">
<title>Node1&#45;&gt;Node15</title>
<path fill="none" stroke="midnightblue" d="M517.11,-219.75C522.76,-212.26 531.04,-201.28 537.95,-192.13"/>
<polygon fill="midnightblue" stroke="midnightblue" points="540.79,-194.18 544.02,-184.09 535.2,-189.96 540.79,-194.18"/>
</g>
<!-- Node16 -->
<g id="node16" class="node">
<title>Node16</title>
<g id="a_node16"><a xlink:title=" ">
<polygon fill="none" stroke="#bfbfbf" points="679.5,-184 619.5,-184 619.5,-165 679.5,-165 679.5,-184"/>
<text text-anchor="middle" x="649.5" y="-172" font-family="Helvetica,sans-Serif" font-size="10.00">iostream</text>
</a>
</g>
</g>
<!-- Node1&#45;&gt;Node16 -->
<g id="edge20" class="edge">
<title>Node1&#45;&gt;Node16</title>
<path fill="none" stroke="midnightblue" d="M532.83,-219.98C555.7,-211.27 591.46,-197.63 617.36,-187.75"/>
<polygon fill="midnightblue" stroke="midnightblue" points="618.66,-191 626.76,-184.17 616.17,-184.46 618.66,-191"/>
</g>
<!-- Node17 -->
<g id="node17" class="node">
<title>Node17</title>
<g id="a_node17"><a xlink:title=" ">
<polygon fill="none" stroke="#bfbfbf" points="781.5,-184 697.5,-184 697.5,-165 781.5,-165 781.5,-184"/>
<text text-anchor="middle" x="739.5" y="-172" font-family="Helvetica,sans-Serif" font-size="10.00">QMouseEvent</text>
</a>
</g>
</g>
<!-- Node1&#45;&gt;Node17 -->
<g id="edge21" class="edge">
<title>Node1&#45;&gt;Node17</title>
<path fill="none" stroke="midnightblue" d="M547.29,-219.98C586.74,-210.86 649.48,-196.33 692.48,-186.38"/>
<polygon fill="midnightblue" stroke="midnightblue" points="693.47,-189.75 702.42,-184.08 691.89,-182.93 693.47,-189.75"/>
</g>
<!-- Node18 -->
<g id="node18" class="node">
<title>Node18</title>
<g id="a_node18"><a xlink:title=" ">
<polygon fill="none" stroke="#bfbfbf" points="848,-184 799,-184 799,-165 848,-165 848,-184"/>
<text text-anchor="middle" x="823.5" y="-172" font-family="Helvetica,sans-Serif" font-size="10.00">QStyle</text>
</a>
</g>
</g>
<!-- Node1&#45;&gt;Node18 -->
<g id="edge22" class="edge">
<title>Node1&#45;&gt;Node18</title>
<path fill="none" stroke="midnightblue" d="M551.53,-223.22C604.31,-216.15 699.01,-202.55 788.64,-184.24"/>
<polygon fill="midnightblue" stroke="midnightblue" points="789.61,-187.61 798.69,-182.16 788.19,-180.76 789.61,-187.61"/>
</g>
<!-- Node3 -->
<g id="node3" class="node">
<title>Node3</title>
<g id="a_node3"><a xlink:title=" ">
<polygon fill="none" stroke="#bfbfbf" points="529,-19 470,-19 470,0 529,0 529,-19"/>
<text text-anchor="middle" x="499.5" y="-7" font-family="Helvetica,sans-Serif" font-size="10.00">QWidget</text>
</a>
</g>
</g>
<!-- Node2&#45;&gt;Node3 -->
<g id="edge2" class="edge">
<title>Node2&#45;&gt;Node3</title>
<path fill="none" stroke="midnightblue" d="M444.1,-54.98C453.96,-47.07 468.85,-35.11 480.72,-25.58"/>
<polygon fill="midnightblue" stroke="midnightblue" points="483.1,-28.16 488.7,-19.17 478.71,-22.7 483.1,-28.16"/>
</g>
<!-- Node4 -->
<g id="node4" class="node">
<title>Node4</title>
<g id="a_node4"><a xlink:title=" ">
<polygon fill="none" stroke="#bfbfbf" points="352,-19 297,-19 297,0 352,0 352,-19"/>
<text text-anchor="middle" x="324.5" y="-7" font-family="Helvetica,sans-Serif" font-size="10.00">QFrame</text>
</a>
</g>
</g>
<!-- Node2&#45;&gt;Node4 -->
<g id="edge3" class="edge">
<title>Node2&#45;&gt;Node4</title>
<path fill="none" stroke="midnightblue" d="M415.99,-54.98C398.53,-46.5 371.49,-33.35 351.33,-23.54"/>
<polygon fill="midnightblue" stroke="midnightblue" points="352.86,-20.4 342.33,-19.17 349.79,-26.69 352.86,-20.4"/>
</g>
<!-- Node6 -->
<g id="node6" class="node">
<title>Node6</title>
<g id="a_node6"><a xlink:title=" ">
<polygon fill="none" stroke="#bfbfbf" points="400,-129 337,-129 337,-110 400,-110 400,-129"/>
<text text-anchor="middle" x="368.5" y="-117" font-family="Helvetica,sans-Serif" font-size="10.00">QTextEdit</text>
</a>
</g>
</g>
<!-- Node5&#45;&gt;Node6 -->
<g id="edge5" class="edge">
<title>Node5&#45;&gt;Node6</title>
<path fill="none" stroke="midnightblue" d="M363.49,-164.75C364.28,-157.8 365.4,-147.85 366.39,-139.13"/>
<polygon fill="midnightblue" stroke="midnightblue" points="369.88,-139.42 367.53,-129.09 362.92,-138.63 369.88,-139.42"/>
</g>
<!-- Node5&#45;&gt;Node7 -->
<g id="edge6" class="edge">
<title>Node5&#45;&gt;Node7</title>
<path fill="none" stroke="midnightblue" d="M348.52,-164.98C335.03,-156.77 314.37,-144.18 298.46,-134.49"/>
<polygon fill="midnightblue" stroke="midnightblue" points="300.09,-131.38 289.73,-129.17 296.45,-137.36 300.09,-131.38"/>
</g>
<!-- Node7&#45;&gt;Node2 -->
<g id="edge10" class="edge">
<title>Node7&#45;&gt;Node2</title>
<path fill="none" stroke="midnightblue" d="M300.89,-109.98C327.3,-101.13 368.85,-87.19 398.39,-77.28"/>
<polygon fill="midnightblue" stroke="midnightblue" points="399.55,-80.58 407.92,-74.08 397.32,-73.94 399.55,-80.58"/>
</g>
<!-- Node8 -->
<g id="node8" class="node">
<title>Node8</title>
<g id="a_node8"><a xlink:title=" ">
<polygon fill="none" stroke="#bfbfbf" points="309,-74 222,-74 222,-55 309,-55 309,-74"/>
<text text-anchor="middle" x="265.5" y="-62" font-family="Helvetica,sans-Serif" font-size="10.00">QMainWindow</text>
</a>
</g>
</g>
<!-- Node7&#45;&gt;Node8 -->
<g id="edge7" class="edge">
<title>Node7&#45;&gt;Node8</title>
<path fill="none" stroke="midnightblue" d="M273.85,-109.75C272.54,-102.8 270.66,-92.85 269.02,-84.13"/>
<polygon fill="midnightblue" stroke="midnightblue" points="272.41,-83.27 267.12,-74.09 265.54,-84.56 272.41,-83.27"/>
</g>
<!-- Node9 -->
<g id="node9" class="node">
<title>Node9</title>
<g id="a_node9"><a xlink:title=" ">
<polygon fill="none" stroke="#bfbfbf" points="380,-74 327,-74 327,-55 380,-55 380,-74"/>
<text text-anchor="middle" x="353.5" y="-62" font-family="Helvetica,sans-Serif" font-size="10.00">QString</text>
</a>
</g>
</g>
<!-- Node7&#45;&gt;Node9 -->
<g id="edge8" class="edge">
<title>Node7&#45;&gt;Node9</title>
<path fill="none" stroke="midnightblue" d="M288.03,-109.98C299.9,-101.92 317.96,-89.65 332.11,-80.03"/>
<polygon fill="midnightblue" stroke="midnightblue" points="334.44,-82.69 340.74,-74.17 330.5,-76.9 334.44,-82.69"/>
</g>
<!-- Node10 -->
<g id="node10" class="node">
<title>Node10</title>
<g id="a_node10"><a xlink:title=" ">
<polygon fill="none" stroke="#bfbfbf" points="95,-74 0,-74 0,-55 95,-55 95,-74"/>
<text text-anchor="middle" x="47.5" y="-62" font-family="Helvetica,sans-Serif" font-size="10.00">QTextDocument</text>
</a>
</g>
</g>
<!-- Node7&#45;&gt;Node10 -->
<g id="edge9" class="edge">
<title>Node7&#45;&gt;Node10</title>
<path fill="none" stroke="midnightblue" d="M238.87,-109.98C199.59,-100.86 137.13,-86.33 94.31,-76.38"/>
<polygon fill="midnightblue" stroke="midnightblue" points="94.95,-72.94 84.42,-74.08 93.37,-79.76 94.95,-72.94"/>
</g>
<!-- Node11 -->
<g id="node11" class="node">
<title>Node11</title>
<g id="a_node11"><a xlink:href="contextmenu_8h.html" target="_top" xlink:title=" ">
<polygon fill="none" stroke="black" points="203.5,-74 113.5,-74 113.5,-55 203.5,-55 203.5,-74"/>
<text text-anchor="middle" x="158.5" y="-62" font-family="Helvetica,sans-Serif" font-size="10.00">contextmenu.h</text>
</a>
</g>
</g>
<!-- Node7&#45;&gt;Node11 -->
<g id="edge11" class="edge">
<title>Node7&#45;&gt;Node11</title>
<path fill="none" stroke="midnightblue" d="M256.7,-109.98C237.88,-101.46 208.68,-88.23 187,-78.41"/>
<polygon fill="midnightblue" stroke="midnightblue" points="188.19,-75.11 177.64,-74.17 185.3,-81.48 188.19,-75.11"/>
</g>
<!-- Node11&#45;&gt;Node4 -->
<g id="edge12" class="edge">
<title>Node11&#45;&gt;Node4</title>
<path fill="none" stroke="midnightblue" d="M185.17,-54.98C213.04,-46.09 256.95,-32.07 288.02,-22.15"/>
<polygon fill="midnightblue" stroke="midnightblue" points="289.16,-25.46 297.62,-19.08 287.03,-18.79 289.16,-25.46"/>
</g>
<!-- Node12&#45;&gt;Node2 -->
<g id="edge17" class="edge">
<title>Node12&#45;&gt;Node2</title>
<path fill="none" stroke="midnightblue" d="M499.81,-109.98C487.67,-101.84 469.14,-89.41 454.75,-79.76"/>
<polygon fill="midnightblue" stroke="midnightblue" points="456.68,-76.84 446.42,-74.17 452.78,-82.65 456.68,-76.84"/>
</g>
<!-- Node12&#45;&gt;Node3 -->
<g id="edge15" class="edge">
<title>Node12&#45;&gt;Node3</title>
<path fill="none" stroke="midnightblue" d="M522.93,-109.7C535.87,-97.65 555.2,-75.22 546.5,-55 541.35,-43.03 531.21,-32.76 521.67,-25.12"/>
<polygon fill="midnightblue" stroke="midnightblue" points="523.69,-22.26 513.57,-19.11 519.51,-27.88 523.69,-22.26"/>
</g>
<!-- Node13 -->
<g id="node13" class="node">
<title>Node13</title>
<g id="a_node13"><a xlink:title=" ">
<polygon fill="none" stroke="#bfbfbf" points="649.5,-74 593.5,-74 593.5,-55 649.5,-55 649.5,-74"/>
<text text-anchor="middle" x="621.5" y="-62" font-family="Helvetica,sans-Serif" font-size="10.00">QObject</text>
</a>
</g>
</g>
<!-- Node12&#45;&gt;Node13 -->
<g id="edge14" class="edge">
<title>Node12&#45;&gt;Node13</title>
<path fill="none" stroke="midnightblue" d="M530.01,-109.98C547.47,-101.5 574.51,-88.35 594.67,-78.54"/>
<polygon fill="midnightblue" stroke="midnightblue" points="596.21,-81.69 603.67,-74.17 593.14,-75.4 596.21,-81.69"/>
</g>
<!-- Node14 -->
<g id="node14" class="node">
<title>Node14</title>
<g id="a_node14"><a xlink:title=" ">
<polygon fill="none" stroke="#bfbfbf" points="537.5,-74 487.5,-74 487.5,-55 537.5,-55 537.5,-74"/>
<text text-anchor="middle" x="512.5" y="-62" font-family="Helvetica,sans-Serif" font-size="10.00">QLabel</text>
</a>
</g>
</g>
<!-- Node12&#45;&gt;Node14 -->
<g id="edge16" class="edge">
<title>Node12&#45;&gt;Node14</title>
<path fill="none" stroke="midnightblue" d="M512.5,-109.75C512.5,-102.8 512.5,-92.85 512.5,-84.13"/>
<polygon fill="midnightblue" stroke="midnightblue" points="516,-84.09 512.5,-74.09 509,-84.09 516,-84.09"/>
</g>
</g>
</svg>
