<?xml version="1.0" encoding="UTF-8" standalone="no"?>
<!DOCTYPE svg PUBLIC "-//W3C//DTD SVG 1.1//EN"
 "http://www.w3.org/Graphics/SVG/1.1/DTD/svg11.dtd">
<!-- Generated by graphviz version 5.0.0 (0)
 -->
<!-- Title: container.cpp Pages: 1 -->
<svg width="828pt" height="247pt"
 viewBox="0.00 0.00 827.50 247.00" xmlns="http://www.w3.org/2000/svg" xmlns:xlink="http://www.w3.org/1999/xlink">
<g id="graph0" class="graph" transform="scale(1 1) rotate(0) translate(4 243)">
<title>container.cpp</title>
<!-- Node1 -->
<g id="node1" class="node">
<title>Node1</title>
<g id="a_node1"><a xlink:title=" ">
<polygon fill="#bfbfbf" stroke="black" points="604,-239 522,-239 522,-220 604,-220 604,-239"/>
<text text-anchor="middle" x="563" y="-227" font-family="Helvetica,sans-Serif" font-size="10.00">container.cpp</text>
</a>
</g>
</g>
<!-- Node2 -->
<g id="node2" class="node">
<title>Node2</title>
<g id="a_node2"><a xlink:href="container_8h.html" target="_top" xlink:title=" ">
<polygon fill="none" stroke="black" points="563.5,-74 492.5,-74 492.5,-55 563.5,-55 563.5,-74"/>
<text text-anchor="middle" x="528" y="-62" font-family="Helvetica,sans-Serif" font-size="10.00">container.h</text>
</a>
</g>
</g>
<!-- Node1&#45;&gt;Node2 -->
<g id="edge1" class="edge">
<title>Node1&#45;&gt;Node2</title>
<path fill="none" stroke="midnightblue" d="M561.12,-219.74C555.63,-194.2 539.58,-119.43 532.02,-84.23"/>
<polygon fill="midnightblue" stroke="midnightblue" points="535.41,-83.35 529.89,-74.31 528.57,-84.82 535.41,-83.35"/>
</g>
<!-- Node5 -->
<g id="node5" class="node">
<title>Node5</title>
<g id="a_node5"><a xlink:href="floattextedit_8h.html" target="_top" xlink:title=" ">
<polygon fill="none" stroke="black" points="497,-184 411,-184 411,-165 497,-165 497,-184"/>
<text text-anchor="middle" x="454" y="-172" font-family="Helvetica,sans-Serif" font-size="10.00">floattextedit.h</text>
</a>
</g>
</g>
<!-- Node1&#45;&gt;Node5 -->
<g id="edge4" class="edge">
<title>Node1&#45;&gt;Node5</title>
<path fill="none" stroke="midnightblue" d="M545.49,-219.98C528.03,-211.5 500.99,-198.35 480.83,-188.54"/>
<polygon fill="midnightblue" stroke="midnightblue" points="482.36,-185.4 471.83,-184.17 479.29,-191.69 482.36,-185.4"/>
</g>
<!-- Node7 -->
<g id="node7" class="node">
<title>Node7</title>
<g id="a_node7"><a xlink:href="mainwindow_8h.html" target="_top" xlink:title=" ">
<polygon fill="none" stroke="black" points="404.5,-129 317.5,-129 317.5,-110 404.5,-110 404.5,-129"/>
<text text-anchor="middle" x="361" y="-117" font-family="Helvetica,sans-Serif" font-size="10.00">mainwindow.h</text>
</a>
</g>
</g>
<!-- Node1&#45;&gt;Node7 -->
<g id="edge19" class="edge">
<title>Node1&#45;&gt;Node7</title>
<path fill="none" stroke="midnightblue" d="M521.77,-225.27C486.96,-220.75 437.29,-209.92 402,-184 386.34,-172.5 375.08,-153.06 368.37,-138.71"/>
<polygon fill="midnightblue" stroke="midnightblue" points="371.49,-137.12 364.29,-129.35 365.08,-139.92 371.49,-137.12"/>
</g>
<!-- Node13 -->
<g id="node13" class="node">
<title>Node13</title>
<g id="a_node13"><a xlink:href="floatimage_8h.html" target="_top" xlink:title=" ">
<polygon fill="none" stroke="black" points="631,-129 553,-129 553,-110 631,-110 631,-129"/>
<text text-anchor="middle" x="592" y="-117" font-family="Helvetica,sans-Serif" font-size="10.00">floatimage.h</text>
</a>
</g>
</g>
<!-- Node1&#45;&gt;Node13 -->
<g id="edge14" class="edge">
<title>Node1&#45;&gt;Node13</title>
<path fill="none" stroke="midnightblue" d="M565.37,-219.66C570.09,-202.09 580.74,-162.45 587.04,-138.95"/>
<polygon fill="midnightblue" stroke="midnightblue" points="590.46,-139.72 589.68,-129.16 583.7,-137.91 590.46,-139.72"/>
</g>
<!-- Node16 -->
<g id="node16" class="node">
<title>Node16</title>
<g id="a_node16"><a xlink:title=" ">
<polygon fill="none" stroke="#bfbfbf" points="651,-184 591,-184 591,-165 651,-165 651,-184"/>
<text text-anchor="middle" x="621" y="-172" font-family="Helvetica,sans-Serif" font-size="10.00">iostream</text>
</a>
</g>
</g>
<!-- Node1&#45;&gt;Node16 -->
<g id="edge20" class="edge">
<title>Node1&#45;&gt;Node16</title>
<path fill="none" stroke="midnightblue" d="M572.32,-219.98C580.81,-212.23 593.56,-200.58 603.88,-191.14"/>
<polygon fill="midnightblue" stroke="midnightblue" points="606.49,-193.5 611.51,-184.17 601.77,-188.33 606.49,-193.5"/>
</g>
<!-- Node17 -->
<g id="node17" class="node">
<title>Node17</title>
<g id="a_node17"><a xlink:title=" ">
<polygon fill="none" stroke="#bfbfbf" points="753,-184 669,-184 669,-165 753,-165 753,-184"/>
<text text-anchor="middle" x="711" y="-172" font-family="Helvetica,sans-Serif" font-size="10.00">QMouseEvent</text>
</a>
</g>
</g>
<!-- Node1&#45;&gt;Node17 -->
<g id="edge21" class="edge">
<title>Node1&#45;&gt;Node17</title>
<path fill="none" stroke="midnightblue" d="M586.78,-219.98C611.23,-211.23 649.53,-197.51 677.15,-187.62"/>
<polygon fill="midnightblue" stroke="midnightblue" points="678.55,-190.84 686.79,-184.17 676.19,-184.25 678.55,-190.84"/>
</g>
<!-- Node18 -->
<g id="node18" class="node">
<title>Node18</title>
<g id="a_node18"><a xlink:title=" ">
<polygon fill="none" stroke="#bfbfbf" points="819.5,-184 770.5,-184 770.5,-165 819.5,-165 819.5,-184"/>
<text text-anchor="middle" x="795" y="-172" font-family="Helvetica,sans-Serif" font-size="10.00">QStyle</text>
</a>
</g>
</g>
<!-- Node1&#45;&gt;Node18 -->
<g id="edge22" class="edge">
<title>Node1&#45;&gt;Node18</title>
<path fill="none" stroke="midnightblue" d="M603.11,-219.93C641.24,-211.69 700.44,-198.67 760.18,-184.39"/>
<polygon fill="midnightblue" stroke="midnightblue" points="761.25,-187.73 770.16,-181.99 759.61,-180.92 761.25,-187.73"/>
</g>
<!-- Node3 -->
<g id="node3" class="node">
<title>Node3</title>
<g id="a_node3"><a xlink:title=" ">
<polygon fill="none" stroke="#bfbfbf" points="589.5,-19 530.5,-19 530.5,0 589.5,0 589.5,-19"/>
<text text-anchor="middle" x="560" y="-7" font-family="Helvetica,sans-Serif" font-size="10.00">QWidget</text>
</a>
</g>
</g>
<!-- Node2&#45;&gt;Node3 -->
<g id="edge2" class="edge">
<title>Node2&#45;&gt;Node3</title>
<path fill="none" stroke="midnightblue" d="M533.28,-54.75C537.71,-47.42 544.16,-36.73 549.62,-27.7"/>
<polygon fill="midnightblue" stroke="midnightblue" points="552.64,-29.46 554.81,-19.09 546.65,-25.84 552.64,-29.46"/>
</g>
<!-- Node4 -->
<g id="node4" class="node">
<title>Node4</title>
<g id="a_node4"><a xlink:title=" ">
<polygon fill="none" stroke="#bfbfbf" points="412.5,-19 357.5,-19 357.5,0 412.5,0 412.5,-19"/>
<text text-anchor="middle" x="385" y="-7" font-family="Helvetica,sans-Serif" font-size="10.00">QFrame</text>
</a>
</g>
</g>
<!-- Node2&#45;&gt;Node4 -->
<g id="edge3" class="edge">
<title>Node2&#45;&gt;Node4</title>
<path fill="none" stroke="midnightblue" d="M505.02,-54.98C481.5,-46.27 444.71,-32.63 418.06,-22.75"/>
<polygon fill="midnightblue" stroke="midnightblue" points="418.99,-19.36 408.39,-19.17 416.55,-25.93 418.99,-19.36"/>
</g>
<!-- Node6 -->
<g id="node6" class="node">
<title>Node6</title>
<g id="a_node6"><a xlink:title=" ">
<polygon fill="none" stroke="#bfbfbf" points="485.5,-129 422.5,-129 422.5,-110 485.5,-110 485.5,-129"/>
<text text-anchor="middle" x="454" y="-117" font-family="Helvetica,sans-Serif" font-size="10.00">QTextEdit</text>
</a>
</g>
</g>
<!-- Node5&#45;&gt;Node6 -->
<g id="edge5" class="edge">
<title>Node5&#45;&gt;Node6</title>
<path fill="none" stroke="midnightblue" d="M454,-164.75C454,-157.8 454,-147.85 454,-139.13"/>
<polygon fill="midnightblue" stroke="midnightblue" points="457.5,-139.09 454,-129.09 450.5,-139.09 457.5,-139.09"/>
</g>
<!-- Node5&#45;&gt;Node7 -->
<g id="edge6" class="edge">
<title>Node5&#45;&gt;Node7</title>
<path fill="none" stroke="midnightblue" d="M439.06,-164.98C424.5,-156.69 402.13,-143.94 385.07,-134.22"/>
<polygon fill="midnightblue" stroke="midnightblue" points="386.64,-131.08 376.21,-129.17 383.17,-137.16 386.64,-131.08"/>
</g>
<!-- Node7&#45;&gt;Node2 -->
<g id="edge11" class="edge">
<title>Node7&#45;&gt;Node2</title>
<path fill="none" stroke="midnightblue" d="M387.83,-109.98C415.87,-101.09 460.05,-87.07 491.3,-77.15"/>
<polygon fill="midnightblue" stroke="midnightblue" points="492.49,-80.44 500.96,-74.08 490.37,-73.77 492.49,-80.44"/>
</g>
<!-- Node8 -->
<g id="node8" class="node">
<title>Node8</title>
<g id="a_node8"><a xlink:title=" ">
<polygon fill="none" stroke="#bfbfbf" points="403.5,-74 316.5,-74 316.5,-55 403.5,-55 403.5,-74"/>
<text text-anchor="middle" x="360" y="-62" font-family="Helvetica,sans-Serif" font-size="10.00">QMainWindow</text>
</a>
</g>
</g>
<!-- Node7&#45;&gt;Node8 -->
<g id="edge7" class="edge">
<title>Node7&#45;&gt;Node8</title>
<path fill="none" stroke="midnightblue" d="M360.83,-109.75C360.7,-102.8 360.52,-92.85 360.35,-84.13"/>
<polygon fill="midnightblue" stroke="midnightblue" points="363.85,-84.02 360.16,-74.09 356.85,-84.15 363.85,-84.02"/>
</g>
<!-- Node9 -->
<g id="node9" class="node">
<title>Node9</title>
<g id="a_node9"><a xlink:title=" ">
<polygon fill="none" stroke="#bfbfbf" points="474.5,-74 421.5,-74 421.5,-55 474.5,-55 474.5,-74"/>
<text text-anchor="middle" x="448" y="-62" font-family="Helvetica,sans-Serif" font-size="10.00">QString</text>
</a>
</g>
</g>
<!-- Node7&#45;&gt;Node9 -->
<g id="edge8" class="edge">
<title>Node7&#45;&gt;Node9</title>
<path fill="none" stroke="midnightblue" d="M374.98,-109.98C388.47,-101.77 409.13,-89.18 425.04,-79.49"/>
<polygon fill="midnightblue" stroke="midnightblue" points="427.05,-82.36 433.77,-74.17 423.41,-76.38 427.05,-82.36"/>
</g>
<!-- Node10 -->
<g id="node10" class="node">
<title>Node10</title>
<g id="a_node10"><a xlink:title=" ">
<polygon fill="none" stroke="#bfbfbf" points="76,-74 0,-74 0,-55 76,-55 76,-74"/>
<text text-anchor="middle" x="38" y="-62" font-family="Helvetica,sans-Serif" font-size="10.00">QListWidget</text>
</a>
</g>
</g>
<!-- Node7&#45;&gt;Node10 -->
<g id="edge9" class="edge">
<title>Node7&#45;&gt;Node10</title>
<path fill="none" stroke="midnightblue" d="M317.46,-111.74C265,-103.54 173.93,-89.12 86.07,-74.16"/>
<polygon fill="midnightblue" stroke="midnightblue" points="86.66,-70.71 76.21,-72.47 85.48,-77.61 86.66,-70.71"/>
</g>
<!-- Node11 -->
<g id="node11" class="node">
<title>Node11</title>
<g id="a_node11"><a xlink:title=" ">
<polygon fill="none" stroke="#bfbfbf" points="189.5,-74 94.5,-74 94.5,-55 189.5,-55 189.5,-74"/>
<text text-anchor="middle" x="142" y="-62" font-family="Helvetica,sans-Serif" font-size="10.00">QTextDocument</text>
</a>
</g>
</g>
<!-- Node7&#45;&gt;Node11 -->
<g id="edge10" class="edge">
<title>Node7&#45;&gt;Node11</title>
<path fill="none" stroke="midnightblue" d="M325.81,-109.98C288.17,-100.87 228.34,-86.4 187.23,-76.45"/>
<polygon fill="midnightblue" stroke="midnightblue" points="188,-73.03 177.46,-74.08 186.36,-79.84 188,-73.03"/>
</g>
<!-- Node12 -->
<g id="node12" class="node">
<title>Node12</title>
<g id="a_node12"><a xlink:href="contextmenu_8h.html" target="_top" xlink:title=" ">
<polygon fill="none" stroke="black" points="298,-74 208,-74 208,-55 298,-55 298,-74"/>
<text text-anchor="middle" x="253" y="-62" font-family="Helvetica,sans-Serif" font-size="10.00">contextmenu.h</text>
</a>
</g>
</g>
<!-- Node7&#45;&gt;Node12 -->
<g id="edge12" class="edge">
<title>Node7&#45;&gt;Node12</title>
<path fill="none" stroke="midnightblue" d="M343.65,-109.98C326.43,-101.54 299.8,-88.47 279.85,-78.68"/>
<polygon fill="midnightblue" stroke="midnightblue" points="281.19,-75.43 270.67,-74.17 278.1,-81.72 281.19,-75.43"/>
</g>
<!-- Node12&#45;&gt;Node4 -->
<g id="edge13" class="edge">
<title>Node12&#45;&gt;Node4</title>
<path fill="none" stroke="midnightblue" d="M274.21,-54.98C295.73,-46.34 329.28,-32.87 353.83,-23.02"/>
<polygon fill="midnightblue" stroke="midnightblue" points="355.43,-26.14 363.41,-19.17 352.82,-19.65 355.43,-26.14"/>
</g>
<!-- Node13&#45;&gt;Node2 -->
<g id="edge18" class="edge">
<title>Node13&#45;&gt;Node2</title>
<path fill="none" stroke="midnightblue" d="M581.72,-109.98C572.16,-102.07 557.72,-90.11 546.22,-80.58"/>
<polygon fill="midnightblue" stroke="midnightblue" points="548.4,-77.85 538.47,-74.17 543.94,-83.24 548.4,-77.85"/>
</g>
<!-- Node13&#45;&gt;Node3 -->
<g id="edge16" class="edge">
<title>Node13&#45;&gt;Node3</title>
<path fill="none" stroke="midnightblue" d="M589.38,-109.66C584.18,-92.09 572.43,-52.45 565.47,-28.95"/>
<polygon fill="midnightblue" stroke="midnightblue" points="568.76,-27.75 562.57,-19.16 562.05,-29.74 568.76,-27.75"/>
</g>
<!-- Node14 -->
<g id="node14" class="node">
<title>Node14</title>
<g id="a_node14"><a xlink:title=" ">
<polygon fill="none" stroke="#bfbfbf" points="676,-74 620,-74 620,-55 676,-55 676,-74"/>
<text text-anchor="middle" x="648" y="-62" font-family="Helvetica,sans-Serif" font-size="10.00">QObject</text>
</a>
</g>
</g>
<!-- Node13&#45;&gt;Node14 -->
<g id="edge15" class="edge">
<title>Node13&#45;&gt;Node14</title>
<path fill="none" stroke="midnightblue" d="M601,-109.98C609.19,-102.23 621.51,-90.58 631.47,-81.14"/>
<polygon fill="midnightblue" stroke="midnightblue" points="633.98,-83.59 638.84,-74.17 629.17,-78.5 633.98,-83.59"/>
</g>
<!-- Node15 -->
<g id="node15" class="node">
<title>Node15</title>
<g id="a_node15"><a xlink:title=" ">
<polygon fill="none" stroke="#bfbfbf" points="744,-74 694,-74 694,-55 744,-55 744,-74"/>
<text text-anchor="middle" x="719" y="-62" font-family="Helvetica,sans-Serif" font-size="10.00">QLabel</text>
</a>
</g>
</g>
<!-- Node13&#45;&gt;Node15 -->
<g id="edge17" class="edge">
<title>Node13&#45;&gt;Node15</title>
<path fill="none" stroke="midnightblue" d="M612.4,-109.98C633.02,-101.38 665.11,-87.99 688.69,-78.15"/>
<polygon fill="midnightblue" stroke="midnightblue" points="690.34,-81.25 698.22,-74.17 687.65,-74.79 690.34,-81.25"/>
</g>
</g>
</svg>
