<?xml version="1.0" encoding="UTF-8" standalone="no"?>
<!DOCTYPE svg PUBLIC "-//W3C//DTD SVG 1.1//EN"
 "http://www.w3.org/Graphics/SVG/1.1/DTD/svg11.dtd">
<!-- Generated by graphviz version 5.0.0 (0)
 -->
<!-- Title: container.h Pages: 1 -->
<svg width="682pt" height="192pt"
 viewBox="0.00 0.00 682.00 192.00" xmlns="http://www.w3.org/2000/svg" xmlns:xlink="http://www.w3.org/1999/xlink">
<g id="graph0" class="graph" transform="scale(1 1) rotate(0) translate(4 188)">
<title>container.h</title>
<!-- Node1 -->
<g id="node1" class="node">
<title>Node1</title>
<g id="a_node1"><a xlink:title=" ">
<polygon fill="#bfbfbf" stroke="black" points="298,-184 227,-184 227,-165 298,-165 298,-184"/>
<text text-anchor="middle" x="262.5" y="-172" font-family="Helvetica,sans-Serif" font-size="10.00">container.h</text>
</a>
</g>
</g>
<!-- Node2 -->
<g id="node2" class="node">
<title>Node2</title>
<g id="a_node2"><a xlink:href="container_8cpp.html" target="_top" xlink:title=" ">
<polygon fill="none" stroke="black" points="189.5,-19 107.5,-19 107.5,0 189.5,0 189.5,-19"/>
<text text-anchor="middle" x="148.5" y="-7" font-family="Helvetica,sans-Serif" font-size="10.00">container.cpp</text>
</a>
</g>
</g>
<!-- Node1&#45;&gt;Node2 -->
<g id="edge1" class="edge">
<title>Node1&#45;&gt;Node2</title>
<path fill="none" stroke="midnightblue" d="M243.59,-158.52C222.17,-140.6 187.63,-108.64 167.5,-74 157.09,-56.09 151.93,-31.97 149.78,-19.23"/>
<polygon fill="midnightblue" stroke="midnightblue" points="241.41,-161.26 251.36,-164.89 245.84,-155.85 241.41,-161.26"/>
</g>
<!-- Node3 -->
<g id="node3" class="node">
<title>Node3</title>
<g id="a_node3"><a xlink:href="floatimage_8cpp.html" target="_top" xlink:title=" ">
<polygon fill="none" stroke="black" points="89,-19 0,-19 0,0 89,0 89,-19"/>
<text text-anchor="middle" x="44.5" y="-7" font-family="Helvetica,sans-Serif" font-size="10.00">floatimage.cpp</text>
</a>
</g>
</g>
<!-- Node1&#45;&gt;Node3 -->
<g id="edge2" class="edge">
<title>Node1&#45;&gt;Node3</title>
<path fill="none" stroke="midnightblue" d="M238.53,-159.74C224.29,-151.3 206.03,-140.03 190.5,-129 137.01,-91 77.51,-39.62 54.41,-19.3"/>
<polygon fill="midnightblue" stroke="midnightblue" points="236.85,-162.81 247.25,-164.84 240.39,-156.77 236.85,-162.81"/>
</g>
<!-- Node4 -->
<g id="node4" class="node">
<title>Node4</title>
<g id="a_node4"><a xlink:href="floatimage_8h.html" target="_top" xlink:title=" ">
<polygon fill="none" stroke="black" points="254.5,-74 176.5,-74 176.5,-55 254.5,-55 254.5,-74"/>
<text text-anchor="middle" x="215.5" y="-62" font-family="Helvetica,sans-Serif" font-size="10.00">floatimage.h</text>
</a>
</g>
</g>
<!-- Node1&#45;&gt;Node4 -->
<g id="edge3" class="edge">
<title>Node1&#45;&gt;Node4</title>
<path fill="none" stroke="midnightblue" d="M254.64,-155.44C244.41,-131.92 226.92,-91.73 219.27,-74.16"/>
<polygon fill="midnightblue" stroke="midnightblue" points="251.45,-156.89 258.65,-164.66 257.87,-154.1 251.45,-156.89"/>
</g>
<!-- Node6 -->
<g id="node6" class="node">
<title>Node6</title>
<g id="a_node6"><a xlink:href="tabmainwidget_8cpp.html" target="_top" xlink:title=" ">
<polygon fill="none" stroke="black" points="317.5,-19 207.5,-19 207.5,0 317.5,0 317.5,-19"/>
<text text-anchor="middle" x="262.5" y="-7" font-family="Helvetica,sans-Serif" font-size="10.00">tabmainwidget.cpp</text>
</a>
</g>
</g>
<!-- Node1&#45;&gt;Node6 -->
<g id="edge19" class="edge">
<title>Node1&#45;&gt;Node6</title>
<path fill="none" stroke="midnightblue" d="M262.89,-154.66C263.32,-131.28 263.9,-90.2 263.5,-55 263.36,-42.48 263,-27.99 262.75,-19.03"/>
<polygon fill="midnightblue" stroke="midnightblue" points="259.38,-154.81 262.69,-164.88 266.38,-154.95 259.38,-154.81"/>
</g>
<!-- Node7 -->
<g id="node7" class="node">
<title>Node7</title>
<g id="a_node7"><a xlink:href="floattextedit_8cpp.html" target="_top" xlink:title=" ">
<polygon fill="none" stroke="black" points="674,-19 577,-19 577,0 674,0 674,-19"/>
<text text-anchor="middle" x="625.5" y="-7" font-family="Helvetica,sans-Serif" font-size="10.00">floattextedit.cpp</text>
</a>
</g>
</g>
<!-- Node1&#45;&gt;Node7 -->
<g id="edge8" class="edge">
<title>Node1&#45;&gt;Node7</title>
<path fill="none" stroke="midnightblue" d="M308.31,-170.74C356.08,-166.49 432.26,-155.79 492.5,-129 550.99,-102.99 601.85,-41.56 619.18,-19"/>
<polygon fill="midnightblue" stroke="midnightblue" points="307.95,-167.26 298.27,-171.58 308.53,-174.24 307.95,-167.26"/>
</g>
<!-- Node8 -->
<g id="node8" class="node">
<title>Node8</title>
<g id="a_node8"><a xlink:href="mainwindow_8h.html" target="_top" xlink:title=" ">
<polygon fill="none" stroke="black" points="483,-129 396,-129 396,-110 483,-110 483,-129"/>
<text text-anchor="middle" x="439.5" y="-117" font-family="Helvetica,sans-Serif" font-size="10.00">mainwindow.h</text>
</a>
</g>
</g>
<!-- Node1&#45;&gt;Node8 -->
<g id="edge9" class="edge">
<title>Node1&#45;&gt;Node8</title>
<path fill="none" stroke="midnightblue" d="M300.72,-162.06C333.8,-152.15 380.91,-138.04 410.84,-129.08"/>
<polygon fill="midnightblue" stroke="midnightblue" points="299.51,-158.76 290.94,-164.98 301.52,-165.47 299.51,-158.76"/>
</g>
<!-- Node4&#45;&gt;Node2 -->
<g id="edge4" class="edge">
<title>Node4&#45;&gt;Node2</title>
<path fill="none" stroke="midnightblue" d="M196.67,-48.6C184.66,-39.11 169.53,-27.13 159.46,-19.17"/>
<polygon fill="midnightblue" stroke="midnightblue" points="194.72,-51.53 204.74,-54.98 199.06,-46.04 194.72,-51.53"/>
</g>
<!-- Node4&#45;&gt;Node3 -->
<g id="edge5" class="edge">
<title>Node4&#45;&gt;Node3</title>
<path fill="none" stroke="midnightblue" d="M178.16,-51.93C146.22,-42.03 100.98,-28.01 72.19,-19.08"/>
<polygon fill="midnightblue" stroke="midnightblue" points="177.44,-55.37 188.03,-54.98 179.51,-48.68 177.44,-55.37"/>
</g>
<!-- Node5 -->
<g id="node5" class="node">
<title>Node5</title>
<g id="a_node5"><a xlink:href="mainwindow_8cpp.html" target="_top" xlink:title=" ">
<polygon fill="none" stroke="black" points="433.5,-19 335.5,-19 335.5,0 433.5,0 433.5,-19"/>
<text text-anchor="middle" x="384.5" y="-7" font-family="Helvetica,sans-Serif" font-size="10.00">mainwindow.cpp</text>
</a>
</g>
</g>
<!-- Node4&#45;&gt;Node5 -->
<g id="edge6" class="edge">
<title>Node4&#45;&gt;Node5</title>
<path fill="none" stroke="midnightblue" d="M252.4,-51.93C283.97,-42.03 328.68,-28.01 357.13,-19.08"/>
<polygon fill="midnightblue" stroke="midnightblue" points="251.15,-48.65 242.65,-54.98 253.24,-55.33 251.15,-48.65"/>
</g>
<!-- Node4&#45;&gt;Node6 -->
<g id="edge7" class="edge">
<title>Node4&#45;&gt;Node6</title>
<path fill="none" stroke="midnightblue" d="M229.92,-47.24C238.16,-37.95 248.15,-26.68 254.88,-19.09"/>
<polygon fill="midnightblue" stroke="midnightblue" points="227.28,-44.94 223.26,-54.75 232.51,-49.59 227.28,-44.94"/>
</g>
<!-- Node8&#45;&gt;Node5 -->
<g id="edge18" class="edge">
<title>Node8&#45;&gt;Node5</title>
<path fill="none" stroke="midnightblue" d="M435.91,-99.76C432.94,-86.71 427.98,-69.17 420.5,-55 413.27,-41.29 401.48,-27.76 393.38,-19.29"/>
<polygon fill="midnightblue" stroke="midnightblue" points="432.56,-100.8 438.03,-109.88 439.41,-99.37 432.56,-100.8"/>
</g>
<!-- Node8&#45;&gt;Node7 -->
<g id="edge10" class="edge">
<title>Node8&#45;&gt;Node7</title>
<path fill="none" stroke="midnightblue" d="M471.66,-106.04C491.45,-97.89 517.04,-86.47 538.5,-74 567.92,-56.9 599.48,-32.02 615.27,-19.06"/>
<polygon fill="midnightblue" stroke="midnightblue" points="470.13,-102.88 462.18,-109.88 472.76,-109.37 470.13,-102.88"/>
</g>
<!-- Node9 -->
<g id="node9" class="node">
<title>Node9</title>
<g id="a_node9"><a xlink:href="floattextedit_8h.html" target="_top" xlink:title=" ">
<polygon fill="none" stroke="black" points="411.5,-74 325.5,-74 325.5,-55 411.5,-55 411.5,-74"/>
<text text-anchor="middle" x="368.5" y="-62" font-family="Helvetica,sans-Serif" font-size="10.00">floattextedit.h</text>
</a>
</g>
</g>
<!-- Node8&#45;&gt;Node9 -->
<g id="edge11" class="edge">
<title>Node8&#45;&gt;Node9</title>
<path fill="none" stroke="midnightblue" d="M419.91,-103.88C407.13,-94.34 390.89,-82.21 380.11,-74.17"/>
<polygon fill="midnightblue" stroke="midnightblue" points="417.99,-106.81 428.09,-109.98 422.17,-101.2 417.99,-106.81"/>
</g>
<!-- Node11 -->
<g id="node11" class="node">
<title>Node11</title>
<g id="a_node11"><a xlink:href="main_8cpp.html" target="_top" xlink:title=" ">
<polygon fill="none" stroke="black" points="529.5,-74 467.5,-74 467.5,-55 529.5,-55 529.5,-74"/>
<text text-anchor="middle" x="498.5" y="-62" font-family="Helvetica,sans-Serif" font-size="10.00">main.cpp</text>
</a>
</g>
</g>
<!-- Node8&#45;&gt;Node11 -->
<g id="edge17" class="edge">
<title>Node8&#45;&gt;Node11</title>
<path fill="none" stroke="midnightblue" d="M456.7,-103.04C467.17,-93.64 480.15,-81.98 488.85,-74.17"/>
<polygon fill="midnightblue" stroke="midnightblue" points="454.08,-100.7 448.98,-109.98 458.76,-105.91 454.08,-100.7"/>
</g>
<!-- Node9&#45;&gt;Node2 -->
<g id="edge12" class="edge">
<title>Node9&#45;&gt;Node2</title>
<path fill="none" stroke="midnightblue" d="M323.37,-52.63C282.16,-42.7 222.05,-28.22 184.12,-19.08"/>
<polygon fill="midnightblue" stroke="midnightblue" points="322.61,-56.05 333.15,-54.98 324.25,-49.24 322.61,-56.05"/>
</g>
<!-- Node9&#45;&gt;Node5 -->
<g id="edge14" class="edge">
<title>Node9&#45;&gt;Node5</title>
<path fill="none" stroke="midnightblue" d="M374.1,-44.95C376.76,-36.15 379.8,-26.06 381.91,-19.09"/>
<polygon fill="midnightblue" stroke="midnightblue" points="370.68,-44.16 371.14,-54.75 377.38,-46.19 370.68,-44.16"/>
</g>
<!-- Node9&#45;&gt;Node6 -->
<g id="edge16" class="edge">
<title>Node9&#45;&gt;Node6</title>
<path fill="none" stroke="midnightblue" d="M342.5,-50.5C323,-40.75 296.85,-27.68 279.84,-19.17"/>
<polygon fill="midnightblue" stroke="midnightblue" points="340.96,-53.64 351.47,-54.98 344.09,-47.38 340.96,-53.64"/>
</g>
<!-- Node9&#45;&gt;Node7 -->
<g id="edge13" class="edge">
<title>Node9&#45;&gt;Node7</title>
<path fill="none" stroke="midnightblue" d="M419.7,-52.94C467.88,-43.01 539.12,-28.31 583.88,-19.08"/>
<polygon fill="midnightblue" stroke="midnightblue" points="418.88,-49.54 409.79,-54.98 420.29,-56.39 418.88,-49.54"/>
</g>
<!-- Node10 -->
<g id="node10" class="node">
<title>Node10</title>
<g id="a_node10"><a xlink:href="notetabwidget_8cpp.html" target="_top" xlink:title=" ">
<polygon fill="none" stroke="black" points="559,-19 452,-19 452,0 559,0 559,-19"/>
<text text-anchor="middle" x="505.5" y="-7" font-family="Helvetica,sans-Serif" font-size="10.00">notetabwidget.cpp</text>
</a>
</g>
</g>
<!-- Node9&#45;&gt;Node10 -->
<g id="edge15" class="edge">
<title>Node9&#45;&gt;Node10</title>
<path fill="none" stroke="midnightblue" d="M400.06,-51.29C425.45,-41.47 460.5,-27.91 483.09,-19.17"/>
<polygon fill="midnightblue" stroke="midnightblue" points="398.58,-48.11 390.51,-54.98 401.1,-54.64 398.58,-48.11"/>
</g>
</g>
</svg>
