<?xml version="1.0" encoding="UTF-8" standalone="no"?>
<!DOCTYPE svg PUBLIC "-//W3C//DTD SVG 1.1//EN"
 "http://www.w3.org/Graphics/SVG/1.1/DTD/svg11.dtd">
<!-- Generated by graphviz version 5.0.0 (0)
 -->
<!-- Title: container.h Pages: 1 -->
<svg width="682pt" height="192pt"
 viewBox="0.00 0.00 682.00 192.00" xmlns="http://www.w3.org/2000/svg" xmlns:xlink="http://www.w3.org/1999/xlink">
<g id="graph0" class="graph" transform="scale(1 1) rotate(0) translate(4 188)">
<title>container.h</title>
<!-- Node1 -->
<g id="node1" class="node">
<title>Node1</title>
<g id="a_node1"><a xlink:title=" ">
<polygon fill="#bfbfbf" stroke="black" points="281,-184 210,-184 210,-165 281,-165 281,-184"/>
<text text-anchor="middle" x="245.5" y="-172" font-family="Helvetica,sans-Serif" font-size="10.00">container.h</text>
</a>
</g>
</g>
<!-- Node2 -->
<g id="node2" class="node">
<title>Node2</title>
<g id="a_node2"><a xlink:href="container_8cpp.html" target="_top" xlink:title=" ">
<polygon fill="none" stroke="black" points="189.5,-19 107.5,-19 107.5,0 189.5,0 189.5,-19"/>
<text text-anchor="middle" x="148.5" y="-7" font-family="Helvetica,sans-Serif" font-size="10.00">container.cpp</text>
</a>
</g>
</g>
<!-- Node1&#45;&gt;Node2 -->
<g id="edge1" class="edge">
<title>Node1&#45;&gt;Node2</title>
<path fill="none" stroke="midnightblue" d="M224.5,-159.03C201.52,-141.81 165.89,-110.72 150.5,-74 142.83,-55.69 144.95,-31.73 146.9,-19.13"/>
<polygon fill="midnightblue" stroke="midnightblue" points="222.48,-161.88 232.63,-164.93 226.6,-156.22 222.48,-161.88"/>
</g>
<!-- Node3 -->
<g id="node3" class="node">
<title>Node3</title>
<g id="a_node3"><a xlink:href="floatimage_8cpp.html" target="_top" xlink:title=" ">
<polygon fill="none" stroke="black" points="89,-19 0,-19 0,0 89,0 89,-19"/>
<text text-anchor="middle" x="44.5" y="-7" font-family="Helvetica,sans-Serif" font-size="10.00">floatimage.cpp</text>
</a>
</g>
</g>
<!-- Node1&#45;&gt;Node3 -->
<g id="edge2" class="edge">
<title>Node1&#45;&gt;Node3</title>
<path fill="none" stroke="midnightblue" d="M219.66,-160.29C204.5,-152.09 185.29,-140.86 169.5,-129 121.2,-92.72 71.3,-39.92 52.39,-19.25"/>
<polygon fill="midnightblue" stroke="midnightblue" points="218.03,-163.39 228.5,-164.99 221.31,-157.21 218.03,-163.39"/>
</g>
<!-- Node4 -->
<g id="node4" class="node">
<title>Node4</title>
<g id="a_node4"><a xlink:href="floatimage_8h.html" target="_top" xlink:title=" ">
<polygon fill="none" stroke="black" points="237.5,-74 159.5,-74 159.5,-55 237.5,-55 237.5,-74"/>
<text text-anchor="middle" x="198.5" y="-62" font-family="Helvetica,sans-Serif" font-size="10.00">floatimage.h</text>
</a>
</g>
</g>
<!-- Node1&#45;&gt;Node4 -->
<g id="edge3" class="edge">
<title>Node1&#45;&gt;Node4</title>
<path fill="none" stroke="midnightblue" d="M237.64,-155.44C227.41,-131.92 209.92,-91.73 202.27,-74.16"/>
<polygon fill="midnightblue" stroke="midnightblue" points="234.45,-156.89 241.65,-164.66 240.87,-154.1 234.45,-156.89"/>
</g>
<!-- Node6 -->
<g id="node6" class="node">
<title>Node6</title>
<g id="a_node6"><a xlink:href="tabmainwidget_8cpp.html" target="_top" xlink:title=" ">
<polygon fill="none" stroke="black" points="317.5,-19 207.5,-19 207.5,0 317.5,0 317.5,-19"/>
<text text-anchor="middle" x="262.5" y="-7" font-family="Helvetica,sans-Serif" font-size="10.00">tabmainwidget.cpp</text>
</a>
</g>
</g>
<!-- Node1&#45;&gt;Node6 -->
<g id="edge20" class="edge">
<title>Node1&#45;&gt;Node6</title>
<path fill="none" stroke="midnightblue" d="M247.5,-154.37C251.18,-119.03 258.92,-44.79 261.58,-19.31"/>
<polygon fill="midnightblue" stroke="midnightblue" points="243.97,-154.43 246.41,-164.74 250.93,-155.15 243.97,-154.43"/>
</g>
<!-- Node7 -->
<g id="node7" class="node">
<title>Node7</title>
<g id="a_node7"><a xlink:href="floattextedit_8cpp.html" target="_top" xlink:title=" ">
<polygon fill="none" stroke="black" points="674,-19 577,-19 577,0 674,0 674,-19"/>
<text text-anchor="middle" x="625.5" y="-7" font-family="Helvetica,sans-Serif" font-size="10.00">floattextedit.cpp</text>
</a>
</g>
</g>
<!-- Node1&#45;&gt;Node7 -->
<g id="edge8" class="edge">
<title>Node1&#45;&gt;Node7</title>
<path fill="none" stroke="midnightblue" d="M291.38,-168.73C358.52,-159.85 485.05,-135.7 572.5,-74 594.09,-58.77 612.02,-32.63 620.4,-19.13"/>
<polygon fill="midnightblue" stroke="midnightblue" points="290.61,-165.3 281.13,-170.03 291.49,-172.25 290.61,-165.3"/>
</g>
<!-- Node8 -->
<g id="node8" class="node">
<title>Node8</title>
<g id="a_node8"><a xlink:href="mainwindow_8h.html" target="_top" xlink:title=" ">
<polygon fill="none" stroke="black" points="414,-129 327,-129 327,-110 414,-110 414,-129"/>
<text text-anchor="middle" x="370.5" y="-117" font-family="Helvetica,sans-Serif" font-size="10.00">mainwindow.h</text>
</a>
</g>
</g>
<!-- Node1&#45;&gt;Node8 -->
<g id="edge9" class="edge">
<title>Node1&#45;&gt;Node8</title>
<path fill="none" stroke="midnightblue" d="M274.91,-161.03C298.03,-151.23 329.63,-137.83 350.05,-129.17"/>
<polygon fill="midnightblue" stroke="midnightblue" points="273.42,-157.86 265.58,-164.98 276.16,-164.3 273.42,-157.86"/>
</g>
<!-- Node4&#45;&gt;Node2 -->
<g id="edge4" class="edge">
<title>Node4&#45;&gt;Node2</title>
<path fill="none" stroke="midnightblue" d="M183.16,-47.24C174.4,-37.95 163.76,-26.68 156.6,-19.09"/>
<polygon fill="midnightblue" stroke="midnightblue" points="180.84,-49.88 190.24,-54.75 185.93,-45.07 180.84,-49.88"/>
</g>
<!-- Node4&#45;&gt;Node3 -->
<g id="edge5" class="edge">
<title>Node4&#45;&gt;Node3</title>
<path fill="none" stroke="midnightblue" d="M164.12,-51.67C135.41,-41.79 95.14,-27.93 69.44,-19.08"/>
<polygon fill="midnightblue" stroke="midnightblue" points="163.16,-55.04 173.76,-54.98 165.44,-48.42 163.16,-55.04"/>
</g>
<!-- Node5 -->
<g id="node5" class="node">
<title>Node5</title>
<g id="a_node5"><a xlink:href="mainwindow_8cpp.html" target="_top" xlink:title=" ">
<polygon fill="none" stroke="black" points="433.5,-19 335.5,-19 335.5,0 433.5,0 433.5,-19"/>
<text text-anchor="middle" x="384.5" y="-7" font-family="Helvetica,sans-Serif" font-size="10.00">mainwindow.cpp</text>
</a>
</g>
</g>
<!-- Node4&#45;&gt;Node5 -->
<g id="edge6" class="edge">
<title>Node4&#45;&gt;Node5</title>
<path fill="none" stroke="midnightblue" d="M238.21,-52.18C273,-42.27 322.79,-28.08 354.38,-19.08"/>
<polygon fill="midnightblue" stroke="midnightblue" points="237.04,-48.88 228.38,-54.98 238.96,-55.61 237.04,-48.88"/>
</g>
<!-- Node4&#45;&gt;Node6 -->
<g id="edge7" class="edge">
<title>Node4&#45;&gt;Node6</title>
<path fill="none" stroke="midnightblue" d="M216.49,-48.6C227.96,-39.11 242.41,-27.13 252.03,-19.17"/>
<polygon fill="midnightblue" stroke="midnightblue" points="214.25,-45.91 208.78,-54.98 218.72,-51.3 214.25,-45.91"/>
</g>
<!-- Node8&#45;&gt;Node2 -->
<g id="edge10" class="edge">
<title>Node8&#45;&gt;Node2</title>
<path fill="none" stroke="midnightblue" d="M345.04,-105.02C320.09,-91.91 280.92,-71.62 246.5,-55 219.58,-42 188.03,-27.87 168.15,-19.1"/>
<polygon fill="midnightblue" stroke="midnightblue" points="343.7,-108.27 354.18,-109.83 346.96,-102.07 343.7,-108.27"/>
</g>
<!-- Node8&#45;&gt;Node5 -->
<g id="edge19" class="edge">
<title>Node8&#45;&gt;Node5</title>
<path fill="none" stroke="midnightblue" d="M363.77,-100.27C359.98,-87.48 356.7,-70.05 360.5,-55 363.89,-41.55 372.24,-27.75 378.13,-19.16"/>
<polygon fill="midnightblue" stroke="midnightblue" points="360.45,-101.39 366.93,-109.77 367.09,-99.18 360.45,-101.39"/>
</g>
<!-- Node8&#45;&gt;Node7 -->
<g id="edge11" class="edge">
<title>Node8&#45;&gt;Node7</title>
<path fill="none" stroke="midnightblue" d="M424.22,-110.69C459.68,-104.14 506.44,-92.75 544.5,-74 574,-59.47 602.94,-33.02 616.88,-19.3"/>
<polygon fill="midnightblue" stroke="midnightblue" points="423.31,-107.3 414.07,-112.5 424.53,-114.19 423.31,-107.3"/>
</g>
<!-- Node9 -->
<g id="node9" class="node">
<title>Node9</title>
<g id="a_node9"><a xlink:href="floattextedit_8h.html" target="_top" xlink:title=" ">
<polygon fill="none" stroke="black" points="535.5,-74 449.5,-74 449.5,-55 535.5,-55 535.5,-74"/>
<text text-anchor="middle" x="492.5" y="-62" font-family="Helvetica,sans-Serif" font-size="10.00">floattextedit.h</text>
</a>
</g>
</g>
<!-- Node8&#45;&gt;Node9 -->
<g id="edge12" class="edge">
<title>Node8&#45;&gt;Node9</title>
<path fill="none" stroke="midnightblue" d="M399.51,-105.9C422.04,-96.11 452.7,-82.79 472.54,-74.17"/>
<polygon fill="midnightblue" stroke="midnightblue" points="397.88,-102.79 390.1,-109.98 400.67,-109.21 397.88,-102.79"/>
</g>
<!-- Node11 -->
<g id="node11" class="node">
<title>Node11</title>
<g id="a_node11"><a xlink:href="main_8cpp.html" target="_top" xlink:title=" ">
<polygon fill="none" stroke="black" points="431.5,-74 369.5,-74 369.5,-55 431.5,-55 431.5,-74"/>
<text text-anchor="middle" x="400.5" y="-62" font-family="Helvetica,sans-Serif" font-size="10.00">main.cpp</text>
</a>
</g>
</g>
<!-- Node8&#45;&gt;Node11 -->
<g id="edge18" class="edge">
<title>Node8&#45;&gt;Node11</title>
<path fill="none" stroke="midnightblue" d="M380.51,-100.82C385.6,-91.82 391.56,-81.29 395.64,-74.09"/>
<polygon fill="midnightblue" stroke="midnightblue" points="377.33,-99.32 375.45,-109.75 383.43,-102.77 377.33,-99.32"/>
</g>
<!-- Node9&#45;&gt;Node2 -->
<g id="edge13" class="edge">
<title>Node9&#45;&gt;Node2</title>
<path fill="none" stroke="midnightblue" d="M439.38,-54.85C331.4,-38.09 302.74,-35.61 198.5,-19 195.63,-18.54 192.67,-18.06 189.69,-17.57"/>
<polygon fill="midnightblue" stroke="midnightblue" points="438.96,-58.32 449.38,-56.4 440.03,-51.41 438.96,-58.32"/>
</g>
<!-- Node9&#45;&gt;Node5 -->
<g id="edge15" class="edge">
<title>Node9&#45;&gt;Node5</title>
<path fill="none" stroke="midnightblue" d="M466.01,-50.5C446.14,-40.75 419.5,-27.68 402.17,-19.17"/>
<polygon fill="midnightblue" stroke="midnightblue" points="464.63,-53.72 475.15,-54.98 467.71,-47.44 464.63,-53.72"/>
</g>
<!-- Node9&#45;&gt;Node6 -->
<g id="edge17" class="edge">
<title>Node9&#45;&gt;Node6</title>
<path fill="none" stroke="midnightblue" d="M445.59,-52.69C402.5,-42.76 339.47,-28.24 299.74,-19.08"/>
<polygon fill="midnightblue" stroke="midnightblue" points="445.02,-56.15 455.55,-54.98 446.59,-49.33 445.02,-56.15"/>
</g>
<!-- Node9&#45;&gt;Node7 -->
<g id="edge14" class="edge">
<title>Node9&#45;&gt;Node7</title>
<path fill="none" stroke="midnightblue" d="M523.47,-51.16C548.09,-41.35 581.91,-27.87 603.74,-19.17"/>
<polygon fill="midnightblue" stroke="midnightblue" points="521.86,-48.03 513.87,-54.98 524.45,-54.53 521.86,-48.03"/>
</g>
<!-- Node10 -->
<g id="node10" class="node">
<title>Node10</title>
<g id="a_node10"><a xlink:href="notetabwidget_8cpp.html" target="_top" xlink:title=" ">
<polygon fill="none" stroke="black" points="559,-19 452,-19 452,0 559,0 559,-19"/>
<text text-anchor="middle" x="505.5" y="-7" font-family="Helvetica,sans-Serif" font-size="10.00">notetabwidget.cpp</text>
</a>
</g>
</g>
<!-- Node9&#45;&gt;Node10 -->
<g id="edge16" class="edge">
<title>Node9&#45;&gt;Node10</title>
<path fill="none" stroke="midnightblue" d="M497.05,-44.95C499.21,-36.15 501.68,-26.06 503.39,-19.09"/>
<polygon fill="midnightblue" stroke="midnightblue" points="493.63,-44.2 494.65,-54.75 500.43,-45.87 493.63,-44.2"/>
</g>
</g>
</svg>
