<?xml version="1.0" encoding="UTF-8" standalone="no"?>
<!DOCTYPE svg PUBLIC "-//W3C//DTD SVG 1.1//EN"
 "http://www.w3.org/Graphics/SVG/1.1/DTD/svg11.dtd">
<!-- Generated by graphviz version 5.0.0 (0)
 -->
<!-- Title: contextmenu.h Pages: 1 -->
<svg width="576pt" height="192pt"
 viewBox="0.00 0.00 576.00 192.00" xmlns="http://www.w3.org/2000/svg" xmlns:xlink="http://www.w3.org/1999/xlink">
<g id="graph0" class="graph" transform="scale(1 1) rotate(0) translate(4 188)">
<title>contextmenu.h</title>
<!-- Node1 -->
<g id="node1" class="node">
<title>Node1</title>
<g id="a_node1"><a xlink:title=" ">
<polygon fill="#bfbfbf" stroke="black" points="345,-184 255,-184 255,-165 345,-165 345,-184"/>
<text text-anchor="middle" x="300" y="-172" font-family="Helvetica,sans-Serif" font-size="10.00">contextmenu.h</text>
</a>
</g>
</g>
<!-- Node2 -->
<g id="node2" class="node">
<title>Node2</title>
<g id="a_node2"><a xlink:href="contextmenu_8cpp.html" target="_top" xlink:title=" ">
<polygon fill="none" stroke="black" points="238.5,-129 137.5,-129 137.5,-110 238.5,-110 238.5,-129"/>
<text text-anchor="middle" x="188" y="-117" font-family="Helvetica,sans-Serif" font-size="10.00">contextmenu.cpp</text>
</a>
</g>
</g>
<!-- Node1&#45;&gt;Node2 -->
<g id="edge1" class="edge">
<title>Node1&#45;&gt;Node2</title>
<path fill="none" stroke="midnightblue" d="M272.81,-160.63C252.18,-150.87 224.38,-137.71 206.32,-129.17"/>
<polygon fill="midnightblue" stroke="midnightblue" points="271.47,-163.87 282.01,-164.98 274.46,-157.54 271.47,-163.87"/>
</g>
<!-- Node3 -->
<g id="node3" class="node">
<title>Node3</title>
<g id="a_node3"><a xlink:href="mainwindow_8h.html" target="_top" xlink:title=" ">
<polygon fill="none" stroke="black" points="343.5,-129 256.5,-129 256.5,-110 343.5,-110 343.5,-129"/>
<text text-anchor="middle" x="300" y="-117" font-family="Helvetica,sans-Serif" font-size="10.00">mainwindow.h</text>
</a>
</g>
</g>
<!-- Node1&#45;&gt;Node3 -->
<g id="edge2" class="edge">
<title>Node1&#45;&gt;Node3</title>
<path fill="none" stroke="midnightblue" d="M300,-154.66C300,-145.93 300,-135.99 300,-129.09"/>
<polygon fill="midnightblue" stroke="midnightblue" points="296.5,-154.75 300,-164.75 303.5,-154.75 296.5,-154.75"/>
</g>
<!-- Node11 -->
<g id="node11" class="node">
<title>Node11</title>
<g id="a_node11"><a xlink:href="tabmainwidget_8h.html" target="_top" xlink:title=" ">
<polygon fill="none" stroke="black" points="479.5,-74 380.5,-74 380.5,-55 479.5,-55 479.5,-74"/>
<text text-anchor="middle" x="430" y="-62" font-family="Helvetica,sans-Serif" font-size="10.00">tabmainwidget.h</text>
</a>
</g>
</g>
<!-- Node1&#45;&gt;Node11 -->
<g id="edge13" class="edge">
<title>Node1&#45;&gt;Node11</title>
<path fill="none" stroke="midnightblue" d="M318.41,-158.21C346.1,-135.2 397.57,-92.44 419.58,-74.16"/>
<polygon fill="midnightblue" stroke="midnightblue" points="316.09,-155.58 310.64,-164.66 320.57,-160.96 316.09,-155.58"/>
</g>
<!-- Node4 -->
<g id="node4" class="node">
<title>Node4</title>
<g id="a_node4"><a xlink:href="container_8cpp.html" target="_top" xlink:title=" ">
<polygon fill="none" stroke="black" points="82,-19 0,-19 0,0 82,0 82,-19"/>
<text text-anchor="middle" x="41" y="-7" font-family="Helvetica,sans-Serif" font-size="10.00">container.cpp</text>
</a>
</g>
</g>
<!-- Node3&#45;&gt;Node4 -->
<g id="edge3" class="edge">
<title>Node3&#45;&gt;Node4</title>
<path fill="none" stroke="midnightblue" d="M251.69,-107.48C221.52,-99.82 182.23,-88.41 149,-74 112.48,-58.17 72.98,-32.52 53.43,-19.18"/>
<polygon fill="midnightblue" stroke="midnightblue" points="251,-110.92 261.55,-109.94 252.69,-104.12 251,-110.92"/>
</g>
<!-- Node5 -->
<g id="node5" class="node">
<title>Node5</title>
<g id="a_node5"><a xlink:href="floattextedit_8cpp.html" target="_top" xlink:title=" ">
<polygon fill="none" stroke="black" points="451.5,-19 354.5,-19 354.5,0 451.5,0 451.5,-19"/>
<text text-anchor="middle" x="403" y="-7" font-family="Helvetica,sans-Serif" font-size="10.00">floattextedit.cpp</text>
</a>
</g>
</g>
<!-- Node3&#45;&gt;Node5 -->
<g id="edge4" class="edge">
<title>Node3&#45;&gt;Node5</title>
<path fill="none" stroke="midnightblue" d="M315.45,-102.3C337.58,-79.1 377.53,-37.21 394.74,-19.16"/>
<polygon fill="midnightblue" stroke="midnightblue" points="312.8,-100.01 308.43,-109.66 317.86,-104.84 312.8,-100.01"/>
</g>
<!-- Node6 -->
<g id="node6" class="node">
<title>Node6</title>
<g id="a_node6"><a xlink:href="floattextedit_8h.html" target="_top" xlink:title=" ">
<polygon fill="none" stroke="black" points="324,-74 238,-74 238,-55 324,-55 324,-74"/>
<text text-anchor="middle" x="281" y="-62" font-family="Helvetica,sans-Serif" font-size="10.00">floattextedit.h</text>
</a>
</g>
</g>
<!-- Node3&#45;&gt;Node6 -->
<g id="edge5" class="edge">
<title>Node3&#45;&gt;Node6</title>
<path fill="none" stroke="midnightblue" d="M293.45,-100.24C290.28,-91.37 286.61,-81.14 284.08,-74.09"/>
<polygon fill="midnightblue" stroke="midnightblue" points="290.19,-101.52 296.86,-109.75 296.78,-99.15 290.19,-101.52"/>
</g>
<!-- Node7 -->
<g id="node7" class="node">
<title>Node7</title>
<g id="a_node7"><a xlink:href="mainwindow_8cpp.html" target="_top" xlink:title=" ">
<polygon fill="none" stroke="black" points="568,-19 470,-19 470,0 568,0 568,-19"/>
<text text-anchor="middle" x="519" y="-7" font-family="Helvetica,sans-Serif" font-size="10.00">mainwindow.cpp</text>
</a>
</g>
</g>
<!-- Node3&#45;&gt;Node7 -->
<g id="edge12" class="edge">
<title>Node3&#45;&gt;Node7</title>
<path fill="none" stroke="midnightblue" d="M353.8,-117.8C394.6,-114.64 449.97,-104.41 488,-74 505.63,-59.9 513.93,-33.27 517.21,-19.4"/>
<polygon fill="midnightblue" stroke="midnightblue" points="353.5,-114.31 343.76,-118.46 353.96,-121.3 353.5,-114.31"/>
</g>
<!-- Node10 -->
<g id="node10" class="node">
<title>Node10</title>
<g id="a_node10"><a xlink:href="main_8cpp.html" target="_top" xlink:title=" ">
<polygon fill="none" stroke="black" points="220,-74 158,-74 158,-55 220,-55 220,-74"/>
<text text-anchor="middle" x="189" y="-62" font-family="Helvetica,sans-Serif" font-size="10.00">main.cpp</text>
</a>
</g>
</g>
<!-- Node3&#45;&gt;Node10 -->
<g id="edge11" class="edge">
<title>Node3&#45;&gt;Node10</title>
<path fill="none" stroke="midnightblue" d="M273.05,-105.63C252.61,-95.87 225.05,-82.71 207.16,-74.17"/>
<polygon fill="midnightblue" stroke="midnightblue" points="271.63,-108.83 282.17,-109.98 274.65,-102.52 271.63,-108.83"/>
</g>
<!-- Node6&#45;&gt;Node4 -->
<g id="edge6" class="edge">
<title>Node6&#45;&gt;Node4</title>
<path fill="none" stroke="midnightblue" d="M232.62,-52.82C187.64,-42.88 121.5,-28.28 79.86,-19.08"/>
<polygon fill="midnightblue" stroke="midnightblue" points="231.92,-56.25 242.44,-54.98 233.43,-49.41 231.92,-56.25"/>
</g>
<!-- Node6&#45;&gt;Node5 -->
<g id="edge7" class="edge">
<title>Node6&#45;&gt;Node5</title>
<path fill="none" stroke="midnightblue" d="M310.01,-50.9C332.54,-41.11 363.2,-27.79 383.04,-19.17"/>
<polygon fill="midnightblue" stroke="midnightblue" points="308.38,-47.79 300.6,-54.98 311.17,-54.21 308.38,-47.79"/>
</g>
<!-- Node6&#45;&gt;Node7 -->
<g id="edge8" class="edge">
<title>Node6&#45;&gt;Node7</title>
<path fill="none" stroke="midnightblue" d="M329.26,-52.75C373.86,-42.82 439.26,-28.26 480.46,-19.08"/>
<polygon fill="midnightblue" stroke="midnightblue" points="328.24,-49.39 319.24,-54.98 329.76,-56.23 328.24,-49.39"/>
</g>
<!-- Node8 -->
<g id="node8" class="node">
<title>Node8</title>
<g id="a_node8"><a xlink:href="notetabwidget_8cpp.html" target="_top" xlink:title=" ">
<polygon fill="none" stroke="black" points="207.5,-19 100.5,-19 100.5,0 207.5,0 207.5,-19"/>
<text text-anchor="middle" x="154" y="-7" font-family="Helvetica,sans-Serif" font-size="10.00">notetabwidget.cpp</text>
</a>
</g>
</g>
<!-- Node6&#45;&gt;Node8 -->
<g id="edge9" class="edge">
<title>Node6&#45;&gt;Node8</title>
<path fill="none" stroke="midnightblue" d="M251.12,-51.03C227.63,-41.23 195.53,-27.83 174.78,-19.17"/>
<polygon fill="midnightblue" stroke="midnightblue" points="250.02,-54.36 260.6,-54.98 252.71,-47.9 250.02,-54.36"/>
</g>
<!-- Node9 -->
<g id="node9" class="node">
<title>Node9</title>
<g id="a_node9"><a xlink:href="tabmainwidget_8cpp.html" target="_top" xlink:title=" ">
<polygon fill="none" stroke="black" points="336,-19 226,-19 226,0 336,0 336,-19"/>
<text text-anchor="middle" x="281" y="-7" font-family="Helvetica,sans-Serif" font-size="10.00">tabmainwidget.cpp</text>
</a>
</g>
</g>
<!-- Node6&#45;&gt;Node9 -->
<g id="edge10" class="edge">
<title>Node6&#45;&gt;Node9</title>
<path fill="none" stroke="midnightblue" d="M281,-44.66C281,-35.93 281,-25.99 281,-19.09"/>
<polygon fill="midnightblue" stroke="midnightblue" points="277.5,-44.75 281,-54.75 284.5,-44.75 277.5,-44.75"/>
</g>
<!-- Node11&#45;&gt;Node5 -->
<g id="edge14" class="edge">
<title>Node11&#45;&gt;Node5</title>
<path fill="none" stroke="midnightblue" d="M420.99,-45.82C416.41,-36.82 411.05,-26.29 407.38,-19.09"/>
<polygon fill="midnightblue" stroke="midnightblue" points="417.88,-47.43 425.54,-54.75 424.12,-44.25 417.88,-47.43"/>
</g>
<!-- Node11&#45;&gt;Node7 -->
<g id="edge15" class="edge">
<title>Node11&#45;&gt;Node7</title>
<path fill="none" stroke="midnightblue" d="M453.18,-49.7C469.39,-40.04 490.55,-27.44 504.44,-19.17"/>
<polygon fill="midnightblue" stroke="midnightblue" points="451.1,-46.86 444.3,-54.98 454.68,-52.88 451.1,-46.86"/>
</g>
<!-- Node11&#45;&gt;Node9 -->
<g id="edge16" class="edge">
<title>Node11&#45;&gt;Node9</title>
<path fill="none" stroke="midnightblue" d="M396.41,-51.55C368.74,-41.71 330.16,-27.98 305.38,-19.17"/>
<polygon fill="midnightblue" stroke="midnightblue" points="395.47,-54.93 406.06,-54.98 397.81,-48.34 395.47,-54.93"/>
</g>
</g>
</svg>
