<?xml version="1.0" encoding="UTF-8" standalone="no"?>
<!DOCTYPE svg PUBLIC "-//W3C//DTD SVG 1.1//EN"
 "http://www.w3.org/Graphics/SVG/1.1/DTD/svg11.dtd">
<!-- Generated by graphviz version 5.0.0 (0)
 -->
<!-- Title: container.cpp Pages: 1 -->
<svg width="856pt" height="247pt"
 viewBox="0.00 0.00 856.00 247.00" xmlns="http://www.w3.org/2000/svg" xmlns:xlink="http://www.w3.org/1999/xlink">
<g id="graph0" class="graph" transform="scale(1 1) rotate(0) translate(4 243)">
<title>container.cpp</title>
<!-- Node1 -->
<g id="node1" class="node">
<title>Node1</title>
<g id="a_node1"><a xlink:title=" ">
<polygon fill="#bfbfbf" stroke="black" points="591.5,-239 509.5,-239 509.5,-220 591.5,-220 591.5,-239"/>
<text text-anchor="middle" x="550.5" y="-227" font-family="Helvetica,sans-Serif" font-size="10.00">container.cpp</text>
</a>
</g>
</g>
<!-- Node2 -->
<g id="node2" class="node">
<title>Node2</title>
<g id="a_node2"><a xlink:href="container_8h.html" target="_top" xlink:title=" ">
<polygon fill="none" stroke="black" points="469,-74 398,-74 398,-55 469,-55 469,-74"/>
<text text-anchor="middle" x="433.5" y="-62" font-family="Helvetica,sans-Serif" font-size="10.00">container.h</text>
</a>
</g>
</g>
<!-- Node1&#45;&gt;Node2 -->
<g id="edge1" class="edge">
<title>Node1&#45;&gt;Node2</title>
<path fill="none" stroke="midnightblue" d="M531.83,-219.92C517.02,-212.3 496.69,-199.91 483.5,-184 458.42,-153.73 444.19,-109.06 437.75,-84.1"/>
<polygon fill="midnightblue" stroke="midnightblue" points="441.09,-83.03 435.32,-74.15 434.29,-84.69 441.09,-83.03"/>
</g>
<!-- Node5 -->
<g id="node5" class="node">
<title>Node5</title>
<g id="a_node5"><a xlink:href="floattextedit_8h.html" target="_top" xlink:title=" ">
<polygon fill="none" stroke="black" points="404.5,-184 318.5,-184 318.5,-165 404.5,-165 404.5,-184"/>
<text text-anchor="middle" x="361.5" y="-172" font-family="Helvetica,sans-Serif" font-size="10.00">floattextedit.h</text>
</a>
</g>
</g>
<!-- Node1&#45;&gt;Node5 -->
<g id="edge4" class="edge">
<title>Node1&#45;&gt;Node5</title>
<path fill="none" stroke="midnightblue" d="M520.13,-219.98C488.13,-211.01 437.54,-196.82 402.12,-186.89"/>
<polygon fill="midnightblue" stroke="midnightblue" points="402.68,-183.41 392.1,-184.08 400.79,-190.15 402.68,-183.41"/>
</g>
<!-- Node12 -->
<g id="node12" class="node">
<title>Node12</title>
<g id="a_node12"><a xlink:href="floatimage_8h.html" target="_top" xlink:title=" ">
<polygon fill="none" stroke="black" points="551.5,-129 473.5,-129 473.5,-110 551.5,-110 551.5,-129"/>
<text text-anchor="middle" x="512.5" y="-117" font-family="Helvetica,sans-Serif" font-size="10.00">floatimage.h</text>
</a>
</g>
</g>
<!-- Node1&#45;&gt;Node12 -->
<g id="edge13" class="edge">
<title>Node1&#45;&gt;Node12</title>
<path fill="none" stroke="midnightblue" d="M531.23,-219.9C517.38,-212.55 499.74,-200.54 491.5,-184 484,-168.95 491.71,-150.6 499.82,-137.51"/>
<polygon fill="midnightblue" stroke="midnightblue" points="502.86,-139.26 505.58,-129.02 497.07,-135.33 502.86,-139.26"/>
</g>
<!-- Node15 -->
<g id="node15" class="node">
<title>Node15</title>
<g id="a_node15"><a xlink:title=" ">
<polygon fill="none" stroke="#bfbfbf" points="601,-184 500,-184 500,-165 601,-165 601,-184"/>
<text text-anchor="middle" x="550.5" y="-172" font-family="Helvetica,sans-Serif" font-size="10.00">ui_mainwindow.h</text>
</a>
</g>
</g>
<!-- Node1&#45;&gt;Node15 -->
<g id="edge18" class="edge">
<title>Node1&#45;&gt;Node15</title>
<path fill="none" stroke="midnightblue" d="M550.5,-219.75C550.5,-212.8 550.5,-202.85 550.5,-194.13"/>
<polygon fill="midnightblue" stroke="midnightblue" points="554,-194.09 550.5,-184.09 547,-194.09 554,-194.09"/>
</g>
<!-- Node16 -->
<g id="node16" class="node">
<title>Node16</title>
<g id="a_node16"><a xlink:title=" ">
<polygon fill="none" stroke="#bfbfbf" points="679.5,-184 619.5,-184 619.5,-165 679.5,-165 679.5,-184"/>
<text text-anchor="middle" x="649.5" y="-172" font-family="Helvetica,sans-Serif" font-size="10.00">iostream</text>
</a>
</g>
</g>
<!-- Node1&#45;&gt;Node16 -->
<g id="edge19" class="edge">
<title>Node1&#45;&gt;Node16</title>
<path fill="none" stroke="midnightblue" d="M566.41,-219.98C582.05,-211.61 606.16,-198.7 624.38,-188.95"/>
<polygon fill="midnightblue" stroke="midnightblue" points="626.14,-191.98 633.3,-184.17 622.84,-185.8 626.14,-191.98"/>
</g>
<!-- Node17 -->
<g id="node17" class="node">
<title>Node17</title>
<g id="a_node17"><a xlink:title=" ">
<polygon fill="none" stroke="#bfbfbf" points="781.5,-184 697.5,-184 697.5,-165 781.5,-165 781.5,-184"/>
<text text-anchor="middle" x="739.5" y="-172" font-family="Helvetica,sans-Serif" font-size="10.00">QMouseEvent</text>
</a>
</g>
</g>
<!-- Node1&#45;&gt;Node17 -->
<g id="edge20" class="edge">
<title>Node1&#45;&gt;Node17</title>
<path fill="none" stroke="midnightblue" d="M580.87,-219.98C612.87,-211.01 663.46,-196.82 698.88,-186.89"/>
<polygon fill="midnightblue" stroke="midnightblue" points="700.21,-190.15 708.9,-184.08 698.32,-183.41 700.21,-190.15"/>
</g>
<!-- Node18 -->
<g id="node18" class="node">
<title>Node18</title>
<g id="a_node18"><a xlink:title=" ">
<polygon fill="none" stroke="#bfbfbf" points="848,-184 799,-184 799,-165 848,-165 848,-184"/>
<text text-anchor="middle" x="823.5" y="-172" font-family="Helvetica,sans-Serif" font-size="10.00">QStyle</text>
</a>
</g>
</g>
<!-- Node1&#45;&gt;Node18 -->
<g id="edge21" class="edge">
<title>Node1&#45;&gt;Node18</title>
<path fill="none" stroke="midnightblue" d="M591.87,-221.72C637.78,-214 714.26,-200.55 788.67,-184.29"/>
<polygon fill="midnightblue" stroke="midnightblue" points="789.67,-187.66 798.68,-182.09 788.16,-180.82 789.67,-187.66"/>
</g>
<!-- Node3 -->
<g id="node3" class="node">
<title>Node3</title>
<g id="a_node3"><a xlink:title=" ">
<polygon fill="none" stroke="#bfbfbf" points="529,-19 470,-19 470,0 529,0 529,-19"/>
<text text-anchor="middle" x="499.5" y="-7" font-family="Helvetica,sans-Serif" font-size="10.00">QWidget</text>
</a>
</g>
</g>
<!-- Node2&#45;&gt;Node3 -->
<g id="edge2" class="edge">
<title>Node2&#45;&gt;Node3</title>
<path fill="none" stroke="midnightblue" d="M444.1,-54.98C453.96,-47.07 468.85,-35.11 480.72,-25.58"/>
<polygon fill="midnightblue" stroke="midnightblue" points="483.1,-28.16 488.7,-19.17 478.71,-22.7 483.1,-28.16"/>
</g>
<!-- Node4 -->
<g id="node4" class="node">
<title>Node4</title>
<g id="a_node4"><a xlink:title=" ">
<polygon fill="none" stroke="#bfbfbf" points="352,-19 297,-19 297,0 352,0 352,-19"/>
<text text-anchor="middle" x="324.5" y="-7" font-family="Helvetica,sans-Serif" font-size="10.00">QFrame</text>
</a>
</g>
</g>
<!-- Node2&#45;&gt;Node4 -->
<g id="edge3" class="edge">
<title>Node2&#45;&gt;Node4</title>
<path fill="none" stroke="midnightblue" d="M415.99,-54.98C398.53,-46.5 371.49,-33.35 351.33,-23.54"/>
<polygon fill="midnightblue" stroke="midnightblue" points="352.86,-20.4 342.33,-19.17 349.79,-26.69 352.86,-20.4"/>
</g>
<!-- Node6 -->
<g id="node6" class="node">
<title>Node6</title>
<g id="a_node6"><a xlink:title=" ">
<polygon fill="none" stroke="#bfbfbf" points="393,-129 330,-129 330,-110 393,-110 393,-129"/>
<text text-anchor="middle" x="361.5" y="-117" font-family="Helvetica,sans-Serif" font-size="10.00">QTextEdit</text>
</a>
</g>
</g>
<!-- Node5&#45;&gt;Node6 -->
<g id="edge5" class="edge">
<title>Node5&#45;&gt;Node6</title>
<path fill="none" stroke="midnightblue" d="M361.5,-164.75C361.5,-157.8 361.5,-147.85 361.5,-139.13"/>
<polygon fill="midnightblue" stroke="midnightblue" points="365,-139.09 361.5,-129.09 358,-139.09 365,-139.09"/>
</g>
<!-- Node7 -->
<g id="node7" class="node">
<title>Node7</title>
<g id="a_node7"><a xlink:href="mainwindow_8h.html" target="_top" xlink:title=" ">
<polygon fill="none" stroke="black" points="311,-129 224,-129 224,-110 311,-110 311,-129"/>
<text text-anchor="middle" x="267.5" y="-117" font-family="Helvetica,sans-Serif" font-size="10.00">mainwindow.h</text>
</a>
</g>
</g>
<!-- Node5&#45;&gt;Node7 -->
<g id="edge6" class="edge">
<title>Node5&#45;&gt;Node7</title>
<path fill="none" stroke="midnightblue" d="M346.4,-164.98C331.68,-156.69 309.08,-143.94 291.83,-134.22"/>
<polygon fill="midnightblue" stroke="midnightblue" points="293.31,-131.03 282.88,-129.17 289.87,-137.13 293.31,-131.03"/>
</g>
<!-- Node7&#45;&gt;Node2 -->
<g id="edge10" class="edge">
<title>Node7&#45;&gt;Node2</title>
<path fill="none" stroke="midnightblue" d="M294.17,-109.98C322.04,-101.09 365.95,-87.07 397.02,-77.15"/>
<polygon fill="midnightblue" stroke="midnightblue" points="398.16,-80.46 406.62,-74.08 396.03,-73.79 398.16,-80.46"/>
</g>
<!-- Node8 -->
<g id="node8" class="node">
<title>Node8</title>
<g id="a_node8"><a xlink:title=" ">
<polygon fill="none" stroke="#bfbfbf" points="309,-74 222,-74 222,-55 309,-55 309,-74"/>
<text text-anchor="middle" x="265.5" y="-62" font-family="Helvetica,sans-Serif" font-size="10.00">QMainWindow</text>
</a>
</g>
</g>
<!-- Node7&#45;&gt;Node8 -->
<g id="edge7" class="edge">
<title>Node7&#45;&gt;Node8</title>
<path fill="none" stroke="midnightblue" d="M267.17,-109.75C266.91,-102.8 266.53,-92.85 266.2,-84.13"/>
<polygon fill="midnightblue" stroke="midnightblue" points="269.7,-83.95 265.82,-74.09 262.7,-84.21 269.7,-83.95"/>
</g>
<!-- Node9 -->
<g id="node9" class="node">
<title>Node9</title>
<g id="a_node9"><a xlink:title=" ">
<polygon fill="none" stroke="#bfbfbf" points="380,-74 327,-74 327,-55 380,-55 380,-74"/>
<text text-anchor="middle" x="353.5" y="-62" font-family="Helvetica,sans-Serif" font-size="10.00">QString</text>
</a>
</g>
</g>
<!-- Node7&#45;&gt;Node9 -->
<g id="edge8" class="edge">
<title>Node7&#45;&gt;Node9</title>
<path fill="none" stroke="midnightblue" d="M281.32,-109.98C294.65,-101.77 315.08,-89.18 330.81,-79.49"/>
<polygon fill="midnightblue" stroke="midnightblue" points="332.75,-82.4 339.43,-74.17 329.08,-76.44 332.75,-82.4"/>
</g>
<!-- Node10 -->
<g id="node10" class="node">
<title>Node10</title>
<g id="a_node10"><a xlink:title=" ">
<polygon fill="none" stroke="#bfbfbf" points="95,-74 0,-74 0,-55 95,-55 95,-74"/>
<text text-anchor="middle" x="47.5" y="-62" font-family="Helvetica,sans-Serif" font-size="10.00">QTextDocument</text>
</a>
</g>
</g>
<!-- Node7&#45;&gt;Node10 -->
<g id="edge9" class="edge">
<title>Node7&#45;&gt;Node10</title>
<path fill="none" stroke="midnightblue" d="M232.15,-109.98C194.34,-100.87 134.24,-86.4 92.93,-76.45"/>
<polygon fill="midnightblue" stroke="midnightblue" points="93.67,-73.02 83.12,-74.08 92.03,-79.83 93.67,-73.02"/>
</g>
<!-- Node11 -->
<g id="node11" class="node">
<title>Node11</title>
<g id="a_node11"><a xlink:href="contextmenu_8h.html" target="_top" xlink:title=" ">
<polygon fill="none" stroke="black" points="203.5,-74 113.5,-74 113.5,-55 203.5,-55 203.5,-74"/>
<text text-anchor="middle" x="158.5" y="-62" font-family="Helvetica,sans-Serif" font-size="10.00">contextmenu.h</text>
</a>
</g>
</g>
<!-- Node7&#45;&gt;Node11 -->
<g id="edge11" class="edge">
<title>Node7&#45;&gt;Node11</title>
<path fill="none" stroke="midnightblue" d="M249.99,-109.98C232.53,-101.5 205.49,-88.35 185.33,-78.54"/>
<polygon fill="midnightblue" stroke="midnightblue" points="186.86,-75.4 176.33,-74.17 183.79,-81.69 186.86,-75.4"/>
</g>
<!-- Node11&#45;&gt;Node4 -->
<g id="edge12" class="edge">
<title>Node11&#45;&gt;Node4</title>
<path fill="none" stroke="midnightblue" d="M185.17,-54.98C213.04,-46.09 256.95,-32.07 288.02,-22.15"/>
<polygon fill="midnightblue" stroke="midnightblue" points="289.16,-25.46 297.62,-19.08 287.03,-18.79 289.16,-25.46"/>
</g>
<!-- Node12&#45;&gt;Node2 -->
<g id="edge17" class="edge">
<title>Node12&#45;&gt;Node2</title>
<path fill="none" stroke="midnightblue" d="M499.81,-109.98C487.67,-101.84 469.14,-89.41 454.75,-79.76"/>
<polygon fill="midnightblue" stroke="midnightblue" points="456.68,-76.84 446.42,-74.17 452.78,-82.65 456.68,-76.84"/>
</g>
<!-- Node12&#45;&gt;Node3 -->
<g id="edge15" class="edge">
<title>Node12&#45;&gt;Node3</title>
<path fill="none" stroke="midnightblue" d="M522.93,-109.7C535.87,-97.65 555.2,-75.22 546.5,-55 541.35,-43.03 531.21,-32.76 521.67,-25.12"/>
<polygon fill="midnightblue" stroke="midnightblue" points="523.69,-22.26 513.57,-19.11 519.51,-27.88 523.69,-22.26"/>
</g>
<!-- Node13 -->
<g id="node13" class="node">
<title>Node13</title>
<g id="a_node13"><a xlink:title=" ">
<polygon fill="none" stroke="#bfbfbf" points="649.5,-74 593.5,-74 593.5,-55 649.5,-55 649.5,-74"/>
<text text-anchor="middle" x="621.5" y="-62" font-family="Helvetica,sans-Serif" font-size="10.00">QObject</text>
</a>
</g>
</g>
<!-- Node12&#45;&gt;Node13 -->
<g id="edge14" class="edge">
<title>Node12&#45;&gt;Node13</title>
<path fill="none" stroke="midnightblue" d="M530.01,-109.98C547.47,-101.5 574.51,-88.35 594.67,-78.54"/>
<polygon fill="midnightblue" stroke="midnightblue" points="596.21,-81.69 603.67,-74.17 593.14,-75.4 596.21,-81.69"/>
</g>
<!-- Node14 -->
<g id="node14" class="node">
<title>Node14</title>
<g id="a_node14"><a xlink:title=" ">
<polygon fill="none" stroke="#bfbfbf" points="537.5,-74 487.5,-74 487.5,-55 537.5,-55 537.5,-74"/>
<text text-anchor="middle" x="512.5" y="-62" font-family="Helvetica,sans-Serif" font-size="10.00">QLabel</text>
</a>
</g>
</g>
<!-- Node12&#45;&gt;Node14 -->
<g id="edge16" class="edge">
<title>Node12&#45;&gt;Node14</title>
<path fill="none" stroke="midnightblue" d="M512.5,-109.75C512.5,-102.8 512.5,-92.85 512.5,-84.13"/>
<polygon fill="midnightblue" stroke="midnightblue" points="516,-84.09 512.5,-74.09 509,-84.09 516,-84.09"/>
</g>
</g>
</svg>
