<?xml version="1.0" encoding="UTF-8" standalone="no"?>
<!DOCTYPE svg PUBLIC "-//W3C//DTD SVG 1.1//EN"
 "http://www.w3.org/Graphics/SVG/1.1/DTD/svg11.dtd">
<!-- Generated by graphviz version 5.0.0 (0)
 -->
<!-- Title: floattextedit.cpp Pages: 1 -->
<svg width="1064pt" height="247pt"
 viewBox="0.00 0.00 1063.50 247.00" xmlns="http://www.w3.org/2000/svg" xmlns:xlink="http://www.w3.org/1999/xlink">
<g id="graph0" class="graph" transform="scale(1 1) rotate(0) translate(4 243)">
<title>floattextedit.cpp</title>
<!-- Node1 -->
<g id="node1" class="node">
<title>Node1</title>
<g id="a_node1"><a xlink:title=" ">
<polygon fill="#bfbfbf" stroke="black" points="588,-239 491,-239 491,-220 588,-220 588,-239"/>
<text text-anchor="middle" x="539.5" y="-227" font-family="Helvetica,sans-Serif" font-size="10.00">floattextedit.cpp</text>
</a>
</g>
</g>
<!-- Node2 -->
<g id="node2" class="node">
<title>Node2</title>
<g id="a_node2"><a xlink:href="container_8h.html" target="_top" xlink:title=" ">
<polygon fill="none" stroke="black" points="71,-74 0,-74 0,-55 71,-55 71,-74"/>
<text text-anchor="middle" x="35.5" y="-62" font-family="Helvetica,sans-Serif" font-size="10.00">container.h</text>
</a>
</g>
</g>
<!-- Node1&#45;&gt;Node2 -->
<g id="edge1" class="edge">
<title>Node1&#45;&gt;Node2</title>
<path fill="none" stroke="midnightblue" d="M490.67,-226.5C402.31,-222.28 219.75,-210.54 162.5,-184 111.87,-160.52 68.07,-109.06 47.68,-82.34"/>
<polygon fill="midnightblue" stroke="midnightblue" points="50.48,-80.23 41.69,-74.31 44.86,-84.41 50.48,-80.23"/>
</g>
<!-- Node5 -->
<g id="node5" class="node">
<title>Node5</title>
<g id="a_node5"><a xlink:href="floattextedit_8h.html" target="_top" xlink:title=" ">
<polygon fill="none" stroke="black" points="257.5,-184 171.5,-184 171.5,-165 257.5,-165 257.5,-184"/>
<text text-anchor="middle" x="214.5" y="-172" font-family="Helvetica,sans-Serif" font-size="10.00">floattextedit.h</text>
</a>
</g>
</g>
<!-- Node1&#45;&gt;Node5 -->
<g id="edge4" class="edge">
<title>Node1&#45;&gt;Node5</title>
<path fill="none" stroke="midnightblue" d="M490.84,-220.57C430.88,-210.79 329.34,-194.23 267.46,-184.14"/>
<polygon fill="midnightblue" stroke="midnightblue" points="267.94,-180.67 257.51,-182.51 266.82,-187.58 267.94,-180.67"/>
</g>
<!-- Node7 -->
<g id="node7" class="node">
<title>Node7</title>
<g id="a_node7"><a xlink:href="mainwindow_8h.html" target="_top" xlink:title=" ">
<polygon fill="none" stroke="black" points="329,-129 242,-129 242,-110 329,-110 329,-129"/>
<text text-anchor="middle" x="285.5" y="-117" font-family="Helvetica,sans-Serif" font-size="10.00">mainwindow.h</text>
</a>
</g>
</g>
<!-- Node1&#45;&gt;Node7 -->
<g id="edge14" class="edge">
<title>Node1&#45;&gt;Node7</title>
<path fill="none" stroke="midnightblue" d="M490.87,-225.06C430.54,-219.84 332.35,-207.87 305.5,-184 292.96,-172.85 288.21,-153.92 286.45,-139.63"/>
<polygon fill="midnightblue" stroke="midnightblue" points="289.91,-139.06 285.58,-129.39 282.94,-139.65 289.91,-139.06"/>
</g>
<!-- Node13 -->
<g id="node13" class="node">
<title>Node13</title>
<g id="a_node13"><a xlink:title=" ">
<polygon fill="none" stroke="#bfbfbf" points="415,-184 314,-184 314,-165 415,-165 415,-184"/>
<text text-anchor="middle" x="364.5" y="-172" font-family="Helvetica,sans-Serif" font-size="10.00">ui_mainwindow.h</text>
</a>
</g>
</g>
<!-- Node1&#45;&gt;Node13 -->
<g id="edge15" class="edge">
<title>Node1&#45;&gt;Node13</title>
<path fill="none" stroke="midnightblue" d="M511.38,-219.98C481.88,-211.05 435.31,-196.94 402.53,-187.02"/>
<polygon fill="midnightblue" stroke="midnightblue" points="403.42,-183.63 392.84,-184.08 401.39,-190.33 403.42,-183.63"/>
</g>
<!-- Node14 -->
<g id="node14" class="node">
<title>Node14</title>
<g id="a_node14"><a xlink:href="tabmainwidget_8h.html" target="_top" xlink:title=" ">
<polygon fill="none" stroke="black" points="568,-129 469,-129 469,-110 568,-110 568,-129"/>
<text text-anchor="middle" x="518.5" y="-117" font-family="Helvetica,sans-Serif" font-size="10.00">tabmainwidget.h</text>
</a>
</g>
</g>
<!-- Node1&#45;&gt;Node14 -->
<g id="edge16" class="edge">
<title>Node1&#45;&gt;Node14</title>
<path fill="none" stroke="midnightblue" d="M510.36,-219.87C493.15,-213.1 472.76,-201.79 462.5,-184 451.41,-164.79 472.85,-146.16 492.32,-134.11"/>
<polygon fill="midnightblue" stroke="midnightblue" points="494.13,-137.11 501.01,-129.05 490.61,-131.06 494.13,-137.11"/>
</g>
<!-- Node15 -->
<g id="node15" class="node">
<title>Node15</title>
<g id="a_node15"><a xlink:title=" ">
<polygon fill="none" stroke="#bfbfbf" points="531.5,-184 471.5,-184 471.5,-165 531.5,-165 531.5,-184"/>
<text text-anchor="middle" x="501.5" y="-172" font-family="Helvetica,sans-Serif" font-size="10.00">iostream</text>
</a>
</g>
</g>
<!-- Node1&#45;&gt;Node15 -->
<g id="edge19" class="edge">
<title>Node1&#45;&gt;Node15</title>
<path fill="none" stroke="midnightblue" d="M533.23,-219.75C527.91,-212.34 520.14,-201.5 513.62,-192.41"/>
<polygon fill="midnightblue" stroke="midnightblue" points="516.33,-190.18 507.66,-184.09 510.64,-194.26 516.33,-190.18"/>
</g>
<!-- Node16 -->
<g id="node16" class="node">
<title>Node16</title>
<g id="a_node16"><a xlink:title=" ">
<polygon fill="none" stroke="#bfbfbf" points="605.5,-184 549.5,-184 549.5,-165 605.5,-165 605.5,-184"/>
<text text-anchor="middle" x="577.5" y="-172" font-family="Helvetica,sans-Serif" font-size="10.00">QObject</text>
</a>
</g>
</g>
<!-- Node1&#45;&gt;Node16 -->
<g id="edge20" class="edge">
<title>Node1&#45;&gt;Node16</title>
<path fill="none" stroke="midnightblue" d="M545.77,-219.75C551.09,-212.34 558.86,-201.5 565.38,-192.41"/>
<polygon fill="midnightblue" stroke="midnightblue" points="568.36,-194.26 571.34,-184.09 562.67,-190.18 568.36,-194.26"/>
</g>
<!-- Node17 -->
<g id="node17" class="node">
<title>Node17</title>
<g id="a_node17"><a xlink:title=" ">
<polygon fill="none" stroke="#bfbfbf" points="693.5,-184 623.5,-184 623.5,-165 693.5,-165 693.5,-184"/>
<text text-anchor="middle" x="658.5" y="-172" font-family="Helvetica,sans-Serif" font-size="10.00">QKeyEvent</text>
</a>
</g>
</g>
<!-- Node1&#45;&gt;Node17 -->
<g id="edge21" class="edge">
<title>Node1&#45;&gt;Node17</title>
<path fill="none" stroke="midnightblue" d="M558.62,-219.98C577.85,-211.42 607.73,-198.11 629.81,-188.28"/>
<polygon fill="midnightblue" stroke="midnightblue" points="631.32,-191.44 639.03,-184.17 628.47,-185.04 631.32,-191.44"/>
</g>
<!-- Node18 -->
<g id="node18" class="node">
<title>Node18</title>
<g id="a_node18"><a xlink:title=" ">
<polygon fill="none" stroke="#bfbfbf" points="791.5,-184 711.5,-184 711.5,-165 791.5,-165 791.5,-184"/>
<text text-anchor="middle" x="751.5" y="-172" font-family="Helvetica,sans-Serif" font-size="10.00">QFocusEvent</text>
</a>
</g>
</g>
<!-- Node1&#45;&gt;Node18 -->
<g id="edge22" class="edge">
<title>Node1&#45;&gt;Node18</title>
<path fill="none" stroke="midnightblue" d="M573.56,-219.98C609.92,-210.89 667.67,-196.46 707.47,-186.51"/>
<polygon fill="midnightblue" stroke="midnightblue" points="708.32,-189.9 717.17,-184.08 706.62,-183.11 708.32,-189.9"/>
</g>
<!-- Node19 -->
<g id="node19" class="node">
<title>Node19</title>
<g id="a_node19"><a xlink:title=" ">
<polygon fill="none" stroke="#bfbfbf" points="889,-184 810,-184 810,-165 889,-165 889,-184"/>
<text text-anchor="middle" x="849.5" y="-172" font-family="Helvetica,sans-Serif" font-size="10.00">QApplication</text>
</a>
</g>
</g>
<!-- Node1&#45;&gt;Node19 -->
<g id="edge23" class="edge">
<title>Node1&#45;&gt;Node19</title>
<path fill="none" stroke="midnightblue" d="M588.09,-220.26C638.36,-211.72 719.44,-197.93 799.64,-184.14"/>
<polygon fill="midnightblue" stroke="midnightblue" points="800.66,-187.52 809.92,-182.38 799.47,-180.62 800.66,-187.52"/>
</g>
<!-- Node20 -->
<g id="node20" class="node">
<title>Node20</title>
<g id="a_node20"><a xlink:title=" ">
<polygon fill="none" stroke="#bfbfbf" points="975.5,-184 907.5,-184 907.5,-165 975.5,-165 975.5,-184"/>
<text text-anchor="middle" x="941.5" y="-172" font-family="Helvetica,sans-Serif" font-size="10.00">QScrollBar</text>
</a>
</g>
</g>
<!-- Node1&#45;&gt;Node20 -->
<g id="edge24" class="edge">
<title>Node1&#45;&gt;Node20</title>
<path fill="none" stroke="midnightblue" d="M588.14,-223.59C655.35,-216.56 780.62,-202.57 897.11,-184.12"/>
<polygon fill="midnightblue" stroke="midnightblue" points="897.95,-187.53 907.27,-182.5 896.85,-180.62 897.95,-187.53"/>
</g>
<!-- Node21 -->
<g id="node21" class="node">
<title>Node21</title>
<g id="a_node21"><a xlink:title=" ">
<polygon fill="none" stroke="#bfbfbf" points="1055.5,-184 993.5,-184 993.5,-165 1055.5,-165 1055.5,-184"/>
<text text-anchor="middle" x="1024.5" y="-172" font-family="Helvetica,sans-Serif" font-size="10.00">QTextList</text>
</a>
</g>
</g>
<!-- Node1&#45;&gt;Node21 -->
<g id="edge25" class="edge">
<title>Node1&#45;&gt;Node21</title>
<path fill="none" stroke="midnightblue" d="M588.12,-225.39C668.34,-219.88 833.59,-206.92 982.86,-184.1"/>
<polygon fill="midnightblue" stroke="midnightblue" points="983.77,-187.5 993.12,-182.51 982.7,-180.58 983.77,-187.5"/>
</g>
<!-- Node3 -->
<g id="node3" class="node">
<title>Node3</title>
<g id="a_node3"><a xlink:title=" ">
<polygon fill="none" stroke="#bfbfbf" points="500,-19 441,-19 441,0 500,0 500,-19"/>
<text text-anchor="middle" x="470.5" y="-7" font-family="Helvetica,sans-Serif" font-size="10.00">QWidget</text>
</a>
</g>
</g>
<!-- Node2&#45;&gt;Node3 -->
<g id="edge2" class="edge">
<title>Node2&#45;&gt;Node3</title>
<path fill="none" stroke="midnightblue" d="M71.32,-56.49C74.42,-55.96 77.51,-55.45 80.5,-55 207.72,-35.75 359.42,-20.69 430.29,-14.11"/>
<polygon fill="midnightblue" stroke="midnightblue" points="430.92,-17.57 440.56,-13.16 430.28,-10.6 430.92,-17.57"/>
</g>
<!-- Node4 -->
<g id="node4" class="node">
<title>Node4</title>
<g id="a_node4"><a xlink:title=" ">
<polygon fill="none" stroke="#bfbfbf" points="303,-19 248,-19 248,0 303,0 303,-19"/>
<text text-anchor="middle" x="275.5" y="-7" font-family="Helvetica,sans-Serif" font-size="10.00">QFrame</text>
</a>
</g>
</g>
<!-- Node2&#45;&gt;Node4 -->
<g id="edge3" class="edge">
<title>Node2&#45;&gt;Node4</title>
<path fill="none" stroke="midnightblue" d="M71.17,-55.62C115.97,-45.73 192.46,-28.84 238.07,-18.77"/>
<polygon fill="midnightblue" stroke="midnightblue" points="238.85,-22.18 247.86,-16.6 237.34,-15.34 238.85,-22.18"/>
</g>
<!-- Node6 -->
<g id="node6" class="node">
<title>Node6</title>
<g id="a_node6"><a xlink:title=" ">
<polygon fill="none" stroke="#bfbfbf" points="224,-129 161,-129 161,-110 224,-110 224,-129"/>
<text text-anchor="middle" x="192.5" y="-117" font-family="Helvetica,sans-Serif" font-size="10.00">QTextEdit</text>
</a>
</g>
</g>
<!-- Node5&#45;&gt;Node6 -->
<g id="edge5" class="edge">
<title>Node5&#45;&gt;Node6</title>
<path fill="none" stroke="midnightblue" d="M210.87,-164.75C207.92,-157.65 203.67,-147.4 199.99,-138.56"/>
<polygon fill="midnightblue" stroke="midnightblue" points="203.13,-136.98 196.07,-129.09 196.67,-139.67 203.13,-136.98"/>
</g>
<!-- Node5&#45;&gt;Node7 -->
<g id="edge6" class="edge">
<title>Node5&#45;&gt;Node7</title>
<path fill="none" stroke="midnightblue" d="M225.91,-164.98C236.61,-157 252.84,-144.88 265.66,-135.31"/>
<polygon fill="midnightblue" stroke="midnightblue" points="267.97,-137.96 273.89,-129.17 263.78,-132.35 267.97,-137.96"/>
</g>
<!-- Node7&#45;&gt;Node2 -->
<g id="edge11" class="edge">
<title>Node7&#45;&gt;Node2</title>
<path fill="none" stroke="midnightblue" d="M245.33,-109.98C200.46,-100.47 127.95,-85.1 81.01,-75.15"/>
<polygon fill="midnightblue" stroke="midnightblue" points="81.62,-71.7 71.11,-73.05 80.17,-78.55 81.62,-71.7"/>
</g>
<!-- Node8 -->
<g id="node8" class="node">
<title>Node8</title>
<g id="a_node8"><a xlink:title=" ">
<polygon fill="none" stroke="#bfbfbf" points="384,-74 297,-74 297,-55 384,-55 384,-74"/>
<text text-anchor="middle" x="340.5" y="-62" font-family="Helvetica,sans-Serif" font-size="10.00">QMainWindow</text>
</a>
</g>
</g>
<!-- Node7&#45;&gt;Node8 -->
<g id="edge7" class="edge">
<title>Node7&#45;&gt;Node8</title>
<path fill="none" stroke="midnightblue" d="M294.58,-109.75C302.59,-102.03 314.46,-90.6 324.12,-81.28"/>
<polygon fill="midnightblue" stroke="midnightblue" points="326.81,-83.55 331.59,-74.09 321.96,-78.51 326.81,-83.55"/>
</g>
<!-- Node9 -->
<g id="node9" class="node">
<title>Node9</title>
<g id="a_node9"><a xlink:title=" ">
<polygon fill="none" stroke="#bfbfbf" points="455,-74 402,-74 402,-55 455,-55 455,-74"/>
<text text-anchor="middle" x="428.5" y="-62" font-family="Helvetica,sans-Serif" font-size="10.00">QString</text>
</a>
</g>
</g>
<!-- Node7&#45;&gt;Node9 -->
<g id="edge8" class="edge">
<title>Node7&#45;&gt;Node9</title>
<path fill="none" stroke="midnightblue" d="M308.48,-109.98C332,-101.27 368.79,-87.63 395.44,-77.75"/>
<polygon fill="midnightblue" stroke="midnightblue" points="396.95,-80.93 405.11,-74.17 394.51,-74.36 396.95,-80.93"/>
</g>
<!-- Node10 -->
<g id="node10" class="node">
<title>Node10</title>
<g id="a_node10"><a xlink:title=" ">
<polygon fill="none" stroke="#bfbfbf" points="165.5,-74 89.5,-74 89.5,-55 165.5,-55 165.5,-74"/>
<text text-anchor="middle" x="127.5" y="-62" font-family="Helvetica,sans-Serif" font-size="10.00">QListWidget</text>
</a>
</g>
</g>
<!-- Node7&#45;&gt;Node10 -->
<g id="edge9" class="edge">
<title>Node7&#45;&gt;Node10</title>
<path fill="none" stroke="midnightblue" d="M260.11,-109.98C233.7,-101.13 192.15,-87.19 162.61,-77.28"/>
<polygon fill="midnightblue" stroke="midnightblue" points="163.68,-73.94 153.08,-74.08 161.45,-80.58 163.68,-73.94"/>
</g>
<!-- Node11 -->
<g id="node11" class="node">
<title>Node11</title>
<g id="a_node11"><a xlink:title=" ">
<polygon fill="none" stroke="#bfbfbf" points="279,-74 184,-74 184,-55 279,-55 279,-74"/>
<text text-anchor="middle" x="231.5" y="-62" font-family="Helvetica,sans-Serif" font-size="10.00">QTextDocument</text>
</a>
</g>
</g>
<!-- Node7&#45;&gt;Node11 -->
<g id="edge10" class="edge">
<title>Node7&#45;&gt;Node11</title>
<path fill="none" stroke="midnightblue" d="M276.58,-109.75C268.72,-102.03 257.07,-90.6 247.58,-81.28"/>
<polygon fill="midnightblue" stroke="midnightblue" points="249.84,-78.6 240.25,-74.09 244.94,-83.59 249.84,-78.6"/>
</g>
<!-- Node12 -->
<g id="node12" class="node">
<title>Node12</title>
<g id="a_node12"><a xlink:href="contextmenu_8h.html" target="_top" xlink:title=" ">
<polygon fill="none" stroke="black" points="563.5,-74 473.5,-74 473.5,-55 563.5,-55 563.5,-74"/>
<text text-anchor="middle" x="518.5" y="-62" font-family="Helvetica,sans-Serif" font-size="10.00">contextmenu.h</text>
</a>
</g>
</g>
<!-- Node7&#45;&gt;Node12 -->
<g id="edge12" class="edge">
<title>Node7&#45;&gt;Node12</title>
<path fill="none" stroke="midnightblue" d="M322.94,-109.98C363.15,-100.84 427.18,-86.27 470.94,-76.32"/>
<polygon fill="midnightblue" stroke="midnightblue" points="471.8,-79.71 480.77,-74.08 470.24,-72.89 471.8,-79.71"/>
</g>
<!-- Node12&#45;&gt;Node4 -->
<g id="edge13" class="edge">
<title>Node12&#45;&gt;Node4</title>
<path fill="none" stroke="midnightblue" d="M479.46,-54.98C433.65,-44.99 358.25,-28.55 313.08,-18.7"/>
<polygon fill="midnightblue" stroke="midnightblue" points="313.63,-15.23 303.11,-16.52 312.13,-22.07 313.63,-15.23"/>
</g>
<!-- Node14&#45;&gt;Node3 -->
<g id="edge17" class="edge">
<title>Node14&#45;&gt;Node3</title>
<path fill="none" stroke="midnightblue" d="M535.46,-109.81C556.04,-98.08 586.37,-76.19 572.5,-55 558.73,-33.97 532.62,-22.83 510.27,-16.95"/>
<polygon fill="midnightblue" stroke="midnightblue" points="510.85,-13.49 500.32,-14.6 509.25,-20.3 510.85,-13.49"/>
</g>
<!-- Node14&#45;&gt;Node12 -->
<g id="edge18" class="edge">
<title>Node14&#45;&gt;Node12</title>
<path fill="none" stroke="midnightblue" d="M518.5,-109.75C518.5,-102.8 518.5,-92.85 518.5,-84.13"/>
<polygon fill="midnightblue" stroke="midnightblue" points="522,-84.09 518.5,-74.09 515,-84.09 522,-84.09"/>
</g>
</g>
</svg>
