<?xml version="1.0" encoding="UTF-8" standalone="no"?>
<!DOCTYPE svg PUBLIC "-//W3C//DTD SVG 1.1//EN"
 "http://www.w3.org/Graphics/SVG/1.1/DTD/svg11.dtd">
<!-- Generated by graphviz version 5.0.0 (0)
 -->
<!-- Title: floattextedit.cpp Pages: 1 -->
<svg width="919pt" height="247pt"
 viewBox="0.00 0.00 918.50 247.00" xmlns="http://www.w3.org/2000/svg" xmlns:xlink="http://www.w3.org/1999/xlink">
<g id="graph0" class="graph" transform="scale(1 1) rotate(0) translate(4 243)">
<title>floattextedit.cpp</title>
<!-- Node1 -->
<g id="node1" class="node">
<title>Node1</title>
<g id="a_node1"><a xlink:title=" ">
<polygon fill="#bfbfbf" stroke="black" points="485,-239 388,-239 388,-220 485,-220 485,-239"/>
<text text-anchor="middle" x="436.5" y="-227" font-family="Helvetica,sans-Serif" font-size="10.00">floattextedit.cpp</text>
</a>
</g>
</g>
<!-- Node2 -->
<g id="node2" class="node">
<title>Node2</title>
<g id="a_node2"><a xlink:href="container_8h.html" target="_top" xlink:title=" ">
<polygon fill="none" stroke="black" points="71,-74 0,-74 0,-55 71,-55 71,-74"/>
<text text-anchor="middle" x="35.5" y="-62" font-family="Helvetica,sans-Serif" font-size="10.00">container.h</text>
</a>
</g>
</g>
<!-- Node1&#45;&gt;Node2 -->
<g id="edge1" class="edge">
<title>Node1&#45;&gt;Node2</title>
<path fill="none" stroke="midnightblue" d="M387.79,-227.53C305.49,-225.02 143.37,-216.03 97.5,-184 63.19,-160.04 46.46,-111.07 39.56,-84.19"/>
<polygon fill="midnightblue" stroke="midnightblue" points="42.89,-83.09 37.18,-74.16 36.08,-84.7 42.89,-83.09"/>
</g>
<!-- Node5 -->
<g id="node5" class="node">
<title>Node5</title>
<g id="a_node5"><a xlink:href="floattextedit_8h.html" target="_top" xlink:title=" ">
<polygon fill="none" stroke="black" points="192.5,-184 106.5,-184 106.5,-165 192.5,-165 192.5,-184"/>
<text text-anchor="middle" x="149.5" y="-172" font-family="Helvetica,sans-Serif" font-size="10.00">floattextedit.h</text>
</a>
</g>
</g>
<!-- Node1&#45;&gt;Node5 -->
<g id="edge4" class="edge">
<title>Node1&#45;&gt;Node5</title>
<path fill="none" stroke="midnightblue" d="M390.39,-219.98C339.18,-210.53 256.65,-195.29 202.73,-185.33"/>
<polygon fill="midnightblue" stroke="midnightblue" points="203.15,-181.85 192.68,-183.47 201.88,-188.73 203.15,-181.85"/>
</g>
<!-- Node7 -->
<g id="node7" class="node">
<title>Node7</title>
<g id="a_node7"><a xlink:href="mainwindow_8h.html" target="_top" xlink:title=" ">
<polygon fill="none" stroke="black" points="264,-129 177,-129 177,-110 264,-110 264,-129"/>
<text text-anchor="middle" x="220.5" y="-117" font-family="Helvetica,sans-Serif" font-size="10.00">mainwindow.h</text>
</a>
</g>
</g>
<!-- Node1&#45;&gt;Node7 -->
<g id="edge13" class="edge">
<title>Node1&#45;&gt;Node7</title>
<path fill="none" stroke="midnightblue" d="M387.83,-223.02C336.97,-216.35 261.67,-203.51 240.5,-184 228.16,-172.63 223.38,-153.73 221.56,-139.5"/>
<polygon fill="midnightblue" stroke="midnightblue" points="225.03,-138.97 220.64,-129.32 218.06,-139.6 225.03,-138.97"/>
</g>
<!-- Node12 -->
<g id="node12" class="node">
<title>Node12</title>
<g id="a_node12"><a xlink:title=" ">
<polygon fill="none" stroke="#bfbfbf" points="350,-184 249,-184 249,-165 350,-165 350,-184"/>
<text text-anchor="middle" x="299.5" y="-172" font-family="Helvetica,sans-Serif" font-size="10.00">ui_mainwindow.h</text>
</a>
</g>
</g>
<!-- Node1&#45;&gt;Node12 -->
<g id="edge14" class="edge">
<title>Node1&#45;&gt;Node12</title>
<path fill="none" stroke="midnightblue" d="M414.49,-219.98C392.05,-211.3 357.02,-197.75 331.51,-187.88"/>
<polygon fill="midnightblue" stroke="midnightblue" points="332.5,-184.51 321.91,-184.17 329.98,-191.04 332.5,-184.51"/>
</g>
<!-- Node13 -->
<g id="node13" class="node">
<title>Node13</title>
<g id="a_node13"><a xlink:href="tabmainwidget_8h.html" target="_top" xlink:title=" ">
<polygon fill="none" stroke="black" points="473,-129 374,-129 374,-110 473,-110 473,-129"/>
<text text-anchor="middle" x="423.5" y="-117" font-family="Helvetica,sans-Serif" font-size="10.00">tabmainwidget.h</text>
</a>
</g>
</g>
<!-- Node1&#45;&gt;Node13 -->
<g id="edge15" class="edge">
<title>Node1&#45;&gt;Node13</title>
<path fill="none" stroke="midnightblue" d="M425.51,-219.99C416.05,-211.9 403.07,-198.81 397.5,-184 391.49,-168.03 400.35,-150.05 409.31,-137.31"/>
<polygon fill="midnightblue" stroke="midnightblue" points="412.33,-139.13 415.65,-129.07 406.78,-134.86 412.33,-139.13"/>
</g>
<!-- Node14 -->
<g id="node14" class="node">
<title>Node14</title>
<g id="a_node14"><a xlink:title=" ">
<polygon fill="none" stroke="#bfbfbf" points="466.5,-184 406.5,-184 406.5,-165 466.5,-165 466.5,-184"/>
<text text-anchor="middle" x="436.5" y="-172" font-family="Helvetica,sans-Serif" font-size="10.00">iostream</text>
</a>
</g>
</g>
<!-- Node1&#45;&gt;Node14 -->
<g id="edge18" class="edge">
<title>Node1&#45;&gt;Node14</title>
<path fill="none" stroke="midnightblue" d="M436.5,-219.75C436.5,-212.8 436.5,-202.85 436.5,-194.13"/>
<polygon fill="midnightblue" stroke="midnightblue" points="440,-194.09 436.5,-184.09 433,-194.09 440,-194.09"/>
</g>
<!-- Node15 -->
<g id="node15" class="node">
<title>Node15</title>
<g id="a_node15"><a xlink:title=" ">
<polygon fill="none" stroke="#bfbfbf" points="540.5,-184 484.5,-184 484.5,-165 540.5,-165 540.5,-184"/>
<text text-anchor="middle" x="512.5" y="-172" font-family="Helvetica,sans-Serif" font-size="10.00">QObject</text>
</a>
</g>
</g>
<!-- Node1&#45;&gt;Node15 -->
<g id="edge19" class="edge">
<title>Node1&#45;&gt;Node15</title>
<path fill="none" stroke="midnightblue" d="M448.71,-219.98C460.28,-211.92 477.88,-199.65 491.66,-190.03"/>
<polygon fill="midnightblue" stroke="midnightblue" points="493.87,-192.76 500.07,-184.17 489.86,-187.02 493.87,-192.76"/>
</g>
<!-- Node16 -->
<g id="node16" class="node">
<title>Node16</title>
<g id="a_node16"><a xlink:title=" ">
<polygon fill="none" stroke="#bfbfbf" points="628.5,-184 558.5,-184 558.5,-165 628.5,-165 628.5,-184"/>
<text text-anchor="middle" x="593.5" y="-172" font-family="Helvetica,sans-Serif" font-size="10.00">QKeyEvent</text>
</a>
</g>
</g>
<!-- Node1&#45;&gt;Node16 -->
<g id="edge20" class="edge">
<title>Node1&#45;&gt;Node16</title>
<path fill="none" stroke="midnightblue" d="M461.72,-219.98C487.86,-211.16 528.9,-197.31 558.23,-187.41"/>
<polygon fill="midnightblue" stroke="midnightblue" points="559.72,-190.6 568.08,-184.08 557.48,-183.96 559.72,-190.6"/>
</g>
<!-- Node17 -->
<g id="node17" class="node">
<title>Node17</title>
<g id="a_node17"><a xlink:title=" ">
<polygon fill="none" stroke="#bfbfbf" points="726.5,-184 646.5,-184 646.5,-165 726.5,-165 726.5,-184"/>
<text text-anchor="middle" x="686.5" y="-172" font-family="Helvetica,sans-Serif" font-size="10.00">QFocusEvent</text>
</a>
</g>
</g>
<!-- Node1&#45;&gt;Node17 -->
<g id="edge21" class="edge">
<title>Node1&#45;&gt;Node17</title>
<path fill="none" stroke="midnightblue" d="M476.67,-219.98C520.13,-210.77 589.5,-196.06 636.47,-186.11"/>
<polygon fill="midnightblue" stroke="midnightblue" points="637.38,-189.49 646.43,-183.99 635.92,-182.64 637.38,-189.49"/>
</g>
<!-- Node18 -->
<g id="node18" class="node">
<title>Node18</title>
<g id="a_node18"><a xlink:title=" ">
<polygon fill="none" stroke="#bfbfbf" points="824,-184 745,-184 745,-165 824,-165 824,-184"/>
<text text-anchor="middle" x="784.5" y="-172" font-family="Helvetica,sans-Serif" font-size="10.00">QApplication</text>
</a>
</g>
</g>
<!-- Node1&#45;&gt;Node18 -->
<g id="edge22" class="edge">
<title>Node1&#45;&gt;Node18</title>
<path fill="none" stroke="midnightblue" d="M485.24,-221.61C542.44,-213.45 640.43,-199.21 734.92,-184.06"/>
<polygon fill="midnightblue" stroke="midnightblue" points="735.62,-187.49 744.93,-182.45 734.5,-180.58 735.62,-187.49"/>
</g>
<!-- Node19 -->
<g id="node19" class="node">
<title>Node19</title>
<g id="a_node19"><a xlink:title=" ">
<polygon fill="none" stroke="#bfbfbf" points="910.5,-184 842.5,-184 842.5,-165 910.5,-165 910.5,-184"/>
<text text-anchor="middle" x="876.5" y="-172" font-family="Helvetica,sans-Serif" font-size="10.00">QScrollBar</text>
</a>
</g>
</g>
<!-- Node1&#45;&gt;Node19 -->
<g id="edge23" class="edge">
<title>Node1&#45;&gt;Node19</title>
<path fill="none" stroke="midnightblue" d="M485.26,-224.36C558.41,-217.85 701.1,-204.04 832.07,-184.1"/>
<polygon fill="midnightblue" stroke="midnightblue" points="832.93,-187.51 842.28,-182.53 831.86,-180.59 832.93,-187.51"/>
</g>
<!-- Node3 -->
<g id="node3" class="node">
<title>Node3</title>
<g id="a_node3"><a xlink:title=" ">
<polygon fill="none" stroke="#bfbfbf" points="429,-19 370,-19 370,0 429,0 429,-19"/>
<text text-anchor="middle" x="399.5" y="-7" font-family="Helvetica,sans-Serif" font-size="10.00">QWidget</text>
</a>
</g>
</g>
<!-- Node2&#45;&gt;Node3 -->
<g id="edge2" class="edge">
<title>Node2&#45;&gt;Node3</title>
<path fill="none" stroke="midnightblue" d="M71.01,-56.47C73.88,-55.96 76.74,-55.46 79.5,-55 179.98,-38.32 298.93,-22.91 359.58,-15.36"/>
<polygon fill="midnightblue" stroke="midnightblue" points="360.37,-18.79 369.86,-14.09 359.51,-11.85 360.37,-18.79"/>
</g>
<!-- Node4 -->
<g id="node4" class="node">
<title>Node4</title>
<g id="a_node4"><a xlink:title=" ">
<polygon fill="none" stroke="#bfbfbf" points="256,-19 201,-19 201,0 256,0 256,-19"/>
<text text-anchor="middle" x="228.5" y="-7" font-family="Helvetica,sans-Serif" font-size="10.00">QFrame</text>
</a>
</g>
</g>
<!-- Node2&#45;&gt;Node4 -->
<g id="edge3" class="edge">
<title>Node2&#45;&gt;Node4</title>
<path fill="none" stroke="midnightblue" d="M66.51,-54.98C100.4,-45.68 154.71,-30.76 190.98,-20.8"/>
<polygon fill="midnightblue" stroke="midnightblue" points="191.98,-24.16 200.7,-18.13 190.13,-17.41 191.98,-24.16"/>
</g>
<!-- Node6 -->
<g id="node6" class="node">
<title>Node6</title>
<g id="a_node6"><a xlink:title=" ">
<polygon fill="none" stroke="#bfbfbf" points="159,-129 96,-129 96,-110 159,-110 159,-129"/>
<text text-anchor="middle" x="127.5" y="-117" font-family="Helvetica,sans-Serif" font-size="10.00">QTextEdit</text>
</a>
</g>
</g>
<!-- Node5&#45;&gt;Node6 -->
<g id="edge5" class="edge">
<title>Node5&#45;&gt;Node6</title>
<path fill="none" stroke="midnightblue" d="M145.87,-164.75C142.92,-157.65 138.67,-147.4 134.99,-138.56"/>
<polygon fill="midnightblue" stroke="midnightblue" points="138.13,-136.98 131.07,-129.09 131.67,-139.67 138.13,-136.98"/>
</g>
<!-- Node5&#45;&gt;Node7 -->
<g id="edge6" class="edge">
<title>Node5&#45;&gt;Node7</title>
<path fill="none" stroke="midnightblue" d="M160.91,-164.98C171.61,-157 187.84,-144.88 200.66,-135.31"/>
<polygon fill="midnightblue" stroke="midnightblue" points="202.97,-137.96 208.89,-129.17 198.78,-132.35 202.97,-137.96"/>
</g>
<!-- Node7&#45;&gt;Node2 -->
<g id="edge10" class="edge">
<title>Node7&#45;&gt;Node2</title>
<path fill="none" stroke="midnightblue" d="M190.78,-109.98C159.45,-101.01 109.93,-86.82 75.26,-76.89"/>
<polygon fill="midnightblue" stroke="midnightblue" points="76.03,-73.47 65.46,-74.08 74.11,-80.2 76.03,-73.47"/>
</g>
<!-- Node8 -->
<g id="node8" class="node">
<title>Node8</title>
<g id="a_node8"><a xlink:title=" ">
<polygon fill="none" stroke="#bfbfbf" points="176,-74 89,-74 89,-55 176,-55 176,-74"/>
<text text-anchor="middle" x="132.5" y="-62" font-family="Helvetica,sans-Serif" font-size="10.00">QMainWindow</text>
</a>
</g>
</g>
<!-- Node7&#45;&gt;Node8 -->
<g id="edge7" class="edge">
<title>Node7&#45;&gt;Node8</title>
<path fill="none" stroke="midnightblue" d="M206.36,-109.98C192.71,-101.77 171.81,-89.18 155.72,-79.49"/>
<polygon fill="midnightblue" stroke="midnightblue" points="157.27,-76.33 146.9,-74.17 153.66,-82.33 157.27,-76.33"/>
</g>
<!-- Node9 -->
<g id="node9" class="node">
<title>Node9</title>
<g id="a_node9"><a xlink:title=" ">
<polygon fill="none" stroke="#bfbfbf" points="247,-74 194,-74 194,-55 247,-55 247,-74"/>
<text text-anchor="middle" x="220.5" y="-62" font-family="Helvetica,sans-Serif" font-size="10.00">QString</text>
</a>
</g>
</g>
<!-- Node7&#45;&gt;Node9 -->
<g id="edge8" class="edge">
<title>Node7&#45;&gt;Node9</title>
<path fill="none" stroke="midnightblue" d="M220.5,-109.75C220.5,-102.8 220.5,-92.85 220.5,-84.13"/>
<polygon fill="midnightblue" stroke="midnightblue" points="224,-84.09 220.5,-74.09 217,-84.09 224,-84.09"/>
</g>
<!-- Node10 -->
<g id="node10" class="node">
<title>Node10</title>
<g id="a_node10"><a xlink:title=" ">
<polygon fill="none" stroke="#bfbfbf" points="360,-74 265,-74 265,-55 360,-55 360,-74"/>
<text text-anchor="middle" x="312.5" y="-62" font-family="Helvetica,sans-Serif" font-size="10.00">QTextDocument</text>
</a>
</g>
</g>
<!-- Node7&#45;&gt;Node10 -->
<g id="edge9" class="edge">
<title>Node7&#45;&gt;Node10</title>
<path fill="none" stroke="midnightblue" d="M235.28,-109.98C249.68,-101.69 271.81,-88.94 288.69,-79.22"/>
<polygon fill="midnightblue" stroke="midnightblue" points="290.53,-82.19 297.45,-74.17 287.04,-76.13 290.53,-82.19"/>
</g>
<!-- Node11 -->
<g id="node11" class="node">
<title>Node11</title>
<g id="a_node11"><a xlink:href="contextmenu_8h.html" target="_top" xlink:title=" ">
<polygon fill="none" stroke="black" points="468.5,-74 378.5,-74 378.5,-55 468.5,-55 468.5,-74"/>
<text text-anchor="middle" x="423.5" y="-62" font-family="Helvetica,sans-Serif" font-size="10.00">contextmenu.h</text>
</a>
</g>
</g>
<!-- Node7&#45;&gt;Node11 -->
<g id="edge11" class="edge">
<title>Node7&#45;&gt;Node11</title>
<path fill="none" stroke="midnightblue" d="M253.12,-109.98C287.79,-100.93 342.76,-86.58 380.85,-76.64"/>
<polygon fill="midnightblue" stroke="midnightblue" points="381.84,-79.99 390.63,-74.08 380.07,-73.22 381.84,-79.99"/>
</g>
<!-- Node11&#45;&gt;Node4 -->
<g id="edge12" class="edge">
<title>Node11&#45;&gt;Node4</title>
<path fill="none" stroke="midnightblue" d="M392.17,-54.98C357.83,-45.65 302.74,-30.68 266.09,-20.72"/>
<polygon fill="midnightblue" stroke="midnightblue" points="266.85,-17.3 256.28,-18.05 265.01,-24.05 266.85,-17.3"/>
</g>
<!-- Node13&#45;&gt;Node3 -->
<g id="edge16" class="edge">
<title>Node13&#45;&gt;Node3</title>
<path fill="none" stroke="midnightblue" d="M440.46,-109.83C460.65,-98.28 490.15,-76.77 477.5,-55 468.96,-40.29 453.53,-30.04 438.64,-23.11"/>
<polygon fill="midnightblue" stroke="midnightblue" points="439.58,-19.71 429,-19.03 436.84,-26.15 439.58,-19.71"/>
</g>
<!-- Node13&#45;&gt;Node11 -->
<g id="edge17" class="edge">
<title>Node13&#45;&gt;Node11</title>
<path fill="none" stroke="midnightblue" d="M423.5,-109.75C423.5,-102.8 423.5,-92.85 423.5,-84.13"/>
<polygon fill="midnightblue" stroke="midnightblue" points="427,-84.09 423.5,-74.09 420,-84.09 427,-84.09"/>
</g>
</g>
</svg>
