<?xml version="1.0" encoding="UTF-8" standalone="no"?>
<!DOCTYPE svg PUBLIC "-//W3C//DTD SVG 1.1//EN"
 "http://www.w3.org/Graphics/SVG/1.1/DTD/svg11.dtd">
<!-- Generated by graphviz version 5.0.0 (0)
 -->
<!-- Title: Graphical Class Hierarchy Pages: 1 -->
<svg width="181pt" height="64pt"
 viewBox="0.00 0.00 181.00 64.00" xmlns="http://www.w3.org/2000/svg" xmlns:xlink="http://www.w3.org/1999/xlink">
<g id="graph0" class="graph" transform="scale(1 1) rotate(0) translate(4 60)">
<title>Graphical Class Hierarchy</title>
<!-- Node0 -->
<g id="node1" class="node">
<title>Node0</title>
<g id="a_node1"><a xlink:title=" ">
<polygon fill="none" stroke="#bfbfbf" points="55,-37 0,-37 0,-18 55,-18 55,-37"/>
<text text-anchor="middle" x="27.5" y="-25" font-family="Helvetica,sans-Serif" font-size="10.00">QFrame</text>
</a>
</g>
</g>
<!-- Node1 -->
<g id="node2" class="node">
<title>Node1</title>
<g id="a_node2"><a xlink:href="class_container.html" target="_top" xlink:title="Visible frame for all objects contained on the note page.">
<polygon fill="none" stroke="black" points="164,-56 100,-56 100,-37 164,-37 164,-56"/>
<text text-anchor="middle" x="132" y="-44" font-family="Helvetica,sans-Serif" font-size="10.00">Container</text>
</a>
</g>
</g>
<!-- Node0&#45;&gt;Node1 -->
<g id="edge1" class="edge">
<title>Node0&#45;&gt;Node1</title>
<path fill="none" stroke="midnightblue" d="M65.19,-34.3C76.49,-36.4 88.83,-38.68 99.74,-40.71"/>
<polygon fill="midnightblue" stroke="midnightblue" points="65.63,-30.82 55.16,-32.44 64.36,-37.71 65.63,-30.82"/>
</g>
<!-- Node2 -->
<g id="node3" class="node">
<title>Node2</title>
<g id="a_node3"><a xlink:href="class_context_menu.html" target="_top" xlink:title=" ">
<polygon fill="none" stroke="black" points="173,-19 91,-19 91,0 173,0 173,-19"/>
<text text-anchor="middle" x="132" y="-7" font-family="Helvetica,sans-Serif" font-size="10.00">ContextMenu</text>
</a>
</g>
</g>
<!-- Node0&#45;&gt;Node2 -->
<g id="edge2" class="edge">
<title>Node0&#45;&gt;Node2</title>
<path fill="none" stroke="midnightblue" d="M65.05,-21.08C73.44,-19.61 82.41,-18.03 90.94,-16.53"/>
<polygon fill="midnightblue" stroke="midnightblue" points="64.41,-17.64 55.16,-22.82 65.62,-24.54 64.41,-17.64"/>
</g>
</g>
</svg>
