<?xml version="1.0" encoding="UTF-8" standalone="no"?>
<!DOCTYPE svg PUBLIC "-//W3C//DTD SVG 1.1//EN"
 "http://www.w3.org/Graphics/SVG/1.1/DTD/svg11.dtd">
<!-- Generated by graphviz version 5.0.0 (0)
 -->
<!-- Title: mainwindow.cpp Pages: 1 -->
<svg width="2252pt" height="247pt"
 viewBox="0.00 0.00 2251.50 247.00" xmlns="http://www.w3.org/2000/svg" xmlns:xlink="http://www.w3.org/1999/xlink">
<g id="graph0" class="graph" transform="scale(1 1) rotate(0) translate(4 243)">
<title>mainwindow.cpp</title>
<!-- Node1 -->
<g id="node1" class="node">
<title>Node1</title>
<g id="a_node1"><a xlink:title=" ">
<polygon fill="#bfbfbf" stroke="black" points="1055.5,-239 957.5,-239 957.5,-220 1055.5,-220 1055.5,-239"/>
<text text-anchor="middle" x="1006.5" y="-227" font-family="Helvetica,sans-Serif" font-size="10.00">mainwindow.cpp</text>
</a>
</g>
</g>
<!-- Node2 -->
<g id="node2" class="node">
<title>Node2</title>
<g id="a_node2"><a xlink:href="mainwindow_8h.html" target="_top" xlink:title=" ">
<polygon fill="none" stroke="black" points="271,-129 184,-129 184,-110 271,-110 271,-129"/>
<text text-anchor="middle" x="227.5" y="-117" font-family="Helvetica,sans-Serif" font-size="10.00">mainwindow.h</text>
</a>
</g>
</g>
<!-- Node1&#45;&gt;Node2 -->
<g id="edge1" class="edge">
<title>Node1&#45;&gt;Node2</title>
<path fill="none" stroke="midnightblue" d="M957.3,-227.71C782.81,-224.68 202.51,-212.49 175.5,-184 160.13,-167.78 183.1,-147.61 203.2,-134.41"/>
<polygon fill="midnightblue" stroke="midnightblue" points="205.17,-137.31 211.81,-129.04 201.47,-131.37 205.17,-137.31"/>
</g>
<!-- Node4 -->
<g id="node4" class="node">
<title>Node4</title>
<g id="a_node4"><a xlink:title=" ">
<polygon fill="none" stroke="#bfbfbf" points="53,-74 0,-74 0,-55 53,-55 53,-74"/>
<text text-anchor="middle" x="26.5" y="-62" font-family="Helvetica,sans-Serif" font-size="10.00">QString</text>
</a>
</g>
</g>
<!-- Node1&#45;&gt;Node4 -->
<g id="edge28" class="edge">
<title>Node1&#45;&gt;Node4</title>
<path fill="none" stroke="midnightblue" d="M957.45,-228.02C785.83,-226.05 218.7,-217.1 144.5,-184 95.4,-162.1 55.6,-109.88 37.33,-82.67"/>
<polygon fill="midnightblue" stroke="midnightblue" points="40.18,-80.63 31.78,-74.17 34.32,-84.46 40.18,-80.63"/>
</g>
<!-- Node5 -->
<g id="node5" class="node">
<title>Node5</title>
<g id="a_node5"><a xlink:title=" ">
<polygon fill="none" stroke="#bfbfbf" points="166,-74 71,-74 71,-55 166,-55 166,-74"/>
<text text-anchor="middle" x="118.5" y="-62" font-family="Helvetica,sans-Serif" font-size="10.00">QTextDocument</text>
</a>
</g>
</g>
<!-- Node1&#45;&gt;Node5 -->
<g id="edge40" class="edge">
<title>Node1&#45;&gt;Node5</title>
<path fill="none" stroke="midnightblue" d="M957.27,-228.93C787.14,-229.99 230.86,-229.89 166.5,-184 133.92,-160.77 123.43,-111.51 120.06,-84.38"/>
<polygon fill="midnightblue" stroke="midnightblue" points="123.53,-83.84 119.02,-74.26 116.56,-84.56 123.53,-83.84"/>
</g>
<!-- Node10 -->
<g id="node10" class="node">
<title>Node10</title>
<g id="a_node10"><a xlink:title=" ">
<polygon fill="none" stroke="#bfbfbf" points="286,-184 185,-184 185,-165 286,-165 286,-184"/>
<text text-anchor="middle" x="235.5" y="-172" font-family="Helvetica,sans-Serif" font-size="10.00">ui_mainwindow.h</text>
</a>
</g>
</g>
<!-- Node1&#45;&gt;Node10 -->
<g id="edge10" class="edge">
<title>Node1&#45;&gt;Node10</title>
<path fill="none" stroke="midnightblue" d="M957.26,-226.75C843.08,-222.39 551.26,-209.62 296.4,-184"/>
<polygon fill="midnightblue" stroke="midnightblue" points="296.51,-180.49 286.2,-182.97 295.8,-187.46 296.51,-180.49"/>
</g>
<!-- Node11 -->
<g id="node11" class="node">
<title>Node11</title>
<g id="a_node11"><a xlink:href="tabmainwidget_8h.html" target="_top" xlink:title=" ">
<polygon fill="none" stroke="black" points="474,-129 375,-129 375,-110 474,-110 474,-129"/>
<text text-anchor="middle" x="424.5" y="-117" font-family="Helvetica,sans-Serif" font-size="10.00">tabmainwidget.h</text>
</a>
</g>
</g>
<!-- Node1&#45;&gt;Node11 -->
<g id="edge11" class="edge">
<title>Node1&#45;&gt;Node11</title>
<path fill="none" stroke="midnightblue" d="M957.06,-226.88C831.66,-222.42 508.14,-208.64 466.5,-184 449.31,-173.83 437.78,-153.54 431.22,-138.62"/>
<polygon fill="midnightblue" stroke="midnightblue" points="434.46,-137.29 427.46,-129.34 427.97,-139.92 434.46,-137.29"/>
</g>
<!-- Node12 -->
<g id="node12" class="node">
<title>Node12</title>
<g id="a_node12"><a xlink:href="floattextedit_8h.html" target="_top" xlink:title=" ">
<polygon fill="none" stroke="black" points="390.5,-184 304.5,-184 304.5,-165 390.5,-165 390.5,-184"/>
<text text-anchor="middle" x="347.5" y="-172" font-family="Helvetica,sans-Serif" font-size="10.00">floattextedit.h</text>
</a>
</g>
</g>
<!-- Node1&#45;&gt;Node12 -->
<g id="edge14" class="edge">
<title>Node1&#45;&gt;Node12</title>
<path fill="none" stroke="midnightblue" d="M957.22,-226.1C854.32,-220.81 609.16,-206.79 404.5,-184 403.24,-183.86 401.97,-183.71 400.68,-183.56"/>
<polygon fill="midnightblue" stroke="midnightblue" points="401.08,-180.08 390.72,-182.29 400.19,-187.03 401.08,-180.08"/>
</g>
<!-- Node14 -->
<g id="node14" class="node">
<title>Node14</title>
<g id="a_node14"><a xlink:href="floatimage_8h.html" target="_top" xlink:title=" ">
<polygon fill="none" stroke="black" points="574.5,-129 496.5,-129 496.5,-110 574.5,-110 574.5,-129"/>
<text text-anchor="middle" x="535.5" y="-117" font-family="Helvetica,sans-Serif" font-size="10.00">floatimage.h</text>
</a>
</g>
</g>
<!-- Node1&#45;&gt;Node14 -->
<g id="edge17" class="edge">
<title>Node1&#45;&gt;Node14</title>
<path fill="none" stroke="midnightblue" d="M957.34,-228.08C831.93,-226.51 507.75,-219.07 475.5,-184 459.44,-166.54 485.41,-146.7 508.05,-133.92"/>
<polygon fill="midnightblue" stroke="midnightblue" points="509.94,-136.87 517.09,-129.06 506.63,-130.71 509.94,-136.87"/>
</g>
<!-- Node17 -->
<g id="node17" class="node">
<title>Node17</title>
<g id="a_node17"><a xlink:title=" ">
<polygon fill="none" stroke="#bfbfbf" points="544.5,-184 484.5,-184 484.5,-165 544.5,-165 544.5,-184"/>
<text text-anchor="middle" x="514.5" y="-172" font-family="Helvetica,sans-Serif" font-size="10.00">iostream</text>
</a>
</g>
</g>
<!-- Node1&#45;&gt;Node17 -->
<g id="edge22" class="edge">
<title>Node1&#45;&gt;Node17</title>
<path fill="none" stroke="midnightblue" d="M957.33,-225.56C875.7,-220.26 706.93,-207.56 554.67,-184.01"/>
<polygon fill="midnightblue" stroke="midnightblue" points="555.09,-180.53 544.67,-182.44 554.01,-187.44 555.09,-180.53"/>
</g>
<!-- Node18 -->
<g id="node18" class="node">
<title>Node18</title>
<g id="a_node18"><a xlink:title=" ">
<polygon fill="none" stroke="#bfbfbf" points="618.5,-184 562.5,-184 562.5,-165 618.5,-165 618.5,-184"/>
<text text-anchor="middle" x="590.5" y="-172" font-family="Helvetica,sans-Serif" font-size="10.00">QDialog</text>
</a>
</g>
</g>
<!-- Node1&#45;&gt;Node18 -->
<g id="edge23" class="edge">
<title>Node1&#45;&gt;Node18</title>
<path fill="none" stroke="midnightblue" d="M957.34,-224.34C885,-217.85 745.75,-203.96 628.5,-184 628.4,-183.98 628.3,-183.97 628.2,-183.95"/>
<polygon fill="midnightblue" stroke="midnightblue" points="629.14,-180.56 618.66,-182.14 627.83,-187.44 629.14,-180.56"/>
</g>
<!-- Node19 -->
<g id="node19" class="node">
<title>Node19</title>
<g id="a_node19"><a xlink:title=" ">
<polygon fill="none" stroke="#bfbfbf" points="700,-184 637,-184 637,-165 700,-165 700,-184"/>
<text text-anchor="middle" x="668.5" y="-172" font-family="Helvetica,sans-Serif" font-size="10.00">QLineEdit</text>
</a>
</g>
</g>
<!-- Node1&#45;&gt;Node19 -->
<g id="edge24" class="edge">
<title>Node1&#45;&gt;Node19</title>
<path fill="none" stroke="midnightblue" d="M957.49,-222.01C900.51,-214.27 803.42,-200.51 710.14,-184.02"/>
<polygon fill="midnightblue" stroke="midnightblue" points="710.71,-180.57 700.25,-182.26 709.48,-187.46 710.71,-180.57"/>
</g>
<!-- Node20 -->
<g id="node20" class="node">
<title>Node20</title>
<g id="a_node20"><a xlink:title=" ">
<polygon fill="none" stroke="#bfbfbf" points="801,-184 718,-184 718,-165 801,-165 801,-184"/>
<text text-anchor="middle" x="759.5" y="-172" font-family="Helvetica,sans-Serif" font-size="10.00">QVBoxLayout</text>
</a>
</g>
</g>
<!-- Node1&#45;&gt;Node20 -->
<g id="edge25" class="edge">
<title>Node1&#45;&gt;Node20</title>
<path fill="none" stroke="midnightblue" d="M966.82,-219.98C924,-210.8 855.74,-196.15 809.34,-186.19"/>
<polygon fill="midnightblue" stroke="midnightblue" points="810.01,-182.76 799.5,-184.08 808.54,-189.6 810.01,-182.76"/>
</g>
<!-- Node21 -->
<g id="node21" class="node">
<title>Node21</title>
<g id="a_node21"><a xlink:title=" ">
<polygon fill="none" stroke="#bfbfbf" points="902,-184 819,-184 819,-165 902,-165 902,-184"/>
<text text-anchor="middle" x="860.5" y="-172" font-family="Helvetica,sans-Serif" font-size="10.00">QHBoxLayout</text>
</a>
</g>
</g>
<!-- Node1&#45;&gt;Node21 -->
<g id="edge26" class="edge">
<title>Node1&#45;&gt;Node21</title>
<path fill="none" stroke="midnightblue" d="M983.04,-219.98C958.92,-211.23 921.13,-197.51 893.9,-187.62"/>
<polygon fill="midnightblue" stroke="midnightblue" points="894.98,-184.29 884.38,-184.17 892.59,-190.87 894.98,-184.29"/>
</g>
<!-- Node22 -->
<g id="node22" class="node">
<title>Node22</title>
<g id="a_node22"><a xlink:title=" ">
<polygon fill="none" stroke="#bfbfbf" points="1000.5,-184 920.5,-184 920.5,-165 1000.5,-165 1000.5,-184"/>
<text text-anchor="middle" x="960.5" y="-172" font-family="Helvetica,sans-Serif" font-size="10.00">QPushButton</text>
</a>
</g>
</g>
<!-- Node1&#45;&gt;Node22 -->
<g id="edge27" class="edge">
<title>Node1&#45;&gt;Node22</title>
<path fill="none" stroke="midnightblue" d="M998.9,-219.75C992.34,-212.18 982.68,-201.05 974.69,-191.84"/>
<polygon fill="midnightblue" stroke="midnightblue" points="977.15,-189.35 967.95,-184.09 971.87,-193.94 977.15,-189.35"/>
</g>
<!-- Node23 -->
<g id="node23" class="node">
<title>Node23</title>
<g id="a_node23"><a xlink:title=" ">
<polygon fill="none" stroke="#bfbfbf" points="1088.5,-184 1018.5,-184 1018.5,-165 1088.5,-165 1088.5,-184"/>
<text text-anchor="middle" x="1053.5" y="-172" font-family="Helvetica,sans-Serif" font-size="10.00">QKeyEvent</text>
</a>
</g>
</g>
<!-- Node1&#45;&gt;Node23 -->
<g id="edge29" class="edge">
<title>Node1&#45;&gt;Node23</title>
<path fill="none" stroke="midnightblue" d="M1014.26,-219.75C1020.97,-212.18 1030.84,-201.05 1039.01,-191.84"/>
<polygon fill="midnightblue" stroke="midnightblue" points="1041.87,-193.89 1045.88,-184.09 1036.63,-189.25 1041.87,-193.89"/>
</g>
<!-- Node24 -->
<g id="node24" class="node">
<title>Node24</title>
<g id="a_node24"><a xlink:title=" ">
<polygon fill="none" stroke="#bfbfbf" points="1182.5,-184 1106.5,-184 1106.5,-165 1182.5,-165 1182.5,-184"/>
<text text-anchor="middle" x="1144.5" y="-172" font-family="Helvetica,sans-Serif" font-size="10.00">QTextCursor</text>
</a>
</g>
</g>
<!-- Node1&#45;&gt;Node24 -->
<g id="edge30" class="edge">
<title>Node1&#45;&gt;Node24</title>
<path fill="none" stroke="midnightblue" d="M1028.67,-219.98C1051.27,-211.3 1086.56,-197.75 1112.25,-187.88"/>
<polygon fill="midnightblue" stroke="midnightblue" points="1113.84,-191.02 1121.92,-184.17 1111.33,-184.49 1113.84,-191.02"/>
</g>
<!-- Node25 -->
<g id="node25" class="node">
<title>Node25</title>
<g id="a_node25"><a xlink:title=" ">
<polygon fill="none" stroke="#bfbfbf" points="1242,-184 1201,-184 1201,-165 1242,-165 1242,-184"/>
<text text-anchor="middle" x="1221.5" y="-172" font-family="Helvetica,sans-Serif" font-size="10.00">QFile</text>
</a>
</g>
</g>
<!-- Node1&#45;&gt;Node25 -->
<g id="edge31" class="edge">
<title>Node1&#45;&gt;Node25</title>
<path fill="none" stroke="midnightblue" d="M1043.82,-219.99C1079.21,-211.81 1134.11,-198.86 1190.99,-184.05"/>
<polygon fill="midnightblue" stroke="midnightblue" points="1192.09,-187.38 1200.87,-181.46 1190.31,-180.61 1192.09,-187.38"/>
</g>
<!-- Node26 -->
<g id="node26" class="node">
<title>Node26</title>
<g id="a_node26"><a xlink:title=" ">
<polygon fill="none" stroke="#bfbfbf" points="1298.5,-184 1260.5,-184 1260.5,-165 1298.5,-165 1298.5,-184"/>
<text text-anchor="middle" x="1279.5" y="-172" font-family="Helvetica,sans-Serif" font-size="10.00">QDir</text>
</a>
</g>
</g>
<!-- Node1&#45;&gt;Node26 -->
<g id="edge32" class="edge">
<title>Node1&#45;&gt;Node26</title>
<path fill="none" stroke="midnightblue" d="M1055.66,-221.28C1103.24,-213.9 1177.54,-201.39 1250.49,-184.02"/>
<polygon fill="midnightblue" stroke="midnightblue" points="1251.4,-187.4 1260.3,-181.65 1249.76,-180.59 1251.4,-187.4"/>
</g>
<!-- Node27 -->
<g id="node27" class="node">
<title>Node27</title>
<g id="a_node27"><a xlink:title=" ">
<polygon fill="none" stroke="#bfbfbf" points="1396.5,-184 1316.5,-184 1316.5,-165 1396.5,-165 1396.5,-184"/>
<text text-anchor="middle" x="1356.5" y="-172" font-family="Helvetica,sans-Serif" font-size="10.00">QTextStream</text>
</a>
</g>
</g>
<!-- Node1&#45;&gt;Node27 -->
<g id="edge33" class="edge">
<title>Node1&#45;&gt;Node27</title>
<path fill="none" stroke="midnightblue" d="M1055.57,-221.63C1113.15,-213.48 1211.8,-199.26 1306.38,-184.15"/>
<polygon fill="midnightblue" stroke="midnightblue" points="1307.08,-187.58 1316.4,-182.54 1305.97,-180.67 1307.08,-187.58"/>
</g>
<!-- Node28 -->
<g id="node28" class="node">
<title>Node28</title>
<g id="a_node28"><a xlink:title=" ">
<polygon fill="none" stroke="#bfbfbf" points="1484.5,-184 1414.5,-184 1414.5,-165 1484.5,-165 1484.5,-184"/>
<text text-anchor="middle" x="1449.5" y="-172" font-family="Helvetica,sans-Serif" font-size="10.00">QPdfWriter</text>
</a>
</g>
</g>
<!-- Node1&#45;&gt;Node28 -->
<g id="edge34" class="edge">
<title>Node1&#45;&gt;Node28</title>
<path fill="none" stroke="midnightblue" d="M1055.81,-224.28C1129.41,-217.69 1272.58,-203.8 1404.22,-184.08"/>
<polygon fill="midnightblue" stroke="midnightblue" points="1405.12,-187.48 1414.48,-182.53 1404.07,-180.56 1405.12,-187.48"/>
</g>
<!-- Node29 -->
<g id="node29" class="node">
<title>Node29</title>
<g id="a_node29"><a xlink:title=" ">
<polygon fill="none" stroke="#bfbfbf" points="1560.5,-184 1502.5,-184 1502.5,-165 1560.5,-165 1560.5,-184"/>
<text text-anchor="middle" x="1531.5" y="-172" font-family="Helvetica,sans-Serif" font-size="10.00">QPainter</text>
</a>
</g>
</g>
<!-- Node1&#45;&gt;Node29 -->
<g id="edge35" class="edge">
<title>Node1&#45;&gt;Node29</title>
<path fill="none" stroke="midnightblue" d="M1055.84,-226.1C1142.26,-221.43 1326.79,-209.44 1491.78,-184.08"/>
<polygon fill="midnightblue" stroke="midnightblue" points="1492.77,-187.46 1502.11,-182.47 1491.69,-180.55 1492.77,-187.46"/>
</g>
<!-- Node30 -->
<g id="node30" class="node">
<title>Node30</title>
<g id="a_node30"><a xlink:title=" ">
<polygon fill="none" stroke="#bfbfbf" points="1684.5,-184 1578.5,-184 1578.5,-165 1684.5,-165 1684.5,-184"/>
<text text-anchor="middle" x="1631.5" y="-172" font-family="Helvetica,sans-Serif" font-size="10.00">QDesktopServices</text>
</a>
</g>
</g>
<!-- Node1&#45;&gt;Node30 -->
<g id="edge36" class="edge">
<title>Node1&#45;&gt;Node30</title>
<path fill="none" stroke="midnightblue" d="M1055.54,-225.57C1151.74,-219.63 1372.2,-204.98 1568.22,-184.08"/>
<polygon fill="midnightblue" stroke="midnightblue" points="1568.86,-187.53 1578.42,-182.98 1568.11,-180.57 1568.86,-187.53"/>
</g>
<!-- Node31 -->
<g id="node31" class="node">
<title>Node31</title>
<g id="a_node31"><a xlink:title=" ">
<polygon fill="none" stroke="#bfbfbf" points="1870.5,-184 1702.5,-184 1702.5,-165 1870.5,-165 1870.5,-184"/>
<text text-anchor="middle" x="1786.5" y="-172" font-family="Helvetica,sans-Serif" font-size="10.00">QAbstractTextDocumentLayout</text>
</a>
</g>
</g>
<!-- Node1&#45;&gt;Node31 -->
<g id="edge37" class="edge">
<title>Node1&#45;&gt;Node31</title>
<path fill="none" stroke="midnightblue" d="M1055.68,-225.76C1166.96,-219.47 1446.8,-203.11 1692.18,-184.08"/>
<polygon fill="midnightblue" stroke="midnightblue" points="1692.66,-187.56 1702.36,-183.29 1692.12,-180.58 1692.66,-187.56"/>
</g>
<!-- Node32 -->
<g id="node32" class="node">
<title>Node32</title>
<g id="a_node32"><a xlink:title=" ">
<polygon fill="none" stroke="#bfbfbf" points="1960,-184 1889,-184 1889,-165 1960,-165 1960,-184"/>
<text text-anchor="middle" x="1924.5" y="-172" font-family="Helvetica,sans-Serif" font-size="10.00">QClipboard</text>
</a>
</g>
</g>
<!-- Node1&#45;&gt;Node32 -->
<g id="edge38" class="edge">
<title>Node1&#45;&gt;Node32</title>
<path fill="none" stroke="midnightblue" d="M1055.92,-228.33C1187.87,-227.36 1559.47,-221.37 1878.34,-183.94"/>
<polygon fill="midnightblue" stroke="midnightblue" points="1879.19,-187.37 1888.71,-182.71 1878.36,-180.42 1879.19,-187.37"/>
</g>
<!-- Node33 -->
<g id="node33" class="node">
<title>Node33</title>
<g id="a_node33"><a xlink:title=" ">
<polygon fill="none" stroke="#bfbfbf" points="2053,-184 1978,-184 1978,-165 2053,-165 2053,-184"/>
<text text-anchor="middle" x="2015.5" y="-172" font-family="Helvetica,sans-Serif" font-size="10.00">QMimeData</text>
</a>
</g>
</g>
<!-- Node1&#45;&gt;Node33 -->
<g id="edge39" class="edge">
<title>Node1&#45;&gt;Node33</title>
<path fill="none" stroke="midnightblue" d="M1055.54,-228.59C1196.2,-228.36 1613.12,-224.15 1967.96,-184.02"/>
<polygon fill="midnightblue" stroke="midnightblue" points="1968.37,-187.49 1977.91,-182.88 1967.57,-180.54 1968.37,-187.49"/>
</g>
<!-- Node34 -->
<g id="node34" class="node">
<title>Node34</title>
<g id="a_node34"><a xlink:title=" ">
<polygon fill="none" stroke="#bfbfbf" points="2163.5,-184 2071.5,-184 2071.5,-165 2163.5,-165 2163.5,-184"/>
<text text-anchor="middle" x="2117.5" y="-172" font-family="Helvetica,sans-Serif" font-size="10.00">QFontDatabase</text>
</a>
</g>
</g>
<!-- Node1&#45;&gt;Node34 -->
<g id="edge41" class="edge">
<title>Node1&#45;&gt;Node34</title>
<path fill="none" stroke="midnightblue" d="M1055.58,-228.37C1205.04,-227.56 1667.8,-222.01 2061.18,-184.01"/>
<polygon fill="midnightblue" stroke="midnightblue" points="2061.72,-187.47 2071.33,-183.02 2061.04,-180.5 2061.72,-187.47"/>
</g>
<!-- Node35 -->
<g id="node35" class="node">
<title>Node35</title>
<g id="a_node35"><a xlink:title=" ">
<polygon fill="none" stroke="#bfbfbf" points="2243.5,-184 2181.5,-184 2181.5,-165 2243.5,-165 2243.5,-184"/>
<text text-anchor="middle" x="2212.5" y="-172" font-family="Helvetica,sans-Serif" font-size="10.00">QTextList</text>
</a>
</g>
</g>
<!-- Node1&#45;&gt;Node35 -->
<g id="edge42" class="edge">
<title>Node1&#45;&gt;Node35</title>
<path fill="none" stroke="midnightblue" d="M1055.74,-227.74C1245.66,-224.66 1931.44,-211.89 2171.1,-183.91"/>
<polygon fill="midnightblue" stroke="midnightblue" points="2171.64,-187.37 2181.14,-182.69 2170.8,-180.42 2171.64,-187.37"/>
</g>
<!-- Node3 -->
<g id="node3" class="node">
<title>Node3</title>
<g id="a_node3"><a xlink:title=" ">
<polygon fill="none" stroke="#bfbfbf" points="271,-74 184,-74 184,-55 271,-55 271,-74"/>
<text text-anchor="middle" x="227.5" y="-62" font-family="Helvetica,sans-Serif" font-size="10.00">QMainWindow</text>
</a>
</g>
</g>
<!-- Node2&#45;&gt;Node3 -->
<g id="edge2" class="edge">
<title>Node2&#45;&gt;Node3</title>
<path fill="none" stroke="midnightblue" d="M227.5,-109.75C227.5,-102.8 227.5,-92.85 227.5,-84.13"/>
<polygon fill="midnightblue" stroke="midnightblue" points="231,-84.09 227.5,-74.09 224,-84.09 231,-84.09"/>
</g>
<!-- Node2&#45;&gt;Node4 -->
<g id="edge3" class="edge">
<title>Node2&#45;&gt;Node4</title>
<path fill="none" stroke="midnightblue" d="M195.21,-109.98C159.2,-100.49 101.07,-85.16 63.32,-75.21"/>
<polygon fill="midnightblue" stroke="midnightblue" points="63.81,-71.72 53.25,-72.55 62.03,-78.49 63.81,-71.72"/>
</g>
<!-- Node2&#45;&gt;Node5 -->
<g id="edge4" class="edge">
<title>Node2&#45;&gt;Node5</title>
<path fill="none" stroke="midnightblue" d="M209.99,-109.98C192.53,-101.5 165.49,-88.35 145.33,-78.54"/>
<polygon fill="midnightblue" stroke="midnightblue" points="146.86,-75.4 136.33,-74.17 143.79,-81.69 146.86,-75.4"/>
</g>
<!-- Node6 -->
<g id="node6" class="node">
<title>Node6</title>
<g id="a_node6"><a xlink:href="container_8h.html" target="_top" xlink:title=" ">
<polygon fill="none" stroke="black" points="469,-74 398,-74 398,-55 469,-55 469,-74"/>
<text text-anchor="middle" x="433.5" y="-62" font-family="Helvetica,sans-Serif" font-size="10.00">container.h</text>
</a>
</g>
</g>
<!-- Node2&#45;&gt;Node6 -->
<g id="edge5" class="edge">
<title>Node2&#45;&gt;Node6</title>
<path fill="none" stroke="midnightblue" d="M260.6,-109.98C295.78,-100.93 351.57,-86.58 390.22,-76.64"/>
<polygon fill="midnightblue" stroke="midnightblue" points="391.33,-79.96 400.14,-74.08 389.59,-73.18 391.33,-79.96"/>
</g>
<!-- Node9 -->
<g id="node9" class="node">
<title>Node9</title>
<g id="a_node9"><a xlink:href="contextmenu_8h.html" target="_top" xlink:title=" ">
<polygon fill="none" stroke="black" points="379.5,-74 289.5,-74 289.5,-55 379.5,-55 379.5,-74"/>
<text text-anchor="middle" x="334.5" y="-62" font-family="Helvetica,sans-Serif" font-size="10.00">contextmenu.h</text>
</a>
</g>
</g>
<!-- Node2&#45;&gt;Node9 -->
<g id="edge8" class="edge">
<title>Node2&#45;&gt;Node9</title>
<path fill="none" stroke="midnightblue" d="M244.69,-109.98C261.75,-101.54 288.13,-88.47 307.9,-78.68"/>
<polygon fill="midnightblue" stroke="midnightblue" points="309.59,-81.75 317,-74.17 306.48,-75.47 309.59,-81.75"/>
</g>
<!-- Node7 -->
<g id="node7" class="node">
<title>Node7</title>
<g id="a_node7"><a xlink:title=" ">
<polygon fill="none" stroke="#bfbfbf" points="527,-19 468,-19 468,0 527,0 527,-19"/>
<text text-anchor="middle" x="497.5" y="-7" font-family="Helvetica,sans-Serif" font-size="10.00">QWidget</text>
</a>
</g>
</g>
<!-- Node6&#45;&gt;Node7 -->
<g id="edge6" class="edge">
<title>Node6&#45;&gt;Node7</title>
<path fill="none" stroke="midnightblue" d="M443.78,-54.98C453.34,-47.07 467.78,-35.11 479.28,-25.58"/>
<polygon fill="midnightblue" stroke="midnightblue" points="481.56,-28.24 487.03,-19.17 477.1,-22.85 481.56,-28.24"/>
</g>
<!-- Node8 -->
<g id="node8" class="node">
<title>Node8</title>
<g id="a_node8"><a xlink:title=" ">
<polygon fill="none" stroke="#bfbfbf" points="406,-19 351,-19 351,0 406,0 406,-19"/>
<text text-anchor="middle" x="378.5" y="-7" font-family="Helvetica,sans-Serif" font-size="10.00">QFrame</text>
</a>
</g>
</g>
<!-- Node6&#45;&gt;Node8 -->
<g id="edge7" class="edge">
<title>Node6&#45;&gt;Node8</title>
<path fill="none" stroke="midnightblue" d="M424.42,-54.75C416.41,-47.03 404.54,-35.6 394.88,-26.28"/>
<polygon fill="midnightblue" stroke="midnightblue" points="397.04,-23.51 387.41,-19.09 392.19,-28.55 397.04,-23.51"/>
</g>
<!-- Node9&#45;&gt;Node8 -->
<g id="edge9" class="edge">
<title>Node9&#45;&gt;Node8</title>
<path fill="none" stroke="midnightblue" d="M341.77,-54.75C348.04,-47.18 357.29,-36.05 364.93,-26.84"/>
<polygon fill="midnightblue" stroke="midnightblue" points="367.67,-29.02 371.37,-19.09 362.29,-24.55 367.67,-29.02"/>
</g>
<!-- Node11&#45;&gt;Node7 -->
<g id="edge12" class="edge">
<title>Node11&#45;&gt;Node7</title>
<path fill="none" stroke="midnightblue" d="M439.42,-109.74C451.61,-101.85 468.42,-89.18 478.5,-74 487.45,-60.52 492.3,-42.69 494.86,-29.35"/>
<polygon fill="midnightblue" stroke="midnightblue" points="498.32,-29.84 496.5,-19.4 491.42,-28.7 498.32,-29.84"/>
</g>
<!-- Node11&#45;&gt;Node9 -->
<g id="edge13" class="edge">
<title>Node11&#45;&gt;Node9</title>
<path fill="none" stroke="midnightblue" d="M410.04,-109.98C396.08,-101.77 374.71,-89.18 358.25,-79.49"/>
<polygon fill="midnightblue" stroke="midnightblue" points="359.62,-76.23 349.22,-74.17 356.06,-82.26 359.62,-76.23"/>
</g>
<!-- Node12&#45;&gt;Node2 -->
<g id="edge16" class="edge">
<title>Node12&#45;&gt;Node2</title>
<path fill="none" stroke="midnightblue" d="M328.22,-164.98C308.83,-156.42 278.69,-143.11 256.43,-133.28"/>
<polygon fill="midnightblue" stroke="midnightblue" points="257.69,-130.01 247.13,-129.17 254.86,-136.41 257.69,-130.01"/>
</g>
<!-- Node13 -->
<g id="node13" class="node">
<title>Node13</title>
<g id="a_node13"><a xlink:title=" ">
<polygon fill="none" stroke="#bfbfbf" points="357,-129 294,-129 294,-110 357,-110 357,-129"/>
<text text-anchor="middle" x="325.5" y="-117" font-family="Helvetica,sans-Serif" font-size="10.00">QTextEdit</text>
</a>
</g>
</g>
<!-- Node12&#45;&gt;Node13 -->
<g id="edge15" class="edge">
<title>Node12&#45;&gt;Node13</title>
<path fill="none" stroke="midnightblue" d="M343.87,-164.75C340.92,-157.65 336.67,-147.4 332.99,-138.56"/>
<polygon fill="midnightblue" stroke="midnightblue" points="336.13,-136.98 329.07,-129.09 329.67,-139.67 336.13,-136.98"/>
</g>
<!-- Node14&#45;&gt;Node6 -->
<g id="edge21" class="edge">
<title>Node14&#45;&gt;Node6</title>
<path fill="none" stroke="midnightblue" d="M519.11,-109.98C502.93,-101.57 477.93,-88.59 459.12,-78.81"/>
<polygon fill="midnightblue" stroke="midnightblue" points="460.67,-75.68 450.19,-74.17 457.45,-81.89 460.67,-75.68"/>
</g>
<!-- Node14&#45;&gt;Node7 -->
<g id="edge19" class="edge">
<title>Node14&#45;&gt;Node7</title>
<path fill="none" stroke="midnightblue" d="M532.39,-109.66C526.18,-92.01 512.13,-52.09 503.88,-28.64"/>
<polygon fill="midnightblue" stroke="midnightblue" points="507.17,-27.43 500.55,-19.16 500.56,-29.75 507.17,-27.43"/>
</g>
<!-- Node15 -->
<g id="node15" class="node">
<title>Node15</title>
<g id="a_node15"><a xlink:title=" ">
<polygon fill="none" stroke="#bfbfbf" points="619.5,-74 563.5,-74 563.5,-55 619.5,-55 619.5,-74"/>
<text text-anchor="middle" x="591.5" y="-62" font-family="Helvetica,sans-Serif" font-size="10.00">QObject</text>
</a>
</g>
</g>
<!-- Node14&#45;&gt;Node15 -->
<g id="edge18" class="edge">
<title>Node14&#45;&gt;Node15</title>
<path fill="none" stroke="midnightblue" d="M544.5,-109.98C552.69,-102.23 565.01,-90.58 574.97,-81.14"/>
<polygon fill="midnightblue" stroke="midnightblue" points="577.48,-83.59 582.34,-74.17 572.67,-78.5 577.48,-83.59"/>
</g>
<!-- Node16 -->
<g id="node16" class="node">
<title>Node16</title>
<g id="a_node16"><a xlink:title=" ">
<polygon fill="none" stroke="#bfbfbf" points="687.5,-74 637.5,-74 637.5,-55 687.5,-55 687.5,-74"/>
<text text-anchor="middle" x="662.5" y="-62" font-family="Helvetica,sans-Serif" font-size="10.00">QLabel</text>
</a>
</g>
</g>
<!-- Node14&#45;&gt;Node16 -->
<g id="edge20" class="edge">
<title>Node14&#45;&gt;Node16</title>
<path fill="none" stroke="midnightblue" d="M555.9,-109.98C576.52,-101.38 608.61,-87.99 632.19,-78.15"/>
<polygon fill="midnightblue" stroke="midnightblue" points="633.84,-81.25 641.72,-74.17 631.15,-74.79 633.84,-81.25"/>
</g>
</g>
</svg>
