<?xml version="1.0" encoding="UTF-8" standalone="no"?>
<!DOCTYPE svg PUBLIC "-//W3C//DTD SVG 1.1//EN"
 "http://www.w3.org/Graphics/SVG/1.1/DTD/svg11.dtd">
<!-- Generated by graphviz version 5.0.0 (0)
 -->
<!-- Title: mainwindow.h Pages: 1 -->
<svg width="576pt" height="137pt"
 viewBox="0.00 0.00 576.00 137.00" xmlns="http://www.w3.org/2000/svg" xmlns:xlink="http://www.w3.org/1999/xlink">
<g id="graph0" class="graph" transform="scale(1 1) rotate(0) translate(4 133)">
<title>mainwindow.h</title>
<!-- Node1 -->
<g id="node1" class="node">
<title>Node1</title>
<g id="a_node1"><a xlink:title=" ">
<polygon fill="#bfbfbf" stroke="black" points="301.5,-129 214.5,-129 214.5,-110 301.5,-110 301.5,-129"/>
<text text-anchor="middle" x="258" y="-117" font-family="Helvetica,sans-Serif" font-size="10.00">mainwindow.h</text>
</a>
</g>
</g>
<!-- Node2 -->
<g id="node2" class="node">
<title>Node2</title>
<g id="a_node2"><a xlink:href="container_8cpp.html" target="_top" xlink:title=" ">
<polygon fill="none" stroke="black" points="82,-19 0,-19 0,0 82,0 82,-19"/>
<text text-anchor="middle" x="41" y="-7" font-family="Helvetica,sans-Serif" font-size="10.00">container.cpp</text>
</a>
</g>
</g>
<!-- Node1&#45;&gt;Node2 -->
<g id="edge1" class="edge">
<title>Node1&#45;&gt;Node2</title>
<path fill="none" stroke="midnightblue" d="M231.45,-105.28C186.33,-82.83 95.92,-37.83 58.17,-19.05"/>
<polygon fill="midnightblue" stroke="midnightblue" points="230.1,-108.52 240.61,-109.84 233.22,-102.26 230.1,-108.52"/>
</g>
<!-- Node3 -->
<g id="node3" class="node">
<title>Node3</title>
<g id="a_node3"><a xlink:href="floattextedit_8cpp.html" target="_top" xlink:title=" ">
<polygon fill="none" stroke="black" points="197.5,-19 100.5,-19 100.5,0 197.5,0 197.5,-19"/>
<text text-anchor="middle" x="149" y="-7" font-family="Helvetica,sans-Serif" font-size="10.00">floattextedit.cpp</text>
</a>
</g>
</g>
<!-- Node1&#45;&gt;Node3 -->
<g id="edge2" class="edge">
<title>Node1&#45;&gt;Node3</title>
<path fill="none" stroke="midnightblue" d="M239.05,-103.3C228.96,-94.96 216.49,-84.25 206,-74 186.92,-55.37 166.49,-31.54 156.04,-19.04"/>
<polygon fill="midnightblue" stroke="midnightblue" points="236.92,-106.08 246.88,-109.7 241.35,-100.66 236.92,-106.08"/>
</g>
<!-- Node4 -->
<g id="node4" class="node">
<title>Node4</title>
<g id="a_node4"><a xlink:href="floattextedit_8h.html" target="_top" xlink:title=" ">
<polygon fill="none" stroke="black" points="301,-74 215,-74 215,-55 301,-55 301,-74"/>
<text text-anchor="middle" x="258" y="-62" font-family="Helvetica,sans-Serif" font-size="10.00">floattextedit.h</text>
</a>
</g>
</g>
<!-- Node1&#45;&gt;Node4 -->
<g id="edge3" class="edge">
<title>Node1&#45;&gt;Node4</title>
<path fill="none" stroke="midnightblue" d="M258,-99.66C258,-90.93 258,-80.99 258,-74.09"/>
<polygon fill="midnightblue" stroke="midnightblue" points="254.5,-99.75 258,-109.75 261.5,-99.75 254.5,-99.75"/>
</g>
<!-- Node5 -->
<g id="node5" class="node">
<title>Node5</title>
<g id="a_node5"><a xlink:href="mainwindow_8cpp.html" target="_top" xlink:title=" ">
<polygon fill="none" stroke="black" points="568,-19 470,-19 470,0 568,0 568,-19"/>
<text text-anchor="middle" x="519" y="-7" font-family="Helvetica,sans-Serif" font-size="10.00">mainwindow.cpp</text>
</a>
</g>
</g>
<!-- Node1&#45;&gt;Node5 -->
<g id="edge10" class="edge">
<title>Node1&#45;&gt;Node5</title>
<path fill="none" stroke="midnightblue" d="M275.85,-102.94C293.2,-88.57 320.82,-67.61 348,-55 387.1,-36.86 434.78,-25.22 469.86,-18.42"/>
<polygon fill="midnightblue" stroke="midnightblue" points="273.15,-100.64 267.78,-109.77 277.67,-105.98 273.15,-100.64"/>
</g>
<!-- Node8 -->
<g id="node8" class="node">
<title>Node8</title>
<g id="a_node8"><a xlink:href="main_8cpp.html" target="_top" xlink:title=" ">
<polygon fill="none" stroke="black" points="419,-74 357,-74 357,-55 419,-55 419,-74"/>
<text text-anchor="middle" x="388" y="-62" font-family="Helvetica,sans-Serif" font-size="10.00">main.cpp</text>
</a>
</g>
</g>
<!-- Node1&#45;&gt;Node8 -->
<g id="edge9" class="edge">
<title>Node1&#45;&gt;Node8</title>
<path fill="none" stroke="midnightblue" d="M288.27,-106.16C312.34,-96.35 345.4,-82.87 366.73,-74.17"/>
<polygon fill="midnightblue" stroke="midnightblue" points="286.83,-102.97 278.89,-109.98 289.47,-109.45 286.83,-102.97"/>
</g>
<!-- Node4&#45;&gt;Node2 -->
<g id="edge4" class="edge">
<title>Node4&#45;&gt;Node2</title>
<path fill="none" stroke="midnightblue" d="M213.23,-52.56C172.58,-42.64 113.47,-28.2 76.14,-19.08"/>
<polygon fill="midnightblue" stroke="midnightblue" points="212.59,-56.01 223.14,-54.98 214.25,-49.21 212.59,-56.01"/>
</g>
<!-- Node4&#45;&gt;Node3 -->
<g id="edge5" class="edge">
<title>Node4&#45;&gt;Node3</title>
<path fill="none" stroke="midnightblue" d="M231.27,-50.5C211.21,-40.75 184.32,-27.68 166.83,-19.17"/>
<polygon fill="midnightblue" stroke="midnightblue" points="229.96,-53.76 240.49,-54.98 233.02,-47.46 229.96,-53.76"/>
</g>
<!-- Node4&#45;&gt;Node5 -->
<g id="edge6" class="edge">
<title>Node4&#45;&gt;Node5</title>
<path fill="none" stroke="midnightblue" d="M310,-52.94C358.92,-43.01 431.27,-28.31 476.74,-19.08"/>
<polygon fill="midnightblue" stroke="midnightblue" points="309.04,-49.56 299.93,-54.98 310.43,-56.42 309.04,-49.56"/>
</g>
<!-- Node6 -->
<g id="node6" class="node">
<title>Node6</title>
<g id="a_node6"><a xlink:href="notetabwidget_8cpp.html" target="_top" xlink:title=" ">
<polygon fill="none" stroke="black" points="451.5,-19 344.5,-19 344.5,0 451.5,0 451.5,-19"/>
<text text-anchor="middle" x="398" y="-7" font-family="Helvetica,sans-Serif" font-size="10.00">notetabwidget.cpp</text>
</a>
</g>
</g>
<!-- Node4&#45;&gt;Node6 -->
<g id="edge7" class="edge">
<title>Node4&#45;&gt;Node6</title>
<path fill="none" stroke="midnightblue" d="M289.91,-51.42C315.88,-41.59 351.92,-27.95 375.1,-19.17"/>
<polygon fill="midnightblue" stroke="midnightblue" points="288.61,-48.17 280.49,-54.98 291.08,-54.72 288.61,-48.17"/>
</g>
<!-- Node7 -->
<g id="node7" class="node">
<title>Node7</title>
<g id="a_node7"><a xlink:href="tabmainwidget_8cpp.html" target="_top" xlink:title=" ">
<polygon fill="none" stroke="black" points="326,-19 216,-19 216,0 326,0 326,-19"/>
<text text-anchor="middle" x="271" y="-7" font-family="Helvetica,sans-Serif" font-size="10.00">tabmainwidget.cpp</text>
</a>
</g>
</g>
<!-- Node4&#45;&gt;Node7 -->
<g id="edge8" class="edge">
<title>Node4&#45;&gt;Node7</title>
<path fill="none" stroke="midnightblue" d="M262.55,-44.95C264.71,-36.15 267.18,-26.06 268.89,-19.09"/>
<polygon fill="midnightblue" stroke="midnightblue" points="259.13,-44.2 260.15,-54.75 265.93,-45.87 259.13,-44.2"/>
</g>
</g>
</svg>
