<?xml version="1.0" encoding="UTF-8" standalone="no"?>
<!DOCTYPE svg PUBLIC "-//W3C//DTD SVG 1.1//EN"
 "http://www.w3.org/Graphics/SVG/1.1/DTD/svg11.dtd">
<!-- Generated by graphviz version 5.0.0 (0)
 -->
<!-- Title: mainwindow.cpp Pages: 1 -->
<svg width="2522pt" height="247pt"
 viewBox="0.00 0.00 2521.50 247.00" xmlns="http://www.w3.org/2000/svg" xmlns:xlink="http://www.w3.org/1999/xlink">
<g id="graph0" class="graph" transform="scale(1 1) rotate(0) translate(4 243)">
<title>mainwindow.cpp</title>
<!-- Node1 -->
<g id="node1" class="node">
<title>Node1</title>
<g id="a_node1"><a xlink:title=" ">
<polygon fill="#bfbfbf" stroke="black" points="1193.5,-239 1095.5,-239 1095.5,-220 1193.5,-220 1193.5,-239"/>
<text text-anchor="middle" x="1144.5" y="-227" font-family="Helvetica,sans-Serif" font-size="10.00">mainwindow.cpp</text>
</a>
</g>
</g>
<!-- Node2 -->
<g id="node2" class="node">
<title>Node2</title>
<g id="a_node2"><a xlink:href="mainwindow_8h.html" target="_top" xlink:title=" ">
<polygon fill="none" stroke="black" points="275,-129 188,-129 188,-110 275,-110 275,-129"/>
<text text-anchor="middle" x="231.5" y="-117" font-family="Helvetica,sans-Serif" font-size="10.00">mainwindow.h</text>
</a>
</g>
</g>
<!-- Node1&#45;&gt;Node2 -->
<g id="edge1" class="edge">
<title>Node1&#45;&gt;Node2</title>
<path fill="none" stroke="midnightblue" d="M1095.29,-228.1C902.49,-226.31 207.54,-217.55 175.5,-184 159.6,-167.35 184.12,-147.31 205.55,-134.25"/>
<polygon fill="midnightblue" stroke="midnightblue" points="207.52,-137.16 214.42,-129.11 204.01,-131.1 207.52,-137.16"/>
</g>
<!-- Node4 -->
<g id="node4" class="node">
<title>Node4</title>
<g id="a_node4"><a xlink:title=" ">
<polygon fill="none" stroke="#bfbfbf" points="53,-74 0,-74 0,-55 53,-55 53,-74"/>
<text text-anchor="middle" x="26.5" y="-62" font-family="Helvetica,sans-Serif" font-size="10.00">QString</text>
</a>
</g>
</g>
<!-- Node1&#45;&gt;Node4 -->
<g id="edge29" class="edge">
<title>Node1&#45;&gt;Node4</title>
<path fill="none" stroke="midnightblue" d="M1095.28,-228.4C906.08,-227.72 231.83,-222.58 144.5,-184 95.32,-162.28 55.55,-109.98 37.31,-82.71"/>
<polygon fill="midnightblue" stroke="midnightblue" points="40.16,-80.67 31.77,-74.19 34.29,-84.48 40.16,-80.67"/>
</g>
<!-- Node6 -->
<g id="node6" class="node">
<title>Node6</title>
<g id="a_node6"><a xlink:title=" ">
<polygon fill="none" stroke="#bfbfbf" points="166,-74 71,-74 71,-55 166,-55 166,-74"/>
<text text-anchor="middle" x="118.5" y="-62" font-family="Helvetica,sans-Serif" font-size="10.00">QTextDocument</text>
</a>
</g>
</g>
<!-- Node1&#45;&gt;Node6 -->
<g id="edge41" class="edge">
<title>Node1&#45;&gt;Node6</title>
<path fill="none" stroke="midnightblue" d="M1095.17,-227.73C901.88,-224.5 204.72,-211.04 166.5,-184 133.84,-160.89 123.37,-111.58 120.04,-84.42"/>
<polygon fill="midnightblue" stroke="midnightblue" points="123.5,-83.87 119.01,-74.27 116.54,-84.58 123.5,-83.87"/>
</g>
<!-- Node11 -->
<g id="node11" class="node">
<title>Node11</title>
<g id="a_node11"><a xlink:title=" ">
<polygon fill="none" stroke="#bfbfbf" points="286,-184 185,-184 185,-165 286,-165 286,-184"/>
<text text-anchor="middle" x="235.5" y="-172" font-family="Helvetica,sans-Serif" font-size="10.00">ui_mainwindow.h</text>
</a>
</g>
</g>
<!-- Node1&#45;&gt;Node11 -->
<g id="edge11" class="edge">
<title>Node1&#45;&gt;Node11</title>
<path fill="none" stroke="midnightblue" d="M1095.1,-227.44C965.75,-224.32 606.34,-213.58 296.28,-183.97"/>
<polygon fill="midnightblue" stroke="midnightblue" points="296.49,-180.48 286.2,-183 295.82,-187.45 296.49,-180.48"/>
</g>
<!-- Node12 -->
<g id="node12" class="node">
<title>Node12</title>
<g id="a_node12"><a xlink:href="tabmainwidget_8h.html" target="_top" xlink:title=" ">
<polygon fill="none" stroke="black" points="487,-129 388,-129 388,-110 487,-110 487,-129"/>
<text text-anchor="middle" x="437.5" y="-117" font-family="Helvetica,sans-Serif" font-size="10.00">tabmainwidget.h</text>
</a>
</g>
</g>
<!-- Node1&#45;&gt;Node12 -->
<g id="edge12" class="edge">
<title>Node1&#45;&gt;Node12</title>
<path fill="none" stroke="midnightblue" d="M1095.32,-228.26C947.53,-227.12 514.44,-220.65 463.5,-184 449.17,-173.69 442.72,-154.03 439.82,-139.31"/>
<polygon fill="midnightblue" stroke="midnightblue" points="443.25,-138.58 438.23,-129.24 436.34,-139.67 443.25,-138.58"/>
</g>
<!-- Node13 -->
<g id="node13" class="node">
<title>Node13</title>
<g id="a_node13"><a xlink:href="floattextedit_8h.html" target="_top" xlink:title=" ">
<polygon fill="none" stroke="black" points="390.5,-184 304.5,-184 304.5,-165 390.5,-165 390.5,-184"/>
<text text-anchor="middle" x="347.5" y="-172" font-family="Helvetica,sans-Serif" font-size="10.00">floattextedit.h</text>
</a>
</g>
</g>
<!-- Node1&#45;&gt;Node13 -->
<g id="edge15" class="edge">
<title>Node1&#45;&gt;Node13</title>
<path fill="none" stroke="midnightblue" d="M1095.45,-227.04C976.64,-223.19 664.04,-211.1 404.5,-184 403.24,-183.87 401.97,-183.73 400.68,-183.58"/>
<polygon fill="midnightblue" stroke="midnightblue" points="401.06,-180.1 390.71,-182.35 400.2,-187.05 401.06,-180.1"/>
</g>
<!-- Node15 -->
<g id="node15" class="node">
<title>Node15</title>
<g id="a_node15"><a xlink:href="floatimage_8h.html" target="_top" xlink:title=" ">
<polygon fill="none" stroke="black" points="668.5,-129 590.5,-129 590.5,-110 668.5,-110 668.5,-129"/>
<text text-anchor="middle" x="629.5" y="-117" font-family="Helvetica,sans-Serif" font-size="10.00">floatimage.h</text>
</a>
</g>
</g>
<!-- Node1&#45;&gt;Node15 -->
<g id="edge18" class="edge">
<title>Node1&#45;&gt;Node15</title>
<path fill="none" stroke="midnightblue" d="M1095.48,-229C948.28,-230 517.63,-229.02 475.5,-184 441.39,-147.54 523.32,-131.38 580.29,-124.72"/>
<polygon fill="midnightblue" stroke="midnightblue" points="580.7,-128.19 590.25,-123.62 579.93,-121.24 580.7,-128.19"/>
</g>
<!-- Node18 -->
<g id="node18" class="node">
<title>Node18</title>
<g id="a_node18"><a xlink:title=" ">
<polygon fill="none" stroke="#bfbfbf" points="544.5,-184 484.5,-184 484.5,-165 544.5,-165 544.5,-184"/>
<text text-anchor="middle" x="514.5" y="-172" font-family="Helvetica,sans-Serif" font-size="10.00">iostream</text>
</a>
</g>
</g>
<!-- Node1&#45;&gt;Node18 -->
<g id="edge23" class="edge">
<title>Node1&#45;&gt;Node18</title>
<path fill="none" stroke="midnightblue" d="M1095.21,-227.11C995.12,-223.79 760.77,-213.46 554.76,-183.97"/>
<polygon fill="midnightblue" stroke="midnightblue" points="555.06,-180.48 544.66,-182.51 554.05,-187.41 555.06,-180.48"/>
</g>
<!-- Node19 -->
<g id="node19" class="node">
<title>Node19</title>
<g id="a_node19"><a xlink:title=" ">
<polygon fill="none" stroke="#bfbfbf" points="618.5,-184 562.5,-184 562.5,-165 618.5,-165 618.5,-184"/>
<text text-anchor="middle" x="590.5" y="-172" font-family="Helvetica,sans-Serif" font-size="10.00">QDialog</text>
</a>
</g>
</g>
<!-- Node1&#45;&gt;Node19 -->
<g id="edge24" class="edge">
<title>Node1&#45;&gt;Node19</title>
<path fill="none" stroke="midnightblue" d="M1095.15,-226.45C1002.99,-222.13 798.68,-210.25 628.5,-184 628.4,-183.98 628.3,-183.97 628.2,-183.95"/>
<polygon fill="midnightblue" stroke="midnightblue" points="629.1,-180.56 618.64,-182.24 627.87,-187.45 629.1,-180.56"/>
</g>
<!-- Node20 -->
<g id="node20" class="node">
<title>Node20</title>
<g id="a_node20"><a xlink:title=" ">
<polygon fill="none" stroke="#bfbfbf" points="700,-184 637,-184 637,-165 700,-165 700,-184"/>
<text text-anchor="middle" x="668.5" y="-172" font-family="Helvetica,sans-Serif" font-size="10.00">QLineEdit</text>
</a>
</g>
</g>
<!-- Node1&#45;&gt;Node20 -->
<g id="edge25" class="edge">
<title>Node1&#45;&gt;Node20</title>
<path fill="none" stroke="midnightblue" d="M1095.36,-225.12C1016.37,-219.33 856.08,-206.1 710.25,-183.95"/>
<polygon fill="midnightblue" stroke="midnightblue" points="710.64,-180.47 700.23,-182.41 709.58,-187.39 710.64,-180.47"/>
</g>
<!-- Node21 -->
<g id="node21" class="node">
<title>Node21</title>
<g id="a_node21"><a xlink:title=" ">
<polygon fill="none" stroke="#bfbfbf" points="801,-184 718,-184 718,-165 801,-165 801,-184"/>
<text text-anchor="middle" x="759.5" y="-172" font-family="Helvetica,sans-Serif" font-size="10.00">QVBoxLayout</text>
</a>
</g>
</g>
<!-- Node1&#45;&gt;Node21 -->
<g id="edge26" class="edge">
<title>Node1&#45;&gt;Node21</title>
<path fill="none" stroke="midnightblue" d="M1095.47,-222.48C1032.28,-214.6 918.73,-200.07 811.28,-184.07"/>
<polygon fill="midnightblue" stroke="midnightblue" points="811.64,-180.59 801.23,-182.57 810.6,-187.51 811.64,-180.59"/>
</g>
<!-- Node22 -->
<g id="node22" class="node">
<title>Node22</title>
<g id="a_node22"><a xlink:title=" ">
<polygon fill="none" stroke="#bfbfbf" points="902,-184 819,-184 819,-165 902,-165 902,-184"/>
<text text-anchor="middle" x="860.5" y="-172" font-family="Helvetica,sans-Serif" font-size="10.00">QHBoxLayout</text>
</a>
</g>
</g>
<!-- Node1&#45;&gt;Node22 -->
<g id="edge27" class="edge">
<title>Node1&#45;&gt;Node22</title>
<path fill="none" stroke="midnightblue" d="M1098.87,-219.98C1047.9,-210.47 965.57,-195.11 912.25,-185.16"/>
<polygon fill="midnightblue" stroke="midnightblue" points="912.79,-181.7 902.31,-183.3 911.5,-188.58 912.79,-181.7"/>
</g>
<!-- Node23 -->
<g id="node23" class="node">
<title>Node23</title>
<g id="a_node23"><a xlink:title=" ">
<polygon fill="none" stroke="#bfbfbf" points="1000.5,-184 920.5,-184 920.5,-165 1000.5,-165 1000.5,-184"/>
<text text-anchor="middle" x="960.5" y="-172" font-family="Helvetica,sans-Serif" font-size="10.00">QPushButton</text>
</a>
</g>
</g>
<!-- Node1&#45;&gt;Node23 -->
<g id="edge28" class="edge">
<title>Node1&#45;&gt;Node23</title>
<path fill="none" stroke="midnightblue" d="M1114.94,-219.98C1083.78,-211.01 1034.53,-196.82 1000.04,-186.89"/>
<polygon fill="midnightblue" stroke="midnightblue" points="1000.87,-183.49 990.29,-184.08 998.93,-190.21 1000.87,-183.49"/>
</g>
<!-- Node24 -->
<g id="node24" class="node">
<title>Node24</title>
<g id="a_node24"><a xlink:title=" ">
<polygon fill="none" stroke="#bfbfbf" points="1088.5,-184 1018.5,-184 1018.5,-165 1088.5,-165 1088.5,-184"/>
<text text-anchor="middle" x="1053.5" y="-172" font-family="Helvetica,sans-Serif" font-size="10.00">QKeyEvent</text>
</a>
</g>
</g>
<!-- Node1&#45;&gt;Node24 -->
<g id="edge30" class="edge">
<title>Node1&#45;&gt;Node24</title>
<path fill="none" stroke="midnightblue" d="M1129.88,-219.98C1115.64,-211.69 1093.75,-198.94 1077.05,-189.22"/>
<polygon fill="midnightblue" stroke="midnightblue" points="1078.79,-186.18 1068.39,-184.17 1075.27,-192.23 1078.79,-186.18"/>
</g>
<!-- Node25 -->
<g id="node25" class="node">
<title>Node25</title>
<g id="a_node25"><a xlink:title=" ">
<polygon fill="none" stroke="#bfbfbf" points="1182.5,-184 1106.5,-184 1106.5,-165 1182.5,-165 1182.5,-184"/>
<text text-anchor="middle" x="1144.5" y="-172" font-family="Helvetica,sans-Serif" font-size="10.00">QTextCursor</text>
</a>
</g>
</g>
<!-- Node1&#45;&gt;Node25 -->
<g id="edge31" class="edge">
<title>Node1&#45;&gt;Node25</title>
<path fill="none" stroke="midnightblue" d="M1144.5,-219.75C1144.5,-212.8 1144.5,-202.85 1144.5,-194.13"/>
<polygon fill="midnightblue" stroke="midnightblue" points="1148,-194.09 1144.5,-184.09 1141,-194.09 1148,-194.09"/>
</g>
<!-- Node26 -->
<g id="node26" class="node">
<title>Node26</title>
<g id="a_node26"><a xlink:title=" ">
<polygon fill="none" stroke="#bfbfbf" points="1242,-184 1201,-184 1201,-165 1242,-165 1242,-184"/>
<text text-anchor="middle" x="1221.5" y="-172" font-family="Helvetica,sans-Serif" font-size="10.00">QFile</text>
</a>
</g>
</g>
<!-- Node1&#45;&gt;Node26 -->
<g id="edge32" class="edge">
<title>Node1&#45;&gt;Node26</title>
<path fill="none" stroke="midnightblue" d="M1156.87,-219.98C1168.59,-211.92 1186.42,-199.65 1200.39,-190.03"/>
<polygon fill="midnightblue" stroke="midnightblue" points="1202.65,-192.72 1208.9,-184.17 1198.68,-186.96 1202.65,-192.72"/>
</g>
<!-- Node27 -->
<g id="node27" class="node">
<title>Node27</title>
<g id="a_node27"><a xlink:title=" ">
<polygon fill="none" stroke="#bfbfbf" points="1298.5,-184 1260.5,-184 1260.5,-165 1298.5,-165 1298.5,-184"/>
<text text-anchor="middle" x="1279.5" y="-172" font-family="Helvetica,sans-Serif" font-size="10.00">QDir</text>
</a>
</g>
</g>
<!-- Node1&#45;&gt;Node27 -->
<g id="edge33" class="edge">
<title>Node1&#45;&gt;Node27</title>
<path fill="none" stroke="midnightblue" d="M1166.19,-219.98C1189.22,-210.94 1225.72,-196.61 1251.05,-186.67"/>
<polygon fill="midnightblue" stroke="midnightblue" points="1252.45,-189.88 1260.48,-182.97 1249.89,-183.36 1252.45,-189.88"/>
</g>
<!-- Node28 -->
<g id="node28" class="node">
<title>Node28</title>
<g id="a_node28"><a xlink:title=" ">
<polygon fill="none" stroke="#bfbfbf" points="1396.5,-184 1316.5,-184 1316.5,-165 1396.5,-165 1396.5,-184"/>
<text text-anchor="middle" x="1356.5" y="-172" font-family="Helvetica,sans-Serif" font-size="10.00">QTextStream</text>
</a>
</g>
</g>
<!-- Node1&#45;&gt;Node28 -->
<g id="edge34" class="edge">
<title>Node1&#45;&gt;Node28</title>
<path fill="none" stroke="midnightblue" d="M1178.56,-219.98C1214.92,-210.89 1272.67,-196.46 1312.47,-186.51"/>
<polygon fill="midnightblue" stroke="midnightblue" points="1313.32,-189.9 1322.17,-184.08 1311.62,-183.11 1313.32,-189.9"/>
</g>
<!-- Node29 -->
<g id="node29" class="node">
<title>Node29</title>
<g id="a_node29"><a xlink:title=" ">
<polygon fill="none" stroke="#bfbfbf" points="1484.5,-184 1414.5,-184 1414.5,-165 1484.5,-165 1484.5,-184"/>
<text text-anchor="middle" x="1449.5" y="-172" font-family="Helvetica,sans-Serif" font-size="10.00">QPdfWriter</text>
</a>
</g>
</g>
<!-- Node1&#45;&gt;Node29 -->
<g id="edge35" class="edge">
<title>Node1&#45;&gt;Node29</title>
<path fill="none" stroke="midnightblue" d="M1193.62,-220.46C1243.97,-212.13 1324.81,-198.57 1404.26,-184.19"/>
<polygon fill="midnightblue" stroke="midnightblue" points="1405.23,-187.57 1414.45,-182.34 1403.98,-180.69 1405.23,-187.57"/>
</g>
<!-- Node30 -->
<g id="node30" class="node">
<title>Node30</title>
<g id="a_node30"><a xlink:title=" ">
<polygon fill="none" stroke="#bfbfbf" points="1560.5,-184 1502.5,-184 1502.5,-165 1560.5,-165 1560.5,-184"/>
<text text-anchor="middle" x="1531.5" y="-172" font-family="Helvetica,sans-Serif" font-size="10.00">QPainter</text>
</a>
</g>
</g>
<!-- Node1&#45;&gt;Node30 -->
<g id="edge36" class="edge">
<title>Node1&#45;&gt;Node30</title>
<path fill="none" stroke="midnightblue" d="M1193.56,-223.7C1259.31,-216.95 1379.83,-203.45 1491.97,-184.13"/>
<polygon fill="midnightblue" stroke="midnightblue" points="1492.85,-187.53 1502.1,-182.36 1491.64,-180.63 1492.85,-187.53"/>
</g>
<!-- Node31 -->
<g id="node31" class="node">
<title>Node31</title>
<g id="a_node31"><a xlink:title=" ">
<polygon fill="none" stroke="#bfbfbf" points="1684.5,-184 1578.5,-184 1578.5,-165 1684.5,-165 1684.5,-184"/>
<text text-anchor="middle" x="1631.5" y="-172" font-family="Helvetica,sans-Serif" font-size="10.00">QDesktopServices</text>
</a>
</g>
</g>
<!-- Node1&#45;&gt;Node31 -->
<g id="edge37" class="edge">
<title>Node1&#45;&gt;Node31</title>
<path fill="none" stroke="midnightblue" d="M1193.64,-223.87C1270.99,-216.47 1426.12,-201.16 1568.21,-184.12"/>
<polygon fill="midnightblue" stroke="midnightblue" points="1568.91,-187.56 1578.41,-182.89 1568.07,-180.61 1568.91,-187.56"/>
</g>
<!-- Node32 -->
<g id="node32" class="node">
<title>Node32</title>
<g id="a_node32"><a xlink:title=" ">
<polygon fill="none" stroke="#bfbfbf" points="1870.5,-184 1702.5,-184 1702.5,-165 1870.5,-165 1870.5,-184"/>
<text text-anchor="middle" x="1786.5" y="-172" font-family="Helvetica,sans-Serif" font-size="10.00">QAbstractTextDocumentLayout</text>
</a>
</g>
</g>
<!-- Node1&#45;&gt;Node32 -->
<g id="edge38" class="edge">
<title>Node1&#45;&gt;Node32</title>
<path fill="none" stroke="midnightblue" d="M1193.73,-224.68C1288.14,-217.32 1501.48,-200.5 1692.14,-184.11"/>
<polygon fill="midnightblue" stroke="midnightblue" points="1692.69,-187.57 1702.35,-183.23 1692.09,-180.6 1692.69,-187.57"/>
</g>
<!-- Node33 -->
<g id="node33" class="node">
<title>Node33</title>
<g id="a_node33"><a xlink:title=" ">
<polygon fill="none" stroke="#bfbfbf" points="1960,-184 1889,-184 1889,-165 1960,-165 1960,-184"/>
<text text-anchor="middle" x="1924.5" y="-172" font-family="Helvetica,sans-Serif" font-size="10.00">QClipboard</text>
</a>
</g>
</g>
<!-- Node1&#45;&gt;Node33 -->
<g id="edge39" class="edge">
<title>Node1&#45;&gt;Node33</title>
<path fill="none" stroke="midnightblue" d="M1193.73,-227.66C1310.73,-225.21 1614.75,-216.14 1878.55,-183.94"/>
<polygon fill="midnightblue" stroke="midnightblue" points="1879.21,-187.38 1888.7,-182.68 1878.35,-180.44 1879.21,-187.38"/>
</g>
<!-- Node34 -->
<g id="node34" class="node">
<title>Node34</title>
<g id="a_node34"><a xlink:title=" ">
<polygon fill="none" stroke="#bfbfbf" points="2053,-184 1978,-184 1978,-165 2053,-165 2053,-184"/>
<text text-anchor="middle" x="2015.5" y="-172" font-family="Helvetica,sans-Serif" font-size="10.00">QMimeData</text>
</a>
</g>
</g>
<!-- Node1&#45;&gt;Node34 -->
<g id="edge40" class="edge">
<title>Node1&#45;&gt;Node34</title>
<path fill="none" stroke="midnightblue" d="M1193.51,-228.06C1320.1,-226.44 1668.5,-219 1967.73,-184.06"/>
<polygon fill="midnightblue" stroke="midnightblue" points="1968.38,-187.5 1977.9,-182.85 1967.56,-180.55 1968.38,-187.5"/>
</g>
<!-- Node35 -->
<g id="node35" class="node">
<title>Node35</title>
<g id="a_node35"><a xlink:title=" ">
<polygon fill="none" stroke="#bfbfbf" points="2163.5,-184 2071.5,-184 2071.5,-165 2163.5,-165 2163.5,-184"/>
<text text-anchor="middle" x="2117.5" y="-172" font-family="Helvetica,sans-Serif" font-size="10.00">QFontDatabase</text>
</a>
</g>
</g>
<!-- Node1&#45;&gt;Node35 -->
<g id="edge42" class="edge">
<title>Node1&#45;&gt;Node35</title>
<path fill="none" stroke="midnightblue" d="M1193.89,-227.93C1330.34,-225.95 1724.11,-217.63 2061.37,-184"/>
<polygon fill="midnightblue" stroke="midnightblue" points="2061.73,-187.48 2071.33,-182.99 2061.03,-180.51 2061.73,-187.48"/>
</g>
<!-- Node36 -->
<g id="node36" class="node">
<title>Node36</title>
<g id="a_node36"><a xlink:title=" ">
<polygon fill="none" stroke="#bfbfbf" points="2243.5,-184 2181.5,-184 2181.5,-165 2243.5,-165 2243.5,-184"/>
<text text-anchor="middle" x="2212.5" y="-172" font-family="Helvetica,sans-Serif" font-size="10.00">QTextList</text>
</a>
</g>
</g>
<!-- Node1&#45;&gt;Node36 -->
<g id="edge43" class="edge">
<title>Node1&#45;&gt;Node36</title>
<path fill="none" stroke="midnightblue" d="M1193.57,-227.46C1368.23,-223.58 1960.06,-208.98 2171.08,-183.92"/>
<polygon fill="midnightblue" stroke="midnightblue" points="2171.64,-187.38 2181.14,-182.68 2170.79,-180.43 2171.64,-187.38"/>
</g>
<!-- Node37 -->
<g id="node37" class="node">
<title>Node37</title>
<g id="a_node37"><a xlink:title=" ">
<polygon fill="none" stroke="#bfbfbf" points="2335.5,-184 2261.5,-184 2261.5,-165 2335.5,-165 2335.5,-184"/>
<text text-anchor="middle" x="2298.5" y="-172" font-family="Helvetica,sans-Serif" font-size="10.00">QScrollArea</text>
</a>
</g>
</g>
<!-- Node1&#45;&gt;Node37 -->
<g id="edge44" class="edge">
<title>Node1&#45;&gt;Node37</title>
<path fill="none" stroke="midnightblue" d="M1193.56,-229.02C1347.89,-230.12 1837.25,-229.58 2251.34,-183.94"/>
<polygon fill="midnightblue" stroke="midnightblue" points="2251.86,-187.41 2261.41,-182.82 2251.08,-180.45 2251.86,-187.41"/>
</g>
<!-- Node38 -->
<g id="node38" class="node">
<title>Node38</title>
<g id="a_node38"><a xlink:title=" ">
<polygon fill="none" stroke="#bfbfbf" points="2427.5,-184 2353.5,-184 2353.5,-165 2427.5,-165 2427.5,-184"/>
<text text-anchor="middle" x="2390.5" y="-172" font-family="Helvetica,sans-Serif" font-size="10.00">QSizePolicy</text>
</a>
</g>
</g>
<!-- Node1&#45;&gt;Node38 -->
<g id="edge45" class="edge">
<title>Node1&#45;&gt;Node38</title>
<path fill="none" stroke="midnightblue" d="M1193.81,-227.63C1387.37,-224.07 2096.16,-209.62 2343.4,-183.91"/>
<polygon fill="midnightblue" stroke="midnightblue" points="2343.84,-187.38 2353.41,-182.83 2343.09,-180.42 2343.84,-187.38"/>
</g>
<!-- Node39 -->
<g id="node39" class="node">
<title>Node39</title>
<g id="a_node39"><a xlink:title=" ">
<polygon fill="none" stroke="#bfbfbf" points="2513.5,-184 2445.5,-184 2445.5,-165 2513.5,-165 2513.5,-184"/>
<text text-anchor="middle" x="2479.5" y="-172" font-family="Helvetica,sans-Serif" font-size="10.00">QScrollBar</text>
</a>
</g>
</g>
<!-- Node1&#45;&gt;Node39 -->
<g id="edge46" class="edge">
<title>Node1&#45;&gt;Node39</title>
<path fill="none" stroke="midnightblue" d="M1193.72,-227.86C1396.55,-225.08 2169.05,-212.85 2435.29,-183.9"/>
<polygon fill="midnightblue" stroke="midnightblue" points="2435.76,-187.37 2445.31,-182.77 2434.98,-180.41 2435.76,-187.37"/>
</g>
<!-- Node3 -->
<g id="node3" class="node">
<title>Node3</title>
<g id="a_node3"><a xlink:title=" ">
<polygon fill="none" stroke="#bfbfbf" points="271,-74 184,-74 184,-55 271,-55 271,-74"/>
<text text-anchor="middle" x="227.5" y="-62" font-family="Helvetica,sans-Serif" font-size="10.00">QMainWindow</text>
</a>
</g>
</g>
<!-- Node2&#45;&gt;Node3 -->
<g id="edge2" class="edge">
<title>Node2&#45;&gt;Node3</title>
<path fill="none" stroke="midnightblue" d="M230.84,-109.75C230.32,-102.8 229.56,-92.85 228.91,-84.13"/>
<polygon fill="midnightblue" stroke="midnightblue" points="232.39,-83.8 228.15,-74.09 225.41,-84.32 232.39,-83.8"/>
</g>
<!-- Node2&#45;&gt;Node4 -->
<g id="edge3" class="edge">
<title>Node2&#45;&gt;Node4</title>
<path fill="none" stroke="midnightblue" d="M198.56,-109.98C161.47,-100.4 101.37,-84.86 62.91,-74.91"/>
<polygon fill="midnightblue" stroke="midnightblue" points="63.71,-71.5 53.15,-72.39 61.96,-78.28 63.71,-71.5"/>
</g>
<!-- Node5 -->
<g id="node5" class="node">
<title>Node5</title>
<g id="a_node5"><a xlink:title=" ">
<polygon fill="none" stroke="#bfbfbf" points="365.5,-74 289.5,-74 289.5,-55 365.5,-55 365.5,-74"/>
<text text-anchor="middle" x="327.5" y="-62" font-family="Helvetica,sans-Serif" font-size="10.00">QListWidget</text>
</a>
</g>
</g>
<!-- Node2&#45;&gt;Node5 -->
<g id="edge4" class="edge">
<title>Node2&#45;&gt;Node5</title>
<path fill="none" stroke="midnightblue" d="M246.92,-109.98C261.95,-101.69 285.04,-88.94 302.66,-79.22"/>
<polygon fill="midnightblue" stroke="midnightblue" points="304.73,-82.07 311.8,-74.17 301.35,-75.94 304.73,-82.07"/>
</g>
<!-- Node2&#45;&gt;Node6 -->
<g id="edge5" class="edge">
<title>Node2&#45;&gt;Node6</title>
<path fill="none" stroke="midnightblue" d="M213.34,-109.98C195.25,-101.5 167.22,-88.35 146.31,-78.54"/>
<polygon fill="midnightblue" stroke="midnightblue" points="147.53,-75.25 136.99,-74.17 144.55,-81.59 147.53,-75.25"/>
</g>
<!-- Node7 -->
<g id="node7" class="node">
<title>Node7</title>
<g id="a_node7"><a xlink:href="container_8h.html" target="_top" xlink:title=" ">
<polygon fill="none" stroke="black" points="563,-74 492,-74 492,-55 563,-55 563,-74"/>
<text text-anchor="middle" x="527.5" y="-62" font-family="Helvetica,sans-Serif" font-size="10.00">container.h</text>
</a>
</g>
</g>
<!-- Node2&#45;&gt;Node7 -->
<g id="edge6" class="edge">
<title>Node2&#45;&gt;Node7</title>
<path fill="none" stroke="midnightblue" d="M275.06,-110.93C323.08,-102.55 402.91,-88.52 481.56,-74.15"/>
<polygon fill="midnightblue" stroke="midnightblue" points="482.44,-77.55 491.65,-72.31 481.18,-70.67 482.44,-77.55"/>
</g>
<!-- Node10 -->
<g id="node10" class="node">
<title>Node10</title>
<g id="a_node10"><a xlink:href="contextmenu_8h.html" target="_top" xlink:title=" ">
<polygon fill="none" stroke="black" points="473.5,-74 383.5,-74 383.5,-55 473.5,-55 473.5,-74"/>
<text text-anchor="middle" x="428.5" y="-62" font-family="Helvetica,sans-Serif" font-size="10.00">contextmenu.h</text>
</a>
</g>
</g>
<!-- Node2&#45;&gt;Node10 -->
<g id="edge9" class="edge">
<title>Node2&#45;&gt;Node10</title>
<path fill="none" stroke="midnightblue" d="M263.15,-109.98C296.66,-100.97 349.7,-86.7 386.64,-76.76"/>
<polygon fill="midnightblue" stroke="midnightblue" points="387.85,-80.06 396.6,-74.08 386.03,-73.3 387.85,-80.06"/>
</g>
<!-- Node8 -->
<g id="node8" class="node">
<title>Node8</title>
<g id="a_node8"><a xlink:title=" ">
<polygon fill="none" stroke="#bfbfbf" points="621,-19 562,-19 562,0 621,0 621,-19"/>
<text text-anchor="middle" x="591.5" y="-7" font-family="Helvetica,sans-Serif" font-size="10.00">QWidget</text>
</a>
</g>
</g>
<!-- Node7&#45;&gt;Node8 -->
<g id="edge7" class="edge">
<title>Node7&#45;&gt;Node8</title>
<path fill="none" stroke="midnightblue" d="M537.78,-54.98C547.34,-47.07 561.78,-35.11 573.28,-25.58"/>
<polygon fill="midnightblue" stroke="midnightblue" points="575.56,-28.24 581.03,-19.17 571.1,-22.85 575.56,-28.24"/>
</g>
<!-- Node9 -->
<g id="node9" class="node">
<title>Node9</title>
<g id="a_node9"><a xlink:title=" ">
<polygon fill="none" stroke="#bfbfbf" points="500,-19 445,-19 445,0 500,0 500,-19"/>
<text text-anchor="middle" x="472.5" y="-7" font-family="Helvetica,sans-Serif" font-size="10.00">QFrame</text>
</a>
</g>
</g>
<!-- Node7&#45;&gt;Node9 -->
<g id="edge8" class="edge">
<title>Node7&#45;&gt;Node9</title>
<path fill="none" stroke="midnightblue" d="M518.42,-54.75C510.41,-47.03 498.54,-35.6 488.88,-26.28"/>
<polygon fill="midnightblue" stroke="midnightblue" points="491.04,-23.51 481.41,-19.09 486.19,-28.55 491.04,-23.51"/>
</g>
<!-- Node10&#45;&gt;Node9 -->
<g id="edge10" class="edge">
<title>Node10&#45;&gt;Node9</title>
<path fill="none" stroke="midnightblue" d="M435.77,-54.75C442.04,-47.18 451.29,-36.05 458.93,-26.84"/>
<polygon fill="midnightblue" stroke="midnightblue" points="461.67,-29.02 465.37,-19.09 456.29,-24.55 461.67,-29.02"/>
</g>
<!-- Node12&#45;&gt;Node8 -->
<g id="edge13" class="edge">
<title>Node12&#45;&gt;Node8</title>
<path fill="none" stroke="midnightblue" d="M487.16,-113.48C515.67,-108.11 550.13,-97 572.5,-74 584.15,-62.02 588.7,-43.21 590.45,-29.16"/>
<polygon fill="midnightblue" stroke="midnightblue" points="593.94,-29.41 591.34,-19.14 586.97,-28.79 593.94,-29.41"/>
</g>
<!-- Node12&#45;&gt;Node10 -->
<g id="edge14" class="edge">
<title>Node12&#45;&gt;Node10</title>
<path fill="none" stroke="midnightblue" d="M436.01,-109.75C434.83,-102.8 433.14,-92.85 431.66,-84.13"/>
<polygon fill="midnightblue" stroke="midnightblue" points="435.08,-83.36 429.96,-74.09 428.18,-84.53 435.08,-83.36"/>
</g>
<!-- Node13&#45;&gt;Node2 -->
<g id="edge17" class="edge">
<title>Node13&#45;&gt;Node2</title>
<path fill="none" stroke="midnightblue" d="M328.86,-164.98C310.2,-156.46 281.25,-143.23 259.76,-133.41"/>
<polygon fill="midnightblue" stroke="midnightblue" points="261.03,-130.14 250.48,-129.17 258.12,-136.51 261.03,-130.14"/>
</g>
<!-- Node14 -->
<g id="node14" class="node">
<title>Node14</title>
<g id="a_node14"><a xlink:title=" ">
<polygon fill="none" stroke="#bfbfbf" points="370,-129 307,-129 307,-110 370,-110 370,-129"/>
<text text-anchor="middle" x="338.5" y="-117" font-family="Helvetica,sans-Serif" font-size="10.00">QTextEdit</text>
</a>
</g>
</g>
<!-- Node13&#45;&gt;Node14 -->
<g id="edge16" class="edge">
<title>Node13&#45;&gt;Node14</title>
<path fill="none" stroke="midnightblue" d="M346.01,-164.75C344.83,-157.8 343.14,-147.85 341.66,-139.13"/>
<polygon fill="midnightblue" stroke="midnightblue" points="345.08,-138.36 339.96,-129.09 338.18,-139.53 345.08,-138.36"/>
</g>
<!-- Node15&#45;&gt;Node7 -->
<g id="edge22" class="edge">
<title>Node15&#45;&gt;Node7</title>
<path fill="none" stroke="midnightblue" d="M613.11,-109.98C596.93,-101.57 571.93,-88.59 553.12,-78.81"/>
<polygon fill="midnightblue" stroke="midnightblue" points="554.67,-75.68 544.19,-74.17 551.45,-81.89 554.67,-75.68"/>
</g>
<!-- Node15&#45;&gt;Node8 -->
<g id="edge20" class="edge">
<title>Node15&#45;&gt;Node8</title>
<path fill="none" stroke="midnightblue" d="M626.39,-109.66C620.18,-92.01 606.13,-52.09 597.88,-28.64"/>
<polygon fill="midnightblue" stroke="midnightblue" points="601.17,-27.43 594.55,-19.16 594.56,-29.75 601.17,-27.43"/>
</g>
<!-- Node16 -->
<g id="node16" class="node">
<title>Node16</title>
<g id="a_node16"><a xlink:title=" ">
<polygon fill="none" stroke="#bfbfbf" points="713.5,-74 657.5,-74 657.5,-55 713.5,-55 713.5,-74"/>
<text text-anchor="middle" x="685.5" y="-62" font-family="Helvetica,sans-Serif" font-size="10.00">QObject</text>
</a>
</g>
</g>
<!-- Node15&#45;&gt;Node16 -->
<g id="edge19" class="edge">
<title>Node15&#45;&gt;Node16</title>
<path fill="none" stroke="midnightblue" d="M638.5,-109.98C646.69,-102.23 659.01,-90.58 668.97,-81.14"/>
<polygon fill="midnightblue" stroke="midnightblue" points="671.48,-83.59 676.34,-74.17 666.67,-78.5 671.48,-83.59"/>
</g>
<!-- Node17 -->
<g id="node17" class="node">
<title>Node17</title>
<g id="a_node17"><a xlink:title=" ">
<polygon fill="none" stroke="#bfbfbf" points="781.5,-74 731.5,-74 731.5,-55 781.5,-55 781.5,-74"/>
<text text-anchor="middle" x="756.5" y="-62" font-family="Helvetica,sans-Serif" font-size="10.00">QLabel</text>
</a>
</g>
</g>
<!-- Node15&#45;&gt;Node17 -->
<g id="edge21" class="edge">
<title>Node15&#45;&gt;Node17</title>
<path fill="none" stroke="midnightblue" d="M649.9,-109.98C670.52,-101.38 702.61,-87.99 726.19,-78.15"/>
<polygon fill="midnightblue" stroke="midnightblue" points="727.84,-81.25 735.72,-74.17 725.15,-74.79 727.84,-81.25"/>
</g>
</g>
</svg>
