<?xml version="1.0" encoding="UTF-8" standalone="no"?>
<!DOCTYPE svg PUBLIC "-//W3C//DTD SVG 1.1//EN"
 "http://www.w3.org/Graphics/SVG/1.1/DTD/svg11.dtd">
<!-- Generated by graphviz version 5.0.0 (0)
 -->
<!-- Title: notetabwidget.cpp Pages: 1 -->
<svg width="478pt" height="247pt"
 viewBox="0.00 0.00 477.50 247.00" xmlns="http://www.w3.org/2000/svg" xmlns:xlink="http://www.w3.org/1999/xlink">
<g id="graph0" class="graph" transform="scale(1 1) rotate(0) translate(4 243)">
<title>notetabwidget.cpp</title>
<!-- Node1 -->
<g id="node1" class="node">
<title>Node1</title>
<g id="a_node1"><a xlink:title=" ">
<polygon fill="#bfbfbf" stroke="black" points="318,-239 211,-239 211,-220 318,-220 318,-239"/>
<text text-anchor="middle" x="264.5" y="-227" font-family="Helvetica,sans-Serif" font-size="10.00">notetabwidget.cpp</text>
</a>
</g>
</g>
<!-- Node2 -->
<g id="node2" class="node">
<title>Node2</title>
<g id="a_node2"><a xlink:href="floattextedit_8h.html" target="_top" xlink:title=" ">
<polygon fill="none" stroke="black" points="253.5,-184 167.5,-184 167.5,-165 253.5,-165 253.5,-184"/>
<text text-anchor="middle" x="210.5" y="-172" font-family="Helvetica,sans-Serif" font-size="10.00">floattextedit.h</text>
</a>
</g>
</g>
<!-- Node1&#45;&gt;Node2 -->
<g id="edge1" class="edge">
<title>Node1&#45;&gt;Node2</title>
<path fill="none" stroke="midnightblue" d="M255.58,-219.75C247.72,-212.03 236.07,-200.6 226.58,-191.28"/>
<polygon fill="midnightblue" stroke="midnightblue" points="228.84,-188.6 219.25,-184.09 223.94,-193.59 228.84,-188.6"/>
</g>
<!-- Node3 -->
<g id="node3" class="node">
<title>Node3</title>
<g id="a_node3"><a xlink:title=" ">
<polygon fill="none" stroke="#bfbfbf" points="162,-129 99,-129 99,-110 162,-110 162,-129"/>
<text text-anchor="middle" x="130.5" y="-117" font-family="Helvetica,sans-Serif" font-size="10.00">QTextEdit</text>
</a>
</g>
</g>
<!-- Node1&#45;&gt;Node3 -->
<g id="edge15" class="edge">
<title>Node1&#45;&gt;Node3</title>
<path fill="none" stroke="midnightblue" d="M226.19,-219.99C204.06,-213.37 177.01,-202.18 158.5,-184 146.02,-171.74 138.69,-152.96 134.68,-139"/>
<polygon fill="midnightblue" stroke="midnightblue" points="138.01,-137.88 132.15,-129.06 131.23,-139.61 138.01,-137.88"/>
</g>
<!-- Node12 -->
<g id="node12" class="node">
<title>Node12</title>
<g id="a_node12"><a xlink:href="notetabwidget_8h.html" target="_top" xlink:title=" ">
<polygon fill="none" stroke="black" points="367.5,-184 271.5,-184 271.5,-165 367.5,-165 367.5,-184"/>
<text text-anchor="middle" x="319.5" y="-172" font-family="Helvetica,sans-Serif" font-size="10.00">notetabwidget.h</text>
</a>
</g>
</g>
<!-- Node1&#45;&gt;Node12 -->
<g id="edge12" class="edge">
<title>Node1&#45;&gt;Node12</title>
<path fill="none" stroke="midnightblue" d="M273.58,-219.75C281.59,-212.03 293.46,-200.6 303.12,-191.28"/>
<polygon fill="midnightblue" stroke="midnightblue" points="305.81,-193.55 310.59,-184.09 300.96,-188.51 305.81,-193.55"/>
</g>
<!-- Node14 -->
<g id="node14" class="node">
<title>Node14</title>
<g id="a_node14"><a xlink:title=" ">
<polygon fill="none" stroke="#bfbfbf" points="469.5,-184 385.5,-184 385.5,-165 469.5,-165 469.5,-184"/>
<text text-anchor="middle" x="427.5" y="-172" font-family="Helvetica,sans-Serif" font-size="10.00">QMouseEvent</text>
</a>
</g>
</g>
<!-- Node1&#45;&gt;Node14 -->
<g id="edge14" class="edge">
<title>Node1&#45;&gt;Node14</title>
<path fill="none" stroke="midnightblue" d="M290.69,-219.98C317.94,-211.13 360.8,-197.19 391.28,-187.28"/>
<polygon fill="midnightblue" stroke="midnightblue" points="392.68,-190.5 401.11,-184.08 390.51,-183.85 392.68,-190.5"/>
</g>
<!-- Node2&#45;&gt;Node3 -->
<g id="edge2" class="edge">
<title>Node2&#45;&gt;Node3</title>
<path fill="none" stroke="midnightblue" d="M197.65,-164.98C185.36,-156.84 166.59,-144.41 152.02,-134.76"/>
<polygon fill="midnightblue" stroke="midnightblue" points="153.86,-131.78 143.59,-129.17 149.99,-137.61 153.86,-131.78"/>
</g>
<!-- Node4 -->
<g id="node4" class="node">
<title>Node4</title>
<g id="a_node4"><a xlink:href="mainwindow_8h.html" target="_top" xlink:title=" ">
<polygon fill="none" stroke="black" points="267,-129 180,-129 180,-110 267,-110 267,-129"/>
<text text-anchor="middle" x="223.5" y="-117" font-family="Helvetica,sans-Serif" font-size="10.00">mainwindow.h</text>
</a>
</g>
</g>
<!-- Node2&#45;&gt;Node4 -->
<g id="edge3" class="edge">
<title>Node2&#45;&gt;Node4</title>
<path fill="none" stroke="midnightblue" d="M212.65,-164.75C214.37,-157.72 216.85,-147.62 219,-138.84"/>
<polygon fill="midnightblue" stroke="midnightblue" points="222.41,-139.63 221.39,-129.09 215.61,-137.97 222.41,-139.63"/>
</g>
<!-- Node5 -->
<g id="node5" class="node">
<title>Node5</title>
<g id="a_node5"><a xlink:title=" ">
<polygon fill="none" stroke="#bfbfbf" points="87,-74 0,-74 0,-55 87,-55 87,-74"/>
<text text-anchor="middle" x="43.5" y="-62" font-family="Helvetica,sans-Serif" font-size="10.00">QMainWindow</text>
</a>
</g>
</g>
<!-- Node4&#45;&gt;Node5 -->
<g id="edge4" class="edge">
<title>Node4&#45;&gt;Node5</title>
<path fill="none" stroke="midnightblue" d="M194.58,-109.98C164.23,-101.05 116.33,-86.94 82.62,-77.02"/>
<polygon fill="midnightblue" stroke="midnightblue" points="83.23,-73.55 72.65,-74.08 81.25,-80.26 83.23,-73.55"/>
</g>
<!-- Node6 -->
<g id="node6" class="node">
<title>Node6</title>
<g id="a_node6"><a xlink:title=" ">
<polygon fill="none" stroke="#bfbfbf" points="158,-74 105,-74 105,-55 158,-55 158,-74"/>
<text text-anchor="middle" x="131.5" y="-62" font-family="Helvetica,sans-Serif" font-size="10.00">QString</text>
</a>
</g>
</g>
<!-- Node4&#45;&gt;Node6 -->
<g id="edge5" class="edge">
<title>Node4&#45;&gt;Node6</title>
<path fill="none" stroke="midnightblue" d="M208.72,-109.98C194.32,-101.69 172.19,-88.94 155.31,-79.22"/>
<polygon fill="midnightblue" stroke="midnightblue" points="156.96,-76.13 146.55,-74.17 153.47,-82.19 156.96,-76.13"/>
</g>
<!-- Node7 -->
<g id="node7" class="node">
<title>Node7</title>
<g id="a_node7"><a xlink:title=" ">
<polygon fill="none" stroke="#bfbfbf" points="271,-74 176,-74 176,-55 271,-55 271,-74"/>
<text text-anchor="middle" x="223.5" y="-62" font-family="Helvetica,sans-Serif" font-size="10.00">QTextDocument</text>
</a>
</g>
</g>
<!-- Node4&#45;&gt;Node7 -->
<g id="edge6" class="edge">
<title>Node4&#45;&gt;Node7</title>
<path fill="none" stroke="midnightblue" d="M223.5,-109.75C223.5,-102.8 223.5,-92.85 223.5,-84.13"/>
<polygon fill="midnightblue" stroke="midnightblue" points="227,-84.09 223.5,-74.09 220,-84.09 227,-84.09"/>
</g>
<!-- Node8 -->
<g id="node8" class="node">
<title>Node8</title>
<g id="a_node8"><a xlink:href="container_8h.html" target="_top" xlink:title=" ">
<polygon fill="none" stroke="black" points="360,-74 289,-74 289,-55 360,-55 360,-74"/>
<text text-anchor="middle" x="324.5" y="-62" font-family="Helvetica,sans-Serif" font-size="10.00">container.h</text>
</a>
</g>
</g>
<!-- Node4&#45;&gt;Node8 -->
<g id="edge7" class="edge">
<title>Node4&#45;&gt;Node8</title>
<path fill="none" stroke="midnightblue" d="M239.73,-109.98C255.68,-101.61 280.28,-88.7 298.88,-78.95"/>
<polygon fill="midnightblue" stroke="midnightblue" points="300.75,-81.92 307.98,-74.17 297.5,-75.72 300.75,-81.92"/>
</g>
<!-- Node11 -->
<g id="node11" class="node">
<title>Node11</title>
<g id="a_node11"><a xlink:href="contextmenu_8h.html" target="_top" xlink:title=" ">
<polygon fill="none" stroke="black" points="468.5,-74 378.5,-74 378.5,-55 468.5,-55 468.5,-74"/>
<text text-anchor="middle" x="423.5" y="-62" font-family="Helvetica,sans-Serif" font-size="10.00">contextmenu.h</text>
</a>
</g>
</g>
<!-- Node4&#45;&gt;Node11 -->
<g id="edge10" class="edge">
<title>Node4&#45;&gt;Node11</title>
<path fill="none" stroke="midnightblue" d="M255.63,-109.98C289.65,-100.97 343.5,-86.7 381,-76.76"/>
<polygon fill="midnightblue" stroke="midnightblue" points="382.34,-80.03 391.11,-74.08 380.55,-73.26 382.34,-80.03"/>
</g>
<!-- Node9 -->
<g id="node9" class="node">
<title>Node9</title>
<g id="a_node9"><a xlink:title=" ">
<polygon fill="none" stroke="#bfbfbf" points="354,-19 295,-19 295,0 354,0 354,-19"/>
<text text-anchor="middle" x="324.5" y="-7" font-family="Helvetica,sans-Serif" font-size="10.00">QWidget</text>
</a>
</g>
</g>
<!-- Node8&#45;&gt;Node9 -->
<g id="edge8" class="edge">
<title>Node8&#45;&gt;Node9</title>
<path fill="none" stroke="midnightblue" d="M324.5,-54.75C324.5,-47.8 324.5,-37.85 324.5,-29.13"/>
<polygon fill="midnightblue" stroke="midnightblue" points="328,-29.09 324.5,-19.09 321,-29.09 328,-29.09"/>
</g>
<!-- Node10 -->
<g id="node10" class="node">
<title>Node10</title>
<g id="a_node10"><a xlink:title=" ">
<polygon fill="none" stroke="#bfbfbf" points="439,-19 384,-19 384,0 439,0 439,-19"/>
<text text-anchor="middle" x="411.5" y="-7" font-family="Helvetica,sans-Serif" font-size="10.00">QFrame</text>
</a>
</g>
</g>
<!-- Node8&#45;&gt;Node10 -->
<g id="edge9" class="edge">
<title>Node8&#45;&gt;Node10</title>
<path fill="none" stroke="midnightblue" d="M338.48,-54.98C351.97,-46.77 372.63,-34.18 388.54,-24.49"/>
<polygon fill="midnightblue" stroke="midnightblue" points="390.55,-27.36 397.27,-19.17 386.91,-21.38 390.55,-27.36"/>
</g>
<!-- Node11&#45;&gt;Node10 -->
<g id="edge11" class="edge">
<title>Node11&#45;&gt;Node10</title>
<path fill="none" stroke="midnightblue" d="M421.52,-54.75C419.93,-47.72 417.64,-37.62 415.65,-28.84"/>
<polygon fill="midnightblue" stroke="midnightblue" points="419.07,-28.07 413.44,-19.09 412.24,-29.62 419.07,-28.07"/>
</g>
<!-- Node13 -->
<g id="node13" class="node">
<title>Node13</title>
<g id="a_node13"><a xlink:title=" ">
<polygon fill="none" stroke="#bfbfbf" points="360,-129 285,-129 285,-110 360,-110 360,-129"/>
<text text-anchor="middle" x="322.5" y="-117" font-family="Helvetica,sans-Serif" font-size="10.00">QTabWidget</text>
</a>
</g>
</g>
<!-- Node12&#45;&gt;Node13 -->
<g id="edge13" class="edge">
<title>Node12&#45;&gt;Node13</title>
<path fill="none" stroke="midnightblue" d="M320,-164.75C320.39,-157.8 320.95,-147.85 321.45,-139.13"/>
<polygon fill="midnightblue" stroke="midnightblue" points="324.94,-139.27 322.01,-129.09 317.95,-138.88 324.94,-139.27"/>
</g>
</g>
</svg>
