<?xml version="1.0" encoding="UTF-8" standalone="no"?>
<!DOCTYPE svg PUBLIC "-//W3C//DTD SVG 1.1//EN"
 "http://www.w3.org/Graphics/SVG/1.1/DTD/svg11.dtd">
<!-- Generated by graphviz version 5.0.0 (0)
 -->
<!-- Title: notetabwidget.cpp Pages: 1 -->
<svg width="572pt" height="247pt"
 viewBox="0.00 0.00 571.50 247.00" xmlns="http://www.w3.org/2000/svg" xmlns:xlink="http://www.w3.org/1999/xlink">
<g id="graph0" class="graph" transform="scale(1 1) rotate(0) translate(4 243)">
<title>notetabwidget.cpp</title>
<!-- Node1 -->
<g id="node1" class="node">
<title>Node1</title>
<g id="a_node1"><a xlink:title=" ">
<polygon fill="#bfbfbf" stroke="black" points="361,-239 254,-239 254,-220 361,-220 361,-239"/>
<text text-anchor="middle" x="307.5" y="-227" font-family="Helvetica,sans-Serif" font-size="10.00">notetabwidget.cpp</text>
</a>
</g>
</g>
<!-- Node2 -->
<g id="node2" class="node">
<title>Node2</title>
<g id="a_node2"><a xlink:href="floattextedit_8h.html" target="_top" xlink:title=" ">
<polygon fill="none" stroke="black" points="296.5,-184 210.5,-184 210.5,-165 296.5,-165 296.5,-184"/>
<text text-anchor="middle" x="253.5" y="-172" font-family="Helvetica,sans-Serif" font-size="10.00">floattextedit.h</text>
</a>
</g>
</g>
<!-- Node1&#45;&gt;Node2 -->
<g id="edge1" class="edge">
<title>Node1&#45;&gt;Node2</title>
<path fill="none" stroke="midnightblue" d="M298.58,-219.75C290.72,-212.03 279.07,-200.6 269.58,-191.28"/>
<polygon fill="midnightblue" stroke="midnightblue" points="271.84,-188.6 262.25,-184.09 266.94,-193.59 271.84,-188.6"/>
</g>
<!-- Node3 -->
<g id="node3" class="node">
<title>Node3</title>
<g id="a_node3"><a xlink:title=" ">
<polygon fill="none" stroke="#bfbfbf" points="205,-129 142,-129 142,-110 205,-110 205,-129"/>
<text text-anchor="middle" x="173.5" y="-117" font-family="Helvetica,sans-Serif" font-size="10.00">QTextEdit</text>
</a>
</g>
</g>
<!-- Node1&#45;&gt;Node3 -->
<g id="edge16" class="edge">
<title>Node1&#45;&gt;Node3</title>
<path fill="none" stroke="midnightblue" d="M269.19,-219.99C247.06,-213.37 220.01,-202.18 201.5,-184 189.02,-171.74 181.69,-152.96 177.68,-139"/>
<polygon fill="midnightblue" stroke="midnightblue" points="181.01,-137.88 175.15,-129.06 174.23,-139.61 181.01,-137.88"/>
</g>
<!-- Node13 -->
<g id="node13" class="node">
<title>Node13</title>
<g id="a_node13"><a xlink:href="notetabwidget_8h.html" target="_top" xlink:title=" ">
<polygon fill="none" stroke="black" points="410.5,-184 314.5,-184 314.5,-165 410.5,-165 410.5,-184"/>
<text text-anchor="middle" x="362.5" y="-172" font-family="Helvetica,sans-Serif" font-size="10.00">notetabwidget.h</text>
</a>
</g>
</g>
<!-- Node1&#45;&gt;Node13 -->
<g id="edge13" class="edge">
<title>Node1&#45;&gt;Node13</title>
<path fill="none" stroke="midnightblue" d="M316.58,-219.75C324.59,-212.03 336.46,-200.6 346.12,-191.28"/>
<polygon fill="midnightblue" stroke="midnightblue" points="348.81,-193.55 353.59,-184.09 343.96,-188.51 348.81,-193.55"/>
</g>
<!-- Node15 -->
<g id="node15" class="node">
<title>Node15</title>
<g id="a_node15"><a xlink:title=" ">
<polygon fill="none" stroke="#bfbfbf" points="512.5,-184 428.5,-184 428.5,-165 512.5,-165 512.5,-184"/>
<text text-anchor="middle" x="470.5" y="-172" font-family="Helvetica,sans-Serif" font-size="10.00">QMouseEvent</text>
</a>
</g>
</g>
<!-- Node1&#45;&gt;Node15 -->
<g id="edge15" class="edge">
<title>Node1&#45;&gt;Node15</title>
<path fill="none" stroke="midnightblue" d="M333.69,-219.98C360.94,-211.13 403.8,-197.19 434.28,-187.28"/>
<polygon fill="midnightblue" stroke="midnightblue" points="435.68,-190.5 444.11,-184.08 433.51,-183.85 435.68,-190.5"/>
</g>
<!-- Node2&#45;&gt;Node3 -->
<g id="edge2" class="edge">
<title>Node2&#45;&gt;Node3</title>
<path fill="none" stroke="midnightblue" d="M240.65,-164.98C228.36,-156.84 209.59,-144.41 195.02,-134.76"/>
<polygon fill="midnightblue" stroke="midnightblue" points="196.86,-131.78 186.59,-129.17 192.99,-137.61 196.86,-131.78"/>
</g>
<!-- Node4 -->
<g id="node4" class="node">
<title>Node4</title>
<g id="a_node4"><a xlink:href="mainwindow_8h.html" target="_top" xlink:title=" ">
<polygon fill="none" stroke="black" points="310,-129 223,-129 223,-110 310,-110 310,-129"/>
<text text-anchor="middle" x="266.5" y="-117" font-family="Helvetica,sans-Serif" font-size="10.00">mainwindow.h</text>
</a>
</g>
</g>
<!-- Node2&#45;&gt;Node4 -->
<g id="edge3" class="edge">
<title>Node2&#45;&gt;Node4</title>
<path fill="none" stroke="midnightblue" d="M255.65,-164.75C257.37,-157.72 259.85,-147.62 262,-138.84"/>
<polygon fill="midnightblue" stroke="midnightblue" points="265.41,-139.63 264.39,-129.09 258.61,-137.97 265.41,-139.63"/>
</g>
<!-- Node5 -->
<g id="node5" class="node">
<title>Node5</title>
<g id="a_node5"><a xlink:title=" ">
<polygon fill="none" stroke="#bfbfbf" points="87,-74 0,-74 0,-55 87,-55 87,-74"/>
<text text-anchor="middle" x="43.5" y="-62" font-family="Helvetica,sans-Serif" font-size="10.00">QMainWindow</text>
</a>
</g>
</g>
<!-- Node4&#45;&gt;Node5 -->
<g id="edge4" class="edge">
<title>Node4&#45;&gt;Node5</title>
<path fill="none" stroke="midnightblue" d="M230.67,-109.98C192.34,-100.87 131.42,-86.4 89.55,-76.45"/>
<polygon fill="midnightblue" stroke="midnightblue" points="90.15,-72.99 79.61,-74.08 88.53,-79.8 90.15,-72.99"/>
</g>
<!-- Node6 -->
<g id="node6" class="node">
<title>Node6</title>
<g id="a_node6"><a xlink:title=" ">
<polygon fill="none" stroke="#bfbfbf" points="158,-74 105,-74 105,-55 158,-55 158,-74"/>
<text text-anchor="middle" x="131.5" y="-62" font-family="Helvetica,sans-Serif" font-size="10.00">QString</text>
</a>
</g>
</g>
<!-- Node4&#45;&gt;Node6 -->
<g id="edge5" class="edge">
<title>Node4&#45;&gt;Node6</title>
<path fill="none" stroke="midnightblue" d="M244.81,-109.98C222.7,-101.3 188.18,-87.75 163.05,-77.88"/>
<polygon fill="midnightblue" stroke="midnightblue" points="164.17,-74.57 153.58,-74.17 161.61,-81.08 164.17,-74.57"/>
</g>
<!-- Node7 -->
<g id="node7" class="node">
<title>Node7</title>
<g id="a_node7"><a xlink:title=" ">
<polygon fill="none" stroke="#bfbfbf" points="252.5,-74 176.5,-74 176.5,-55 252.5,-55 252.5,-74"/>
<text text-anchor="middle" x="214.5" y="-62" font-family="Helvetica,sans-Serif" font-size="10.00">QListWidget</text>
</a>
</g>
</g>
<!-- Node4&#45;&gt;Node7 -->
<g id="edge6" class="edge">
<title>Node4&#45;&gt;Node7</title>
<path fill="none" stroke="midnightblue" d="M257.91,-109.75C250.34,-102.03 239.12,-90.6 229.99,-81.28"/>
<polygon fill="midnightblue" stroke="midnightblue" points="232.43,-78.78 222.93,-74.09 227.43,-83.68 232.43,-78.78"/>
</g>
<!-- Node8 -->
<g id="node8" class="node">
<title>Node8</title>
<g id="a_node8"><a xlink:title=" ">
<polygon fill="none" stroke="#bfbfbf" points="366,-74 271,-74 271,-55 366,-55 366,-74"/>
<text text-anchor="middle" x="318.5" y="-62" font-family="Helvetica,sans-Serif" font-size="10.00">QTextDocument</text>
</a>
</g>
</g>
<!-- Node4&#45;&gt;Node8 -->
<g id="edge7" class="edge">
<title>Node4&#45;&gt;Node8</title>
<path fill="none" stroke="midnightblue" d="M275.09,-109.75C282.66,-102.03 293.88,-90.6 303.01,-81.28"/>
<polygon fill="midnightblue" stroke="midnightblue" points="305.57,-83.68 310.07,-74.09 300.57,-78.78 305.57,-83.68"/>
</g>
<!-- Node9 -->
<g id="node9" class="node">
<title>Node9</title>
<g id="a_node9"><a xlink:href="container_8h.html" target="_top" xlink:title=" ">
<polygon fill="none" stroke="black" points="455,-74 384,-74 384,-55 455,-55 455,-74"/>
<text text-anchor="middle" x="419.5" y="-62" font-family="Helvetica,sans-Serif" font-size="10.00">container.h</text>
</a>
</g>
</g>
<!-- Node4&#45;&gt;Node9 -->
<g id="edge8" class="edge">
<title>Node4&#45;&gt;Node9</title>
<path fill="none" stroke="midnightblue" d="M291.08,-109.98C316.55,-101.16 356.54,-87.31 385.13,-77.41"/>
<polygon fill="midnightblue" stroke="midnightblue" points="386.42,-80.66 394.73,-74.08 384.13,-74.05 386.42,-80.66"/>
</g>
<!-- Node12 -->
<g id="node12" class="node">
<title>Node12</title>
<g id="a_node12"><a xlink:href="contextmenu_8h.html" target="_top" xlink:title=" ">
<polygon fill="none" stroke="black" points="563.5,-74 473.5,-74 473.5,-55 563.5,-55 563.5,-74"/>
<text text-anchor="middle" x="518.5" y="-62" font-family="Helvetica,sans-Serif" font-size="10.00">contextmenu.h</text>
</a>
</g>
</g>
<!-- Node4&#45;&gt;Node12 -->
<g id="edge11" class="edge">
<title>Node4&#45;&gt;Node12</title>
<path fill="none" stroke="midnightblue" d="M306.99,-109.98C350.67,-100.8 420.31,-86.15 467.65,-76.19"/>
<polygon fill="midnightblue" stroke="midnightblue" points="468.63,-79.57 477.69,-74.08 467.19,-72.72 468.63,-79.57"/>
</g>
<!-- Node10 -->
<g id="node10" class="node">
<title>Node10</title>
<g id="a_node10"><a xlink:title=" ">
<polygon fill="none" stroke="#bfbfbf" points="449,-19 390,-19 390,0 449,0 449,-19"/>
<text text-anchor="middle" x="419.5" y="-7" font-family="Helvetica,sans-Serif" font-size="10.00">QWidget</text>
</a>
</g>
</g>
<!-- Node9&#45;&gt;Node10 -->
<g id="edge9" class="edge">
<title>Node9&#45;&gt;Node10</title>
<path fill="none" stroke="midnightblue" d="M419.5,-54.75C419.5,-47.8 419.5,-37.85 419.5,-29.13"/>
<polygon fill="midnightblue" stroke="midnightblue" points="423,-29.09 419.5,-19.09 416,-29.09 423,-29.09"/>
</g>
<!-- Node11 -->
<g id="node11" class="node">
<title>Node11</title>
<g id="a_node11"><a xlink:title=" ">
<polygon fill="none" stroke="#bfbfbf" points="534,-19 479,-19 479,0 534,0 534,-19"/>
<text text-anchor="middle" x="506.5" y="-7" font-family="Helvetica,sans-Serif" font-size="10.00">QFrame</text>
</a>
</g>
</g>
<!-- Node9&#45;&gt;Node11 -->
<g id="edge10" class="edge">
<title>Node9&#45;&gt;Node11</title>
<path fill="none" stroke="midnightblue" d="M433.48,-54.98C446.97,-46.77 467.63,-34.18 483.54,-24.49"/>
<polygon fill="midnightblue" stroke="midnightblue" points="485.55,-27.36 492.27,-19.17 481.91,-21.38 485.55,-27.36"/>
</g>
<!-- Node12&#45;&gt;Node11 -->
<g id="edge12" class="edge">
<title>Node12&#45;&gt;Node11</title>
<path fill="none" stroke="midnightblue" d="M516.52,-54.75C514.93,-47.72 512.64,-37.62 510.65,-28.84"/>
<polygon fill="midnightblue" stroke="midnightblue" points="514.07,-28.07 508.44,-19.09 507.24,-29.62 514.07,-28.07"/>
</g>
<!-- Node14 -->
<g id="node14" class="node">
<title>Node14</title>
<g id="a_node14"><a xlink:title=" ">
<polygon fill="none" stroke="#bfbfbf" points="403,-129 328,-129 328,-110 403,-110 403,-129"/>
<text text-anchor="middle" x="365.5" y="-117" font-family="Helvetica,sans-Serif" font-size="10.00">QTabWidget</text>
</a>
</g>
</g>
<!-- Node13&#45;&gt;Node14 -->
<g id="edge14" class="edge">
<title>Node13&#45;&gt;Node14</title>
<path fill="none" stroke="midnightblue" d="M363,-164.75C363.39,-157.8 363.95,-147.85 364.45,-139.13"/>
<polygon fill="midnightblue" stroke="midnightblue" points="367.94,-139.27 365.01,-129.09 360.95,-138.88 367.94,-139.27"/>
</g>
</g>
</svg>
