<?xml version="1.0" encoding="UTF-8" standalone="no"?>
<!DOCTYPE svg PUBLIC "-//W3C//DTD SVG 1.1//EN"
 "http://www.w3.org/Graphics/SVG/1.1/DTD/svg11.dtd">
<!-- Generated by graphviz version 5.0.0 (0)
 -->
<!-- Title: notetabwidget.h Pages: 1 -->
<svg width="244pt" height="82pt"
 viewBox="0.00 0.00 243.50 82.00" xmlns="http://www.w3.org/2000/svg" xmlns:xlink="http://www.w3.org/1999/xlink">
<g id="graph0" class="graph" transform="scale(1 1) rotate(0) translate(4 78)">
<title>notetabwidget.h</title>
<!-- Node1 -->
<g id="node1" class="node">
<title>Node1</title>
<g id="a_node1"><a xlink:title=" ">
<polygon fill="#bfbfbf" stroke="black" points="164.5,-74 68.5,-74 68.5,-55 164.5,-55 164.5,-74"/>
<text text-anchor="middle" x="116.5" y="-62" font-family="Helvetica,sans-Serif" font-size="10.00">notetabwidget.h</text>
</a>
</g>
</g>
<!-- Node2 -->
<g id="node2" class="node">
<title>Node2</title>
<g id="a_node2"><a xlink:href="notetabwidget_8cpp.html" target="_top" xlink:title=" ">
<polygon fill="none" stroke="black" points="107,-19 0,-19 0,0 107,0 107,-19"/>
<text text-anchor="middle" x="53.5" y="-7" font-family="Helvetica,sans-Serif" font-size="10.00">notetabwidget.cpp</text>
</a>
</g>
</g>
<!-- Node1&#45;&gt;Node2 -->
<g id="edge1" class="edge">
<title>Node1&#45;&gt;Node2</title>
<path fill="none" stroke="midnightblue" d="M98.46,-48.32C87.23,-38.87 73.18,-27.06 63.81,-19.17"/>
<polygon fill="midnightblue" stroke="midnightblue" points="96.47,-51.23 106.38,-54.98 100.98,-45.87 96.47,-51.23"/>
</g>
<!-- Node3 -->
<g id="node3" class="node">
<title>Node3</title>
<g id="a_node3"><a xlink:href="tabmainwidget_8cpp.html" target="_top" xlink:title=" ">
<polygon fill="none" stroke="black" points="235.5,-19 125.5,-19 125.5,0 235.5,0 235.5,-19"/>
<text text-anchor="middle" x="180.5" y="-7" font-family="Helvetica,sans-Serif" font-size="10.00">tabmainwidget.cpp</text>
</a>
</g>
</g>
<!-- Node1&#45;&gt;Node3 -->
<g id="edge2" class="edge">
<title>Node1&#45;&gt;Node3</title>
<path fill="none" stroke="midnightblue" d="M134.49,-48.6C145.96,-39.11 160.41,-27.13 170.03,-19.17"/>
<polygon fill="midnightblue" stroke="midnightblue" points="132.25,-45.91 126.78,-54.98 136.72,-51.3 132.25,-45.91"/>
</g>
</g>
</svg>
