<?xml version="1.0" encoding="UTF-8" standalone="no"?>
<!DOCTYPE svg PUBLIC "-//W3C//DTD SVG 1.1//EN"
 "http://www.w3.org/Graphics/SVG/1.1/DTD/svg11.dtd">
<!-- Generated by graphviz version 5.0.0 (0)
 -->
<!-- Title: subclass&#45;example.hpp Pages: 1 -->
<svg width="189pt" height="137pt"
 viewBox="0.00 0.00 189.00 137.00" xmlns="http://www.w3.org/2000/svg" xmlns:xlink="http://www.w3.org/1999/xlink">
<g id="graph0" class="graph" transform="scale(1 1) rotate(0) translate(4 133)">
<title>subclass&#45;example.hpp</title>
<!-- Node1 -->
<g id="node1" class="node">
<title>Node1</title>
<g id="a_node1"><a xlink:title=" ">
<polygon fill="#bfbfbf" stroke="black" points="126,-129 0,-129 0,-110 126,-110 126,-129"/>
<text text-anchor="middle" x="63" y="-117" font-family="Helvetica,sans-Serif" font-size="10.00">subclass&#45;example.hpp</text>
</a>
</g>
</g>
<!-- Node2 -->
<g id="node2" class="node">
<title>Node2</title>
<g id="a_node2"><a xlink:title=" ">
<polygon fill="none" stroke="#bfbfbf" points="51,-19 7,-19 7,0 51,0 51,-19"/>
<text text-anchor="middle" x="29" y="-7" font-family="Helvetica,sans-Serif" font-size="10.00">string</text>
</a>
</g>
</g>
<!-- Node1&#45;&gt;Node2 -->
<g id="edge1" class="edge">
<title>Node1&#45;&gt;Node2</title>
<path fill="none" stroke="midnightblue" d="M47.87,-109.73C36.19,-101.99 20.88,-89.55 14,-74 7.42,-59.14 12.93,-41 19.04,-27.92"/>
<polygon fill="midnightblue" stroke="midnightblue" points="22.14,-29.53 23.64,-19.04 15.93,-26.31 22.14,-29.53"/>
</g>
<!-- Node3 -->
<g id="node3" class="node">
<title>Node3</title>
<g id="a_node3"><a xlink:href="example_8hpp.html" target="_top" xlink:title=" ">
<polygon fill="none" stroke="black" points="103,-74 23,-74 23,-55 103,-55 103,-74"/>
<text text-anchor="middle" x="63" y="-62" font-family="Helvetica,sans-Serif" font-size="10.00">example.hpp</text>
</a>
</g>
</g>
<!-- Node1&#45;&gt;Node3 -->
<g id="edge2" class="edge">
<title>Node1&#45;&gt;Node3</title>
<path fill="none" stroke="midnightblue" d="M63,-109.75C63,-102.8 63,-92.85 63,-84.13"/>
<polygon fill="midnightblue" stroke="midnightblue" points="66.5,-84.09 63,-74.09 59.5,-84.09 66.5,-84.09"/>
</g>
<!-- Node4 -->
<g id="node4" class="node">
<title>Node4</title>
<g id="a_node4"><a xlink:title=" ">
<polygon fill="none" stroke="#bfbfbf" points="181,-74 121,-74 121,-55 181,-55 181,-74"/>
<text text-anchor="middle" x="151" y="-62" font-family="Helvetica,sans-Serif" font-size="10.00">iostream</text>
</a>
</g>
</g>
<!-- Node1&#45;&gt;Node4 -->
<g id="edge4" class="edge">
<title>Node1&#45;&gt;Node4</title>
<path fill="none" stroke="midnightblue" d="M77.14,-109.98C90.79,-101.77 111.69,-89.18 127.78,-79.49"/>
<polygon fill="midnightblue" stroke="midnightblue" points="129.84,-82.33 136.6,-74.17 126.23,-76.33 129.84,-82.33"/>
</g>
<!-- Node3&#45;&gt;Node2 -->
<g id="edge3" class="edge">
<title>Node3&#45;&gt;Node2</title>
<path fill="none" stroke="midnightblue" d="M57.39,-54.75C52.68,-47.42 45.83,-36.73 40.03,-27.7"/>
<polygon fill="midnightblue" stroke="midnightblue" points="42.86,-25.62 34.51,-19.09 36.96,-29.4 42.86,-25.62"/>
</g>
</g>
</svg>
