<?xml version="1.0" encoding="UTF-8" standalone="no"?>
<!DOCTYPE svg PUBLIC "-//W3C//DTD SVG 1.1//EN"
 "http://www.w3.org/Graphics/SVG/1.1/DTD/svg11.dtd">
<!-- Generated by graphviz version 5.0.0 (0)
 -->
<!-- Title: tabmainwidget.cpp Pages: 1 -->
<svg width="1266pt" height="247pt"
 viewBox="0.00 0.00 1266.13 247.00" xmlns="http://www.w3.org/2000/svg" xmlns:xlink="http://www.w3.org/1999/xlink">
<g id="graph0" class="graph" transform="scale(1 1) rotate(0) translate(4 243)">
<title>tabmainwidget.cpp</title>
<!-- Node1 -->
<g id="node1" class="node">
<title>Node1</title>
<g id="a_node1"><a xlink:title=" ">
<polygon fill="#bfbfbf" stroke="black" points="853.13,-239 743.13,-239 743.13,-220 853.13,-220 853.13,-239"/>
<text text-anchor="middle" x="798.13" y="-227" font-family="Helvetica,sans-Serif" font-size="10.00">tabmainwidget.cpp</text>
</a>
</g>
</g>
<!-- Node2 -->
<g id="node2" class="node">
<title>Node2</title>
<g id="a_node2"><a xlink:href="tabmainwidget_8h.html" target="_top" xlink:title=" ">
<polygon fill="none" stroke="black" points="108.63,-129 9.63,-129 9.63,-110 108.63,-110 108.63,-129"/>
<text text-anchor="middle" x="59.13" y="-117" font-family="Helvetica,sans-Serif" font-size="10.00">tabmainwidget.h</text>
</a>
</g>
</g>
<!-- Node1&#45;&gt;Node2 -->
<g id="edge1" class="edge">
<title>Node1&#45;&gt;Node2</title>
<path fill="none" stroke="midnightblue" d="M743.07,-225.96C653.93,-221.26 472.69,-209.3 321.13,-184 241.01,-170.63 149.12,-146.2 98.23,-131.86"/>
<polygon fill="midnightblue" stroke="midnightblue" points="98.89,-128.41 88.31,-129.04 96.98,-135.14 98.89,-128.41"/>
</g>
<!-- Node3 -->
<g id="node3" class="node">
<title>Node3</title>
<g id="a_node3"><a xlink:title=" ">
<polygon fill="none" stroke="#bfbfbf" points="639.63,-19 580.63,-19 580.63,0 639.63,0 639.63,-19"/>
<text text-anchor="middle" x="610.13" y="-7" font-family="Helvetica,sans-Serif" font-size="10.00">QWidget</text>
</a>
</g>
</g>
<!-- Node1&#45;&gt;Node3 -->
<g id="edge27" class="edge">
<title>Node1&#45;&gt;Node3</title>
<path fill="none" stroke="midnightblue" d="M793.53,-219.91C789.06,-211.14 782.48,-197.02 779.13,-184 764.76,-128.2 803.1,-99.2 766.13,-55 737.92,-21.28 686.11,-12.14 649.97,-10.14"/>
<polygon fill="midnightblue" stroke="midnightblue" points="649.9,-6.63 639.77,-9.74 649.62,-13.63 649.9,-6.63"/>
</g>
<!-- Node6 -->
<g id="node6" class="node">
<title>Node6</title>
<g id="a_node6"><a xlink:href="floattextedit_8h.html" target="_top" xlink:title=" ">
<polygon fill="none" stroke="black" points="416.13,-184 330.13,-184 330.13,-165 416.13,-165 416.13,-184"/>
<text text-anchor="middle" x="373.13" y="-172" font-family="Helvetica,sans-Serif" font-size="10.00">floattextedit.h</text>
</a>
</g>
</g>
<!-- Node1&#45;&gt;Node6 -->
<g id="edge5" class="edge">
<title>Node1&#45;&gt;Node6</title>
<path fill="none" stroke="midnightblue" d="M743,-221.63C660.83,-211.38 507.24,-192.22 426.25,-182.12"/>
<polygon fill="midnightblue" stroke="midnightblue" points="426.62,-178.64 416.27,-180.88 425.76,-185.59 426.62,-178.64"/>
</g>
<!-- Node13 -->
<g id="node13" class="node">
<title>Node13</title>
<g id="a_node13"><a xlink:href="container_8h.html" target="_top" xlink:title=" ">
<polygon fill="none" stroke="black" points="576.63,-74 505.63,-74 505.63,-55 576.63,-55 576.63,-74"/>
<text text-anchor="middle" x="541.13" y="-62" font-family="Helvetica,sans-Serif" font-size="10.00">container.h</text>
</a>
</g>
</g>
<!-- Node1&#45;&gt;Node13 -->
<g id="edge23" class="edge">
<title>Node1&#45;&gt;Node13</title>
<path fill="none" stroke="midnightblue" d="M783.02,-219.91C767.44,-211.03 742.5,-196.7 721.13,-184 680.83,-160.05 670.3,-154.75 631.13,-129 606.77,-112.99 579.51,-93.53 561.44,-80.41"/>
<polygon fill="midnightblue" stroke="midnightblue" points="563.04,-77.24 552.89,-74.18 558.91,-82.9 563.04,-77.24"/>
</g>
<!-- Node14 -->
<g id="node14" class="node">
<title>Node14</title>
<g id="a_node14"><a xlink:href="floatimage_8h.html" target="_top" xlink:title=" ">
<polygon fill="none" stroke="black" points="718.13,-129 640.13,-129 640.13,-110 718.13,-110 718.13,-129"/>
<text text-anchor="middle" x="679.13" y="-117" font-family="Helvetica,sans-Serif" font-size="10.00">floatimage.h</text>
</a>
</g>
</g>
<!-- Node1&#45;&gt;Node14 -->
<g id="edge16" class="edge">
<title>Node1&#45;&gt;Node14</title>
<path fill="none" stroke="midnightblue" d="M787.63,-219.79C777.04,-210.93 760.25,-196.72 746.13,-184 728.58,-168.19 709.02,-149.53 695.59,-136.55"/>
<polygon fill="midnightblue" stroke="midnightblue" points="697.71,-133.73 688.09,-129.28 692.83,-138.75 697.71,-133.73"/>
</g>
<!-- Node17 -->
<g id="node17" class="node">
<title>Node17</title>
<g id="a_node17"><a xlink:href="notetabwidget_8h.html" target="_top" xlink:title=" ">
<polygon fill="none" stroke="black" points="884.13,-184 788.13,-184 788.13,-165 884.13,-165 884.13,-184"/>
<text text-anchor="middle" x="836.13" y="-172" font-family="Helvetica,sans-Serif" font-size="10.00">notetabwidget.h</text>
</a>
</g>
</g>
<!-- Node1&#45;&gt;Node17 -->
<g id="edge21" class="edge">
<title>Node1&#45;&gt;Node17</title>
<path fill="none" stroke="midnightblue" d="M804.4,-219.75C809.72,-212.34 817.48,-201.5 824,-192.41"/>
<polygon fill="midnightblue" stroke="midnightblue" points="826.99,-194.26 829.97,-184.09 821.3,-190.18 826.99,-194.26"/>
</g>
<!-- Node19 -->
<g id="node19" class="node">
<title>Node19</title>
<g id="a_node19"><a xlink:title=" ">
<polygon fill="none" stroke="#bfbfbf" points="962.13,-184 902.13,-184 902.13,-165 962.13,-165 962.13,-184"/>
<text text-anchor="middle" x="932.13" y="-172" font-family="Helvetica,sans-Serif" font-size="10.00">iostream</text>
</a>
</g>
</g>
<!-- Node1&#45;&gt;Node19 -->
<g id="edge24" class="edge">
<title>Node1&#45;&gt;Node19</title>
<path fill="none" stroke="midnightblue" d="M819.66,-219.98C841.6,-211.3 875.87,-197.75 900.82,-187.88"/>
<polygon fill="midnightblue" stroke="midnightblue" points="902.2,-191.1 910.21,-184.17 899.62,-184.59 902.2,-191.1"/>
</g>
<!-- Node20 -->
<g id="node20" class="node">
<title>Node20</title>
<g id="a_node20"><a xlink:title=" ">
<polygon fill="none" stroke="#bfbfbf" points="1063.63,-184 980.63,-184 980.63,-165 1063.63,-165 1063.63,-184"/>
<text text-anchor="middle" x="1022.13" y="-172" font-family="Helvetica,sans-Serif" font-size="10.00">QHBoxLayout</text>
</a>
</g>
</g>
<!-- Node1&#45;&gt;Node20 -->
<g id="edge25" class="edge">
<title>Node1&#45;&gt;Node20</title>
<path fill="none" stroke="midnightblue" d="M834.12,-219.98C872.62,-210.87 933.81,-196.4 975.87,-186.45"/>
<polygon fill="midnightblue" stroke="midnightblue" points="976.93,-189.79 985.86,-184.08 975.32,-182.98 976.93,-189.79"/>
</g>
<!-- Node21 -->
<g id="node21" class="node">
<title>Node21</title>
<g id="a_node21"><a xlink:title=" ">
<polygon fill="none" stroke="#bfbfbf" points="1166.13,-184 1082.13,-184 1082.13,-165 1166.13,-165 1166.13,-184"/>
<text text-anchor="middle" x="1124.13" y="-172" font-family="Helvetica,sans-Serif" font-size="10.00">QMouseEvent</text>
</a>
</g>
</g>
<!-- Node1&#45;&gt;Node21 -->
<g id="edge26" class="edge">
<title>Node1&#45;&gt;Node21</title>
<path fill="none" stroke="midnightblue" d="M851.37,-219.96C904.62,-211.4 989.13,-197.78 1072.01,-184.18"/>
<polygon fill="midnightblue" stroke="midnightblue" points="1072.81,-187.59 1082.11,-182.52 1071.67,-180.69 1072.81,-187.59"/>
</g>
<!-- Node22 -->
<g id="node22" class="node">
<title>Node22</title>
<g id="a_node22"><a xlink:title=" ">
<polygon fill="none" stroke="#bfbfbf" points="1258.13,-184 1184.13,-184 1184.13,-165 1258.13,-165 1258.13,-184"/>
<text text-anchor="middle" x="1221.13" y="-172" font-family="Helvetica,sans-Serif" font-size="10.00">QSizePolicy</text>
</a>
</g>
</g>
<!-- Node1&#45;&gt;Node22 -->
<g id="edge28" class="edge">
<title>Node1&#45;&gt;Node22</title>
<path fill="none" stroke="midnightblue" d="M853.22,-223.13C924.78,-215.91 1053.79,-202.03 1173.9,-184.1"/>
<polygon fill="midnightblue" stroke="midnightblue" points="1174.64,-187.52 1184.01,-182.57 1173.6,-180.6 1174.64,-187.52"/>
</g>
<!-- Node2&#45;&gt;Node3 -->
<g id="edge2" class="edge">
<title>Node2&#45;&gt;Node3</title>
<path fill="none" stroke="midnightblue" d="M42.63,-109.87C20.92,-97.46 -12.5,-73.98 5.13,-55 24.41,-34.25 438.69,-16.94 570.34,-11.95"/>
<polygon fill="midnightblue" stroke="midnightblue" points="570.54,-15.45 580.41,-11.57 570.28,-8.45 570.54,-15.45"/>
</g>
<!-- Node4 -->
<g id="node4" class="node">
<title>Node4</title>
<g id="a_node4"><a xlink:href="contextmenu_8h.html" target="_top" xlink:title=" ">
<polygon fill="none" stroke="black" points="104.13,-74 14.13,-74 14.13,-55 104.13,-55 104.13,-74"/>
<text text-anchor="middle" x="59.13" y="-62" font-family="Helvetica,sans-Serif" font-size="10.00">contextmenu.h</text>
</a>
</g>
</g>
<!-- Node2&#45;&gt;Node4 -->
<g id="edge3" class="edge">
<title>Node2&#45;&gt;Node4</title>
<path fill="none" stroke="midnightblue" d="M59.13,-109.75C59.13,-102.8 59.13,-92.85 59.13,-84.13"/>
<polygon fill="midnightblue" stroke="midnightblue" points="62.63,-84.09 59.13,-74.09 55.63,-84.09 62.63,-84.09"/>
</g>
<!-- Node5 -->
<g id="node5" class="node">
<title>Node5</title>
<g id="a_node5"><a xlink:title=" ">
<polygon fill="none" stroke="#bfbfbf" points="359.63,-19 304.63,-19 304.63,0 359.63,0 359.63,-19"/>
<text text-anchor="middle" x="332.13" y="-7" font-family="Helvetica,sans-Serif" font-size="10.00">QFrame</text>
</a>
</g>
</g>
<!-- Node4&#45;&gt;Node5 -->
<g id="edge4" class="edge">
<title>Node4&#45;&gt;Node5</title>
<path fill="none" stroke="midnightblue" d="M102.99,-54.98C156.04,-44.69 244.44,-27.52 294.51,-17.8"/>
<polygon fill="midnightblue" stroke="midnightblue" points="295.44,-21.19 304.59,-15.85 294.11,-14.32 295.44,-21.19"/>
</g>
<!-- Node7 -->
<g id="node7" class="node">
<title>Node7</title>
<g id="a_node7"><a xlink:title=" ">
<polygon fill="none" stroke="#bfbfbf" points="311.63,-129 248.63,-129 248.63,-110 311.63,-110 311.63,-129"/>
<text text-anchor="middle" x="280.13" y="-117" font-family="Helvetica,sans-Serif" font-size="10.00">QTextEdit</text>
</a>
</g>
</g>
<!-- Node6&#45;&gt;Node7 -->
<g id="edge6" class="edge">
<title>Node6&#45;&gt;Node7</title>
<path fill="none" stroke="midnightblue" d="M358.19,-164.98C343.63,-156.69 321.26,-143.94 304.19,-134.22"/>
<polygon fill="midnightblue" stroke="midnightblue" points="305.76,-131.08 295.34,-129.17 302.3,-137.16 305.76,-131.08"/>
</g>
<!-- Node8 -->
<g id="node8" class="node">
<title>Node8</title>
<g id="a_node8"><a xlink:href="mainwindow_8h.html" target="_top" xlink:title=" ">
<polygon fill="none" stroke="black" points="416.63,-129 329.63,-129 329.63,-110 416.63,-110 416.63,-129"/>
<text text-anchor="middle" x="373.13" y="-117" font-family="Helvetica,sans-Serif" font-size="10.00">mainwindow.h</text>
</a>
</g>
</g>
<!-- Node6&#45;&gt;Node8 -->
<g id="edge7" class="edge">
<title>Node6&#45;&gt;Node8</title>
<path fill="none" stroke="midnightblue" d="M373.13,-164.75C373.13,-157.8 373.13,-147.85 373.13,-139.13"/>
<polygon fill="midnightblue" stroke="midnightblue" points="376.63,-139.09 373.13,-129.09 369.63,-139.09 376.63,-139.09"/>
</g>
<!-- Node8&#45;&gt;Node4 -->
<g id="edge15" class="edge">
<title>Node8&#45;&gt;Node4</title>
<path fill="none" stroke="midnightblue" d="M329.47,-111.13C273.2,-101.63 175.34,-85.12 114.07,-74.77"/>
<polygon fill="midnightblue" stroke="midnightblue" points="114.64,-71.32 104.2,-73.11 113.47,-78.22 114.64,-71.32"/>
</g>
<!-- Node9 -->
<g id="node9" class="node">
<title>Node9</title>
<g id="a_node9"><a xlink:title=" ">
<polygon fill="none" stroke="#bfbfbf" points="416.63,-74 329.63,-74 329.63,-55 416.63,-55 416.63,-74"/>
<text text-anchor="middle" x="373.13" y="-62" font-family="Helvetica,sans-Serif" font-size="10.00">QMainWindow</text>
</a>
</g>
</g>
<!-- Node8&#45;&gt;Node9 -->
<g id="edge8" class="edge">
<title>Node8&#45;&gt;Node9</title>
<path fill="none" stroke="midnightblue" d="M373.13,-109.75C373.13,-102.8 373.13,-92.85 373.13,-84.13"/>
<polygon fill="midnightblue" stroke="midnightblue" points="376.63,-84.09 373.13,-74.09 369.63,-84.09 376.63,-84.09"/>
</g>
<!-- Node10 -->
<g id="node10" class="node">
<title>Node10</title>
<g id="a_node10"><a xlink:title=" ">
<polygon fill="none" stroke="#bfbfbf" points="487.63,-74 434.63,-74 434.63,-55 487.63,-55 487.63,-74"/>
<text text-anchor="middle" x="461.13" y="-62" font-family="Helvetica,sans-Serif" font-size="10.00">QString</text>
</a>
</g>
</g>
<!-- Node8&#45;&gt;Node10 -->
<g id="edge9" class="edge">
<title>Node8&#45;&gt;Node10</title>
<path fill="none" stroke="midnightblue" d="M387.27,-109.98C400.91,-101.77 421.82,-89.18 437.91,-79.49"/>
<polygon fill="midnightblue" stroke="midnightblue" points="439.97,-82.33 446.73,-74.17 436.36,-76.33 439.97,-82.33"/>
</g>
<!-- Node11 -->
<g id="node11" class="node">
<title>Node11</title>
<g id="a_node11"><a xlink:title=" ">
<polygon fill="none" stroke="#bfbfbf" points="198.13,-74 122.13,-74 122.13,-55 198.13,-55 198.13,-74"/>
<text text-anchor="middle" x="160.13" y="-62" font-family="Helvetica,sans-Serif" font-size="10.00">QListWidget</text>
</a>
</g>
</g>
<!-- Node8&#45;&gt;Node11 -->
<g id="edge10" class="edge">
<title>Node8&#45;&gt;Node11</title>
<path fill="none" stroke="midnightblue" d="M338.91,-109.98C302.37,-100.89 244.35,-86.46 204.37,-76.51"/>
<polygon fill="midnightblue" stroke="midnightblue" points="205.17,-73.1 194.62,-74.08 203.48,-79.89 205.17,-73.1"/>
</g>
<!-- Node12 -->
<g id="node12" class="node">
<title>Node12</title>
<g id="a_node12"><a xlink:title=" ">
<polygon fill="none" stroke="#bfbfbf" points="311.63,-74 216.63,-74 216.63,-55 311.63,-55 311.63,-74"/>
<text text-anchor="middle" x="264.13" y="-62" font-family="Helvetica,sans-Serif" font-size="10.00">QTextDocument</text>
</a>
</g>
</g>
<!-- Node8&#45;&gt;Node12 -->
<g id="edge11" class="edge">
<title>Node8&#45;&gt;Node12</title>
<path fill="none" stroke="midnightblue" d="M355.62,-109.98C338.16,-101.5 311.12,-88.35 290.96,-78.54"/>
<polygon fill="midnightblue" stroke="midnightblue" points="292.48,-75.4 281.96,-74.17 289.42,-81.69 292.48,-75.4"/>
</g>
<!-- Node8&#45;&gt;Node13 -->
<g id="edge12" class="edge">
<title>Node8&#45;&gt;Node13</title>
<path fill="none" stroke="midnightblue" d="M400.12,-109.98C428.33,-101.09 472.77,-87.07 504.21,-77.15"/>
<polygon fill="midnightblue" stroke="midnightblue" points="505.44,-80.43 513.92,-74.08 503.33,-73.75 505.44,-80.43"/>
</g>
<!-- Node13&#45;&gt;Node3 -->
<g id="edge13" class="edge">
<title>Node13&#45;&gt;Node3</title>
<path fill="none" stroke="midnightblue" d="M552.21,-54.98C562.61,-47 578.39,-34.88 590.85,-25.31"/>
<polygon fill="midnightblue" stroke="midnightblue" points="593.04,-28.04 598.84,-19.17 588.78,-22.49 593.04,-28.04"/>
</g>
<!-- Node13&#45;&gt;Node5 -->
<g id="edge14" class="edge">
<title>Node13&#45;&gt;Node5</title>
<path fill="none" stroke="midnightblue" d="M507.55,-54.98C469.87,-45.43 408.89,-29.97 369.66,-20.02"/>
<polygon fill="midnightblue" stroke="midnightblue" points="370.49,-16.62 359.94,-17.55 368.77,-23.4 370.49,-16.62"/>
</g>
<!-- Node14&#45;&gt;Node3 -->
<g id="edge18" class="edge">
<title>Node14&#45;&gt;Node3</title>
<path fill="none" stroke="midnightblue" d="M678.04,-109.65C676.13,-96.77 671.26,-72.47 660.13,-55 652.79,-43.48 641.65,-33.15 631.74,-25.36"/>
<polygon fill="midnightblue" stroke="midnightblue" points="633.59,-22.37 623.48,-19.19 629.4,-27.98 633.59,-22.37"/>
</g>
<!-- Node14&#45;&gt;Node13 -->
<g id="edge20" class="edge">
<title>Node14&#45;&gt;Node13</title>
<path fill="none" stroke="midnightblue" d="M656.96,-109.98C634.36,-101.3 599.07,-87.75 573.38,-77.88"/>
<polygon fill="midnightblue" stroke="midnightblue" points="574.29,-74.49 563.7,-74.17 571.78,-81.02 574.29,-74.49"/>
</g>
<!-- Node15 -->
<g id="node15" class="node">
<title>Node15</title>
<g id="a_node15"><a xlink:title=" ">
<polygon fill="none" stroke="#bfbfbf" points="651.13,-74 595.13,-74 595.13,-55 651.13,-55 651.13,-74"/>
<text text-anchor="middle" x="623.13" y="-62" font-family="Helvetica,sans-Serif" font-size="10.00">QObject</text>
</a>
</g>
</g>
<!-- Node14&#45;&gt;Node15 -->
<g id="edge17" class="edge">
<title>Node14&#45;&gt;Node15</title>
<path fill="none" stroke="midnightblue" d="M670.13,-109.98C661.93,-102.23 649.62,-90.58 639.66,-81.14"/>
<polygon fill="midnightblue" stroke="midnightblue" points="641.96,-78.5 632.29,-74.17 637.15,-83.59 641.96,-78.5"/>
</g>
<!-- Node16 -->
<g id="node16" class="node">
<title>Node16</title>
<g id="a_node16"><a xlink:title=" ">
<polygon fill="none" stroke="#bfbfbf" points="757.13,-74 707.13,-74 707.13,-55 757.13,-55 757.13,-74"/>
<text text-anchor="middle" x="732.13" y="-62" font-family="Helvetica,sans-Serif" font-size="10.00">QLabel</text>
</a>
</g>
</g>
<!-- Node14&#45;&gt;Node16 -->
<g id="edge19" class="edge">
<title>Node14&#45;&gt;Node16</title>
<path fill="none" stroke="midnightblue" d="M687.88,-109.75C695.6,-102.03 707.03,-90.6 716.34,-81.28"/>
<polygon fill="midnightblue" stroke="midnightblue" points="718.94,-83.64 723.54,-74.09 713.99,-78.69 718.94,-83.64"/>
</g>
<!-- Node18 -->
<g id="node18" class="node">
<title>Node18</title>
<g id="a_node18"><a xlink:title=" ">
<polygon fill="none" stroke="#bfbfbf" points="873.63,-129 798.63,-129 798.63,-110 873.63,-110 873.63,-129"/>
<text text-anchor="middle" x="836.13" y="-117" font-family="Helvetica,sans-Serif" font-size="10.00">QTabWidget</text>
</a>
</g>
</g>
<!-- Node17&#45;&gt;Node18 -->
<g id="edge22" class="edge">
<title>Node17&#45;&gt;Node18</title>
<path fill="none" stroke="midnightblue" d="M836.13,-164.75C836.13,-157.8 836.13,-147.85 836.13,-139.13"/>
<polygon fill="midnightblue" stroke="midnightblue" points="839.63,-139.09 836.13,-129.09 832.63,-139.09 839.63,-139.09"/>
</g>
</g>
</svg>
