<?xml version="1.0" encoding="UTF-8" standalone="no"?>
<!DOCTYPE svg PUBLIC "-//W3C//DTD SVG 1.1//EN"
 "http://www.w3.org/Graphics/SVG/1.1/DTD/svg11.dtd">
<!-- Generated by graphviz version 5.0.0 (0)
 -->
<!-- Title: tabmainwidget.cpp Pages: 1 -->
<svg width="988pt" height="247pt"
 viewBox="0.00 0.00 987.50 247.00" xmlns="http://www.w3.org/2000/svg" xmlns:xlink="http://www.w3.org/1999/xlink">
<g id="graph0" class="graph" transform="scale(1 1) rotate(0) translate(4 243)">
<title>tabmainwidget.cpp</title>
<!-- Node1 -->
<g id="node1" class="node">
<title>Node1</title>
<g id="a_node1"><a xlink:title=" ">
<polygon fill="#bfbfbf" stroke="black" points="628.5,-239 518.5,-239 518.5,-220 628.5,-220 628.5,-239"/>
<text text-anchor="middle" x="573.5" y="-227" font-family="Helvetica,sans-Serif" font-size="10.00">tabmainwidget.cpp</text>
</a>
</g>
</g>
<!-- Node2 -->
<g id="node2" class="node">
<title>Node2</title>
<g id="a_node2"><a xlink:href="tabmainwidget_8h.html" target="_top" xlink:title=" ">
<polygon fill="none" stroke="black" points="507,-129 408,-129 408,-110 507,-110 507,-129"/>
<text text-anchor="middle" x="457.5" y="-117" font-family="Helvetica,sans-Serif" font-size="10.00">tabmainwidget.h</text>
</a>
</g>
</g>
<!-- Node1&#45;&gt;Node2 -->
<g id="edge1" class="edge">
<title>Node1&#45;&gt;Node2</title>
<path fill="none" stroke="midnightblue" d="M562.94,-219.86C552.3,-211.05 535.48,-196.88 521.5,-184 504.53,-168.36 485.89,-149.68 473.12,-136.64"/>
<polygon fill="midnightblue" stroke="midnightblue" points="475.48,-134.05 466,-129.33 470.47,-138.94 475.48,-134.05"/>
</g>
<!-- Node3 -->
<g id="node3" class="node">
<title>Node3</title>
<g id="a_node3"><a xlink:title=" ">
<polygon fill="none" stroke="#bfbfbf" points="546,-19 487,-19 487,0 546,0 546,-19"/>
<text text-anchor="middle" x="516.5" y="-7" font-family="Helvetica,sans-Serif" font-size="10.00">QWidget</text>
</a>
</g>
</g>
<!-- Node1&#45;&gt;Node3 -->
<g id="edge26" class="edge">
<title>Node1&#45;&gt;Node3</title>
<path fill="none" stroke="midnightblue" d="M571.27,-219.95C562.88,-187.88 533.15,-74.2 521.37,-29.12"/>
<polygon fill="midnightblue" stroke="midnightblue" points="524.7,-28.01 518.78,-19.22 517.92,-29.78 524.7,-28.01"/>
</g>
<!-- Node6 -->
<g id="node6" class="node">
<title>Node6</title>
<g id="a_node6"><a xlink:href="floattextedit_8h.html" target="_top" xlink:title=" ">
<polygon fill="none" stroke="black" points="351.5,-184 265.5,-184 265.5,-165 351.5,-165 351.5,-184"/>
<text text-anchor="middle" x="308.5" y="-172" font-family="Helvetica,sans-Serif" font-size="10.00">floattextedit.h</text>
</a>
</g>
</g>
<!-- Node1&#45;&gt;Node6 -->
<g id="edge5" class="edge">
<title>Node1&#45;&gt;Node6</title>
<path fill="none" stroke="midnightblue" d="M530.92,-219.98C484.8,-210.76 411.14,-196.03 361.34,-186.07"/>
<polygon fill="midnightblue" stroke="midnightblue" points="361.9,-182.61 351.41,-184.08 360.53,-189.48 361.9,-182.61"/>
</g>
<!-- Node12 -->
<g id="node12" class="node">
<title>Node12</title>
<g id="a_node12"><a xlink:href="container_8h.html" target="_top" xlink:title=" ">
<polygon fill="none" stroke="black" points="469,-74 398,-74 398,-55 469,-55 469,-74"/>
<text text-anchor="middle" x="433.5" y="-62" font-family="Helvetica,sans-Serif" font-size="10.00">container.h</text>
</a>
</g>
</g>
<!-- Node1&#45;&gt;Node12 -->
<g id="edge22" class="edge">
<title>Node1&#45;&gt;Node12</title>
<path fill="none" stroke="midnightblue" d="M538.37,-219.96C496.54,-207.7 428.55,-180.66 398.5,-129 389.08,-112.81 402.44,-93.99 415.27,-81.06"/>
<polygon fill="midnightblue" stroke="midnightblue" points="417.69,-83.59 422.59,-74.2 412.91,-78.48 417.69,-83.59"/>
</g>
<!-- Node13 -->
<g id="node13" class="node">
<title>Node13</title>
<g id="a_node13"><a xlink:href="floatimage_8h.html" target="_top" xlink:title=" ">
<polygon fill="none" stroke="black" points="641.5,-129 563.5,-129 563.5,-110 641.5,-110 641.5,-129"/>
<text text-anchor="middle" x="602.5" y="-117" font-family="Helvetica,sans-Serif" font-size="10.00">floatimage.h</text>
</a>
</g>
</g>
<!-- Node1&#45;&gt;Node13 -->
<g id="edge15" class="edge">
<title>Node1&#45;&gt;Node13</title>
<path fill="none" stroke="midnightblue" d="M575.87,-219.66C580.59,-202.09 591.24,-162.45 597.54,-138.95"/>
<polygon fill="midnightblue" stroke="midnightblue" points="600.96,-139.72 600.18,-129.16 594.2,-137.91 600.96,-139.72"/>
</g>
<!-- Node16 -->
<g id="node16" class="node">
<title>Node16</title>
<g id="a_node16"><a xlink:href="notetabwidget_8h.html" target="_top" xlink:title=" ">
<polygon fill="none" stroke="black" points="697.5,-184 601.5,-184 601.5,-165 697.5,-165 697.5,-184"/>
<text text-anchor="middle" x="649.5" y="-172" font-family="Helvetica,sans-Serif" font-size="10.00">notetabwidget.h</text>
</a>
</g>
</g>
<!-- Node1&#45;&gt;Node16 -->
<g id="edge20" class="edge">
<title>Node1&#45;&gt;Node16</title>
<path fill="none" stroke="midnightblue" d="M585.71,-219.98C597.28,-211.92 614.88,-199.65 628.66,-190.03"/>
<polygon fill="midnightblue" stroke="midnightblue" points="630.87,-192.76 637.07,-184.17 626.86,-187.02 630.87,-192.76"/>
</g>
<!-- Node18 -->
<g id="node18" class="node">
<title>Node18</title>
<g id="a_node18"><a xlink:title=" ">
<polygon fill="none" stroke="#bfbfbf" points="775.5,-184 715.5,-184 715.5,-165 775.5,-165 775.5,-184"/>
<text text-anchor="middle" x="745.5" y="-172" font-family="Helvetica,sans-Serif" font-size="10.00">iostream</text>
</a>
</g>
</g>
<!-- Node1&#45;&gt;Node18 -->
<g id="edge23" class="edge">
<title>Node1&#45;&gt;Node18</title>
<path fill="none" stroke="midnightblue" d="M601.13,-219.98C630.01,-211.09 675.51,-197.07 707.7,-187.15"/>
<polygon fill="midnightblue" stroke="midnightblue" points="709.12,-190.37 717.65,-184.08 707.06,-183.68 709.12,-190.37"/>
</g>
<!-- Node19 -->
<g id="node19" class="node">
<title>Node19</title>
<g id="a_node19"><a xlink:title=" ">
<polygon fill="none" stroke="#bfbfbf" points="877,-184 794,-184 794,-165 877,-165 877,-184"/>
<text text-anchor="middle" x="835.5" y="-172" font-family="Helvetica,sans-Serif" font-size="10.00">QHBoxLayout</text>
</a>
</g>
</g>
<!-- Node1&#45;&gt;Node19 -->
<g id="edge24" class="edge">
<title>Node1&#45;&gt;Node19</title>
<path fill="none" stroke="midnightblue" d="M615.59,-219.98C661.47,-210.7 734.89,-195.85 784.13,-185.89"/>
<polygon fill="midnightblue" stroke="midnightblue" points="784.83,-189.32 793.94,-183.91 783.45,-182.46 784.83,-189.32"/>
</g>
<!-- Node20 -->
<g id="node20" class="node">
<title>Node20</title>
<g id="a_node20"><a xlink:title=" ">
<polygon fill="none" stroke="#bfbfbf" points="979.5,-184 895.5,-184 895.5,-165 979.5,-165 979.5,-184"/>
<text text-anchor="middle" x="937.5" y="-172" font-family="Helvetica,sans-Serif" font-size="10.00">QMouseEvent</text>
</a>
</g>
</g>
<!-- Node1&#45;&gt;Node20 -->
<g id="edge25" class="edge">
<title>Node1&#45;&gt;Node20</title>
<path fill="none" stroke="midnightblue" d="M628.69,-221.06C689.19,-212.81 789.39,-198.89 885.59,-184.11"/>
<polygon fill="midnightblue" stroke="midnightblue" points="886.14,-187.57 895.49,-182.58 885.07,-180.65 886.14,-187.57"/>
</g>
<!-- Node2&#45;&gt;Node3 -->
<g id="edge2" class="edge">
<title>Node2&#45;&gt;Node3</title>
<path fill="none" stroke="midnightblue" d="M462.33,-109.66C472.06,-91.85 494.18,-51.37 506.94,-28.01"/>
<polygon fill="midnightblue" stroke="midnightblue" points="510.05,-29.61 511.77,-19.16 503.9,-26.26 510.05,-29.61"/>
</g>
<!-- Node4 -->
<g id="node4" class="node">
<title>Node4</title>
<g id="a_node4"><a xlink:href="contextmenu_8h.html" target="_top" xlink:title=" ">
<polygon fill="none" stroke="black" points="379.5,-74 289.5,-74 289.5,-55 379.5,-55 379.5,-74"/>
<text text-anchor="middle" x="334.5" y="-62" font-family="Helvetica,sans-Serif" font-size="10.00">contextmenu.h</text>
</a>
</g>
</g>
<!-- Node2&#45;&gt;Node4 -->
<g id="edge3" class="edge">
<title>Node2&#45;&gt;Node4</title>
<path fill="none" stroke="midnightblue" d="M437.74,-109.98C417.77,-101.38 386.7,-87.99 363.85,-78.15"/>
<polygon fill="midnightblue" stroke="midnightblue" points="365.19,-74.91 354.62,-74.17 362.42,-81.34 365.19,-74.91"/>
</g>
<!-- Node5 -->
<g id="node5" class="node">
<title>Node5</title>
<g id="a_node5"><a xlink:title=" ">
<polygon fill="none" stroke="#bfbfbf" points="425,-19 370,-19 370,0 425,0 425,-19"/>
<text text-anchor="middle" x="397.5" y="-7" font-family="Helvetica,sans-Serif" font-size="10.00">QFrame</text>
</a>
</g>
</g>
<!-- Node4&#45;&gt;Node5 -->
<g id="edge4" class="edge">
<title>Node4&#45;&gt;Node5</title>
<path fill="none" stroke="midnightblue" d="M344.62,-54.98C353.94,-47.15 367.97,-35.34 379.24,-25.86"/>
<polygon fill="midnightblue" stroke="midnightblue" points="381.79,-28.29 387.19,-19.17 377.29,-22.93 381.79,-28.29"/>
</g>
<!-- Node7 -->
<g id="node7" class="node">
<title>Node7</title>
<g id="a_node7"><a xlink:title=" ">
<polygon fill="none" stroke="#bfbfbf" points="348,-129 285,-129 285,-110 348,-110 348,-129"/>
<text text-anchor="middle" x="316.5" y="-117" font-family="Helvetica,sans-Serif" font-size="10.00">QTextEdit</text>
</a>
</g>
</g>
<!-- Node6&#45;&gt;Node7 -->
<g id="edge6" class="edge">
<title>Node6&#45;&gt;Node7</title>
<path fill="none" stroke="midnightblue" d="M309.82,-164.75C310.87,-157.8 312.37,-147.85 313.69,-139.13"/>
<polygon fill="midnightblue" stroke="midnightblue" points="317.17,-139.5 315.2,-129.09 310.25,-138.45 317.17,-139.5"/>
</g>
<!-- Node8 -->
<g id="node8" class="node">
<title>Node8</title>
<g id="a_node8"><a xlink:href="mainwindow_8h.html" target="_top" xlink:title=" ">
<polygon fill="none" stroke="black" points="267,-129 180,-129 180,-110 267,-110 267,-129"/>
<text text-anchor="middle" x="223.5" y="-117" font-family="Helvetica,sans-Serif" font-size="10.00">mainwindow.h</text>
</a>
</g>
</g>
<!-- Node6&#45;&gt;Node8 -->
<g id="edge7" class="edge">
<title>Node6&#45;&gt;Node8</title>
<path fill="none" stroke="midnightblue" d="M294.84,-164.98C281.66,-156.77 261.47,-144.18 245.93,-134.49"/>
<polygon fill="midnightblue" stroke="midnightblue" points="247.74,-131.49 237.41,-129.17 244.04,-137.43 247.74,-131.49"/>
</g>
<!-- Node8&#45;&gt;Node4 -->
<g id="edge14" class="edge">
<title>Node8&#45;&gt;Node4</title>
<path fill="none" stroke="midnightblue" d="M241.33,-109.98C259.11,-101.5 286.65,-88.35 307.18,-78.54"/>
<polygon fill="midnightblue" stroke="midnightblue" points="308.83,-81.64 316.34,-74.17 305.81,-75.32 308.83,-81.64"/>
</g>
<!-- Node9 -->
<g id="node9" class="node">
<title>Node9</title>
<g id="a_node9"><a xlink:title=" ">
<polygon fill="none" stroke="#bfbfbf" points="87,-74 0,-74 0,-55 87,-55 87,-74"/>
<text text-anchor="middle" x="43.5" y="-62" font-family="Helvetica,sans-Serif" font-size="10.00">QMainWindow</text>
</a>
</g>
</g>
<!-- Node8&#45;&gt;Node9 -->
<g id="edge8" class="edge">
<title>Node8&#45;&gt;Node9</title>
<path fill="none" stroke="midnightblue" d="M194.58,-109.98C164.23,-101.05 116.33,-86.94 82.62,-77.02"/>
<polygon fill="midnightblue" stroke="midnightblue" points="83.23,-73.55 72.65,-74.08 81.25,-80.26 83.23,-73.55"/>
</g>
<!-- Node10 -->
<g id="node10" class="node">
<title>Node10</title>
<g id="a_node10"><a xlink:title=" ">
<polygon fill="none" stroke="#bfbfbf" points="158,-74 105,-74 105,-55 158,-55 158,-74"/>
<text text-anchor="middle" x="131.5" y="-62" font-family="Helvetica,sans-Serif" font-size="10.00">QString</text>
</a>
</g>
</g>
<!-- Node8&#45;&gt;Node10 -->
<g id="edge9" class="edge">
<title>Node8&#45;&gt;Node10</title>
<path fill="none" stroke="midnightblue" d="M208.72,-109.98C194.32,-101.69 172.19,-88.94 155.31,-79.22"/>
<polygon fill="midnightblue" stroke="midnightblue" points="156.96,-76.13 146.55,-74.17 153.47,-82.19 156.96,-76.13"/>
</g>
<!-- Node11 -->
<g id="node11" class="node">
<title>Node11</title>
<g id="a_node11"><a xlink:title=" ">
<polygon fill="none" stroke="#bfbfbf" points="271,-74 176,-74 176,-55 271,-55 271,-74"/>
<text text-anchor="middle" x="223.5" y="-62" font-family="Helvetica,sans-Serif" font-size="10.00">QTextDocument</text>
</a>
</g>
</g>
<!-- Node8&#45;&gt;Node11 -->
<g id="edge10" class="edge">
<title>Node8&#45;&gt;Node11</title>
<path fill="none" stroke="midnightblue" d="M223.5,-109.75C223.5,-102.8 223.5,-92.85 223.5,-84.13"/>
<polygon fill="midnightblue" stroke="midnightblue" points="227,-84.09 223.5,-74.09 220,-84.09 227,-84.09"/>
</g>
<!-- Node8&#45;&gt;Node12 -->
<g id="edge11" class="edge">
<title>Node8&#45;&gt;Node12</title>
<path fill="none" stroke="midnightblue" d="M257.24,-109.98C293.18,-100.91 350.22,-86.52 389.63,-76.57"/>
<polygon fill="midnightblue" stroke="midnightblue" points="390.66,-79.92 399.5,-74.08 388.94,-73.14 390.66,-79.92"/>
</g>
<!-- Node12&#45;&gt;Node3 -->
<g id="edge12" class="edge">
<title>Node12&#45;&gt;Node3</title>
<path fill="none" stroke="midnightblue" d="M446.84,-54.98C459.59,-46.84 479.05,-34.41 494.17,-24.76"/>
<polygon fill="midnightblue" stroke="midnightblue" points="496.38,-27.5 502.92,-19.17 492.61,-21.6 496.38,-27.5"/>
</g>
<!-- Node12&#45;&gt;Node5 -->
<g id="edge13" class="edge">
<title>Node12&#45;&gt;Node5</title>
<path fill="none" stroke="midnightblue" d="M427.56,-54.75C422.52,-47.34 415.16,-36.5 408.99,-27.41"/>
<polygon fill="midnightblue" stroke="midnightblue" points="411.85,-25.39 403.33,-19.09 406.06,-29.33 411.85,-25.39"/>
</g>
<!-- Node13&#45;&gt;Node3 -->
<g id="edge17" class="edge">
<title>Node13&#45;&gt;Node3</title>
<path fill="none" stroke="midnightblue" d="M595.46,-109.66C581.09,-91.61 548.17,-50.28 529.7,-27.08"/>
<polygon fill="midnightblue" stroke="midnightblue" points="532.36,-24.8 523.39,-19.16 526.89,-29.16 532.36,-24.8"/>
</g>
<!-- Node13&#45;&gt;Node12 -->
<g id="edge19" class="edge">
<title>Node13&#45;&gt;Node12</title>
<path fill="none" stroke="midnightblue" d="M575.35,-109.98C546.97,-101.09 502.27,-87.07 470.64,-77.15"/>
<polygon fill="midnightblue" stroke="midnightblue" points="471.45,-73.73 460.87,-74.08 469.36,-80.41 471.45,-73.73"/>
</g>
<!-- Node14 -->
<g id="node14" class="node">
<title>Node14</title>
<g id="a_node14"><a xlink:title=" ">
<polygon fill="none" stroke="#bfbfbf" points="657.5,-74 601.5,-74 601.5,-55 657.5,-55 657.5,-74"/>
<text text-anchor="middle" x="629.5" y="-62" font-family="Helvetica,sans-Serif" font-size="10.00">QObject</text>
</a>
</g>
</g>
<!-- Node13&#45;&gt;Node14 -->
<g id="edge16" class="edge">
<title>Node13&#45;&gt;Node14</title>
<path fill="none" stroke="midnightblue" d="M606.96,-109.75C610.62,-102.57 615.91,-92.18 620.45,-83.27"/>
<polygon fill="midnightblue" stroke="midnightblue" points="623.7,-84.59 625.12,-74.09 617.47,-81.41 623.7,-84.59"/>
</g>
<!-- Node15 -->
<g id="node15" class="node">
<title>Node15</title>
<g id="a_node15"><a xlink:title=" ">
<polygon fill="none" stroke="#bfbfbf" points="725.5,-74 675.5,-74 675.5,-55 725.5,-55 725.5,-74"/>
<text text-anchor="middle" x="700.5" y="-62" font-family="Helvetica,sans-Serif" font-size="10.00">QLabel</text>
</a>
</g>
</g>
<!-- Node13&#45;&gt;Node15 -->
<g id="edge18" class="edge">
<title>Node13&#45;&gt;Node15</title>
<path fill="none" stroke="midnightblue" d="M618.25,-109.98C633.73,-101.61 657.59,-88.7 675.64,-78.95"/>
<polygon fill="midnightblue" stroke="midnightblue" points="677.34,-82.01 684.47,-74.17 674.01,-75.85 677.34,-82.01"/>
</g>
<!-- Node17 -->
<g id="node17" class="node">
<title>Node17</title>
<g id="a_node17"><a xlink:title=" ">
<polygon fill="none" stroke="#bfbfbf" points="735,-129 660,-129 660,-110 735,-110 735,-129"/>
<text text-anchor="middle" x="697.5" y="-117" font-family="Helvetica,sans-Serif" font-size="10.00">QTabWidget</text>
</a>
</g>
</g>
<!-- Node16&#45;&gt;Node17 -->
<g id="edge21" class="edge">
<title>Node16&#45;&gt;Node17</title>
<path fill="none" stroke="midnightblue" d="M657.43,-164.75C664.35,-157.11 674.57,-145.82 682.95,-136.56"/>
<polygon fill="midnightblue" stroke="midnightblue" points="685.6,-138.85 689.72,-129.09 680.41,-134.15 685.6,-138.85"/>
</g>
</g>
</svg>
