<?xml version="1.0" encoding="UTF-8" standalone="no"?>
<!DOCTYPE svg PUBLIC "-//W3C//DTD SVG 1.1//EN"
 "http://www.w3.org/Graphics/SVG/1.1/DTD/svg11.dtd">
<!-- Generated by graphviz version 5.0.0 (0)
 -->
<!-- Title: colorwell.h Pages: 1 -->
<svg width="244pt" height="82pt"
 viewBox="0.00 0.00 244.00 82.00" xmlns="http://www.w3.org/2000/svg" xmlns:xlink="http://www.w3.org/1999/xlink">
<g id="graph0" class="graph" transform="scale(1 1) rotate(0) translate(4 78)">
<title>colorwell.h</title>
<!-- Node1 -->
<g id="node1" class="node">
<title>Node1</title>
<g id="a_node1"><a xlink:title=" ">
<polygon fill="#bfbfbf" stroke="black" points="166.5,-74 96.5,-74 96.5,-55 166.5,-55 166.5,-74"/>
<text text-anchor="middle" x="131.5" y="-62" font-family="Helvetica,sans-Serif" font-size="10.00">colorwell.h</text>
</a>
</g>
</g>
<!-- Node2 -->
<g id="node2" class="node">
<title>Node2</title>
<g id="a_node2"><a xlink:href="colordropdownmenu_8cpp.html" target="_top" xlink:title=" ">
<polygon fill="none" stroke="black" points="137,-19 0,-19 0,0 137,0 137,-19"/>
<text text-anchor="middle" x="68.5" y="-7" font-family="Helvetica,sans-Serif" font-size="10.00">colordropdownmenu.cpp</text>
</a>
</g>
</g>
<!-- Node1&#45;&gt;Node2 -->
<g id="edge1" class="edge">
<title>Node1&#45;&gt;Node2</title>
<path fill="none" stroke="midnightblue" d="M113.46,-48.32C102.23,-38.87 88.18,-27.06 78.81,-19.17"/>
<polygon fill="midnightblue" stroke="midnightblue" points="111.47,-51.23 121.38,-54.98 115.98,-45.87 111.47,-51.23"/>
</g>
<!-- Node3 -->
<g id="node3" class="node">
<title>Node3</title>
<g id="a_node3"><a xlink:href="colorwell_8cpp.html" target="_top" xlink:title=" ">
<polygon fill="none" stroke="black" points="236,-19 155,-19 155,0 236,0 236,-19"/>
<text text-anchor="middle" x="195.5" y="-7" font-family="Helvetica,sans-Serif" font-size="10.00">colorwell.cpp</text>
</a>
</g>
</g>
<!-- Node1&#45;&gt;Node3 -->
<g id="edge2" class="edge">
<title>Node1&#45;&gt;Node3</title>
<path fill="none" stroke="midnightblue" d="M149.49,-48.6C160.96,-39.11 175.41,-27.13 185.03,-19.17"/>
<polygon fill="midnightblue" stroke="midnightblue" points="147.25,-45.91 141.78,-54.98 151.72,-51.3 147.25,-45.91"/>
</g>
</g>
</svg>
