<?xml version="1.0" encoding="UTF-8" standalone="no"?>
<!DOCTYPE svg PUBLIC "-//W3C//DTD SVG 1.1//EN"
 "http://www.w3.org/Graphics/SVG/1.1/DTD/svg11.dtd">
<!-- Generated by graphviz version 5.0.0 (0)
 -->
<!-- Title: colorwell.h Pages: 1 -->
<svg width="940pt" height="192pt"
 viewBox="0.00 0.00 939.87 192.00" xmlns="http://www.w3.org/2000/svg" xmlns:xlink="http://www.w3.org/1999/xlink">
<g id="graph0" class="graph" transform="scale(1 1) rotate(0) translate(4 188)">
<title>colorwell.h</title>
<!-- Node1 -->
<g id="node1" class="node">
<title>Node1</title>
<g id="a_node1"><a xlink:title=" ">
<polygon fill="#bfbfbf" stroke="black" points="694.87,-184 624.87,-184 624.87,-165 694.87,-165 694.87,-184"/>
<text text-anchor="middle" x="659.87" y="-172" font-family="Helvetica,sans-Serif" font-size="10.00">colorwell.h</text>
</a>
</g>
</g>
<!-- Node2 -->
<g id="node2" class="node">
<title>Node2</title>
<g id="a_node2"><a xlink:title=" ">
<polygon fill="none" stroke="#bfbfbf" points="562.37,-19 507.37,-19 507.37,0 562.37,0 562.37,-19"/>
<text text-anchor="middle" x="534.87" y="-7" font-family="Helvetica,sans-Serif" font-size="10.00">QFrame</text>
</a>
</g>
</g>
<!-- Node1&#45;&gt;Node2 -->
<g id="edge1" class="edge">
<title>Node1&#45;&gt;Node2</title>
<path fill="none" stroke="midnightblue" d="M694.2,-164.9C755.62,-147.95 873.85,-107.3 828.87,-55 796.29,-17.12 644.9,-11.08 572.99,-10.39"/>
<polygon fill="midnightblue" stroke="midnightblue" points="572.59,-6.89 562.57,-10.32 572.55,-13.89 572.59,-6.89"/>
</g>
<!-- Node3 -->
<g id="node3" class="node">
<title>Node3</title>
<g id="a_node3"><a xlink:title=" ">
<polygon fill="none" stroke="#bfbfbf" points="931.87,-129 875.87,-129 875.87,-110 931.87,-110 931.87,-129"/>
<text text-anchor="middle" x="903.87" y="-117" font-family="Helvetica,sans-Serif" font-size="10.00">QObject</text>
</a>
</g>
</g>
<!-- Node1&#45;&gt;Node3 -->
<g id="edge2" class="edge">
<title>Node1&#45;&gt;Node3</title>
<path fill="none" stroke="midnightblue" d="M695.09,-165.85C740.48,-155.99 819.12,-138.91 865.84,-128.76"/>
<polygon fill="midnightblue" stroke="midnightblue" points="866.84,-132.13 875.86,-126.58 865.35,-125.28 866.84,-132.13"/>
</g>
<!-- Node4 -->
<g id="node4" class="node">
<title>Node4</title>
<g id="a_node4"><a xlink:title=" ">
<polygon fill="none" stroke="#bfbfbf" points="385.37,-19 326.37,-19 326.37,0 385.37,0 385.37,-19"/>
<text text-anchor="middle" x="355.87" y="-7" font-family="Helvetica,sans-Serif" font-size="10.00">QWidget</text>
</a>
</g>
</g>
<!-- Node1&#45;&gt;Node4 -->
<g id="edge3" class="edge">
<title>Node1&#45;&gt;Node4</title>
<path fill="none" stroke="midnightblue" d="M624.56,-173.87C500.28,-174.33 86.22,-168.64 4.87,-74 -36.7,-25.64 215.81,-13.99 316.11,-11.29"/>
<polygon fill="midnightblue" stroke="midnightblue" points="316.26,-14.78 326.17,-11.03 316.09,-7.79 316.26,-14.78"/>
</g>
<!-- Node5 -->
<g id="node5" class="node">
<title>Node5</title>
<g id="a_node5"><a xlink:href="mainwindow_8h.html" target="_top" xlink:title=" ">
<polygon fill="none" stroke="black" points="515.37,-129 428.37,-129 428.37,-110 515.37,-110 515.37,-129"/>
<text text-anchor="middle" x="471.87" y="-117" font-family="Helvetica,sans-Serif" font-size="10.00">mainwindow.h</text>
</a>
</g>
</g>
<!-- Node1&#45;&gt;Node5 -->
<g id="edge4" class="edge">
<title>Node1&#45;&gt;Node5</title>
<path fill="none" stroke="midnightblue" d="M629.66,-164.98C597.82,-156.01 547.5,-141.82 512.27,-131.89"/>
<polygon fill="midnightblue" stroke="midnightblue" points="512.88,-128.43 502.31,-129.08 510.98,-135.16 512.88,-128.43"/>
</g>
<!-- Node6 -->
<g id="node6" class="node">
<title>Node6</title>
<g id="a_node6"><a xlink:title=" ">
<polygon fill="none" stroke="#bfbfbf" points="748.37,-74 661.37,-74 661.37,-55 748.37,-55 748.37,-74"/>
<text text-anchor="middle" x="704.87" y="-62" font-family="Helvetica,sans-Serif" font-size="10.00">QMainWindow</text>
</a>
</g>
</g>
<!-- Node5&#45;&gt;Node6 -->
<g id="edge5" class="edge">
<title>Node5&#45;&gt;Node6</title>
<path fill="none" stroke="midnightblue" d="M509.3,-109.98C549.52,-100.84 613.54,-86.27 657.3,-76.32"/>
<polygon fill="midnightblue" stroke="midnightblue" points="658.16,-79.71 667.14,-74.08 656.61,-72.89 658.16,-79.71"/>
</g>
<!-- Node7 -->
<g id="node7" class="node">
<title>Node7</title>
<g id="a_node7"><a xlink:title=" ">
<polygon fill="none" stroke="#bfbfbf" points="819.37,-74 766.37,-74 766.37,-55 819.37,-55 819.37,-74"/>
<text text-anchor="middle" x="792.87" y="-62" font-family="Helvetica,sans-Serif" font-size="10.00">QString</text>
</a>
</g>
</g>
<!-- Node5&#45;&gt;Node7 -->
<g id="edge6" class="edge">
<title>Node5&#45;&gt;Node7</title>
<path fill="none" stroke="midnightblue" d="M515.68,-112.85C569.99,-105.58 665.58,-91.96 756.27,-74.19"/>
<polygon fill="midnightblue" stroke="midnightblue" points="757.04,-77.6 766.16,-72.23 755.68,-70.74 757.04,-77.6"/>
</g>
<!-- Node8 -->
<g id="node8" class="node">
<title>Node8</title>
<g id="a_node8"><a xlink:title=" ">
<polygon fill="none" stroke="#bfbfbf" points="89.87,-74 13.87,-74 13.87,-55 89.87,-55 89.87,-74"/>
<text text-anchor="middle" x="51.87" y="-62" font-family="Helvetica,sans-Serif" font-size="10.00">QListWidget</text>
</a>
</g>
</g>
<!-- Node5&#45;&gt;Node8 -->
<g id="edge7" class="edge">
<title>Node5&#45;&gt;Node8</title>
<path fill="none" stroke="midnightblue" d="M428.11,-114.14C360.15,-107.19 224.91,-92.59 100.16,-74.11"/>
<polygon fill="midnightblue" stroke="midnightblue" points="100.46,-70.62 90.05,-72.6 99.43,-77.54 100.46,-70.62"/>
</g>
<!-- Node9 -->
<g id="node9" class="node">
<title>Node9</title>
<g id="a_node9"><a xlink:title=" ">
<polygon fill="none" stroke="#bfbfbf" points="203.37,-74 108.37,-74 108.37,-55 203.37,-55 203.37,-74"/>
<text text-anchor="middle" x="155.87" y="-62" font-family="Helvetica,sans-Serif" font-size="10.00">QTextDocument</text>
</a>
</g>
</g>
<!-- Node5&#45;&gt;Node9 -->
<g id="edge8" class="edge">
<title>Node5&#45;&gt;Node9</title>
<path fill="none" stroke="midnightblue" d="M428.26,-111.19C372.37,-101.81 275.31,-85.53 213.41,-75.15"/>
<polygon fill="midnightblue" stroke="midnightblue" points="213.85,-71.68 203.41,-73.47 212.69,-78.58 213.85,-71.68"/>
</g>
<!-- Node10 -->
<g id="node10" class="node">
<title>Node10</title>
<g id="a_node10"><a xlink:title=" ">
<polygon fill="none" stroke="#bfbfbf" points="302.37,-74 221.37,-74 221.37,-55 302.37,-55 302.37,-74"/>
<text text-anchor="middle" x="261.87" y="-62" font-family="Helvetica,sans-Serif" font-size="10.00">QColorDialog</text>
</a>
</g>
</g>
<!-- Node5&#45;&gt;Node10 -->
<g id="edge9" class="edge">
<title>Node5&#45;&gt;Node10</title>
<path fill="none" stroke="midnightblue" d="M438.13,-109.98C402.18,-100.91 345.15,-86.52 305.74,-76.57"/>
<polygon fill="midnightblue" stroke="midnightblue" points="306.42,-73.14 295.87,-74.08 304.71,-79.92 306.42,-73.14"/>
</g>
<!-- Node11 -->
<g id="node11" class="node">
<title>Node11</title>
<g id="a_node11"><a xlink:href="container_8h.html" target="_top" xlink:title=" ">
<polygon fill="none" stroke="black" points="391.37,-74 320.37,-74 320.37,-55 391.37,-55 391.37,-74"/>
<text text-anchor="middle" x="355.87" y="-62" font-family="Helvetica,sans-Serif" font-size="10.00">container.h</text>
</a>
</g>
</g>
<!-- Node5&#45;&gt;Node11 -->
<g id="edge10" class="edge">
<title>Node5&#45;&gt;Node11</title>
<path fill="none" stroke="midnightblue" d="M453.23,-109.98C434.57,-101.46 405.61,-88.23 384.13,-78.41"/>
<polygon fill="midnightblue" stroke="midnightblue" points="385.39,-75.14 374.84,-74.17 382.48,-81.51 385.39,-75.14"/>
</g>
<!-- Node12 -->
<g id="node12" class="node">
<title>Node12</title>
<g id="a_node12"><a xlink:href="contextmenu_8h.html" target="_top" xlink:title=" ">
<polygon fill="none" stroke="black" points="642.87,-74 552.87,-74 552.87,-55 642.87,-55 642.87,-74"/>
<text text-anchor="middle" x="597.87" y="-62" font-family="Helvetica,sans-Serif" font-size="10.00">contextmenu.h</text>
</a>
</g>
</g>
<!-- Node5&#45;&gt;Node12 -->
<g id="edge13" class="edge">
<title>Node5&#45;&gt;Node12</title>
<path fill="none" stroke="midnightblue" d="M492.11,-109.98C512.56,-101.38 544.4,-87.99 567.8,-78.15"/>
<polygon fill="midnightblue" stroke="midnightblue" points="569.39,-81.27 577.25,-74.17 566.68,-74.82 569.39,-81.27"/>
</g>
<!-- Node13 -->
<g id="node13" class="node">
<title>Node13</title>
<g id="a_node13"><a xlink:href="colordropdownmenu_8h.html" target="_top" xlink:title=" ">
<polygon fill="none" stroke="black" points="534.37,-74 409.37,-74 409.37,-55 534.37,-55 534.37,-74"/>
<text text-anchor="middle" x="471.87" y="-62" font-family="Helvetica,sans-Serif" font-size="10.00">colordropdownmenu.h</text>
</a>
</g>
</g>
<!-- Node5&#45;&gt;Node13 -->
<g id="edge15" class="edge">
<title>Node5&#45;&gt;Node13</title>
<path fill="none" stroke="midnightblue" d="M471.87,-109.75C471.87,-102.8 471.87,-92.85 471.87,-84.13"/>
<polygon fill="midnightblue" stroke="midnightblue" points="475.37,-84.09 471.87,-74.09 468.37,-84.09 475.37,-84.09"/>
</g>
<!-- Node11&#45;&gt;Node2 -->
<g id="edge12" class="edge">
<title>Node11&#45;&gt;Node2</title>
<path fill="none" stroke="midnightblue" d="M384.63,-54.98C415.26,-45.92 463.86,-31.53 497.45,-21.58"/>
<polygon fill="midnightblue" stroke="midnightblue" points="498.76,-24.84 507.35,-18.65 496.77,-18.13 498.76,-24.84"/>
</g>
<!-- Node11&#45;&gt;Node4 -->
<g id="edge11" class="edge">
<title>Node11&#45;&gt;Node4</title>
<path fill="none" stroke="midnightblue" d="M355.87,-54.75C355.87,-47.8 355.87,-37.85 355.87,-29.13"/>
<polygon fill="midnightblue" stroke="midnightblue" points="359.37,-29.09 355.87,-19.09 352.37,-29.09 359.37,-29.09"/>
</g>
<!-- Node12&#45;&gt;Node2 -->
<g id="edge14" class="edge">
<title>Node12&#45;&gt;Node2</title>
<path fill="none" stroke="midnightblue" d="M587.74,-54.98C578.43,-47.15 564.4,-35.34 553.13,-25.86"/>
<polygon fill="midnightblue" stroke="midnightblue" points="555.08,-22.93 545.17,-19.17 550.57,-28.29 555.08,-22.93"/>
</g>
<!-- Node13&#45;&gt;Node2 -->
<g id="edge17" class="edge">
<title>Node13&#45;&gt;Node2</title>
<path fill="none" stroke="midnightblue" d="M481.99,-54.98C491.3,-47.15 505.34,-35.34 516.6,-25.86"/>
<polygon fill="midnightblue" stroke="midnightblue" points="519.16,-28.29 524.56,-19.17 514.65,-22.93 519.16,-28.29"/>
</g>
<!-- Node13&#45;&gt;Node4 -->
<g id="edge16" class="edge">
<title>Node13&#45;&gt;Node4</title>
<path fill="none" stroke="midnightblue" d="M453.23,-54.98C434.57,-46.46 405.61,-33.23 384.13,-23.41"/>
<polygon fill="midnightblue" stroke="midnightblue" points="385.39,-20.14 374.84,-19.17 382.48,-26.51 385.39,-20.14"/>
</g>
</g>
</svg>
