<?xml version="1.0" encoding="UTF-8" standalone="no"?>
<!DOCTYPE svg PUBLIC "-//W3C//DTD SVG 1.1//EN"
 "http://www.w3.org/Graphics/SVG/1.1/DTD/svg11.dtd">
<!-- Generated by graphviz version 5.0.0 (0)
 -->
<!-- Title: colorwell.cpp Pages: 1 -->
<svg width="1064pt" height="247pt"
 viewBox="0.00 0.00 1064.00 247.00" xmlns="http://www.w3.org/2000/svg" xmlns:xlink="http://www.w3.org/1999/xlink">
<g id="graph0" class="graph" transform="scale(1 1) rotate(0) translate(4 243)">
<title>colorwell.cpp</title>
<!-- Node1 -->
<g id="node1" class="node">
<title>Node1</title>
<g id="a_node1"><a xlink:title=" ">
<polygon fill="#bfbfbf" stroke="black" points="795.5,-239 714.5,-239 714.5,-220 795.5,-220 795.5,-239"/>
<text text-anchor="middle" x="755" y="-227" font-family="Helvetica,sans-Serif" font-size="10.00">colorwell.cpp</text>
</a>
</g>
</g>
<!-- Node2 -->
<g id="node2" class="node">
<title>Node2</title>
<g id="a_node2"><a xlink:href="colorwell_8h.html" target="_top" xlink:title=" ">
<polygon fill="none" stroke="black" points="584,-184 514,-184 514,-165 584,-165 584,-184"/>
<text text-anchor="middle" x="549" y="-172" font-family="Helvetica,sans-Serif" font-size="10.00">colorwell.h</text>
</a>
</g>
</g>
<!-- Node1&#45;&gt;Node2 -->
<g id="edge1" class="edge">
<title>Node1&#45;&gt;Node2</title>
<path fill="none" stroke="midnightblue" d="M721.9,-219.98C686.72,-210.93 630.93,-196.58 592.28,-186.64"/>
<polygon fill="midnightblue" stroke="midnightblue" points="592.91,-183.18 582.36,-184.08 591.17,-189.96 592.91,-183.18"/>
</g>
<!-- Node6 -->
<g id="node6" class="node">
<title>Node6</title>
<g id="a_node6"><a xlink:href="mainwindow_8h.html" target="_top" xlink:title=" ">
<polygon fill="none" stroke="black" points="607.5,-129 520.5,-129 520.5,-110 607.5,-110 607.5,-129"/>
<text text-anchor="middle" x="564" y="-117" font-family="Helvetica,sans-Serif" font-size="10.00">mainwindow.h</text>
</a>
</g>
</g>
<!-- Node1&#45;&gt;Node6 -->
<g id="edge19" class="edge">
<title>Node1&#45;&gt;Node6</title>
<path fill="none" stroke="midnightblue" d="M722.75,-219.94C697.96,-212.54 663.43,-200.45 636,-184 614.25,-170.96 592.93,-150.99 579.2,-136.93"/>
<polygon fill="midnightblue" stroke="midnightblue" points="581.48,-134.26 572.05,-129.44 576.42,-139.09 581.48,-134.26"/>
</g>
<!-- Node8 -->
<g id="node8" class="node">
<title>Node8</title>
<g id="a_node8"><a xlink:title=" ">
<polygon fill="none" stroke="#bfbfbf" points="917.5,-74 864.5,-74 864.5,-55 917.5,-55 917.5,-74"/>
<text text-anchor="middle" x="891" y="-62" font-family="Helvetica,sans-Serif" font-size="10.00">QString</text>
</a>
</g>
</g>
<!-- Node1&#45;&gt;Node8 -->
<g id="edge21" class="edge">
<title>Node1&#45;&gt;Node8</title>
<path fill="none" stroke="midnightblue" d="M724.1,-219.97C693.14,-209.77 652.3,-190.78 669,-165 690.28,-132.14 797.14,-94.7 854.49,-76.54"/>
<polygon fill="midnightblue" stroke="midnightblue" points="855.76,-79.81 864.25,-73.48 853.66,-73.13 855.76,-79.81"/>
</g>
<!-- Node15 -->
<g id="node15" class="node">
<title>Node15</title>
<g id="a_node15"><a xlink:title=" ">
<polygon fill="none" stroke="#bfbfbf" points="752,-184 678,-184 678,-165 752,-165 752,-184"/>
<text text-anchor="middle" x="715" y="-172" font-family="Helvetica,sans-Serif" font-size="10.00">QSizePolicy</text>
</a>
</g>
</g>
<!-- Node1&#45;&gt;Node15 -->
<g id="edge20" class="edge">
<title>Node1&#45;&gt;Node15</title>
<path fill="none" stroke="midnightblue" d="M748.39,-219.75C742.74,-212.26 734.46,-201.28 727.55,-192.13"/>
<polygon fill="midnightblue" stroke="midnightblue" points="730.3,-189.96 721.48,-184.09 724.71,-194.18 730.3,-189.96"/>
</g>
<!-- Node16 -->
<g id="node16" class="node">
<title>Node16</title>
<g id="a_node16"><a xlink:title=" ">
<polygon fill="none" stroke="#bfbfbf" points="819.5,-184 770.5,-184 770.5,-165 819.5,-165 819.5,-184"/>
<text text-anchor="middle" x="795" y="-172" font-family="Helvetica,sans-Serif" font-size="10.00">QStyle</text>
</a>
</g>
</g>
<!-- Node1&#45;&gt;Node16 -->
<g id="edge22" class="edge">
<title>Node1&#45;&gt;Node16</title>
<path fill="none" stroke="midnightblue" d="M761.61,-219.75C767.26,-212.26 775.54,-201.28 782.45,-192.13"/>
<polygon fill="midnightblue" stroke="midnightblue" points="785.29,-194.18 788.52,-184.09 779.7,-189.96 785.29,-194.18"/>
</g>
<!-- Node17 -->
<g id="node17" class="node">
<title>Node17</title>
<g id="a_node17"><a xlink:title=" ">
<polygon fill="none" stroke="#bfbfbf" points="896,-184 838,-184 838,-165 896,-165 896,-184"/>
<text text-anchor="middle" x="867" y="-172" font-family="Helvetica,sans-Serif" font-size="10.00">QPainter</text>
</a>
</g>
</g>
<!-- Node1&#45;&gt;Node17 -->
<g id="edge23" class="edge">
<title>Node1&#45;&gt;Node17</title>
<path fill="none" stroke="midnightblue" d="M772.99,-219.98C790.93,-211.5 818.72,-198.35 839.43,-188.54"/>
<polygon fill="midnightblue" stroke="midnightblue" points="841.14,-191.61 848.68,-184.17 838.14,-185.28 841.14,-191.61"/>
</g>
<!-- Node18 -->
<g id="node18" class="node">
<title>Node18</title>
<g id="a_node18"><a xlink:title=" ">
<polygon fill="none" stroke="#bfbfbf" points="977.5,-184 914.5,-184 914.5,-165 977.5,-165 977.5,-184"/>
<text text-anchor="middle" x="946" y="-172" font-family="Helvetica,sans-Serif" font-size="10.00">QTextEdit</text>
</a>
</g>
</g>
<!-- Node1&#45;&gt;Node18 -->
<g id="edge24" class="edge">
<title>Node1&#45;&gt;Node18</title>
<path fill="none" stroke="midnightblue" d="M785.69,-219.98C818.17,-210.97 869.6,-196.7 905.41,-186.76"/>
<polygon fill="midnightblue" stroke="midnightblue" points="906.37,-190.13 915.07,-184.08 904.5,-183.38 906.37,-190.13"/>
</g>
<!-- Node19 -->
<g id="node19" class="node">
<title>Node19</title>
<g id="a_node19"><a xlink:title=" ">
<polygon fill="none" stroke="#bfbfbf" points="1056,-184 996,-184 996,-165 1056,-165 1056,-184"/>
<text text-anchor="middle" x="1026" y="-172" font-family="Helvetica,sans-Serif" font-size="10.00">iostream</text>
</a>
</g>
</g>
<!-- Node1&#45;&gt;Node19 -->
<g id="edge25" class="edge">
<title>Node1&#45;&gt;Node19</title>
<path fill="none" stroke="midnightblue" d="M795.71,-221.01C840,-212.79 913.16,-199.01 985.57,-184.25"/>
<polygon fill="midnightblue" stroke="midnightblue" points="986.69,-187.6 995.78,-182.16 985.28,-180.74 986.69,-187.6"/>
</g>
<!-- Node3 -->
<g id="node3" class="node">
<title>Node3</title>
<g id="a_node3"><a xlink:title=" ">
<polygon fill="none" stroke="#bfbfbf" points="247.5,-19 192.5,-19 192.5,0 247.5,0 247.5,-19"/>
<text text-anchor="middle" x="220" y="-7" font-family="Helvetica,sans-Serif" font-size="10.00">QFrame</text>
</a>
</g>
</g>
<!-- Node2&#45;&gt;Node3 -->
<g id="edge2" class="edge">
<title>Node2&#45;&gt;Node3</title>
<path fill="none" stroke="midnightblue" d="M513.98,-171.16C418.04,-163.95 154.72,-138.54 103,-74 78.18,-43.03 139.31,-25.04 182.25,-16.54"/>
<polygon fill="midnightblue" stroke="midnightblue" points="182.98,-19.97 192.17,-14.68 181.69,-13.09 182.98,-19.97"/>
</g>
<!-- Node4 -->
<g id="node4" class="node">
<title>Node4</title>
<g id="a_node4"><a xlink:title=" ">
<polygon fill="none" stroke="#bfbfbf" points="56,-129 0,-129 0,-110 56,-110 56,-129"/>
<text text-anchor="middle" x="28" y="-117" font-family="Helvetica,sans-Serif" font-size="10.00">QObject</text>
</a>
</g>
</g>
<!-- Node2&#45;&gt;Node4 -->
<g id="edge3" class="edge">
<title>Node2&#45;&gt;Node4</title>
<path fill="none" stroke="midnightblue" d="M513.99,-171.54C434.66,-166.8 235.25,-153.33 70,-129 68.9,-128.84 67.78,-128.66 66.65,-128.48"/>
<polygon fill="midnightblue" stroke="midnightblue" points="66.85,-124.97 56.39,-126.67 65.63,-131.86 66.85,-124.97"/>
</g>
<!-- Node5 -->
<g id="node5" class="node">
<title>Node5</title>
<g id="a_node5"><a xlink:title=" ">
<polygon fill="none" stroke="#bfbfbf" points="640.5,-19 581.5,-19 581.5,0 640.5,0 640.5,-19"/>
<text text-anchor="middle" x="611" y="-7" font-family="Helvetica,sans-Serif" font-size="10.00">QWidget</text>
</a>
</g>
</g>
<!-- Node2&#45;&gt;Node5 -->
<g id="edge4" class="edge">
<title>Node2&#45;&gt;Node5</title>
<path fill="none" stroke="midnightblue" d="M584.22,-169.64C669.8,-159.45 884.74,-128.82 927,-74 932.16,-67.31 932.54,-61.37 927,-55 891.68,-14.36 727.85,-9.78 651,-9.93"/>
<polygon fill="midnightblue" stroke="midnightblue" points="650.74,-6.43 640.75,-9.98 650.77,-13.43 650.74,-6.43"/>
</g>
<!-- Node2&#45;&gt;Node6 -->
<g id="edge5" class="edge">
<title>Node2&#45;&gt;Node6</title>
<path fill="none" stroke="midnightblue" d="M551.48,-164.75C553.46,-157.72 556.32,-147.62 558.81,-138.84"/>
<polygon fill="midnightblue" stroke="midnightblue" points="562.21,-139.66 561.57,-129.09 555.48,-137.76 562.21,-139.66"/>
</g>
<!-- Node7 -->
<g id="node7" class="node">
<title>Node7</title>
<g id="a_node7"><a xlink:title=" ">
<polygon fill="none" stroke="#bfbfbf" points="751.5,-74 664.5,-74 664.5,-55 751.5,-55 751.5,-74"/>
<text text-anchor="middle" x="708" y="-62" font-family="Helvetica,sans-Serif" font-size="10.00">QMainWindow</text>
</a>
</g>
</g>
<!-- Node6&#45;&gt;Node7 -->
<g id="edge6" class="edge">
<title>Node6&#45;&gt;Node7</title>
<path fill="none" stroke="midnightblue" d="M587.14,-109.98C610.82,-101.27 647.87,-87.63 674.71,-77.75"/>
<polygon fill="midnightblue" stroke="midnightblue" points="676.27,-80.91 684.44,-74.17 673.85,-74.34 676.27,-80.91"/>
</g>
<!-- Node6&#45;&gt;Node8 -->
<g id="edge7" class="edge">
<title>Node6&#45;&gt;Node8</title>
<path fill="none" stroke="midnightblue" d="M607.57,-112.95C662.69,-105.68 760.71,-91.93 854.39,-73.97"/>
<polygon fill="midnightblue" stroke="midnightblue" points="855.16,-77.39 864.32,-72.05 853.83,-70.52 855.16,-77.39"/>
</g>
<!-- Node9 -->
<g id="node9" class="node">
<title>Node9</title>
<g id="a_node9"><a xlink:title=" ">
<polygon fill="none" stroke="#bfbfbf" points="846,-74 770,-74 770,-55 846,-55 846,-74"/>
<text text-anchor="middle" x="808" y="-62" font-family="Helvetica,sans-Serif" font-size="10.00">QListWidget</text>
</a>
</g>
</g>
<!-- Node6&#45;&gt;Node9 -->
<g id="edge8" class="edge">
<title>Node6&#45;&gt;Node9</title>
<path fill="none" stroke="midnightblue" d="M603.2,-109.98C645.78,-100.74 713.85,-85.95 759.7,-75.99"/>
<polygon fill="midnightblue" stroke="midnightblue" points="760.67,-79.36 769.7,-73.82 759.18,-72.52 760.67,-79.36"/>
</g>
<!-- Node10 -->
<g id="node10" class="node">
<title>Node10</title>
<g id="a_node10"><a xlink:title=" ">
<polygon fill="none" stroke="#bfbfbf" points="458.5,-74 363.5,-74 363.5,-55 458.5,-55 458.5,-74"/>
<text text-anchor="middle" x="411" y="-62" font-family="Helvetica,sans-Serif" font-size="10.00">QTextDocument</text>
</a>
</g>
</g>
<!-- Node6&#45;&gt;Node10 -->
<g id="edge9" class="edge">
<title>Node6&#45;&gt;Node10</title>
<path fill="none" stroke="midnightblue" d="M539.42,-109.98C513.95,-101.16 473.96,-87.31 445.37,-77.41"/>
<polygon fill="midnightblue" stroke="midnightblue" points="446.37,-74.05 435.77,-74.08 444.08,-80.66 446.37,-74.05"/>
</g>
<!-- Node11 -->
<g id="node11" class="node">
<title>Node11</title>
<g id="a_node11"><a xlink:title=" ">
<polygon fill="none" stroke="#bfbfbf" points="557.5,-74 476.5,-74 476.5,-55 557.5,-55 557.5,-74"/>
<text text-anchor="middle" x="517" y="-62" font-family="Helvetica,sans-Serif" font-size="10.00">QColorDialog</text>
</a>
</g>
</g>
<!-- Node6&#45;&gt;Node11 -->
<g id="edge10" class="edge">
<title>Node6&#45;&gt;Node11</title>
<path fill="none" stroke="midnightblue" d="M556.24,-109.75C549.53,-102.18 539.66,-91.05 531.49,-81.84"/>
<polygon fill="midnightblue" stroke="midnightblue" points="533.87,-79.25 524.62,-74.09 528.63,-83.89 533.87,-79.25"/>
</g>
<!-- Node12 -->
<g id="node12" class="node">
<title>Node12</title>
<g id="a_node12"><a xlink:href="container_8h.html" target="_top" xlink:title=" ">
<polygon fill="none" stroke="black" points="646.5,-74 575.5,-74 575.5,-55 646.5,-55 646.5,-74"/>
<text text-anchor="middle" x="611" y="-62" font-family="Helvetica,sans-Serif" font-size="10.00">container.h</text>
</a>
</g>
</g>
<!-- Node6&#45;&gt;Node12 -->
<g id="edge11" class="edge">
<title>Node6&#45;&gt;Node12</title>
<path fill="none" stroke="midnightblue" d="M571.76,-109.75C578.47,-102.18 588.34,-91.05 596.51,-81.84"/>
<polygon fill="midnightblue" stroke="midnightblue" points="599.37,-83.89 603.38,-74.09 594.13,-79.25 599.37,-83.89"/>
</g>
<!-- Node13 -->
<g id="node13" class="node">
<title>Node13</title>
<g id="a_node13"><a xlink:href="contextmenu_8h.html" target="_top" xlink:title=" ">
<polygon fill="none" stroke="black" points="202,-74 112,-74 112,-55 202,-55 202,-74"/>
<text text-anchor="middle" x="157" y="-62" font-family="Helvetica,sans-Serif" font-size="10.00">contextmenu.h</text>
</a>
</g>
</g>
<!-- Node6&#45;&gt;Node13 -->
<g id="edge14" class="edge">
<title>Node6&#45;&gt;Node13</title>
<path fill="none" stroke="midnightblue" d="M520.47,-113.45C455.66,-105.83 329.7,-90.66 212.31,-74.15"/>
<polygon fill="midnightblue" stroke="midnightblue" points="212.46,-70.63 202.07,-72.7 211.48,-77.56 212.46,-70.63"/>
</g>
<!-- Node14 -->
<g id="node14" class="node">
<title>Node14</title>
<g id="a_node14"><a xlink:href="colordropdownmenu_8h.html" target="_top" xlink:title=" ">
<polygon fill="none" stroke="black" points="345.5,-74 220.5,-74 220.5,-55 345.5,-55 345.5,-74"/>
<text text-anchor="middle" x="283" y="-62" font-family="Helvetica,sans-Serif" font-size="10.00">colordropdownmenu.h</text>
</a>
</g>
</g>
<!-- Node6&#45;&gt;Node14 -->
<g id="edge16" class="edge">
<title>Node6&#45;&gt;Node14</title>
<path fill="none" stroke="midnightblue" d="M520.4,-110.28C471.31,-101.02 391.44,-85.95 338.07,-75.89"/>
<polygon fill="midnightblue" stroke="midnightblue" points="338.57,-72.42 328.1,-74.01 337.27,-79.3 338.57,-72.42"/>
</g>
<!-- Node12&#45;&gt;Node3 -->
<g id="edge13" class="edge">
<title>Node12&#45;&gt;Node3</title>
<path fill="none" stroke="midnightblue" d="M575.49,-56.44C572.62,-55.93 569.77,-55.44 567,-55 454.81,-36.99 321.27,-21.54 257.51,-14.52"/>
<polygon fill="midnightblue" stroke="midnightblue" points="257.85,-11.04 247.52,-13.43 257.08,-18 257.85,-11.04"/>
</g>
<!-- Node12&#45;&gt;Node5 -->
<g id="edge12" class="edge">
<title>Node12&#45;&gt;Node5</title>
<path fill="none" stroke="midnightblue" d="M611,-54.75C611,-47.8 611,-37.85 611,-29.13"/>
<polygon fill="midnightblue" stroke="midnightblue" points="614.5,-29.09 611,-19.09 607.5,-29.09 614.5,-29.09"/>
</g>
<!-- Node13&#45;&gt;Node3 -->
<g id="edge15" class="edge">
<title>Node13&#45;&gt;Node3</title>
<path fill="none" stroke="midnightblue" d="M167.12,-54.98C176.44,-47.15 190.47,-35.34 201.74,-25.86"/>
<polygon fill="midnightblue" stroke="midnightblue" points="204.29,-28.29 209.69,-19.17 199.79,-22.93 204.29,-28.29"/>
</g>
<!-- Node14&#45;&gt;Node3 -->
<g id="edge18" class="edge">
<title>Node14&#45;&gt;Node3</title>
<path fill="none" stroke="midnightblue" d="M272.88,-54.98C263.56,-47.15 249.53,-35.34 238.26,-25.86"/>
<polygon fill="midnightblue" stroke="midnightblue" points="240.21,-22.93 230.31,-19.17 235.71,-28.29 240.21,-22.93"/>
</g>
<!-- Node14&#45;&gt;Node5 -->
<g id="edge17" class="edge">
<title>Node14&#45;&gt;Node5</title>
<path fill="none" stroke="midnightblue" d="M335.7,-54.98C401.47,-44.36 512.46,-26.42 571.42,-16.9"/>
<polygon fill="midnightblue" stroke="midnightblue" points="572.14,-20.32 581.46,-15.27 571.03,-13.41 572.14,-20.32"/>
</g>
</g>
</svg>
