<?xml version="1.0" encoding="UTF-8" standalone="no"?>
<!DOCTYPE svg PUBLIC "-//W3C//DTD SVG 1.1//EN"
 "http://www.w3.org/Graphics/SVG/1.1/DTD/svg11.dtd">
<!-- Generated by graphviz version 5.0.0 (0)
 -->
<!-- Title: colordropdownmenu.cpp Pages: 1 -->
<svg width="1474pt" height="192pt"
 viewBox="0.00 0.00 1473.50 192.00" xmlns="http://www.w3.org/2000/svg" xmlns:xlink="http://www.w3.org/1999/xlink">
<g id="graph0" class="graph" transform="scale(1 1) rotate(0) translate(4 188)">
<title>colordropdownmenu.cpp</title>
<!-- Node1 -->
<g id="node1" class="node">
<title>Node1</title>
<g id="a_node1"><a xlink:title=" ">
<polygon fill="#bfbfbf" stroke="black" points="1104.5,-184 967.5,-184 967.5,-165 1104.5,-165 1104.5,-184"/>
<text text-anchor="middle" x="1036" y="-172" font-family="Helvetica,sans-Serif" font-size="10.00">colordropdownmenu.cpp</text>
</a>
</g>
</g>
<!-- Node2 -->
<g id="node2" class="node">
<title>Node2</title>
<g id="a_node2"><a xlink:href="colordropdownmenu_8h.html" target="_top" xlink:title=" ">
<polygon fill="none" stroke="black" points="213.5,-74 88.5,-74 88.5,-55 213.5,-55 213.5,-74"/>
<text text-anchor="middle" x="151" y="-62" font-family="Helvetica,sans-Serif" font-size="10.00">colordropdownmenu.h</text>
</a>
</g>
</g>
<!-- Node1&#45;&gt;Node2 -->
<g id="edge1" class="edge">
<title>Node1&#45;&gt;Node2</title>
<path fill="none" stroke="midnightblue" d="M967.2,-170.37C862.36,-165.06 656.47,-152.5 483,-129 380.88,-115.17 262.64,-90.43 198.45,-76.26"/>
<polygon fill="midnightblue" stroke="midnightblue" points="199.14,-72.83 188.62,-74.08 197.63,-79.66 199.14,-72.83"/>
</g>
<!-- Node4 -->
<g id="node4" class="node">
<title>Node4</title>
<g id="a_node4"><a xlink:title=" ">
<polygon fill="none" stroke="#bfbfbf" points="294.5,-19 239.5,-19 239.5,0 294.5,0 294.5,-19"/>
<text text-anchor="middle" x="267" y="-7" font-family="Helvetica,sans-Serif" font-size="10.00">QFrame</text>
</a>
</g>
</g>
<!-- Node1&#45;&gt;Node4 -->
<g id="edge21" class="edge">
<title>Node1&#45;&gt;Node4</title>
<path fill="none" stroke="midnightblue" d="M1006.4,-164.99C986.28,-157.99 960.12,-146.36 942,-129 915.15,-103.28 934.14,-75.31 903,-55 852.89,-22.33 433.91,-13.1 304.75,-11.02"/>
<polygon fill="midnightblue" stroke="midnightblue" points="304.61,-7.52 294.56,-10.86 304.51,-14.52 304.61,-7.52"/>
</g>
<!-- Node5 -->
<g id="node5" class="node">
<title>Node5</title>
<g id="a_node5"><a xlink:href="mainwindow_8h.html" target="_top" xlink:title=" ">
<polygon fill="none" stroke="black" points="578.5,-129 491.5,-129 491.5,-110 578.5,-110 578.5,-129"/>
<text text-anchor="middle" x="535" y="-117" font-family="Helvetica,sans-Serif" font-size="10.00">mainwindow.h</text>
</a>
</g>
</g>
<!-- Node1&#45;&gt;Node5 -->
<g id="edge4" class="edge">
<title>Node1&#45;&gt;Node5</title>
<path fill="none" stroke="midnightblue" d="M967.39,-166.24C866.62,-155.58 680.66,-135.91 588.98,-126.21"/>
<polygon fill="midnightblue" stroke="midnightblue" points="589.12,-122.71 578.81,-125.13 588.39,-129.67 589.12,-122.71"/>
</g>
<!-- Node13 -->
<g id="node13" class="node">
<title>Node13</title>
<g id="a_node13"><a xlink:href="colorwell_8h.html" target="_top" xlink:title=" ">
<polygon fill="none" stroke="black" points="70,-74 0,-74 0,-55 70,-55 70,-74"/>
<text text-anchor="middle" x="35" y="-62" font-family="Helvetica,sans-Serif" font-size="10.00">colorwell.h</text>
</a>
</g>
</g>
<!-- Node1&#45;&gt;Node13 -->
<g id="edge16" class="edge">
<title>Node1&#45;&gt;Node13</title>
<path fill="none" stroke="midnightblue" d="M967.46,-171.68C846.15,-167.85 585.9,-156.89 368,-129 264.31,-115.73 144.21,-90.31 80.38,-75.98"/>
<polygon fill="midnightblue" stroke="midnightblue" points="80.78,-72.48 70.26,-73.7 79.24,-79.31 80.78,-72.48"/>
</g>
<!-- Node15 -->
<g id="node15" class="node">
<title>Node15</title>
<g id="a_node15"><a xlink:title=" ">
<polygon fill="none" stroke="#bfbfbf" points="1027.5,-129 950.5,-129 950.5,-110 1027.5,-110 1027.5,-129"/>
<text text-anchor="middle" x="989" y="-117" font-family="Helvetica,sans-Serif" font-size="10.00">QGridLayout</text>
</a>
</g>
</g>
<!-- Node1&#45;&gt;Node15 -->
<g id="edge20" class="edge">
<title>Node1&#45;&gt;Node15</title>
<path fill="none" stroke="midnightblue" d="M1028.24,-164.75C1021.53,-157.18 1011.66,-146.05 1003.49,-136.84"/>
<polygon fill="midnightblue" stroke="midnightblue" points="1005.87,-134.25 996.62,-129.09 1000.63,-138.89 1005.87,-134.25"/>
</g>
<!-- Node16 -->
<g id="node16" class="node">
<title>Node16</title>
<g id="a_node16"><a xlink:title=" ">
<polygon fill="none" stroke="#bfbfbf" points="1120,-129 1046,-129 1046,-110 1120,-110 1120,-129"/>
<text text-anchor="middle" x="1083" y="-117" font-family="Helvetica,sans-Serif" font-size="10.00">QSizePolicy</text>
</a>
</g>
</g>
<!-- Node1&#45;&gt;Node16 -->
<g id="edge22" class="edge">
<title>Node1&#45;&gt;Node16</title>
<path fill="none" stroke="midnightblue" d="M1043.76,-164.75C1050.47,-157.18 1060.34,-146.05 1068.51,-136.84"/>
<polygon fill="midnightblue" stroke="midnightblue" points="1071.37,-138.89 1075.38,-129.09 1066.13,-134.25 1071.37,-138.89"/>
</g>
<!-- Node17 -->
<g id="node17" class="node">
<title>Node17</title>
<g id="a_node17"><a xlink:title=" ">
<polygon fill="none" stroke="#bfbfbf" points="1217.5,-129 1138.5,-129 1138.5,-110 1217.5,-110 1217.5,-129"/>
<text text-anchor="middle" x="1178" y="-117" font-family="Helvetica,sans-Serif" font-size="10.00">QApplication</text>
</a>
</g>
</g>
<!-- Node1&#45;&gt;Node17 -->
<g id="edge23" class="edge">
<title>Node1&#45;&gt;Node17</title>
<path fill="none" stroke="midnightblue" d="M1058.81,-164.98C1082.17,-156.27 1118.7,-142.63 1145.17,-132.75"/>
<polygon fill="midnightblue" stroke="midnightblue" points="1146.63,-135.95 1154.77,-129.17 1144.18,-129.39 1146.63,-135.95"/>
</g>
<!-- Node18 -->
<g id="node18" class="node">
<title>Node18</title>
<g id="a_node18"><a xlink:title=" ">
<polygon fill="none" stroke="#bfbfbf" points="1286,-129 1236,-129 1236,-110 1286,-110 1286,-129"/>
<text text-anchor="middle" x="1261" y="-117" font-family="Helvetica,sans-Serif" font-size="10.00">QLabel</text>
</a>
</g>
</g>
<!-- Node1&#45;&gt;Node18 -->
<g id="edge24" class="edge">
<title>Node1&#45;&gt;Node18</title>
<path fill="none" stroke="midnightblue" d="M1073.37,-164.98C1109.88,-156.62 1167.26,-143.36 1225.95,-129.23"/>
<polygon fill="midnightblue" stroke="midnightblue" points="1226.86,-132.61 1235.76,-126.86 1225.22,-125.8 1226.86,-132.61"/>
</g>
<!-- Node19 -->
<g id="node19" class="node">
<title>Node19</title>
<g id="a_node19"><a xlink:title=" ">
<polygon fill="none" stroke="#bfbfbf" points="1384,-129 1304,-129 1304,-110 1384,-110 1384,-129"/>
<text text-anchor="middle" x="1344" y="-117" font-family="Helvetica,sans-Serif" font-size="10.00">QPushButton</text>
</a>
</g>
</g>
<!-- Node1&#45;&gt;Node19 -->
<g id="edge25" class="edge">
<title>Node1&#45;&gt;Node19</title>
<path fill="none" stroke="midnightblue" d="M1085.66,-164.99C1135.66,-156.42 1215.3,-142.75 1293.82,-129.2"/>
<polygon fill="midnightblue" stroke="midnightblue" points="1294.63,-132.61 1303.89,-127.46 1293.44,-125.72 1294.63,-132.61"/>
</g>
<!-- Node20 -->
<g id="node20" class="node">
<title>Node20</title>
<g id="a_node20"><a xlink:title=" ">
<polygon fill="none" stroke="#bfbfbf" points="1465.5,-129 1402.5,-129 1402.5,-110 1465.5,-110 1465.5,-129"/>
<text text-anchor="middle" x="1434" y="-117" font-family="Helvetica,sans-Serif" font-size="10.00">QTextEdit</text>
</a>
</g>
</g>
<!-- Node1&#45;&gt;Node20 -->
<g id="edge26" class="edge">
<title>Node1&#45;&gt;Node20</title>
<path fill="none" stroke="midnightblue" d="M1104.68,-166.6C1174.55,-159.2 1286.17,-146.35 1392.34,-128.98"/>
<polygon fill="midnightblue" stroke="midnightblue" points="1392.97,-132.43 1402.26,-127.34 1391.83,-125.52 1392.97,-132.43"/>
</g>
<!-- Node3 -->
<g id="node3" class="node">
<title>Node3</title>
<g id="a_node3"><a xlink:title=" ">
<polygon fill="none" stroke="#bfbfbf" points="180.5,-19 121.5,-19 121.5,0 180.5,0 180.5,-19"/>
<text text-anchor="middle" x="151" y="-7" font-family="Helvetica,sans-Serif" font-size="10.00">QWidget</text>
</a>
</g>
</g>
<!-- Node2&#45;&gt;Node3 -->
<g id="edge2" class="edge">
<title>Node2&#45;&gt;Node3</title>
<path fill="none" stroke="midnightblue" d="M151,-54.75C151,-47.8 151,-37.85 151,-29.13"/>
<polygon fill="midnightblue" stroke="midnightblue" points="154.5,-29.09 151,-19.09 147.5,-29.09 154.5,-29.09"/>
</g>
<!-- Node2&#45;&gt;Node4 -->
<g id="edge3" class="edge">
<title>Node2&#45;&gt;Node4</title>
<path fill="none" stroke="midnightblue" d="M169.64,-54.98C188.3,-46.46 217.25,-33.23 238.74,-23.41"/>
<polygon fill="midnightblue" stroke="midnightblue" points="240.38,-26.51 248.02,-19.17 237.47,-20.14 240.38,-26.51"/>
</g>
<!-- Node5&#45;&gt;Node2 -->
<g id="edge15" class="edge">
<title>Node5&#45;&gt;Node2</title>
<path fill="none" stroke="midnightblue" d="M491.32,-112.47C425.95,-103.45 301.92,-86.33 223.01,-75.44"/>
<polygon fill="midnightblue" stroke="midnightblue" points="223.05,-71.91 212.66,-74.01 222.09,-78.85 223.05,-71.91"/>
</g>
<!-- Node6 -->
<g id="node6" class="node">
<title>Node6</title>
<g id="a_node6"><a xlink:title=" ">
<polygon fill="none" stroke="#bfbfbf" points="407.5,-74 320.5,-74 320.5,-55 407.5,-55 407.5,-74"/>
<text text-anchor="middle" x="364" y="-62" font-family="Helvetica,sans-Serif" font-size="10.00">QMainWindow</text>
</a>
</g>
</g>
<!-- Node5&#45;&gt;Node6 -->
<g id="edge5" class="edge">
<title>Node5&#45;&gt;Node6</title>
<path fill="none" stroke="midnightblue" d="M507.53,-109.98C478.82,-101.09 433.58,-87.07 401.58,-77.15"/>
<polygon fill="midnightblue" stroke="midnightblue" points="402.28,-73.7 391.69,-74.08 400.2,-80.39 402.28,-73.7"/>
</g>
<!-- Node7 -->
<g id="node7" class="node">
<title>Node7</title>
<g id="a_node7"><a xlink:title=" ">
<polygon fill="none" stroke="#bfbfbf" points="478.5,-74 425.5,-74 425.5,-55 478.5,-55 478.5,-74"/>
<text text-anchor="middle" x="452" y="-62" font-family="Helvetica,sans-Serif" font-size="10.00">QString</text>
</a>
</g>
</g>
<!-- Node5&#45;&gt;Node7 -->
<g id="edge6" class="edge">
<title>Node5&#45;&gt;Node7</title>
<path fill="none" stroke="midnightblue" d="M521.66,-109.98C508.91,-101.84 489.45,-89.41 474.33,-79.76"/>
<polygon fill="midnightblue" stroke="midnightblue" points="475.89,-76.6 465.58,-74.17 472.12,-82.5 475.89,-76.6"/>
</g>
<!-- Node8 -->
<g id="node8" class="node">
<title>Node8</title>
<g id="a_node8"><a xlink:title=" ">
<polygon fill="none" stroke="#bfbfbf" points="573,-74 497,-74 497,-55 573,-55 573,-74"/>
<text text-anchor="middle" x="535" y="-62" font-family="Helvetica,sans-Serif" font-size="10.00">QListWidget</text>
</a>
</g>
</g>
<!-- Node5&#45;&gt;Node8 -->
<g id="edge7" class="edge">
<title>Node5&#45;&gt;Node8</title>
<path fill="none" stroke="midnightblue" d="M535,-109.75C535,-102.8 535,-92.85 535,-84.13"/>
<polygon fill="midnightblue" stroke="midnightblue" points="538.5,-84.09 535,-74.09 531.5,-84.09 538.5,-84.09"/>
</g>
<!-- Node9 -->
<g id="node9" class="node">
<title>Node9</title>
<g id="a_node9"><a xlink:title=" ">
<polygon fill="none" stroke="#bfbfbf" points="794.5,-74 699.5,-74 699.5,-55 794.5,-55 794.5,-74"/>
<text text-anchor="middle" x="747" y="-62" font-family="Helvetica,sans-Serif" font-size="10.00">QTextDocument</text>
</a>
</g>
</g>
<!-- Node5&#45;&gt;Node9 -->
<g id="edge8" class="edge">
<title>Node5&#45;&gt;Node9</title>
<path fill="none" stroke="midnightblue" d="M569.06,-109.98C605.42,-100.89 663.17,-86.46 702.97,-76.51"/>
<polygon fill="midnightblue" stroke="midnightblue" points="703.82,-79.9 712.67,-74.08 702.12,-73.11 703.82,-79.9"/>
</g>
<!-- Node10 -->
<g id="node10" class="node">
<title>Node10</title>
<g id="a_node10"><a xlink:title=" ">
<polygon fill="none" stroke="#bfbfbf" points="893.5,-74 812.5,-74 812.5,-55 893.5,-55 893.5,-74"/>
<text text-anchor="middle" x="853" y="-62" font-family="Helvetica,sans-Serif" font-size="10.00">QColorDialog</text>
</a>
</g>
</g>
<!-- Node5&#45;&gt;Node10 -->
<g id="edge9" class="edge">
<title>Node5&#45;&gt;Node10</title>
<path fill="none" stroke="midnightblue" d="M578.81,-111.36C630.04,-102.99 717.66,-88.59 802.32,-74.27"/>
<polygon fill="midnightblue" stroke="midnightblue" points="803.09,-77.7 812.36,-72.57 801.92,-70.79 803.09,-77.7"/>
</g>
<!-- Node11 -->
<g id="node11" class="node">
<title>Node11</title>
<g id="a_node11"><a xlink:href="container_8h.html" target="_top" xlink:title=" ">
<polygon fill="none" stroke="black" points="302.5,-74 231.5,-74 231.5,-55 302.5,-55 302.5,-74"/>
<text text-anchor="middle" x="267" y="-62" font-family="Helvetica,sans-Serif" font-size="10.00">container.h</text>
</a>
</g>
</g>
<!-- Node5&#45;&gt;Node11 -->
<g id="edge10" class="edge">
<title>Node5&#45;&gt;Node11</title>
<path fill="none" stroke="midnightblue" d="M491.94,-109.98C442.8,-100.27 362.76,-84.44 312.59,-74.52"/>
<polygon fill="midnightblue" stroke="midnightblue" points="313.15,-71.06 302.66,-72.55 311.8,-77.93 313.15,-71.06"/>
</g>
<!-- Node12 -->
<g id="node12" class="node">
<title>Node12</title>
<g id="a_node12"><a xlink:href="contextmenu_8h.html" target="_top" xlink:title=" ">
<polygon fill="none" stroke="black" points="681,-74 591,-74 591,-55 681,-55 681,-74"/>
<text text-anchor="middle" x="636" y="-62" font-family="Helvetica,sans-Serif" font-size="10.00">contextmenu.h</text>
</a>
</g>
</g>
<!-- Node5&#45;&gt;Node12 -->
<g id="edge13" class="edge">
<title>Node5&#45;&gt;Node12</title>
<path fill="none" stroke="midnightblue" d="M551.23,-109.98C567.18,-101.61 591.78,-88.7 610.38,-78.95"/>
<polygon fill="midnightblue" stroke="midnightblue" points="612.25,-81.92 619.48,-74.17 609,-75.72 612.25,-81.92"/>
</g>
<!-- Node11&#45;&gt;Node3 -->
<g id="edge11" class="edge">
<title>Node11&#45;&gt;Node3</title>
<path fill="none" stroke="midnightblue" d="M248.36,-54.98C229.7,-46.46 200.75,-33.23 179.26,-23.41"/>
<polygon fill="midnightblue" stroke="midnightblue" points="180.53,-20.14 169.98,-19.17 177.62,-26.51 180.53,-20.14"/>
</g>
<!-- Node11&#45;&gt;Node4 -->
<g id="edge12" class="edge">
<title>Node11&#45;&gt;Node4</title>
<path fill="none" stroke="midnightblue" d="M267,-54.75C267,-47.8 267,-37.85 267,-29.13"/>
<polygon fill="midnightblue" stroke="midnightblue" points="270.5,-29.09 267,-19.09 263.5,-29.09 270.5,-29.09"/>
</g>
<!-- Node12&#45;&gt;Node4 -->
<g id="edge14" class="edge">
<title>Node12&#45;&gt;Node4</title>
<path fill="none" stroke="midnightblue" d="M590.93,-56.35C587.91,-55.89 584.91,-55.43 582,-55 482.03,-40.07 364.01,-23.75 304.84,-15.65"/>
<polygon fill="midnightblue" stroke="midnightblue" points="305.21,-12.17 294.83,-14.28 304.27,-19.1 305.21,-12.17"/>
</g>
<!-- Node13&#45;&gt;Node3 -->
<g id="edge19" class="edge">
<title>Node13&#45;&gt;Node3</title>
<path fill="none" stroke="midnightblue" d="M53.64,-54.98C72.3,-46.46 101.25,-33.23 122.74,-23.41"/>
<polygon fill="midnightblue" stroke="midnightblue" points="124.38,-26.51 132.02,-19.17 121.47,-20.14 124.38,-26.51"/>
</g>
<!-- Node13&#45;&gt;Node4 -->
<g id="edge17" class="edge">
<title>Node13&#45;&gt;Node4</title>
<path fill="none" stroke="midnightblue" d="M70.24,-55.45C113.19,-45.64 185.46,-29.13 229.44,-19.08"/>
<polygon fill="midnightblue" stroke="midnightblue" points="230.47,-22.43 239.44,-16.8 228.91,-15.61 230.47,-22.43"/>
</g>
<!-- Node14 -->
<g id="node14" class="node">
<title>Node14</title>
<g id="a_node14"><a xlink:title=" ">
<polygon fill="none" stroke="#bfbfbf" points="63,-19 7,-19 7,0 63,0 63,-19"/>
<text text-anchor="middle" x="35" y="-7" font-family="Helvetica,sans-Serif" font-size="10.00">QObject</text>
</a>
</g>
</g>
<!-- Node13&#45;&gt;Node14 -->
<g id="edge18" class="edge">
<title>Node13&#45;&gt;Node14</title>
<path fill="none" stroke="midnightblue" d="M35,-54.75C35,-47.8 35,-37.85 35,-29.13"/>
<polygon fill="midnightblue" stroke="midnightblue" points="38.5,-29.09 35,-19.09 31.5,-29.09 38.5,-29.09"/>
</g>
</g>
</svg>
