<?xml version="1.0" encoding="UTF-8" standalone="no"?>
<!DOCTYPE svg PUBLIC "-//W3C//DTD SVG 1.1//EN"
 "http://www.w3.org/Graphics/SVG/1.1/DTD/svg11.dtd">
<!-- Generated by graphviz version 5.0.0 (0)
 -->
<!-- Title: colordropdownmenu.h Pages: 1 -->
<svg width="831pt" height="192pt"
 viewBox="0.00 0.00 830.50 192.00" xmlns="http://www.w3.org/2000/svg" xmlns:xlink="http://www.w3.org/1999/xlink">
<g id="graph0" class="graph" transform="scale(1 1) rotate(0) translate(4 188)">
<title>colordropdownmenu.h</title>
<!-- Node1 -->
<g id="node1" class="node">
<title>Node1</title>
<g id="a_node1"><a xlink:title=" ">
<polygon fill="#bfbfbf" stroke="black" points="556.5,-184 431.5,-184 431.5,-165 556.5,-165 556.5,-184"/>
<text text-anchor="middle" x="494" y="-172" font-family="Helvetica,sans-Serif" font-size="10.00">colordropdownmenu.h</text>
</a>
</g>
</g>
<!-- Node2 -->
<g id="node2" class="node">
<title>Node2</title>
<g id="a_node2"><a xlink:href="colordropdownmenu_8cpp.html" target="_top" xlink:title=" ">
<polygon fill="none" stroke="black" points="822.5,-19 685.5,-19 685.5,0 822.5,0 822.5,-19"/>
<text text-anchor="middle" x="754" y="-7" font-family="Helvetica,sans-Serif" font-size="10.00">colordropdownmenu.cpp</text>
</a>
</g>
</g>
<!-- Node1&#45;&gt;Node2 -->
<g id="edge1" class="edge">
<title>Node1&#45;&gt;Node2</title>
<path fill="none" stroke="midnightblue" d="M538.66,-162.21C586.95,-148.17 663.97,-120.23 716,-74 733.67,-58.3 745.57,-32.36 750.87,-19.02"/>
<polygon fill="midnightblue" stroke="midnightblue" points="537.48,-158.91 528.81,-165 539.38,-165.64 537.48,-158.91"/>
</g>
<!-- Node3 -->
<g id="node3" class="node">
<title>Node3</title>
<g id="a_node3"><a xlink:href="mainwindow_8cpp.html" target="_top" xlink:title=" ">
<polygon fill="none" stroke="black" points="98,-19 0,-19 0,0 98,0 98,-19"/>
<text text-anchor="middle" x="49" y="-7" font-family="Helvetica,sans-Serif" font-size="10.00">mainwindow.cpp</text>
</a>
</g>
</g>
<!-- Node1&#45;&gt;Node3 -->
<g id="edge2" class="edge">
<title>Node1&#45;&gt;Node3</title>
<path fill="none" stroke="midnightblue" d="M456.91,-161.81C401.02,-143.98 292.06,-108.44 201,-74 152.85,-55.79 97.26,-31.79 68.5,-19.15"/>
<polygon fill="midnightblue" stroke="midnightblue" points="456.12,-165.23 466.72,-164.92 458.25,-158.56 456.12,-165.23"/>
</g>
<!-- Node4 -->
<g id="node4" class="node">
<title>Node4</title>
<g id="a_node4"><a xlink:href="mainwindow_8h.html" target="_top" xlink:title=" ">
<polygon fill="none" stroke="black" points="537.5,-129 450.5,-129 450.5,-110 537.5,-110 537.5,-129"/>
<text text-anchor="middle" x="494" y="-117" font-family="Helvetica,sans-Serif" font-size="10.00">mainwindow.h</text>
</a>
</g>
</g>
<!-- Node1&#45;&gt;Node4 -->
<g id="edge3" class="edge">
<title>Node1&#45;&gt;Node4</title>
<path fill="none" stroke="midnightblue" d="M494,-154.66C494,-145.93 494,-135.99 494,-129.09"/>
<polygon fill="midnightblue" stroke="midnightblue" points="490.5,-154.75 494,-164.75 497.5,-154.75 490.5,-154.75"/>
</g>
<!-- Node4&#45;&gt;Node2 -->
<g id="edge4" class="edge">
<title>Node4&#45;&gt;Node2</title>
<path fill="none" stroke="midnightblue" d="M547.81,-114.37C588.87,-109.36 645.74,-98.32 690,-74 715.52,-59.98 737.74,-32.81 747.98,-19"/>
<polygon fill="midnightblue" stroke="midnightblue" points="547.26,-110.91 537.72,-115.52 548.05,-117.86 547.26,-110.91"/>
</g>
<!-- Node4&#45;&gt;Node3 -->
<g id="edge18" class="edge">
<title>Node4&#45;&gt;Node3</title>
<path fill="none" stroke="midnightblue" d="M440.07,-108.85C395.16,-100.53 329.64,-87.71 273,-74 201.5,-56.69 118.45,-31.9 76.41,-19.01"/>
<polygon fill="midnightblue" stroke="midnightblue" points="439.7,-112.34 450.17,-110.71 440.97,-105.46 439.7,-112.34"/>
</g>
<!-- Node5 -->
<g id="node5" class="node">
<title>Node5</title>
<g id="a_node5"><a xlink:href="colorwell_8cpp.html" target="_top" xlink:title=" ">
<polygon fill="none" stroke="black" points="667.5,-19 586.5,-19 586.5,0 667.5,0 667.5,-19"/>
<text text-anchor="middle" x="627" y="-7" font-family="Helvetica,sans-Serif" font-size="10.00">colorwell.cpp</text>
</a>
</g>
</g>
<!-- Node4&#45;&gt;Node5 -->
<g id="edge5" class="edge">
<title>Node4&#45;&gt;Node5</title>
<path fill="none" stroke="midnightblue" d="M518.64,-104.68C532.48,-96.47 549.78,-85.45 564,-74 585.77,-56.47 608.07,-32.2 619.4,-19.33"/>
<polygon fill="midnightblue" stroke="midnightblue" points="516.57,-101.83 509.69,-109.88 520.09,-107.88 516.57,-101.83"/>
</g>
<!-- Node6 -->
<g id="node6" class="node">
<title>Node6</title>
<g id="a_node6"><a xlink:href="colorwell_8h.html" target="_top" xlink:title=" ">
<polygon fill="none" stroke="black" points="681,-74 611,-74 611,-55 681,-55 681,-74"/>
<text text-anchor="middle" x="646" y="-62" font-family="Helvetica,sans-Serif" font-size="10.00">colorwell.h</text>
</a>
</g>
</g>
<!-- Node4&#45;&gt;Node6 -->
<g id="edge6" class="edge">
<title>Node4&#45;&gt;Node6</title>
<path fill="none" stroke="midnightblue" d="M527.93,-106.67C556.27,-96.79 596.02,-82.93 621.39,-74.08"/>
<polygon fill="midnightblue" stroke="midnightblue" points="526.71,-103.39 518.42,-109.98 529.02,-110 526.71,-103.39"/>
</g>
<!-- Node7 -->
<g id="node7" class="node">
<title>Node7</title>
<g id="a_node7"><a xlink:href="container_8cpp.html" target="_top" xlink:title=" ">
<polygon fill="none" stroke="black" points="568,-19 486,-19 486,0 568,0 568,-19"/>
<text text-anchor="middle" x="527" y="-7" font-family="Helvetica,sans-Serif" font-size="10.00">container.cpp</text>
</a>
</g>
</g>
<!-- Node4&#45;&gt;Node7 -->
<g id="edge9" class="edge">
<title>Node4&#45;&gt;Node7</title>
<path fill="none" stroke="midnightblue" d="M486.15,-100.3C481.72,-87.28 478.12,-69.55 484,-55 490.12,-39.86 504.13,-27.01 514.51,-19.07"/>
<polygon fill="midnightblue" stroke="midnightblue" points="483.02,-101.89 489.89,-109.96 489.55,-99.37 483.02,-101.89"/>
</g>
<!-- Node8 -->
<g id="node8" class="node">
<title>Node8</title>
<g id="a_node8"><a xlink:href="floattextedit_8cpp.html" target="_top" xlink:title=" ">
<polygon fill="none" stroke="black" points="467.5,-19 370.5,-19 370.5,0 467.5,0 467.5,-19"/>
<text text-anchor="middle" x="419" y="-7" font-family="Helvetica,sans-Serif" font-size="10.00">floattextedit.cpp</text>
</a>
</g>
</g>
<!-- Node4&#45;&gt;Node8 -->
<g id="edge10" class="edge">
<title>Node4&#45;&gt;Node8</title>
<path fill="none" stroke="midnightblue" d="M482.11,-101.38C465.88,-78.01 437.38,-36.97 425.01,-19.16"/>
<polygon fill="midnightblue" stroke="midnightblue" points="479.28,-103.44 487.86,-109.66 485.03,-99.45 479.28,-103.44"/>
</g>
<!-- Node9 -->
<g id="node9" class="node">
<title>Node9</title>
<g id="a_node9"><a xlink:href="floattextedit_8h.html" target="_top" xlink:title=" ">
<polygon fill="none" stroke="black" points="368,-74 282,-74 282,-55 368,-55 368,-74"/>
<text text-anchor="middle" x="325" y="-62" font-family="Helvetica,sans-Serif" font-size="10.00">floattextedit.h</text>
</a>
</g>
</g>
<!-- Node4&#45;&gt;Node9 -->
<g id="edge11" class="edge">
<title>Node4&#45;&gt;Node9</title>
<path fill="none" stroke="midnightblue" d="M457.1,-106.93C425.53,-97.03 380.82,-83.01 352.37,-74.08"/>
<polygon fill="midnightblue" stroke="midnightblue" points="456.26,-110.33 466.85,-109.98 458.35,-103.65 456.26,-110.33"/>
</g>
<!-- Node12 -->
<g id="node12" class="node">
<title>Node12</title>
<g id="a_node12"><a xlink:href="main_8cpp.html" target="_top" xlink:title=" ">
<polygon fill="none" stroke="black" points="555,-74 493,-74 493,-55 555,-55 555,-74"/>
<text text-anchor="middle" x="524" y="-62" font-family="Helvetica,sans-Serif" font-size="10.00">main.cpp</text>
</a>
</g>
</g>
<!-- Node4&#45;&gt;Node12 -->
<g id="edge17" class="edge">
<title>Node4&#45;&gt;Node12</title>
<path fill="none" stroke="midnightblue" d="M504.01,-100.82C509.1,-91.82 515.06,-81.29 519.14,-74.09"/>
<polygon fill="midnightblue" stroke="midnightblue" points="500.83,-99.32 498.95,-109.75 506.93,-102.77 500.83,-99.32"/>
</g>
<!-- Node6&#45;&gt;Node2 -->
<g id="edge7" class="edge">
<title>Node6&#45;&gt;Node2</title>
<path fill="none" stroke="midnightblue" d="M672.49,-50.5C692.36,-40.75 719,-27.68 736.33,-19.17"/>
<polygon fill="midnightblue" stroke="midnightblue" points="670.79,-47.44 663.35,-54.98 673.87,-53.72 670.79,-47.44"/>
</g>
<!-- Node6&#45;&gt;Node5 -->
<g id="edge8" class="edge">
<title>Node6&#45;&gt;Node5</title>
<path fill="none" stroke="midnightblue" d="M639.45,-45.24C636.28,-36.37 632.61,-26.14 630.08,-19.09"/>
<polygon fill="midnightblue" stroke="midnightblue" points="636.19,-46.52 642.86,-54.75 642.78,-44.15 636.19,-46.52"/>
</g>
<!-- Node9&#45;&gt;Node3 -->
<g id="edge14" class="edge">
<title>Node9&#45;&gt;Node3</title>
<path fill="none" stroke="midnightblue" d="M271.89,-53.3C220.13,-43.36 142.31,-28.42 93.65,-19.07"/>
<polygon fill="midnightblue" stroke="midnightblue" points="271.39,-56.77 281.88,-55.22 272.71,-49.9 271.39,-56.77"/>
</g>
<!-- Node9&#45;&gt;Node7 -->
<g id="edge12" class="edge">
<title>Node9&#45;&gt;Node7</title>
<path fill="none" stroke="midnightblue" d="M367.16,-52.44C404.98,-42.52 459.69,-28.16 494.29,-19.08"/>
<polygon fill="midnightblue" stroke="midnightblue" points="366.24,-49.06 357.45,-54.98 368.02,-55.83 366.24,-49.06"/>
</g>
<!-- Node9&#45;&gt;Node8 -->
<g id="edge13" class="edge">
<title>Node9&#45;&gt;Node8</title>
<path fill="none" stroke="midnightblue" d="M349,-49.97C366.19,-40.28 388.81,-27.52 403.62,-19.17"/>
<polygon fill="midnightblue" stroke="midnightblue" points="347.09,-47.02 340.1,-54.98 350.53,-53.12 347.09,-47.02"/>
</g>
<!-- Node10 -->
<g id="node10" class="node">
<title>Node10</title>
<g id="a_node10"><a xlink:href="notetabwidget_8cpp.html" target="_top" xlink:title=" ">
<polygon fill="none" stroke="black" points="223.5,-19 116.5,-19 116.5,0 223.5,0 223.5,-19"/>
<text text-anchor="middle" x="170" y="-7" font-family="Helvetica,sans-Serif" font-size="10.00">notetabwidget.cpp</text>
</a>
</g>
</g>
<!-- Node9&#45;&gt;Node10 -->
<g id="edge15" class="edge">
<title>Node9&#45;&gt;Node10</title>
<path fill="none" stroke="midnightblue" d="M290.4,-51.67C261.5,-41.79 220.97,-27.93 195.1,-19.08"/>
<polygon fill="midnightblue" stroke="midnightblue" points="289.5,-55.06 300.1,-54.98 291.77,-48.44 289.5,-55.06"/>
</g>
<!-- Node11 -->
<g id="node11" class="node">
<title>Node11</title>
<g id="a_node11"><a xlink:href="tabmainwidget_8cpp.html" target="_top" xlink:title=" ">
<polygon fill="none" stroke="black" points="352,-19 242,-19 242,0 352,0 352,-19"/>
<text text-anchor="middle" x="297" y="-7" font-family="Helvetica,sans-Serif" font-size="10.00">tabmainwidget.cpp</text>
</a>
</g>
</g>
<!-- Node9&#45;&gt;Node11 -->
<g id="edge16" class="edge">
<title>Node9&#45;&gt;Node11</title>
<path fill="none" stroke="midnightblue" d="M315.66,-45.82C310.91,-36.82 305.34,-26.29 301.54,-19.09"/>
<polygon fill="midnightblue" stroke="midnightblue" points="312.61,-47.54 320.38,-54.75 318.8,-44.27 312.61,-47.54"/>
</g>
</g>
</svg>
