<?xml version="1.0" encoding="UTF-8" standalone="no"?>
<!DOCTYPE svg PUBLIC "-//W3C//DTD SVG 1.1//EN"
 "http://www.w3.org/Graphics/SVG/1.1/DTD/svg11.dtd">
<!-- Generated by graphviz version 5.0.0 (0)
 -->
<!-- Title: colordropdownmenu.h Pages: 1 -->
<svg width="575pt" height="192pt"
 viewBox="0.00 0.00 575.00 192.00" xmlns="http://www.w3.org/2000/svg" xmlns:xlink="http://www.w3.org/1999/xlink">
<g id="graph0" class="graph" transform="scale(1 1) rotate(0) translate(4 188)">
<title>colordropdownmenu.h</title>
<!-- Node1 -->
<g id="node1" class="node">
<title>Node1</title>
<g id="a_node1"><a xlink:title=" ">
<polygon fill="#bfbfbf" stroke="black" points="388.5,-184 263.5,-184 263.5,-165 388.5,-165 388.5,-184"/>
<text text-anchor="middle" x="326" y="-172" font-family="Helvetica,sans-Serif" font-size="10.00">colordropdownmenu.h</text>
</a>
</g>
</g>
<!-- Node2 -->
<g id="node2" class="node">
<title>Node2</title>
<g id="a_node2"><a xlink:href="colordropdownmenu_8cpp.html" target="_top" xlink:title=" ">
<polygon fill="none" stroke="black" points="191.5,-74 54.5,-74 54.5,-55 191.5,-55 191.5,-74"/>
<text text-anchor="middle" x="123" y="-62" font-family="Helvetica,sans-Serif" font-size="10.00">colordropdownmenu.cpp</text>
</a>
</g>
</g>
<!-- Node1&#45;&gt;Node2 -->
<g id="edge1" class="edge">
<title>Node1&#45;&gt;Node2</title>
<path fill="none" stroke="midnightblue" d="M300.89,-160.14C258.6,-137.64 174.3,-92.79 139.06,-74.05"/>
<polygon fill="midnightblue" stroke="midnightblue" points="299.26,-163.24 309.73,-164.84 302.55,-157.06 299.26,-163.24"/>
</g>
<!-- Node3 -->
<g id="node3" class="node">
<title>Node3</title>
<g id="a_node3"><a xlink:href="mainwindow_8cpp.html" target="_top" xlink:title=" ">
<polygon fill="none" stroke="black" points="567,-19 469,-19 469,0 567,0 567,-19"/>
<text text-anchor="middle" x="518" y="-7" font-family="Helvetica,sans-Serif" font-size="10.00">mainwindow.cpp</text>
</a>
</g>
</g>
<!-- Node1&#45;&gt;Node3 -->
<g id="edge2" class="edge">
<title>Node1&#45;&gt;Node3</title>
<path fill="none" stroke="midnightblue" d="M355.61,-160.88C390.27,-144.88 447.65,-114.46 485,-74 500.34,-57.39 510.55,-32.3 515.17,-19.19"/>
<polygon fill="midnightblue" stroke="midnightblue" points="354.15,-157.69 346.48,-165 357.03,-164.07 354.15,-157.69"/>
</g>
<!-- Node4 -->
<g id="node4" class="node">
<title>Node4</title>
<g id="a_node4"><a xlink:href="mainwindow_8h.html" target="_top" xlink:title=" ">
<polygon fill="none" stroke="black" points="369.5,-129 282.5,-129 282.5,-110 369.5,-110 369.5,-129"/>
<text text-anchor="middle" x="326" y="-117" font-family="Helvetica,sans-Serif" font-size="10.00">mainwindow.h</text>
</a>
</g>
</g>
<!-- Node1&#45;&gt;Node4 -->
<g id="edge3" class="edge">
<title>Node1&#45;&gt;Node4</title>
<path fill="none" stroke="midnightblue" d="M326,-154.66C326,-145.93 326,-135.99 326,-129.09"/>
<polygon fill="midnightblue" stroke="midnightblue" points="322.5,-154.75 326,-164.75 329.5,-154.75 322.5,-154.75"/>
</g>
<!-- Node4&#45;&gt;Node2 -->
<g id="edge4" class="edge">
<title>Node4&#45;&gt;Node2</title>
<path fill="none" stroke="midnightblue" d="M283.63,-107.44C245.63,-97.52 190.64,-83.16 155.87,-74.08"/>
<polygon fill="midnightblue" stroke="midnightblue" points="282.82,-110.84 293.38,-109.98 284.59,-104.07 282.82,-110.84"/>
</g>
<!-- Node4&#45;&gt;Node3 -->
<g id="edge14" class="edge">
<title>Node4&#45;&gt;Node3</title>
<path fill="none" stroke="midnightblue" d="M379.31,-107.76C405.38,-100.86 436.36,-90.1 461,-74 483.82,-59.09 503.28,-32.81 512.42,-19.2"/>
<polygon fill="midnightblue" stroke="midnightblue" points="378.42,-104.37 369.59,-110.21 380.14,-111.16 378.42,-104.37"/>
</g>
<!-- Node5 -->
<g id="node5" class="node">
<title>Node5</title>
<g id="a_node5"><a xlink:href="container_8cpp.html" target="_top" xlink:title=" ">
<polygon fill="none" stroke="black" points="82,-19 0,-19 0,0 82,0 82,-19"/>
<text text-anchor="middle" x="41" y="-7" font-family="Helvetica,sans-Serif" font-size="10.00">container.cpp</text>
</a>
</g>
</g>
<!-- Node4&#45;&gt;Node5 -->
<g id="edge5" class="edge">
<title>Node4&#45;&gt;Node5</title>
<path fill="none" stroke="midnightblue" d="M300.39,-105.41C264.57,-87.11 203.56,-55.99 201,-55 160.69,-39.33 112.69,-26.75 79.84,-19.01"/>
<polygon fill="midnightblue" stroke="midnightblue" points="298.84,-108.55 309.33,-109.98 302.02,-102.31 298.84,-108.55"/>
</g>
<!-- Node6 -->
<g id="node6" class="node">
<title>Node6</title>
<g id="a_node6"><a xlink:href="floattextedit_8cpp.html" target="_top" xlink:title=" ">
<polygon fill="none" stroke="black" points="450.5,-19 353.5,-19 353.5,0 450.5,0 450.5,-19"/>
<text text-anchor="middle" x="402" y="-7" font-family="Helvetica,sans-Serif" font-size="10.00">floattextedit.cpp</text>
</a>
</g>
</g>
<!-- Node4&#45;&gt;Node6 -->
<g id="edge6" class="edge">
<title>Node4&#45;&gt;Node6</title>
<path fill="none" stroke="midnightblue" d="M338.05,-101.38C354.5,-78.01 383.37,-36.97 395.91,-19.16"/>
<polygon fill="midnightblue" stroke="midnightblue" points="335.11,-99.47 332.22,-109.66 340.84,-103.5 335.11,-99.47"/>
</g>
<!-- Node7 -->
<g id="node7" class="node">
<title>Node7</title>
<g id="a_node7"><a xlink:href="floattextedit_8h.html" target="_top" xlink:title=" ">
<polygon fill="none" stroke="black" points="334,-74 248,-74 248,-55 334,-55 334,-74"/>
<text text-anchor="middle" x="291" y="-62" font-family="Helvetica,sans-Serif" font-size="10.00">floattextedit.h</text>
</a>
</g>
</g>
<!-- Node4&#45;&gt;Node7 -->
<g id="edge7" class="edge">
<title>Node4&#45;&gt;Node7</title>
<path fill="none" stroke="midnightblue" d="M314.7,-101.39C308.68,-92.27 301.53,-81.45 296.67,-74.09"/>
<polygon fill="midnightblue" stroke="midnightblue" points="311.79,-103.33 320.22,-109.75 317.63,-99.47 311.79,-103.33"/>
</g>
<!-- Node10 -->
<g id="node10" class="node">
<title>Node10</title>
<g id="a_node10"><a xlink:href="main_8cpp.html" target="_top" xlink:title=" ">
<polygon fill="none" stroke="black" points="452,-74 390,-74 390,-55 452,-55 452,-74"/>
<text text-anchor="middle" x="421" y="-62" font-family="Helvetica,sans-Serif" font-size="10.00">main.cpp</text>
</a>
</g>
</g>
<!-- Node4&#45;&gt;Node10 -->
<g id="edge13" class="edge">
<title>Node4&#45;&gt;Node10</title>
<path fill="none" stroke="midnightblue" d="M350.26,-104.97C367.63,-95.28 390.49,-82.52 405.46,-74.17"/>
<polygon fill="midnightblue" stroke="midnightblue" points="348.29,-102.06 341.26,-109.98 351.7,-108.17 348.29,-102.06"/>
</g>
<!-- Node7&#45;&gt;Node3 -->
<g id="edge10" class="edge">
<title>Node7&#45;&gt;Node3</title>
<path fill="none" stroke="midnightblue" d="M337.3,-52.69C379.83,-42.76 442.03,-28.24 481.24,-19.08"/>
<polygon fill="midnightblue" stroke="midnightblue" points="336.41,-49.3 327.47,-54.98 338.01,-56.12 336.41,-49.3"/>
</g>
<!-- Node7&#45;&gt;Node5 -->
<g id="edge8" class="edge">
<title>Node7&#45;&gt;Node5</title>
<path fill="none" stroke="midnightblue" d="M240.9,-52.88C194.04,-42.94 124.94,-28.3 81.48,-19.08"/>
<polygon fill="midnightblue" stroke="midnightblue" points="240.32,-56.33 250.83,-54.98 241.78,-49.49 240.32,-56.33"/>
</g>
<!-- Node7&#45;&gt;Node6 -->
<g id="edge9" class="edge">
<title>Node7&#45;&gt;Node6</title>
<path fill="none" stroke="midnightblue" d="M317.95,-50.63C338.39,-40.87 365.95,-27.71 383.84,-19.17"/>
<polygon fill="midnightblue" stroke="midnightblue" points="316.35,-47.52 308.83,-54.98 319.37,-53.83 316.35,-47.52"/>
</g>
<!-- Node8 -->
<g id="node8" class="node">
<title>Node8</title>
<g id="a_node8"><a xlink:href="notetabwidget_8cpp.html" target="_top" xlink:title=" ">
<polygon fill="none" stroke="black" points="335.5,-19 228.5,-19 228.5,0 335.5,0 335.5,-19"/>
<text text-anchor="middle" x="282" y="-7" font-family="Helvetica,sans-Serif" font-size="10.00">notetabwidget.cpp</text>
</a>
</g>
</g>
<!-- Node7&#45;&gt;Node8 -->
<g id="edge11" class="edge">
<title>Node7&#45;&gt;Node8</title>
<path fill="none" stroke="midnightblue" d="M287.8,-44.66C286.32,-35.93 284.63,-25.99 283.46,-19.09"/>
<polygon fill="midnightblue" stroke="midnightblue" points="284.39,-45.48 289.51,-54.75 291.29,-44.3 284.39,-45.48"/>
</g>
<!-- Node9 -->
<g id="node9" class="node">
<title>Node9</title>
<g id="a_node9"><a xlink:href="tabmainwidget_8cpp.html" target="_top" xlink:title=" ">
<polygon fill="none" stroke="black" points="210,-19 100,-19 100,0 210,0 210,-19"/>
<text text-anchor="middle" x="155" y="-7" font-family="Helvetica,sans-Serif" font-size="10.00">tabmainwidget.cpp</text>
</a>
</g>
</g>
<!-- Node7&#45;&gt;Node9 -->
<g id="edge12" class="edge">
<title>Node7&#45;&gt;Node9</title>
<path fill="none" stroke="midnightblue" d="M259.67,-51.29C234.46,-41.47 199.67,-27.91 177.25,-19.17"/>
<polygon fill="midnightblue" stroke="midnightblue" points="258.56,-54.61 269.15,-54.98 261.1,-48.09 258.56,-54.61"/>
</g>
</g>
</svg>
