<?xml version="1.0" encoding="UTF-8" standalone="no"?>
<!DOCTYPE svg PUBLIC "-//W3C//DTD SVG 1.1//EN"
 "http://www.w3.org/Graphics/SVG/1.1/DTD/svg11.dtd">
<!-- Generated by graphviz version 5.0.0 (0)
 -->
<!-- Title: colordropdownmenu.cpp Pages: 1 -->
<svg width="1438pt" height="247pt"
 viewBox="0.00 0.00 1437.60 247.00" xmlns="http://www.w3.org/2000/svg" xmlns:xlink="http://www.w3.org/1999/xlink">
<g id="graph0" class="graph" transform="scale(1 1) rotate(0) translate(4 243)">
<title>colordropdownmenu.cpp</title>
<!-- Node1 -->
<g id="node1" class="node">
<title>Node1</title>
<g id="a_node1"><a xlink:title=" ">
<polygon fill="#bfbfbf" stroke="black" points="1068.6,-239 931.6,-239 931.6,-220 1068.6,-220 1068.6,-239"/>
<text text-anchor="middle" x="1000.1" y="-227" font-family="Helvetica,sans-Serif" font-size="10.00">colordropdownmenu.cpp</text>
</a>
</g>
</g>
<!-- Node2 -->
<g id="node2" class="node">
<title>Node2</title>
<g id="a_node2"><a xlink:href="colordropdownmenu_8h.html" target="_top" xlink:title=" ">
<polygon fill="none" stroke="black" points="139.6,-74 14.6,-74 14.6,-55 139.6,-55 139.6,-74"/>
<text text-anchor="middle" x="77.1" y="-62" font-family="Helvetica,sans-Serif" font-size="10.00">colordropdownmenu.h</text>
</a>
</g>
</g>
<!-- Node1&#45;&gt;Node2 -->
<g id="edge1" class="edge">
<title>Node1&#45;&gt;Node2</title>
<path fill="none" stroke="midnightblue" d="M931.49,-223.29C851.2,-216.64 714.43,-203.6 598.1,-184 417.95,-153.64 206.62,-99.86 118.71,-76.66"/>
<polygon fill="midnightblue" stroke="midnightblue" points="119.43,-73.23 108.86,-74.05 117.63,-79.99 119.43,-73.23"/>
</g>
<!-- Node4 -->
<g id="node4" class="node">
<title>Node4</title>
<g id="a_node4"><a xlink:title=" ">
<polygon fill="none" stroke="#bfbfbf" points="802.6,-19 747.6,-19 747.6,0 802.6,0 802.6,-19"/>
<text text-anchor="middle" x="775.1" y="-7" font-family="Helvetica,sans-Serif" font-size="10.00">QFrame</text>
</a>
</g>
</g>
<!-- Node1&#45;&gt;Node4 -->
<g id="edge22" class="edge">
<title>Node1&#45;&gt;Node4</title>
<path fill="none" stroke="midnightblue" d="M968.58,-219.89C948.31,-213 922.59,-201.54 905.1,-184 860.45,-139.23 886.79,-102.54 845.1,-55 833.68,-41.98 817.55,-31.37 803.64,-23.79"/>
<polygon fill="midnightblue" stroke="midnightblue" points="804.95,-20.52 794.46,-19.02 801.73,-26.73 804.95,-20.52"/>
</g>
<!-- Node5 -->
<g id="node5" class="node">
<title>Node5</title>
<g id="a_node5"><a xlink:href="mainwindow_8h.html" target="_top" xlink:title=" ">
<polygon fill="none" stroke="black" points="571.6,-129 484.6,-129 484.6,-110 571.6,-110 571.6,-129"/>
<text text-anchor="middle" x="528.1" y="-117" font-family="Helvetica,sans-Serif" font-size="10.00">mainwindow.h</text>
</a>
</g>
</g>
<!-- Node1&#45;&gt;Node5 -->
<g id="edge4" class="edge">
<title>Node1&#45;&gt;Node5</title>
<path fill="none" stroke="midnightblue" d="M931.42,-227.4C858.69,-224.52 741.34,-214.93 645.1,-184 609.13,-172.44 571.39,-149.75 548.81,-134.86"/>
<polygon fill="midnightblue" stroke="midnightblue" points="550.63,-131.87 540.38,-129.2 546.73,-137.68 550.63,-131.87"/>
</g>
<!-- Node13 -->
<g id="node13" class="node">
<title>Node13</title>
<g id="a_node13"><a xlink:href="colorwell_8h.html" target="_top" xlink:title=" ">
<polygon fill="none" stroke="black" points="724.1,-184 654.1,-184 654.1,-165 724.1,-165 724.1,-184"/>
<text text-anchor="middle" x="689.1" y="-172" font-family="Helvetica,sans-Serif" font-size="10.00">colorwell.h</text>
</a>
</g>
</g>
<!-- Node1&#45;&gt;Node13 -->
<g id="edge16" class="edge">
<title>Node1&#45;&gt;Node13</title>
<path fill="none" stroke="midnightblue" d="M950.13,-219.98C890.52,-209.83 791.74,-192.99 734.32,-183.21"/>
<polygon fill="midnightblue" stroke="midnightblue" points="734.88,-179.75 724.44,-181.52 733.71,-186.65 734.88,-179.75"/>
</g>
<!-- Node15 -->
<g id="node15" class="node">
<title>Node15</title>
<g id="a_node15"><a xlink:title=" ">
<polygon fill="none" stroke="#bfbfbf" points="991.6,-184 914.6,-184 914.6,-165 991.6,-165 991.6,-184"/>
<text text-anchor="middle" x="953.1" y="-172" font-family="Helvetica,sans-Serif" font-size="10.00">QGridLayout</text>
</a>
</g>
</g>
<!-- Node1&#45;&gt;Node15 -->
<g id="edge21" class="edge">
<title>Node1&#45;&gt;Node15</title>
<path fill="none" stroke="midnightblue" d="M992.34,-219.75C985.63,-212.18 975.76,-201.05 967.59,-191.84"/>
<polygon fill="midnightblue" stroke="midnightblue" points="969.97,-189.25 960.72,-184.09 964.73,-193.89 969.97,-189.25"/>
</g>
<!-- Node16 -->
<g id="node16" class="node">
<title>Node16</title>
<g id="a_node16"><a xlink:title=" ">
<polygon fill="none" stroke="#bfbfbf" points="1084.1,-184 1010.1,-184 1010.1,-165 1084.1,-165 1084.1,-184"/>
<text text-anchor="middle" x="1047.1" y="-172" font-family="Helvetica,sans-Serif" font-size="10.00">QSizePolicy</text>
</a>
</g>
</g>
<!-- Node1&#45;&gt;Node16 -->
<g id="edge23" class="edge">
<title>Node1&#45;&gt;Node16</title>
<path fill="none" stroke="midnightblue" d="M1007.86,-219.75C1014.57,-212.18 1024.44,-201.05 1032.61,-191.84"/>
<polygon fill="midnightblue" stroke="midnightblue" points="1035.47,-193.89 1039.48,-184.09 1030.23,-189.25 1035.47,-193.89"/>
</g>
<!-- Node17 -->
<g id="node17" class="node">
<title>Node17</title>
<g id="a_node17"><a xlink:title=" ">
<polygon fill="none" stroke="#bfbfbf" points="1181.6,-184 1102.6,-184 1102.6,-165 1181.6,-165 1181.6,-184"/>
<text text-anchor="middle" x="1142.1" y="-172" font-family="Helvetica,sans-Serif" font-size="10.00">QApplication</text>
</a>
</g>
</g>
<!-- Node1&#45;&gt;Node17 -->
<g id="edge24" class="edge">
<title>Node1&#45;&gt;Node17</title>
<path fill="none" stroke="midnightblue" d="M1022.92,-219.98C1046.27,-211.27 1082.81,-197.63 1109.27,-187.75"/>
<polygon fill="midnightblue" stroke="midnightblue" points="1110.73,-190.95 1118.87,-184.17 1108.28,-184.39 1110.73,-190.95"/>
</g>
<!-- Node18 -->
<g id="node18" class="node">
<title>Node18</title>
<g id="a_node18"><a xlink:title=" ">
<polygon fill="none" stroke="#bfbfbf" points="1250.1,-184 1200.1,-184 1200.1,-165 1250.1,-165 1250.1,-184"/>
<text text-anchor="middle" x="1225.1" y="-172" font-family="Helvetica,sans-Serif" font-size="10.00">QLabel</text>
</a>
</g>
</g>
<!-- Node1&#45;&gt;Node18 -->
<g id="edge25" class="edge">
<title>Node1&#45;&gt;Node18</title>
<path fill="none" stroke="midnightblue" d="M1037.47,-219.98C1073.98,-211.62 1131.36,-198.36 1190.05,-184.23"/>
<polygon fill="midnightblue" stroke="midnightblue" points="1190.96,-187.61 1199.86,-181.86 1189.32,-180.8 1190.96,-187.61"/>
</g>
<!-- Node19 -->
<g id="node19" class="node">
<title>Node19</title>
<g id="a_node19"><a xlink:title=" ">
<polygon fill="none" stroke="#bfbfbf" points="1348.1,-184 1268.1,-184 1268.1,-165 1348.1,-165 1348.1,-184"/>
<text text-anchor="middle" x="1308.1" y="-172" font-family="Helvetica,sans-Serif" font-size="10.00">QPushButton</text>
</a>
</g>
</g>
<!-- Node1&#45;&gt;Node19 -->
<g id="edge26" class="edge">
<title>Node1&#45;&gt;Node19</title>
<path fill="none" stroke="midnightblue" d="M1049.76,-219.99C1099.76,-211.42 1179.4,-197.75 1257.92,-184.2"/>
<polygon fill="midnightblue" stroke="midnightblue" points="1258.73,-187.61 1267.99,-182.46 1257.54,-180.72 1258.73,-187.61"/>
</g>
<!-- Node20 -->
<g id="node20" class="node">
<title>Node20</title>
<g id="a_node20"><a xlink:title=" ">
<polygon fill="none" stroke="#bfbfbf" points="1429.6,-184 1366.6,-184 1366.6,-165 1429.6,-165 1429.6,-184"/>
<text text-anchor="middle" x="1398.1" y="-172" font-family="Helvetica,sans-Serif" font-size="10.00">QTextEdit</text>
</a>
</g>
</g>
<!-- Node1&#45;&gt;Node20 -->
<g id="edge27" class="edge">
<title>Node1&#45;&gt;Node20</title>
<path fill="none" stroke="midnightblue" d="M1068.78,-221.6C1138.65,-214.2 1250.27,-201.35 1356.44,-183.98"/>
<polygon fill="midnightblue" stroke="midnightblue" points="1357.07,-187.43 1366.36,-182.34 1355.93,-180.52 1357.07,-187.43"/>
</g>
<!-- Node3 -->
<g id="node3" class="node">
<title>Node3</title>
<g id="a_node3"><a xlink:title=" ">
<polygon fill="none" stroke="#bfbfbf" points="106.6,-19 47.6,-19 47.6,0 106.6,0 106.6,-19"/>
<text text-anchor="middle" x="77.1" y="-7" font-family="Helvetica,sans-Serif" font-size="10.00">QWidget</text>
</a>
</g>
</g>
<!-- Node2&#45;&gt;Node3 -->
<g id="edge2" class="edge">
<title>Node2&#45;&gt;Node3</title>
<path fill="none" stroke="midnightblue" d="M77.1,-54.75C77.1,-47.8 77.1,-37.85 77.1,-29.13"/>
<polygon fill="midnightblue" stroke="midnightblue" points="80.6,-29.09 77.1,-19.09 73.6,-29.09 80.6,-29.09"/>
</g>
<!-- Node2&#45;&gt;Node4 -->
<g id="edge3" class="edge">
<title>Node2&#45;&gt;Node4</title>
<path fill="none" stroke="midnightblue" d="M139.8,-55.83C142.61,-55.54 145.38,-55.26 148.1,-55 371.13,-33.75 639.69,-17.96 737.31,-12.54"/>
<polygon fill="midnightblue" stroke="midnightblue" points="737.77,-16.02 747.56,-11.98 737.38,-9.03 737.77,-16.02"/>
</g>
<!-- Node5&#45;&gt;Node2 -->
<g id="edge15" class="edge">
<title>Node5&#45;&gt;Node2</title>
<path fill="none" stroke="midnightblue" d="M484.5,-113.43C415.64,-105.42 277.23,-89.28 149.76,-74.19"/>
<polygon fill="midnightblue" stroke="midnightblue" points="150.16,-70.72 139.82,-73.02 149.34,-77.67 150.16,-70.72"/>
</g>
<!-- Node6 -->
<g id="node6" class="node">
<title>Node6</title>
<g id="a_node6"><a xlink:title=" ">
<polygon fill="none" stroke="#bfbfbf" points="640.6,-74 553.6,-74 553.6,-55 640.6,-55 640.6,-74"/>
<text text-anchor="middle" x="597.1" y="-62" font-family="Helvetica,sans-Serif" font-size="10.00">QMainWindow</text>
</a>
</g>
</g>
<!-- Node5&#45;&gt;Node6 -->
<g id="edge5" class="edge">
<title>Node5&#45;&gt;Node6</title>
<path fill="none" stroke="midnightblue" d="M539.19,-109.98C549.59,-102 565.36,-89.88 577.82,-80.31"/>
<polygon fill="midnightblue" stroke="midnightblue" points="580.01,-83.04 585.81,-74.17 575.75,-77.49 580.01,-83.04"/>
</g>
<!-- Node7 -->
<g id="node7" class="node">
<title>Node7</title>
<g id="a_node7"><a xlink:title=" ">
<polygon fill="none" stroke="#bfbfbf" points="711.6,-74 658.6,-74 658.6,-55 711.6,-55 711.6,-74"/>
<text text-anchor="middle" x="685.1" y="-62" font-family="Helvetica,sans-Serif" font-size="10.00">QString</text>
</a>
</g>
</g>
<!-- Node5&#45;&gt;Node7 -->
<g id="edge6" class="edge">
<title>Node5&#45;&gt;Node7</title>
<path fill="none" stroke="midnightblue" d="M553.33,-109.98C579.46,-101.16 620.5,-87.31 649.83,-77.41"/>
<polygon fill="midnightblue" stroke="midnightblue" points="651.32,-80.6 659.68,-74.08 649.08,-73.96 651.32,-80.6"/>
</g>
<!-- Node8 -->
<g id="node8" class="node">
<title>Node8</title>
<g id="a_node8"><a xlink:title=" ">
<polygon fill="none" stroke="#bfbfbf" points="323.1,-74 247.1,-74 247.1,-55 323.1,-55 323.1,-74"/>
<text text-anchor="middle" x="285.1" y="-62" font-family="Helvetica,sans-Serif" font-size="10.00">QListWidget</text>
</a>
</g>
</g>
<!-- Node5&#45;&gt;Node8 -->
<g id="edge7" class="edge">
<title>Node5&#45;&gt;Node8</title>
<path fill="none" stroke="midnightblue" d="M489.06,-109.98C446.65,-100.74 378.87,-85.95 333.21,-75.99"/>
<polygon fill="midnightblue" stroke="midnightblue" points="333.76,-72.53 323.24,-73.82 332.27,-79.37 333.76,-72.53"/>
</g>
<!-- Node9 -->
<g id="node9" class="node">
<title>Node9</title>
<g id="a_node9"><a xlink:title=" ">
<polygon fill="none" stroke="#bfbfbf" points="436.6,-74 341.6,-74 341.6,-55 436.6,-55 436.6,-74"/>
<text text-anchor="middle" x="389.1" y="-62" font-family="Helvetica,sans-Serif" font-size="10.00">QTextDocument</text>
</a>
</g>
</g>
<!-- Node5&#45;&gt;Node9 -->
<g id="edge8" class="edge">
<title>Node5&#45;&gt;Node9</title>
<path fill="none" stroke="midnightblue" d="M505.77,-109.98C482.9,-101.27 447.14,-87.63 421.24,-77.75"/>
<polygon fill="midnightblue" stroke="midnightblue" points="422.43,-74.46 411.84,-74.17 419.94,-81 422.43,-74.46"/>
</g>
<!-- Node10 -->
<g id="node10" class="node">
<title>Node10</title>
<g id="a_node10"><a xlink:title=" ">
<polygon fill="none" stroke="#bfbfbf" points="535.6,-74 454.6,-74 454.6,-55 535.6,-55 535.6,-74"/>
<text text-anchor="middle" x="495.1" y="-62" font-family="Helvetica,sans-Serif" font-size="10.00">QColorDialog</text>
</a>
</g>
</g>
<!-- Node5&#45;&gt;Node10 -->
<g id="edge9" class="edge">
<title>Node5&#45;&gt;Node10</title>
<path fill="none" stroke="midnightblue" d="M522.65,-109.75C518.09,-102.42 511.43,-91.73 505.81,-82.7"/>
<polygon fill="midnightblue" stroke="midnightblue" points="508.71,-80.73 500.45,-74.09 502.76,-84.43 508.71,-80.73"/>
</g>
<!-- Node11 -->
<g id="node11" class="node">
<title>Node11</title>
<g id="a_node11"><a xlink:href="container_8h.html" target="_top" xlink:title=" ">
<polygon fill="none" stroke="black" points="228.6,-74 157.6,-74 157.6,-55 228.6,-55 228.6,-74"/>
<text text-anchor="middle" x="193.1" y="-62" font-family="Helvetica,sans-Serif" font-size="10.00">container.h</text>
</a>
</g>
</g>
<!-- Node5&#45;&gt;Node11 -->
<g id="edge10" class="edge">
<title>Node5&#45;&gt;Node11</title>
<path fill="none" stroke="midnightblue" d="M484.3,-112.26C429.39,-104.33 332.15,-89.93 238.83,-74.07"/>
<polygon fill="midnightblue" stroke="midnightblue" points="239.39,-70.62 228.94,-72.39 238.21,-77.52 239.39,-70.62"/>
</g>
<!-- Node12 -->
<g id="node12" class="node">
<title>Node12</title>
<g id="a_node12"><a xlink:href="contextmenu_8h.html" target="_top" xlink:title=" ">
<polygon fill="none" stroke="black" points="820.1,-74 730.1,-74 730.1,-55 820.1,-55 820.1,-74"/>
<text text-anchor="middle" x="775.1" y="-62" font-family="Helvetica,sans-Serif" font-size="10.00">contextmenu.h</text>
</a>
</g>
</g>
<!-- Node5&#45;&gt;Node12 -->
<g id="edge13" class="edge">
<title>Node5&#45;&gt;Node12</title>
<path fill="none" stroke="midnightblue" d="M567.79,-109.98C610.6,-100.8 678.86,-86.15 725.26,-76.19"/>
<polygon fill="midnightblue" stroke="midnightblue" points="726.06,-79.6 735.1,-74.08 724.59,-72.76 726.06,-79.6"/>
</g>
<!-- Node11&#45;&gt;Node3 -->
<g id="edge11" class="edge">
<title>Node11&#45;&gt;Node3</title>
<path fill="none" stroke="midnightblue" d="M174.46,-54.98C155.8,-46.46 126.85,-33.23 105.36,-23.41"/>
<polygon fill="midnightblue" stroke="midnightblue" points="106.63,-20.14 96.08,-19.17 103.72,-26.51 106.63,-20.14"/>
</g>
<!-- Node11&#45;&gt;Node4 -->
<g id="edge12" class="edge">
<title>Node11&#45;&gt;Node4</title>
<path fill="none" stroke="midnightblue" d="M228.91,-56.39C232.01,-55.88 235.11,-55.41 238.1,-55 424.5,-29.74 649.38,-16.71 737.29,-12.28"/>
<polygon fill="midnightblue" stroke="midnightblue" points="737.51,-15.77 747.32,-11.78 737.16,-8.78 737.51,-15.77"/>
</g>
<!-- Node12&#45;&gt;Node4 -->
<g id="edge14" class="edge">
<title>Node12&#45;&gt;Node4</title>
<path fill="none" stroke="midnightblue" d="M775.1,-54.75C775.1,-47.8 775.1,-37.85 775.1,-29.13"/>
<polygon fill="midnightblue" stroke="midnightblue" points="778.6,-29.09 775.1,-19.09 771.6,-29.09 778.6,-29.09"/>
</g>
<!-- Node13&#45;&gt;Node3 -->
<g id="edge19" class="edge">
<title>Node13&#45;&gt;Node3</title>
<path fill="none" stroke="midnightblue" d="M654.02,-174.11C526.51,-175.52 90.67,-172.92 5.1,-74 -11.8,-54.47 18.15,-35.31 44.41,-23.24"/>
<polygon fill="midnightblue" stroke="midnightblue" points="46.07,-26.33 53.83,-19.12 43.27,-19.92 46.07,-26.33"/>
</g>
<!-- Node13&#45;&gt;Node4 -->
<g id="edge17" class="edge">
<title>Node13&#45;&gt;Node4</title>
<path fill="none" stroke="midnightblue" d="M712.56,-164.9C745.6,-151.34 804.55,-121.56 829.1,-74 838.97,-54.88 819.16,-36.55 800.82,-24.54"/>
<polygon fill="midnightblue" stroke="midnightblue" points="802.42,-21.42 792.07,-19.18 798.77,-27.39 802.42,-21.42"/>
</g>
<!-- Node13&#45;&gt;Node5 -->
<g id="edge20" class="edge">
<title>Node13&#45;&gt;Node5</title>
<path fill="none" stroke="midnightblue" d="M663.23,-164.98C636.32,-156.13 593.98,-142.19 563.87,-132.28"/>
<polygon fill="midnightblue" stroke="midnightblue" points="564.76,-128.88 554.17,-129.08 562.57,-135.53 564.76,-128.88"/>
</g>
<!-- Node14 -->
<g id="node14" class="node">
<title>Node14</title>
<g id="a_node14"><a xlink:title=" ">
<polygon fill="none" stroke="#bfbfbf" points="717.1,-129 661.1,-129 661.1,-110 717.1,-110 717.1,-129"/>
<text text-anchor="middle" x="689.1" y="-117" font-family="Helvetica,sans-Serif" font-size="10.00">QObject</text>
</a>
</g>
</g>
<!-- Node13&#45;&gt;Node14 -->
<g id="edge18" class="edge">
<title>Node13&#45;&gt;Node14</title>
<path fill="none" stroke="midnightblue" d="M689.1,-164.75C689.1,-157.8 689.1,-147.85 689.1,-139.13"/>
<polygon fill="midnightblue" stroke="midnightblue" points="692.6,-139.09 689.1,-129.09 685.6,-139.09 692.6,-139.09"/>
</g>
</g>
</svg>
