<?xml version="1.0" encoding="UTF-8" standalone="no"?>
<!DOCTYPE svg PUBLIC "-//W3C//DTD SVG 1.1//EN"
 "http://www.w3.org/Graphics/SVG/1.1/DTD/svg11.dtd">
<!-- Generated by graphviz version 5.0.0 (0)
 -->
<!-- Title: contextmenu.h Pages: 1 -->
<svg width="831pt" height="192pt"
 viewBox="0.00 0.00 830.50 192.00" xmlns="http://www.w3.org/2000/svg" xmlns:xlink="http://www.w3.org/1999/xlink">
<g id="graph0" class="graph" transform="scale(1 1) rotate(0) translate(4 188)">
<title>contextmenu.h</title>
<!-- Node1 -->
<g id="node1" class="node">
<title>Node1</title>
<g id="a_node1"><a xlink:title=" ">
<polygon fill="#bfbfbf" stroke="black" points="432.5,-184 342.5,-184 342.5,-165 432.5,-165 432.5,-184"/>
<text text-anchor="middle" x="387.5" y="-172" font-family="Helvetica,sans-Serif" font-size="10.00">contextmenu.h</text>
</a>
</g>
</g>
<!-- Node2 -->
<g id="node2" class="node">
<title>Node2</title>
<g id="a_node2"><a xlink:href="contextmenu_8cpp.html" target="_top" xlink:title=" ">
<polygon fill="none" stroke="black" points="326,-129 225,-129 225,-110 326,-110 326,-129"/>
<text text-anchor="middle" x="275.5" y="-117" font-family="Helvetica,sans-Serif" font-size="10.00">contextmenu.cpp</text>
</a>
</g>
</g>
<!-- Node1&#45;&gt;Node2 -->
<g id="edge1" class="edge">
<title>Node1&#45;&gt;Node2</title>
<path fill="none" stroke="midnightblue" d="M360.31,-160.63C339.68,-150.87 311.88,-137.71 293.82,-129.17"/>
<polygon fill="midnightblue" stroke="midnightblue" points="358.97,-163.87 369.51,-164.98 361.96,-157.54 358.97,-163.87"/>
</g>
<!-- Node3 -->
<g id="node3" class="node">
<title>Node3</title>
<g id="a_node3"><a xlink:href="mainwindow_8h.html" target="_top" xlink:title=" ">
<polygon fill="none" stroke="black" points="431,-129 344,-129 344,-110 431,-110 431,-129"/>
<text text-anchor="middle" x="387.5" y="-117" font-family="Helvetica,sans-Serif" font-size="10.00">mainwindow.h</text>
</a>
</g>
</g>
<!-- Node1&#45;&gt;Node3 -->
<g id="edge2" class="edge">
<title>Node1&#45;&gt;Node3</title>
<path fill="none" stroke="midnightblue" d="M387.5,-154.66C387.5,-145.93 387.5,-135.99 387.5,-129.09"/>
<polygon fill="midnightblue" stroke="midnightblue" points="384,-154.75 387.5,-164.75 391,-154.75 384,-154.75"/>
</g>
<!-- Node14 -->
<g id="node14" class="node">
<title>Node14</title>
<g id="a_node14"><a xlink:href="tabmainwidget_8h.html" target="_top" xlink:title=" ">
<polygon fill="none" stroke="black" points="705,-74 606,-74 606,-55 705,-55 705,-74"/>
<text text-anchor="middle" x="655.5" y="-62" font-family="Helvetica,sans-Serif" font-size="10.00">tabmainwidget.h</text>
</a>
</g>
</g>
<!-- Node1&#45;&gt;Node14 -->
<g id="edge18" class="edge">
<title>Node1&#45;&gt;Node14</title>
<path fill="none" stroke="midnightblue" d="M418.56,-160.98C473.67,-138.77 587.19,-93.03 634.29,-74.05"/>
<polygon fill="midnightblue" stroke="midnightblue" points="416.95,-157.86 408.98,-164.84 419.56,-164.35 416.95,-157.86"/>
</g>
<!-- Node4 -->
<g id="node4" class="node">
<title>Node4</title>
<g id="a_node4"><a xlink:href="colordropdownmenu_8cpp.html" target="_top" xlink:title=" ">
<polygon fill="none" stroke="black" points="236,-19 99,-19 99,0 236,0 236,-19"/>
<text text-anchor="middle" x="167.5" y="-7" font-family="Helvetica,sans-Serif" font-size="10.00">colordropdownmenu.cpp</text>
</a>
</g>
</g>
<!-- Node3&#45;&gt;Node4 -->
<g id="edge3" class="edge">
<title>Node3&#45;&gt;Node4</title>
<path fill="none" stroke="midnightblue" d="M360.87,-105.43C315.22,-83.02 223.26,-37.87 184.91,-19.05"/>
<polygon fill="midnightblue" stroke="midnightblue" points="359.35,-108.58 369.87,-109.84 362.43,-102.3 359.35,-108.58"/>
</g>
<!-- Node5 -->
<g id="node5" class="node">
<title>Node5</title>
<g id="a_node5"><a xlink:href="colorwell_8cpp.html" target="_top" xlink:title=" ">
<polygon fill="none" stroke="black" points="81,-19 0,-19 0,0 81,0 81,-19"/>
<text text-anchor="middle" x="40.5" y="-7" font-family="Helvetica,sans-Serif" font-size="10.00">colorwell.cpp</text>
</a>
</g>
</g>
<!-- Node3&#45;&gt;Node5 -->
<g id="edge4" class="edge">
<title>Node3&#45;&gt;Node5</title>
<path fill="none" stroke="midnightblue" d="M333.42,-109.72C257.59,-97.36 128.31,-76.09 123.5,-74 92.55,-60.55 62.76,-33.12 48.78,-19.13"/>
<polygon fill="midnightblue" stroke="midnightblue" points="333.32,-113.25 343.75,-111.4 334.44,-106.34 333.32,-113.25"/>
</g>
<!-- Node6 -->
<g id="node6" class="node">
<title>Node6</title>
<g id="a_node6"><a xlink:href="colorwell_8h.html" target="_top" xlink:title=" ">
<polygon fill="none" stroke="black" points="202.5,-74 132.5,-74 132.5,-55 202.5,-55 202.5,-74"/>
<text text-anchor="middle" x="167.5" y="-62" font-family="Helvetica,sans-Serif" font-size="10.00">colorwell.h</text>
</a>
</g>
</g>
<!-- Node3&#45;&gt;Node6 -->
<g id="edge5" class="edge">
<title>Node3&#45;&gt;Node6</title>
<path fill="none" stroke="midnightblue" d="M342.34,-107.62C301,-97.66 240.65,-83.12 202.76,-73.99"/>
<polygon fill="midnightblue" stroke="midnightblue" points="341.61,-111.05 352.15,-109.98 343.25,-104.24 341.61,-111.05"/>
</g>
<!-- Node7 -->
<g id="node7" class="node">
<title>Node7</title>
<g id="a_node7"><a xlink:href="container_8cpp.html" target="_top" xlink:title=" ">
<polygon fill="none" stroke="black" points="336.5,-19 254.5,-19 254.5,0 336.5,0 336.5,-19"/>
<text text-anchor="middle" x="295.5" y="-7" font-family="Helvetica,sans-Serif" font-size="10.00">container.cpp</text>
</a>
</g>
</g>
<!-- Node3&#45;&gt;Node7 -->
<g id="edge8" class="edge">
<title>Node3&#45;&gt;Node7</title>
<path fill="none" stroke="midnightblue" d="M372.5,-102.18C364.91,-93.83 355.62,-83.46 347.5,-74 330.98,-54.75 312.3,-31.57 302.44,-19.23"/>
<polygon fill="midnightblue" stroke="midnightblue" points="370.08,-104.72 379.41,-109.74 375.25,-100 370.08,-104.72"/>
</g>
<!-- Node8 -->
<g id="node8" class="node">
<title>Node8</title>
<g id="a_node8"><a xlink:href="floattextedit_8cpp.html" target="_top" xlink:title=" ">
<polygon fill="none" stroke="black" points="706,-19 609,-19 609,0 706,0 706,-19"/>
<text text-anchor="middle" x="657.5" y="-7" font-family="Helvetica,sans-Serif" font-size="10.00">floattextedit.cpp</text>
</a>
</g>
</g>
<!-- Node3&#45;&gt;Node8 -->
<g id="edge9" class="edge">
<title>Node3&#45;&gt;Node8</title>
<path fill="none" stroke="midnightblue" d="M438.57,-107.61C470.29,-100.01 511.54,-88.63 546.5,-74 584.19,-58.23 625.04,-32.33 645.04,-19"/>
<polygon fill="midnightblue" stroke="midnightblue" points="437.56,-104.25 428.62,-109.94 439.16,-111.06 437.56,-104.25"/>
</g>
<!-- Node9 -->
<g id="node9" class="node">
<title>Node9</title>
<g id="a_node9"><a xlink:href="floattextedit_8h.html" target="_top" xlink:title=" ">
<polygon fill="none" stroke="black" points="537.5,-74 451.5,-74 451.5,-55 537.5,-55 537.5,-74"/>
<text text-anchor="middle" x="494.5" y="-62" font-family="Helvetica,sans-Serif" font-size="10.00">floattextedit.h</text>
</a>
</g>
</g>
<!-- Node3&#45;&gt;Node9 -->
<g id="edge10" class="edge">
<title>Node3&#45;&gt;Node9</title>
<path fill="none" stroke="midnightblue" d="M413.74,-105.5C433.43,-95.75 459.82,-82.68 477,-74.17"/>
<polygon fill="midnightblue" stroke="midnightblue" points="412.1,-102.41 404.69,-109.98 415.21,-108.68 412.1,-102.41"/>
</g>
<!-- Node10 -->
<g id="node10" class="node">
<title>Node10</title>
<g id="a_node10"><a xlink:href="mainwindow_8cpp.html" target="_top" xlink:title=" ">
<polygon fill="none" stroke="black" points="822.5,-19 724.5,-19 724.5,0 822.5,0 822.5,-19"/>
<text text-anchor="middle" x="773.5" y="-7" font-family="Helvetica,sans-Serif" font-size="10.00">mainwindow.cpp</text>
</a>
</g>
</g>
<!-- Node3&#45;&gt;Node10 -->
<g id="edge17" class="edge">
<title>Node3&#45;&gt;Node10</title>
<path fill="none" stroke="midnightblue" d="M441.47,-115.48C521.5,-110.27 667.19,-97.8 713.5,-74 738.59,-61.11 758.9,-33.43 768.12,-19.25"/>
<polygon fill="midnightblue" stroke="midnightblue" points="440.86,-112.01 431.1,-116.14 441.3,-118.99 440.86,-112.01"/>
</g>
<!-- Node13 -->
<g id="node13" class="node">
<title>Node13</title>
<g id="a_node13"><a xlink:href="main_8cpp.html" target="_top" xlink:title=" ">
<polygon fill="none" stroke="black" points="418.5,-74 356.5,-74 356.5,-55 418.5,-55 418.5,-74"/>
<text text-anchor="middle" x="387.5" y="-62" font-family="Helvetica,sans-Serif" font-size="10.00">main.cpp</text>
</a>
</g>
</g>
<!-- Node3&#45;&gt;Node13 -->
<g id="edge16" class="edge">
<title>Node3&#45;&gt;Node13</title>
<path fill="none" stroke="midnightblue" d="M387.5,-99.66C387.5,-90.93 387.5,-80.99 387.5,-74.09"/>
<polygon fill="midnightblue" stroke="midnightblue" points="384,-99.75 387.5,-109.75 391,-99.75 384,-99.75"/>
</g>
<!-- Node6&#45;&gt;Node4 -->
<g id="edge6" class="edge">
<title>Node6&#45;&gt;Node4</title>
<path fill="none" stroke="midnightblue" d="M167.5,-44.66C167.5,-35.93 167.5,-25.99 167.5,-19.09"/>
<polygon fill="midnightblue" stroke="midnightblue" points="164,-44.75 167.5,-54.75 171,-44.75 164,-44.75"/>
</g>
<!-- Node6&#45;&gt;Node5 -->
<g id="edge7" class="edge">
<title>Node6&#45;&gt;Node5</title>
<path fill="none" stroke="midnightblue" d="M137.62,-51.03C114.13,-41.23 82.03,-27.83 61.28,-19.17"/>
<polygon fill="midnightblue" stroke="midnightblue" points="136.52,-54.36 147.1,-54.98 139.21,-47.9 136.52,-54.36"/>
</g>
<!-- Node9&#45;&gt;Node7 -->
<g id="edge11" class="edge">
<title>Node9&#45;&gt;Node7</title>
<path fill="none" stroke="midnightblue" d="M452.49,-52.31C415.25,-42.39 361.66,-28.12 327.72,-19.08"/>
<polygon fill="midnightblue" stroke="midnightblue" points="451.96,-55.79 462.53,-54.98 453.76,-49.03 451.96,-55.79"/>
</g>
<!-- Node9&#45;&gt;Node8 -->
<g id="edge12" class="edge">
<title>Node9&#45;&gt;Node8</title>
<path fill="none" stroke="midnightblue" d="M530.49,-51.8C560.91,-41.91 603.78,-27.97 631.11,-19.08"/>
<polygon fill="midnightblue" stroke="midnightblue" points="529.12,-48.56 520.69,-54.98 531.28,-55.22 529.12,-48.56"/>
</g>
<!-- Node9&#45;&gt;Node10 -->
<g id="edge13" class="edge">
<title>Node9&#45;&gt;Node10</title>
<path fill="none" stroke="midnightblue" d="M547.91,-53.35C600.36,-43.39 679.47,-28.36 728.72,-19.01"/>
<polygon fill="midnightblue" stroke="midnightblue" points="546.96,-49.97 537.79,-55.28 548.27,-56.85 546.96,-49.97"/>
</g>
<!-- Node11 -->
<g id="node11" class="node">
<title>Node11</title>
<g id="a_node11"><a xlink:href="notetabwidget_8cpp.html" target="_top" xlink:title=" ">
<polygon fill="none" stroke="black" points="462,-19 355,-19 355,0 462,0 462,-19"/>
<text text-anchor="middle" x="408.5" y="-7" font-family="Helvetica,sans-Serif" font-size="10.00">notetabwidget.cpp</text>
</a>
</g>
</g>
<!-- Node9&#45;&gt;Node11 -->
<g id="edge14" class="edge">
<title>Node9&#45;&gt;Node11</title>
<path fill="none" stroke="midnightblue" d="M472.1,-49.7C456.43,-40.04 435.99,-27.44 422.57,-19.17"/>
<polygon fill="midnightblue" stroke="midnightblue" points="470.33,-52.72 480.68,-54.98 474.01,-46.76 470.33,-52.72"/>
</g>
<!-- Node12 -->
<g id="node12" class="node">
<title>Node12</title>
<g id="a_node12"><a xlink:href="tabmainwidget_8cpp.html" target="_top" xlink:title=" ">
<polygon fill="none" stroke="black" points="590.5,-19 480.5,-19 480.5,0 590.5,0 590.5,-19"/>
<text text-anchor="middle" x="535.5" y="-7" font-family="Helvetica,sans-Serif" font-size="10.00">tabmainwidget.cpp</text>
</a>
</g>
</g>
<!-- Node9&#45;&gt;Node12 -->
<g id="edge15" class="edge">
<title>Node9&#45;&gt;Node12</title>
<path fill="none" stroke="midnightblue" d="M507.52,-46.67C514.62,-37.5 523.1,-26.52 528.86,-19.09"/>
<polygon fill="midnightblue" stroke="midnightblue" points="504.62,-44.7 501.27,-54.75 510.16,-48.98 504.62,-44.7"/>
</g>
<!-- Node14&#45;&gt;Node8 -->
<g id="edge19" class="edge">
<title>Node14&#45;&gt;Node8</title>
<path fill="none" stroke="midnightblue" d="M656.21,-44.66C656.54,-35.93 656.92,-25.99 657.18,-19.09"/>
<polygon fill="midnightblue" stroke="midnightblue" points="652.71,-44.62 655.83,-54.75 659.7,-44.89 652.71,-44.62"/>
</g>
<!-- Node14&#45;&gt;Node10 -->
<g id="edge20" class="edge">
<title>Node14&#45;&gt;Node10</title>
<path fill="none" stroke="midnightblue" d="M683.85,-50.77C705.62,-40.99 735.09,-27.75 754.2,-19.17"/>
<polygon fill="midnightblue" stroke="midnightblue" points="682.15,-47.69 674.46,-54.98 685.01,-54.08 682.15,-47.69"/>
</g>
<!-- Node14&#45;&gt;Node12 -->
<g id="edge21" class="edge">
<title>Node14&#45;&gt;Node12</title>
<path fill="none" stroke="midnightblue" d="M626.97,-50.9C604.8,-41.11 574.65,-27.79 555.13,-19.17"/>
<polygon fill="midnightblue" stroke="midnightblue" points="625.66,-54.15 636.22,-54.98 628.49,-47.74 625.66,-54.15"/>
</g>
</g>
</svg>
