<?xml version="1.0" encoding="UTF-8" standalone="no"?>
<!DOCTYPE svg PUBLIC "-//W3C//DTD SVG 1.1//EN"
 "http://www.w3.org/Graphics/SVG/1.1/DTD/svg11.dtd">
<!-- Generated by graphviz version 5.0.0 (0)
 -->
<!-- Title: container.h Pages: 1 -->
<svg width="773pt" height="192pt"
 viewBox="0.00 0.00 773.00 192.00" xmlns="http://www.w3.org/2000/svg" xmlns:xlink="http://www.w3.org/1999/xlink">
<g id="graph0" class="graph" transform="scale(1 1) rotate(0) translate(4 188)">
<title>container.h</title>
<!-- Node1 -->
<g id="node1" class="node">
<title>Node1</title>
<g id="a_node1"><a xlink:title=" ">
<polygon fill="#bfbfbf" stroke="black" points="278,-184 207,-184 207,-165 278,-165 278,-184"/>
<text text-anchor="middle" x="242.5" y="-172" font-family="Helvetica,sans-Serif" font-size="10.00">container.h</text>
</a>
</g>
</g>
<!-- Node2 -->
<g id="node2" class="node">
<title>Node2</title>
<g id="a_node2"><a xlink:href="container_8cpp.html" target="_top" xlink:title=" ">
<polygon fill="none" stroke="black" points="189.5,-19 107.5,-19 107.5,0 189.5,0 189.5,-19"/>
<text text-anchor="middle" x="148.5" y="-7" font-family="Helvetica,sans-Serif" font-size="10.00">container.cpp</text>
</a>
</g>
</g>
<!-- Node1&#45;&gt;Node2 -->
<g id="edge1" class="edge">
<title>Node1&#45;&gt;Node2</title>
<path fill="none" stroke="midnightblue" d="M221.29,-159.12C198.12,-141.97 162.31,-110.96 147.5,-74 140.12,-55.58 143.61,-31.67 146.34,-19.1"/>
<polygon fill="midnightblue" stroke="midnightblue" points="219.32,-162.01 229.49,-164.99 223.4,-156.32 219.32,-162.01"/>
</g>
<!-- Node3 -->
<g id="node3" class="node">
<title>Node3</title>
<g id="a_node3"><a xlink:href="floatimage_8cpp.html" target="_top" xlink:title=" ">
<polygon fill="none" stroke="black" points="89,-19 0,-19 0,0 89,0 89,-19"/>
<text text-anchor="middle" x="44.5" y="-7" font-family="Helvetica,sans-Serif" font-size="10.00">floatimage.cpp</text>
</a>
</g>
</g>
<!-- Node1&#45;&gt;Node3 -->
<g id="edge2" class="edge">
<title>Node1&#45;&gt;Node3</title>
<path fill="none" stroke="midnightblue" d="M215.93,-160.28C200.6,-152.14 181.28,-140.99 165.5,-129 118.2,-93.08 70.21,-40.07 52.07,-19.3"/>
<polygon fill="midnightblue" stroke="midnightblue" points="214.41,-163.44 224.9,-164.94 217.64,-157.23 214.41,-163.44"/>
</g>
<!-- Node4 -->
<g id="node4" class="node">
<title>Node4</title>
<g id="a_node4"><a xlink:href="floatimage_8h.html" target="_top" xlink:title=" ">
<polygon fill="none" stroke="black" points="234.5,-74 156.5,-74 156.5,-55 234.5,-55 234.5,-74"/>
<text text-anchor="middle" x="195.5" y="-62" font-family="Helvetica,sans-Serif" font-size="10.00">floatimage.h</text>
</a>
</g>
</g>
<!-- Node1&#45;&gt;Node4 -->
<g id="edge3" class="edge">
<title>Node1&#45;&gt;Node4</title>
<path fill="none" stroke="midnightblue" d="M234.64,-155.44C224.41,-131.92 206.92,-91.73 199.27,-74.16"/>
<polygon fill="midnightblue" stroke="midnightblue" points="231.45,-156.89 238.65,-164.66 237.87,-154.1 231.45,-156.89"/>
</g>
<!-- Node6 -->
<g id="node6" class="node">
<title>Node6</title>
<g id="a_node6"><a xlink:href="tabmainwidget_8cpp.html" target="_top" xlink:title=" ">
<polygon fill="none" stroke="black" points="317.5,-19 207.5,-19 207.5,0 317.5,0 317.5,-19"/>
<text text-anchor="middle" x="262.5" y="-7" font-family="Helvetica,sans-Serif" font-size="10.00">tabmainwidget.cpp</text>
</a>
</g>
</g>
<!-- Node1&#45;&gt;Node6 -->
<g id="edge21" class="edge">
<title>Node1&#45;&gt;Node6</title>
<path fill="none" stroke="midnightblue" d="M244.85,-154.37C249.18,-119.03 258.29,-44.79 261.42,-19.31"/>
<polygon fill="midnightblue" stroke="midnightblue" points="241.32,-154.38 243.58,-164.74 248.27,-155.24 241.32,-154.38"/>
</g>
<!-- Node7 -->
<g id="node7" class="node">
<title>Node7</title>
<g id="a_node7"><a xlink:href="floattextedit_8cpp.html" target="_top" xlink:title=" ">
<polygon fill="none" stroke="black" points="765,-19 668,-19 668,0 765,0 765,-19"/>
<text text-anchor="middle" x="716.5" y="-7" font-family="Helvetica,sans-Serif" font-size="10.00">floattextedit.cpp</text>
</a>
</g>
</g>
<!-- Node1&#45;&gt;Node7 -->
<g id="edge8" class="edge">
<title>Node1&#45;&gt;Node7</title>
<path fill="none" stroke="midnightblue" d="M288.29,-171.12C396.71,-164.41 663.94,-141.24 716.5,-74 728.86,-58.19 723.64,-32.77 719.6,-19.39"/>
<polygon fill="midnightblue" stroke="midnightblue" points="287.78,-167.64 278.01,-171.73 288.2,-174.63 287.78,-167.64"/>
</g>
<!-- Node8 -->
<g id="node8" class="node">
<title>Node8</title>
<g id="a_node8"><a xlink:href="mainwindow_8h.html" target="_top" xlink:title=" ">
<polygon fill="none" stroke="black" points="486,-129 399,-129 399,-110 486,-110 486,-129"/>
<text text-anchor="middle" x="442.5" y="-117" font-family="Helvetica,sans-Serif" font-size="10.00">mainwindow.h</text>
</a>
</g>
</g>
<!-- Node1&#45;&gt;Node8 -->
<g id="edge9" class="edge">
<title>Node1&#45;&gt;Node8</title>
<path fill="none" stroke="midnightblue" d="M284.72,-162.31C322.15,-152.39 376,-138.12 410.11,-129.08"/>
<polygon fill="midnightblue" stroke="midnightblue" points="283.4,-159.04 274.63,-164.98 285.2,-165.81 283.4,-159.04"/>
</g>
<!-- Node4&#45;&gt;Node2 -->
<g id="edge4" class="edge">
<title>Node4&#45;&gt;Node2</title>
<path fill="none" stroke="midnightblue" d="M181.08,-47.24C172.84,-37.95 162.85,-26.68 156.12,-19.09"/>
<polygon fill="midnightblue" stroke="midnightblue" points="178.49,-49.59 187.74,-54.75 183.72,-44.94 178.49,-49.59"/>
</g>
<!-- Node4&#45;&gt;Node3 -->
<g id="edge5" class="edge">
<title>Node4&#45;&gt;Node3</title>
<path fill="none" stroke="midnightblue" d="M161.45,-51.55C133.41,-41.71 94.32,-27.98 69.2,-19.17"/>
<polygon fill="midnightblue" stroke="midnightblue" points="160.64,-54.98 171.24,-54.98 162.96,-48.37 160.64,-54.98"/>
</g>
<!-- Node5 -->
<g id="node5" class="node">
<title>Node5</title>
<g id="a_node5"><a xlink:href="mainwindow_8cpp.html" target="_top" xlink:title=" ">
<polygon fill="none" stroke="black" points="559.5,-19 461.5,-19 461.5,0 559.5,0 559.5,-19"/>
<text text-anchor="middle" x="510.5" y="-7" font-family="Helvetica,sans-Serif" font-size="10.00">mainwindow.cpp</text>
</a>
</g>
</g>
<!-- Node4&#45;&gt;Node5 -->
<g id="edge6" class="edge">
<title>Node4&#45;&gt;Node5</title>
<path fill="none" stroke="midnightblue" d="M244.97,-55.18C304.1,-45.23 402.45,-28.68 461.42,-18.76"/>
<polygon fill="midnightblue" stroke="midnightblue" points="244.04,-51.78 234.76,-56.89 245.2,-58.69 244.04,-51.78"/>
</g>
<!-- Node4&#45;&gt;Node6 -->
<g id="edge7" class="edge">
<title>Node4&#45;&gt;Node6</title>
<path fill="none" stroke="midnightblue" d="M214.33,-48.6C226.34,-39.11 241.47,-27.13 251.54,-19.17"/>
<polygon fill="midnightblue" stroke="midnightblue" points="211.94,-46.04 206.26,-54.98 216.28,-51.53 211.94,-46.04"/>
</g>
<!-- Node8&#45;&gt;Node2 -->
<g id="edge11" class="edge">
<title>Node8&#45;&gt;Node2</title>
<path fill="none" stroke="midnightblue" d="M408.8,-106.39C384.07,-97.49 349.67,-85.06 319.5,-74 266.43,-54.55 204.23,-31.35 171.43,-19.09"/>
<polygon fill="midnightblue" stroke="midnightblue" points="407.84,-109.77 418.44,-109.86 410.21,-103.18 407.84,-109.77"/>
</g>
<!-- Node8&#45;&gt;Node5 -->
<g id="edge20" class="edge">
<title>Node8&#45;&gt;Node5</title>
<path fill="none" stroke="midnightblue" d="M445.34,-99.78C447.99,-86.5 452.88,-68.69 461.5,-55 470.81,-40.22 486.34,-27.3 497.42,-19.25"/>
<polygon fill="midnightblue" stroke="midnightblue" points="441.89,-99.21 443.61,-109.67 448.78,-100.42 441.89,-99.21"/>
</g>
<!-- Node8&#45;&gt;Node7 -->
<g id="edge12" class="edge">
<title>Node8&#45;&gt;Node7</title>
<path fill="none" stroke="midnightblue" d="M496.38,-115.64C562.21,-111.06 668.44,-99.82 697.5,-74 713.33,-59.94 716.22,-33.29 716.59,-19.41"/>
<polygon fill="midnightblue" stroke="midnightblue" points="495.92,-112.16 486.17,-116.32 496.38,-119.15 495.92,-112.16"/>
</g>
<!-- Node9 -->
<g id="node9" class="node">
<title>Node9</title>
<g id="a_node9"><a xlink:href="colordropdownmenu_8cpp.html" target="_top" xlink:title=" ">
<polygon fill="none" stroke="black" points="688,-74 551,-74 551,-55 688,-55 688,-74"/>
<text text-anchor="middle" x="619.5" y="-62" font-family="Helvetica,sans-Serif" font-size="10.00">colordropdownmenu.cpp</text>
</a>
</g>
</g>
<!-- Node8&#45;&gt;Node9 -->
<g id="edge10" class="edge">
<title>Node8&#45;&gt;Node9</title>
<path fill="none" stroke="midnightblue" d="M480.72,-107.06C513.8,-97.15 560.91,-83.04 590.84,-74.08"/>
<polygon fill="midnightblue" stroke="midnightblue" points="479.51,-103.76 470.94,-109.98 481.52,-110.47 479.51,-103.76"/>
</g>
<!-- Node10 -->
<g id="node10" class="node">
<title>Node10</title>
<g id="a_node10"><a xlink:href="floattextedit_8h.html" target="_top" xlink:title=" ">
<polygon fill="none" stroke="black" points="414.5,-74 328.5,-74 328.5,-55 414.5,-55 414.5,-74"/>
<text text-anchor="middle" x="371.5" y="-62" font-family="Helvetica,sans-Serif" font-size="10.00">floattextedit.h</text>
</a>
</g>
</g>
<!-- Node8&#45;&gt;Node10 -->
<g id="edge13" class="edge">
<title>Node8&#45;&gt;Node10</title>
<path fill="none" stroke="midnightblue" d="M422.91,-103.88C410.13,-94.34 393.89,-82.21 383.11,-74.17"/>
<polygon fill="midnightblue" stroke="midnightblue" points="420.99,-106.81 431.09,-109.98 425.17,-101.2 420.99,-106.81"/>
</g>
<!-- Node12 -->
<g id="node12" class="node">
<title>Node12</title>
<g id="a_node12"><a xlink:href="main_8cpp.html" target="_top" xlink:title=" ">
<polygon fill="none" stroke="black" points="532.5,-74 470.5,-74 470.5,-55 532.5,-55 532.5,-74"/>
<text text-anchor="middle" x="501.5" y="-62" font-family="Helvetica,sans-Serif" font-size="10.00">main.cpp</text>
</a>
</g>
</g>
<!-- Node8&#45;&gt;Node12 -->
<g id="edge19" class="edge">
<title>Node8&#45;&gt;Node12</title>
<path fill="none" stroke="midnightblue" d="M459.7,-103.04C470.17,-93.64 483.15,-81.98 491.85,-74.17"/>
<polygon fill="midnightblue" stroke="midnightblue" points="457.08,-100.7 451.98,-109.98 461.76,-105.91 457.08,-100.7"/>
</g>
<!-- Node10&#45;&gt;Node2 -->
<g id="edge14" class="edge">
<title>Node10&#45;&gt;Node2</title>
<path fill="none" stroke="midnightblue" d="M325.75,-52.63C283.98,-42.7 223.05,-28.22 184.61,-19.08"/>
<polygon fill="midnightblue" stroke="midnightblue" points="325.13,-56.08 335.67,-54.98 326.75,-49.27 325.13,-56.08"/>
</g>
<!-- Node10&#45;&gt;Node5 -->
<g id="edge16" class="edge">
<title>Node10&#45;&gt;Node5</title>
<path fill="none" stroke="midnightblue" d="M403.18,-51.42C428.97,-41.59 464.74,-27.95 487.76,-19.17"/>
<polygon fill="midnightblue" stroke="midnightblue" points="401.93,-48.15 393.83,-54.98 404.42,-54.69 401.93,-48.15"/>
</g>
<!-- Node10&#45;&gt;Node6 -->
<g id="edge18" class="edge">
<title>Node10&#45;&gt;Node6</title>
<path fill="none" stroke="midnightblue" d="M344.77,-50.5C324.71,-40.75 297.82,-27.68 280.33,-19.17"/>
<polygon fill="midnightblue" stroke="midnightblue" points="343.46,-53.76 353.99,-54.98 346.52,-47.46 343.46,-53.76"/>
</g>
<!-- Node10&#45;&gt;Node7 -->
<g id="edge15" class="edge">
<title>Node10&#45;&gt;Node7</title>
<path fill="none" stroke="midnightblue" d="M425.1,-55.27C491.51,-45.06 603.71,-27.83 667.78,-17.98"/>
<polygon fill="midnightblue" stroke="midnightblue" points="424.2,-51.86 414.85,-56.84 425.26,-58.78 424.2,-51.86"/>
</g>
<!-- Node11 -->
<g id="node11" class="node">
<title>Node11</title>
<g id="a_node11"><a xlink:href="notetabwidget_8cpp.html" target="_top" xlink:title=" ">
<polygon fill="none" stroke="black" points="443,-19 336,-19 336,0 443,0 443,-19"/>
<text text-anchor="middle" x="389.5" y="-7" font-family="Helvetica,sans-Serif" font-size="10.00">notetabwidget.cpp</text>
</a>
</g>
</g>
<!-- Node10&#45;&gt;Node11 -->
<g id="edge17" class="edge">
<title>Node10&#45;&gt;Node11</title>
<path fill="none" stroke="midnightblue" d="M377.7,-45.24C380.71,-36.37 384.19,-26.14 386.58,-19.09"/>
<polygon fill="midnightblue" stroke="midnightblue" points="374.37,-44.15 374.47,-54.75 381,-46.4 374.37,-44.15"/>
</g>
</g>
</svg>
