<?xml version="1.0" encoding="UTF-8" standalone="no"?>
<!DOCTYPE svg PUBLIC "-//W3C//DTD SVG 1.1//EN"
 "http://www.w3.org/Graphics/SVG/1.1/DTD/svg11.dtd">
<!-- Generated by graphviz version 5.0.0 (0)
 -->
<!-- Title: contextmenu.cpp Pages: 1 -->
<svg width="220pt" height="137pt"
 viewBox="0.00 0.00 220.00 137.00" xmlns="http://www.w3.org/2000/svg" xmlns:xlink="http://www.w3.org/1999/xlink">
<g id="graph0" class="graph" transform="scale(1 1) rotate(0) translate(4 133)">
<title>contextmenu.cpp</title>
<!-- Node1 -->
<g id="node1" class="node">
<title>Node1</title>
<g id="a_node1"><a xlink:title=" ">
<polygon fill="#bfbfbf" stroke="black" points="152.5,-129 51.5,-129 51.5,-110 152.5,-110 152.5,-129"/>
<text text-anchor="middle" x="102" y="-117" font-family="Helvetica,sans-Serif" font-size="10.00">contextmenu.cpp</text>
</a>
</g>
</g>
<!-- Node2 -->
<g id="node2" class="node">
<title>Node2</title>
<g id="a_node2"><a xlink:href="contextmenu_8h.html" target="_top" xlink:title=" ">
<polygon fill="none" stroke="black" points="90,-74 0,-74 0,-55 90,-55 90,-74"/>
<text text-anchor="middle" x="45" y="-62" font-family="Helvetica,sans-Serif" font-size="10.00">contextmenu.h</text>
</a>
</g>
</g>
<!-- Node1&#45;&gt;Node2 -->
<g id="edge1" class="edge">
<title>Node1&#45;&gt;Node2</title>
<path fill="none" stroke="midnightblue" d="M92.84,-109.98C84.5,-102.23 71.97,-90.58 61.82,-81.14"/>
<polygon fill="midnightblue" stroke="midnightblue" points="64.03,-78.42 54.32,-74.17 59.26,-83.54 64.03,-78.42"/>
</g>
<!-- Node4 -->
<g id="node4" class="node">
<title>Node4</title>
<g id="a_node4"><a xlink:title=" ">
<polygon fill="none" stroke="#bfbfbf" points="212,-74 108,-74 108,-55 212,-55 212,-74"/>
<text text-anchor="middle" x="160" y="-62" font-family="Helvetica,sans-Serif" font-size="10.00">ui_contextmenu.h</text>
</a>
</g>
</g>
<!-- Node1&#45;&gt;Node4 -->
<g id="edge3" class="edge">
<title>Node1&#45;&gt;Node4</title>
<path fill="none" stroke="midnightblue" d="M111.32,-109.98C119.81,-102.23 132.56,-90.58 142.88,-81.14"/>
<polygon fill="midnightblue" stroke="midnightblue" points="145.49,-83.5 150.51,-74.17 140.77,-78.33 145.49,-83.5"/>
</g>
<!-- Node3 -->
<g id="node3" class="node">
<title>Node3</title>
<g id="a_node3"><a xlink:title=" ">
<polygon fill="none" stroke="#bfbfbf" points="72.5,-19 17.5,-19 17.5,0 72.5,0 72.5,-19"/>
<text text-anchor="middle" x="45" y="-7" font-family="Helvetica,sans-Serif" font-size="10.00">QFrame</text>
</a>
</g>
</g>
<!-- Node2&#45;&gt;Node3 -->
<g id="edge2" class="edge">
<title>Node2&#45;&gt;Node3</title>
<path fill="none" stroke="midnightblue" d="M45,-54.75C45,-47.8 45,-37.85 45,-29.13"/>
<polygon fill="midnightblue" stroke="midnightblue" points="48.5,-29.09 45,-19.09 41.5,-29.09 48.5,-29.09"/>
</g>
</g>
</svg>
