<?xml version="1.0" encoding="UTF-8" standalone="no"?>
<!DOCTYPE svg PUBLIC "-//W3C//DTD SVG 1.1//EN"
 "http://www.w3.org/Graphics/SVG/1.1/DTD/svg11.dtd">
<!-- Generated by graphviz version 5.0.0 (0)
 -->
<!-- Title: container.h Pages: 1 -->
<svg width="936pt" height="192pt"
 viewBox="0.00 0.00 936.00 192.00" xmlns="http://www.w3.org/2000/svg" xmlns:xlink="http://www.w3.org/1999/xlink">
<g id="graph0" class="graph" transform="scale(1 1) rotate(0) translate(4 188)">
<title>container.h</title>
<!-- Node1 -->
<g id="node1" class="node">
<title>Node1</title>
<g id="a_node1"><a xlink:title=" ">
<polygon fill="#bfbfbf" stroke="black" points="332,-184 261,-184 261,-165 332,-165 332,-184"/>
<text text-anchor="middle" x="296.5" y="-172" font-family="Helvetica,sans-Serif" font-size="10.00">container.h</text>
</a>
</g>
</g>
<!-- Node2 -->
<g id="node2" class="node">
<title>Node2</title>
<g id="a_node2"><a xlink:href="container_8cpp.html" target="_top" xlink:title=" ">
<polygon fill="none" stroke="black" points="189.5,-19 107.5,-19 107.5,0 189.5,0 189.5,-19"/>
<text text-anchor="middle" x="148.5" y="-7" font-family="Helvetica,sans-Serif" font-size="10.00">container.cpp</text>
</a>
</g>
</g>
<!-- Node1&#45;&gt;Node2 -->
<g id="edge1" class="edge">
<title>Node1&#45;&gt;Node2</title>
<path fill="none" stroke="midnightblue" d="M273.22,-159.33C246.52,-142.07 202.9,-110.62 175.5,-74 162.58,-56.73 154.48,-32.36 150.81,-19.4"/>
<polygon fill="midnightblue" stroke="midnightblue" points="271.59,-162.44 281.91,-164.83 275.33,-156.53 271.59,-162.44"/>
</g>
<!-- Node3 -->
<g id="node3" class="node">
<title>Node3</title>
<g id="a_node3"><a xlink:href="floatimage_8cpp.html" target="_top" xlink:title=" ">
<polygon fill="none" stroke="black" points="89,-19 0,-19 0,0 89,0 89,-19"/>
<text text-anchor="middle" x="44.5" y="-7" font-family="Helvetica,sans-Serif" font-size="10.00">floatimage.cpp</text>
</a>
</g>
</g>
<!-- Node1&#45;&gt;Node3 -->
<g id="edge2" class="edge">
<title>Node1&#45;&gt;Node3</title>
<path fill="none" stroke="midnightblue" d="M267.65,-160.56C249.91,-152.24 226.93,-140.81 207.5,-129 147.11,-92.29 80.53,-39.73 55.14,-19.19"/>
<polygon fill="midnightblue" stroke="midnightblue" points="266.37,-163.82 276.91,-164.84 269.3,-157.47 266.37,-163.82"/>
</g>
<!-- Node4 -->
<g id="node4" class="node">
<title>Node4</title>
<g id="a_node4"><a xlink:href="floatimage_8h.html" target="_top" xlink:title=" ">
<polygon fill="none" stroke="black" points="288.5,-74 210.5,-74 210.5,-55 288.5,-55 288.5,-74"/>
<text text-anchor="middle" x="249.5" y="-62" font-family="Helvetica,sans-Serif" font-size="10.00">floatimage.h</text>
</a>
</g>
</g>
<!-- Node1&#45;&gt;Node4 -->
<g id="edge3" class="edge">
<title>Node1&#45;&gt;Node4</title>
<path fill="none" stroke="midnightblue" d="M288.64,-155.44C278.41,-131.92 260.92,-91.73 253.27,-74.16"/>
<polygon fill="midnightblue" stroke="midnightblue" points="285.45,-156.89 292.65,-164.66 291.87,-154.1 285.45,-156.89"/>
</g>
<!-- Node6 -->
<g id="node6" class="node">
<title>Node6</title>
<g id="a_node6"><a xlink:href="tabmainwidget_8cpp.html" target="_top" xlink:title=" ">
<polygon fill="none" stroke="black" points="317.5,-19 207.5,-19 207.5,0 317.5,0 317.5,-19"/>
<text text-anchor="middle" x="262.5" y="-7" font-family="Helvetica,sans-Serif" font-size="10.00">tabmainwidget.cpp</text>
</a>
</g>
</g>
<!-- Node1&#45;&gt;Node6 -->
<g id="edge25" class="edge">
<title>Node1&#45;&gt;Node6</title>
<path fill="none" stroke="midnightblue" d="M300.38,-155.03C304.57,-131.18 309.18,-88.74 297.5,-55 292.55,-40.7 280.89,-27.5 272.38,-19.25"/>
<polygon fill="midnightblue" stroke="midnightblue" points="296.94,-154.37 298.49,-164.85 303.82,-155.69 296.94,-154.37"/>
</g>
<!-- Node7 -->
<g id="node7" class="node">
<title>Node7</title>
<g id="a_node7"><a xlink:href="floattextedit_8cpp.html" target="_top" xlink:title=" ">
<polygon fill="none" stroke="black" points="674,-19 577,-19 577,0 674,0 674,-19"/>
<text text-anchor="middle" x="625.5" y="-7" font-family="Helvetica,sans-Serif" font-size="10.00">floattextedit.cpp</text>
</a>
</g>
</g>
<!-- Node1&#45;&gt;Node7 -->
<g id="edge8" class="edge">
<title>Node1&#45;&gt;Node7</title>
<path fill="none" stroke="midnightblue" d="M342.5,-170.35C407.87,-165.11 523.51,-152.72 557.5,-129 597.57,-101.03 617.18,-41.34 623.32,-19.1"/>
<polygon fill="midnightblue" stroke="midnightblue" points="342.16,-166.87 332.46,-171.14 342.7,-173.85 342.16,-166.87"/>
</g>
<!-- Node8 -->
<g id="node8" class="node">
<title>Node8</title>
<g id="a_node8"><a xlink:href="mainwindow_8h.html" target="_top" xlink:title=" ">
<polygon fill="none" stroke="black" points="549,-129 462,-129 462,-110 549,-110 549,-129"/>
<text text-anchor="middle" x="505.5" y="-117" font-family="Helvetica,sans-Serif" font-size="10.00">mainwindow.h</text>
</a>
</g>
</g>
<!-- Node1&#45;&gt;Node8 -->
<g id="edge9" class="edge">
<title>Node1&#45;&gt;Node8</title>
<path fill="none" stroke="midnightblue" d="M339.87,-162.5C379.01,-152.58 435.78,-138.18 471.66,-129.08"/>
<polygon fill="midnightblue" stroke="midnightblue" points="338.91,-159.13 330.08,-164.98 340.63,-165.92 338.91,-159.13"/>
</g>
<!-- Node4&#45;&gt;Node2 -->
<g id="edge4" class="edge">
<title>Node4&#45;&gt;Node2</title>
<path fill="none" stroke="midnightblue" d="M224.22,-50.23C205.7,-40.51 181.08,-27.6 165.02,-19.17"/>
<polygon fill="midnightblue" stroke="midnightblue" points="222.79,-53.44 233.27,-54.98 226.04,-47.24 222.79,-53.44"/>
</g>
<!-- Node4&#45;&gt;Node3 -->
<g id="edge5" class="edge">
<title>Node4&#45;&gt;Node3</title>
<path fill="none" stroke="midnightblue" d="M206.71,-52.44C168.33,-42.52 112.81,-28.16 77.69,-19.08"/>
<polygon fill="midnightblue" stroke="midnightblue" points="206.01,-55.87 216.56,-54.98 207.76,-49.09 206.01,-55.87"/>
</g>
<!-- Node5 -->
<g id="node5" class="node">
<title>Node5</title>
<g id="a_node5"><a xlink:href="mainwindow_8cpp.html" target="_top" xlink:title=" ">
<polygon fill="none" stroke="black" points="433.5,-19 335.5,-19 335.5,0 433.5,0 433.5,-19"/>
<text text-anchor="middle" x="384.5" y="-7" font-family="Helvetica,sans-Serif" font-size="10.00">mainwindow.cpp</text>
</a>
</g>
</g>
<!-- Node4&#45;&gt;Node5 -->
<g id="edge6" class="edge">
<title>Node4&#45;&gt;Node5</title>
<path fill="none" stroke="midnightblue" d="M280.6,-51.29C305.62,-41.47 340.16,-27.91 362.42,-19.17"/>
<polygon fill="midnightblue" stroke="midnightblue" points="279.22,-48.07 271.19,-54.98 281.78,-54.59 279.22,-48.07"/>
</g>
<!-- Node4&#45;&gt;Node6 -->
<g id="edge7" class="edge">
<title>Node4&#45;&gt;Node6</title>
<path fill="none" stroke="midnightblue" d="M254.05,-44.95C256.21,-36.15 258.68,-26.06 260.39,-19.09"/>
<polygon fill="midnightblue" stroke="midnightblue" points="250.63,-44.2 251.65,-54.75 257.43,-45.87 250.63,-44.2"/>
</g>
<!-- Node8&#45;&gt;Node2 -->
<g id="edge15" class="edge">
<title>Node8&#45;&gt;Node2</title>
<path fill="none" stroke="midnightblue" d="M451.54,-115.22C376.01,-109.86 243.29,-97.39 201.5,-74 178.19,-60.95 160.78,-33.34 152.99,-19.22"/>
<polygon fill="midnightblue" stroke="midnightblue" points="451.59,-118.73 461.81,-115.93 452.07,-111.75 451.59,-118.73"/>
</g>
<!-- Node8&#45;&gt;Node5 -->
<g id="edge24" class="edge">
<title>Node8&#45;&gt;Node5</title>
<path fill="none" stroke="midnightblue" d="M487.31,-103.21C477.27,-94.7 464.61,-83.86 453.5,-74 431.83,-54.76 406.93,-31.58 393.78,-19.24"/>
<polygon fill="midnightblue" stroke="midnightblue" points="485.15,-105.97 495.05,-109.74 489.66,-100.62 485.15,-105.97"/>
</g>
<!-- Node8&#45;&gt;Node7 -->
<g id="edge16" class="edge">
<title>Node8&#45;&gt;Node7</title>
<path fill="none" stroke="midnightblue" d="M523.72,-103.24C533.77,-94.74 546.43,-83.9 557.5,-74 578.93,-54.84 603.44,-31.62 616.38,-19.26"/>
<polygon fill="midnightblue" stroke="midnightblue" points="521.37,-100.65 515.97,-109.77 525.88,-106 521.37,-100.65"/>
</g>
<!-- Node9 -->
<g id="node9" class="node">
<title>Node9</title>
<g id="a_node9"><a xlink:href="colordropdownmenu_8cpp.html" target="_top" xlink:title=" ">
<polygon fill="none" stroke="black" points="928,-19 791,-19 791,0 928,0 928,-19"/>
<text text-anchor="middle" x="859.5" y="-7" font-family="Helvetica,sans-Serif" font-size="10.00">colordropdownmenu.cpp</text>
</a>
</g>
</g>
<!-- Node8&#45;&gt;Node9 -->
<g id="edge10" class="edge">
<title>Node8&#45;&gt;Node9</title>
<path fill="none" stroke="midnightblue" d="M559.19,-117.32C615.47,-114.37 705.43,-104.71 776.5,-74 807.48,-60.61 837.26,-33.16 851.22,-19.14"/>
<polygon fill="midnightblue" stroke="midnightblue" points="558.91,-113.83 549.09,-117.8 559.24,-120.82 558.91,-113.83"/>
</g>
<!-- Node10 -->
<g id="node10" class="node">
<title>Node10</title>
<g id="a_node10"><a xlink:href="colorwell_8cpp.html" target="_top" xlink:title=" ">
<polygon fill="none" stroke="black" points="773,-19 692,-19 692,0 773,0 773,-19"/>
<text text-anchor="middle" x="732.5" y="-7" font-family="Helvetica,sans-Serif" font-size="10.00">colorwell.cpp</text>
</a>
</g>
</g>
<!-- Node8&#45;&gt;Node10 -->
<g id="edge11" class="edge">
<title>Node8&#45;&gt;Node10</title>
<path fill="none" stroke="midnightblue" d="M532.98,-105.43C580.08,-83.02 674.97,-37.87 714.54,-19.05"/>
<polygon fill="midnightblue" stroke="midnightblue" points="531.22,-102.39 523.69,-109.84 534.23,-108.71 531.22,-102.39"/>
</g>
<!-- Node11 -->
<g id="node11" class="node">
<title>Node11</title>
<g id="a_node11"><a xlink:href="colorwell_8h.html" target="_top" xlink:title=" ">
<polygon fill="none" stroke="black" points="767.5,-74 697.5,-74 697.5,-55 767.5,-55 767.5,-74"/>
<text text-anchor="middle" x="732.5" y="-62" font-family="Helvetica,sans-Serif" font-size="10.00">colorwell.h</text>
</a>
</g>
</g>
<!-- Node8&#45;&gt;Node11 -->
<g id="edge12" class="edge">
<title>Node8&#45;&gt;Node11</title>
<path fill="none" stroke="midnightblue" d="M551.92,-107.66C594.99,-97.61 658.16,-82.86 697.24,-73.73"/>
<polygon fill="midnightblue" stroke="midnightblue" points="550.91,-104.3 541.97,-109.98 552.51,-111.12 550.91,-104.3"/>
</g>
<!-- Node12 -->
<g id="node12" class="node">
<title>Node12</title>
<g id="a_node12"><a xlink:href="floattextedit_8h.html" target="_top" xlink:title=" ">
<polygon fill="none" stroke="black" points="548.5,-74 462.5,-74 462.5,-55 548.5,-55 548.5,-74"/>
<text text-anchor="middle" x="505.5" y="-62" font-family="Helvetica,sans-Serif" font-size="10.00">floattextedit.h</text>
</a>
</g>
</g>
<!-- Node8&#45;&gt;Node12 -->
<g id="edge17" class="edge">
<title>Node8&#45;&gt;Node12</title>
<path fill="none" stroke="midnightblue" d="M505.5,-99.66C505.5,-90.93 505.5,-80.99 505.5,-74.09"/>
<polygon fill="midnightblue" stroke="midnightblue" points="502,-99.75 505.5,-109.75 509,-99.75 502,-99.75"/>
</g>
<!-- Node14 -->
<g id="node14" class="node">
<title>Node14</title>
<g id="a_node14"><a xlink:href="main_8cpp.html" target="_top" xlink:title=" ">
<polygon fill="none" stroke="black" points="406.5,-74 344.5,-74 344.5,-55 406.5,-55 406.5,-74"/>
<text text-anchor="middle" x="375.5" y="-62" font-family="Helvetica,sans-Serif" font-size="10.00">main.cpp</text>
</a>
</g>
</g>
<!-- Node8&#45;&gt;Node14 -->
<g id="edge23" class="edge">
<title>Node8&#45;&gt;Node14</title>
<path fill="none" stroke="midnightblue" d="M475.23,-106.16C451.16,-96.35 418.1,-82.87 396.77,-74.17"/>
<polygon fill="midnightblue" stroke="midnightblue" points="474.03,-109.45 484.61,-109.98 476.67,-102.97 474.03,-109.45"/>
</g>
<!-- Node11&#45;&gt;Node9 -->
<g id="edge13" class="edge">
<title>Node11&#45;&gt;Node9</title>
<path fill="none" stroke="midnightblue" d="M762.38,-51.03C785.87,-41.23 817.97,-27.83 838.72,-19.17"/>
<polygon fill="midnightblue" stroke="midnightblue" points="760.79,-47.9 752.9,-54.98 763.48,-54.36 760.79,-47.9"/>
</g>
<!-- Node11&#45;&gt;Node10 -->
<g id="edge14" class="edge">
<title>Node11&#45;&gt;Node10</title>
<path fill="none" stroke="midnightblue" d="M732.5,-44.66C732.5,-35.93 732.5,-25.99 732.5,-19.09"/>
<polygon fill="midnightblue" stroke="midnightblue" points="729,-44.75 732.5,-54.75 736,-44.75 729,-44.75"/>
</g>
<!-- Node12&#45;&gt;Node2 -->
<g id="edge18" class="edge">
<title>Node12&#45;&gt;Node2</title>
<path fill="none" stroke="midnightblue" d="M452.29,-56.19C391.02,-47.68 287.39,-33 198.5,-19 195.63,-18.55 192.67,-18.07 189.69,-17.58"/>
<polygon fill="midnightblue" stroke="midnightblue" points="452.1,-59.7 462.49,-57.6 453.06,-52.76 452.1,-59.7"/>
</g>
<!-- Node12&#45;&gt;Node5 -->
<g id="edge20" class="edge">
<title>Node12&#45;&gt;Node5</title>
<path fill="none" stroke="midnightblue" d="M476.73,-50.9C454.38,-41.11 423.98,-27.79 404.29,-19.17"/>
<polygon fill="midnightblue" stroke="midnightblue" points="475.5,-54.18 486.06,-54.98 478.3,-47.77 475.5,-54.18"/>
</g>
<!-- Node12&#45;&gt;Node6 -->
<g id="edge22" class="edge">
<title>Node12&#45;&gt;Node6</title>
<path fill="none" stroke="midnightblue" d="M456.51,-52.82C410.97,-42.88 344,-28.28 301.85,-19.08"/>
<polygon fill="midnightblue" stroke="midnightblue" points="455.94,-56.27 466.46,-54.98 457.43,-49.43 455.94,-56.27"/>
</g>
<!-- Node12&#45;&gt;Node7 -->
<g id="edge19" class="edge">
<title>Node12&#45;&gt;Node7</title>
<path fill="none" stroke="midnightblue" d="M534.03,-50.9C556.2,-41.11 586.35,-27.79 605.87,-19.17"/>
<polygon fill="midnightblue" stroke="midnightblue" points="532.51,-47.74 524.78,-54.98 535.34,-54.15 532.51,-47.74"/>
</g>
<!-- Node13 -->
<g id="node13" class="node">
<title>Node13</title>
<g id="a_node13"><a xlink:href="notetabwidget_8cpp.html" target="_top" xlink:title=" ">
<polygon fill="none" stroke="black" points="559,-19 452,-19 452,0 559,0 559,-19"/>
<text text-anchor="middle" x="505.5" y="-7" font-family="Helvetica,sans-Serif" font-size="10.00">notetabwidget.cpp</text>
</a>
</g>
</g>
<!-- Node12&#45;&gt;Node13 -->
<g id="edge21" class="edge">
<title>Node12&#45;&gt;Node13</title>
<path fill="none" stroke="midnightblue" d="M505.5,-44.66C505.5,-35.93 505.5,-25.99 505.5,-19.09"/>
<polygon fill="midnightblue" stroke="midnightblue" points="502,-44.75 505.5,-54.75 509,-44.75 502,-44.75"/>
</g>
</g>
</svg>
