<?xml version="1.0" encoding="UTF-8" standalone="no"?>
<!DOCTYPE svg PUBLIC "-//W3C//DTD SVG 1.1//EN"
 "http://www.w3.org/Graphics/SVG/1.1/DTD/svg11.dtd">
<!-- Generated by graphviz version 5.0.0 (0)
 -->
<!-- Title: container.cpp Pages: 1 -->
<svg width="1038pt" height="247pt"
 viewBox="0.00 0.00 1038.00 247.00" xmlns="http://www.w3.org/2000/svg" xmlns:xlink="http://www.w3.org/1999/xlink">
<g id="graph0" class="graph" transform="scale(1 1) rotate(0) translate(4 243)">
<title>container.cpp</title>
<!-- Node1 -->
<g id="node1" class="node">
<title>Node1</title>
<g id="a_node1"><a xlink:title=" ">
<polygon fill="#bfbfbf" stroke="black" points="814.5,-239 732.5,-239 732.5,-220 814.5,-220 814.5,-239"/>
<text text-anchor="middle" x="773.5" y="-227" font-family="Helvetica,sans-Serif" font-size="10.00">container.cpp</text>
</a>
</g>
</g>
<!-- Node2 -->
<g id="node2" class="node">
<title>Node2</title>
<g id="a_node2"><a xlink:href="container_8h.html" target="_top" xlink:title=" ">
<polygon fill="none" stroke="black" points="805,-74 734,-74 734,-55 805,-55 805,-74"/>
<text text-anchor="middle" x="769.5" y="-62" font-family="Helvetica,sans-Serif" font-size="10.00">container.h</text>
</a>
</g>
</g>
<!-- Node1&#45;&gt;Node2 -->
<g id="edge1" class="edge">
<title>Node1&#45;&gt;Node2</title>
<path fill="none" stroke="midnightblue" d="M773.28,-219.74C772.66,-194.31 770.84,-120.08 769.97,-84.69"/>
<polygon fill="midnightblue" stroke="midnightblue" points="773.46,-84.22 769.72,-74.31 766.46,-84.39 773.46,-84.22"/>
</g>
<!-- Node5 -->
<g id="node5" class="node">
<title>Node5</title>
<g id="a_node5"><a xlink:href="floattextedit_8h.html" target="_top" xlink:title=" ">
<polygon fill="none" stroke="black" points="676.5,-184 590.5,-184 590.5,-165 676.5,-165 676.5,-184"/>
<text text-anchor="middle" x="633.5" y="-172" font-family="Helvetica,sans-Serif" font-size="10.00">floattextedit.h</text>
</a>
</g>
</g>
<!-- Node1&#45;&gt;Node5 -->
<g id="edge4" class="edge">
<title>Node1&#45;&gt;Node5</title>
<path fill="none" stroke="midnightblue" d="M751.01,-219.98C727.98,-211.27 691.96,-197.63 665.87,-187.75"/>
<polygon fill="midnightblue" stroke="midnightblue" points="666.99,-184.44 656.4,-184.17 664.52,-190.98 666.99,-184.44"/>
</g>
<!-- Node7 -->
<g id="node7" class="node">
<title>Node7</title>
<g id="a_node7"><a xlink:href="mainwindow_8h.html" target="_top" xlink:title=" ">
<polygon fill="none" stroke="black" points="522,-129 435,-129 435,-110 522,-110 522,-129"/>
<text text-anchor="middle" x="478.5" y="-117" font-family="Helvetica,sans-Serif" font-size="10.00">mainwindow.h</text>
</a>
</g>
</g>
<!-- Node1&#45;&gt;Node7 -->
<g id="edge23" class="edge">
<title>Node1&#45;&gt;Node7</title>
<path fill="none" stroke="midnightblue" d="M732.24,-222.91C692.53,-216.61 631.34,-204.49 581.5,-184 550.33,-171.18 517.78,-149.49 497.81,-135.08"/>
<polygon fill="midnightblue" stroke="midnightblue" points="499.71,-132.13 489.58,-129.03 495.57,-137.77 499.71,-132.13"/>
</g>
<!-- Node15 -->
<g id="node15" class="node">
<title>Node15</title>
<g id="a_node15"><a xlink:href="floatimage_8h.html" target="_top" xlink:title=" ">
<polygon fill="none" stroke="black" points="872.5,-129 794.5,-129 794.5,-110 872.5,-110 872.5,-129"/>
<text text-anchor="middle" x="833.5" y="-117" font-family="Helvetica,sans-Serif" font-size="10.00">floatimage.h</text>
</a>
</g>
</g>
<!-- Node1&#45;&gt;Node15 -->
<g id="edge18" class="edge">
<title>Node1&#45;&gt;Node15</title>
<path fill="none" stroke="midnightblue" d="M774.82,-219.79C777.02,-207.08 782.25,-183 792.5,-165 798.64,-154.21 807.86,-143.89 815.99,-135.92"/>
<polygon fill="midnightblue" stroke="midnightblue" points="818.42,-138.44 823.33,-129.05 813.64,-133.33 818.42,-138.44"/>
</g>
<!-- Node18 -->
<g id="node18" class="node">
<title>Node18</title>
<g id="a_node18"><a xlink:title=" ">
<polygon fill="none" stroke="#bfbfbf" points="861.5,-184 801.5,-184 801.5,-165 861.5,-165 861.5,-184"/>
<text text-anchor="middle" x="831.5" y="-172" font-family="Helvetica,sans-Serif" font-size="10.00">iostream</text>
</a>
</g>
</g>
<!-- Node1&#45;&gt;Node18 -->
<g id="edge24" class="edge">
<title>Node1&#45;&gt;Node18</title>
<path fill="none" stroke="midnightblue" d="M782.82,-219.98C791.31,-212.23 804.06,-200.58 814.38,-191.14"/>
<polygon fill="midnightblue" stroke="midnightblue" points="816.99,-193.5 822.01,-184.17 812.27,-188.33 816.99,-193.5"/>
</g>
<!-- Node19 -->
<g id="node19" class="node">
<title>Node19</title>
<g id="a_node19"><a xlink:title=" ">
<polygon fill="none" stroke="#bfbfbf" points="963.5,-184 879.5,-184 879.5,-165 963.5,-165 963.5,-184"/>
<text text-anchor="middle" x="921.5" y="-172" font-family="Helvetica,sans-Serif" font-size="10.00">QMouseEvent</text>
</a>
</g>
</g>
<!-- Node1&#45;&gt;Node19 -->
<g id="edge25" class="edge">
<title>Node1&#45;&gt;Node19</title>
<path fill="none" stroke="midnightblue" d="M797.28,-219.98C821.73,-211.23 860.03,-197.51 887.65,-187.62"/>
<polygon fill="midnightblue" stroke="midnightblue" points="889.05,-190.84 897.29,-184.17 886.69,-184.25 889.05,-190.84"/>
</g>
<!-- Node20 -->
<g id="node20" class="node">
<title>Node20</title>
<g id="a_node20"><a xlink:title=" ">
<polygon fill="none" stroke="#bfbfbf" points="1030,-184 981,-184 981,-165 1030,-165 1030,-184"/>
<text text-anchor="middle" x="1005.5" y="-172" font-family="Helvetica,sans-Serif" font-size="10.00">QStyle</text>
</a>
</g>
</g>
<!-- Node1&#45;&gt;Node20 -->
<g id="edge26" class="edge">
<title>Node1&#45;&gt;Node20</title>
<path fill="none" stroke="midnightblue" d="M813.61,-219.93C851.74,-211.69 910.94,-198.67 970.68,-184.39"/>
<polygon fill="midnightblue" stroke="midnightblue" points="971.75,-187.73 980.66,-181.99 970.11,-180.92 971.75,-187.73"/>
</g>
<!-- Node3 -->
<g id="node3" class="node">
<title>Node3</title>
<g id="a_node3"><a xlink:title=" ">
<polygon fill="none" stroke="#bfbfbf" points="799,-19 740,-19 740,0 799,0 799,-19"/>
<text text-anchor="middle" x="769.5" y="-7" font-family="Helvetica,sans-Serif" font-size="10.00">QWidget</text>
</a>
</g>
</g>
<!-- Node2&#45;&gt;Node3 -->
<g id="edge2" class="edge">
<title>Node2&#45;&gt;Node3</title>
<path fill="none" stroke="midnightblue" d="M769.5,-54.75C769.5,-47.8 769.5,-37.85 769.5,-29.13"/>
<polygon fill="midnightblue" stroke="midnightblue" points="773,-29.09 769.5,-19.09 766,-29.09 773,-29.09"/>
</g>
<!-- Node4 -->
<g id="node4" class="node">
<title>Node4</title>
<g id="a_node4"><a xlink:title=" ">
<polygon fill="none" stroke="#bfbfbf" points="681,-19 626,-19 626,0 681,0 681,-19"/>
<text text-anchor="middle" x="653.5" y="-7" font-family="Helvetica,sans-Serif" font-size="10.00">QFrame</text>
</a>
</g>
</g>
<!-- Node2&#45;&gt;Node4 -->
<g id="edge3" class="edge">
<title>Node2&#45;&gt;Node4</title>
<path fill="none" stroke="midnightblue" d="M750.86,-54.98C732.2,-46.46 703.25,-33.23 681.76,-23.41"/>
<polygon fill="midnightblue" stroke="midnightblue" points="683.03,-20.14 672.48,-19.17 680.12,-26.51 683.03,-20.14"/>
</g>
<!-- Node6 -->
<g id="node6" class="node">
<title>Node6</title>
<g id="a_node6"><a xlink:title=" ">
<polygon fill="none" stroke="#bfbfbf" points="665,-129 602,-129 602,-110 665,-110 665,-129"/>
<text text-anchor="middle" x="633.5" y="-117" font-family="Helvetica,sans-Serif" font-size="10.00">QTextEdit</text>
</a>
</g>
</g>
<!-- Node5&#45;&gt;Node6 -->
<g id="edge5" class="edge">
<title>Node5&#45;&gt;Node6</title>
<path fill="none" stroke="midnightblue" d="M633.5,-164.75C633.5,-157.8 633.5,-147.85 633.5,-139.13"/>
<polygon fill="midnightblue" stroke="midnightblue" points="637,-139.09 633.5,-129.09 630,-139.09 637,-139.09"/>
</g>
<!-- Node5&#45;&gt;Node7 -->
<g id="edge6" class="edge">
<title>Node5&#45;&gt;Node7</title>
<path fill="none" stroke="midnightblue" d="M608.6,-164.98C582.8,-156.16 542.28,-142.31 513.32,-132.41"/>
<polygon fill="midnightblue" stroke="midnightblue" points="514.19,-129.01 503.6,-129.08 511.93,-135.63 514.19,-129.01"/>
</g>
<!-- Node7&#45;&gt;Node2 -->
<g id="edge12" class="edge">
<title>Node7&#45;&gt;Node2</title>
<path fill="none" stroke="midnightblue" d="M522.07,-110.72C569.23,-102.28 646.95,-88.3 723.79,-74.12"/>
<polygon fill="midnightblue" stroke="midnightblue" points="724.45,-77.56 733.64,-72.3 723.17,-70.67 724.45,-77.56"/>
</g>
<!-- Node8 -->
<g id="node8" class="node">
<title>Node8</title>
<g id="a_node8"><a xlink:title=" ">
<polygon fill="none" stroke="#bfbfbf" points="573,-74 486,-74 486,-55 573,-55 573,-74"/>
<text text-anchor="middle" x="529.5" y="-62" font-family="Helvetica,sans-Serif" font-size="10.00">QMainWindow</text>
</a>
</g>
</g>
<!-- Node7&#45;&gt;Node8 -->
<g id="edge7" class="edge">
<title>Node7&#45;&gt;Node8</title>
<path fill="none" stroke="midnightblue" d="M486.92,-109.75C494.27,-102.11 505.13,-90.82 514.04,-81.56"/>
<polygon fill="midnightblue" stroke="midnightblue" points="516.82,-83.72 521.24,-74.09 511.78,-78.87 516.82,-83.72"/>
</g>
<!-- Node9 -->
<g id="node9" class="node">
<title>Node9</title>
<g id="a_node9"><a xlink:title=" ">
<polygon fill="none" stroke="#bfbfbf" points="53,-74 0,-74 0,-55 53,-55 53,-74"/>
<text text-anchor="middle" x="26.5" y="-62" font-family="Helvetica,sans-Serif" font-size="10.00">QString</text>
</a>
</g>
</g>
<!-- Node7&#45;&gt;Node9 -->
<g id="edge8" class="edge">
<title>Node7&#45;&gt;Node9</title>
<path fill="none" stroke="midnightblue" d="M434.83,-115.64C360.57,-110.38 204.8,-97.64 63.32,-73.91"/>
<polygon fill="midnightblue" stroke="midnightblue" points="63.61,-70.41 53.16,-72.19 62.43,-77.31 63.61,-70.41"/>
</g>
<!-- Node10 -->
<g id="node10" class="node">
<title>Node10</title>
<g id="a_node10"><a xlink:title=" ">
<polygon fill="none" stroke="#bfbfbf" points="147.5,-74 71.5,-74 71.5,-55 147.5,-55 147.5,-74"/>
<text text-anchor="middle" x="109.5" y="-62" font-family="Helvetica,sans-Serif" font-size="10.00">QListWidget</text>
</a>
</g>
</g>
<!-- Node7&#45;&gt;Node10 -->
<g id="edge9" class="edge">
<title>Node7&#45;&gt;Node10</title>
<path fill="none" stroke="midnightblue" d="M434.93,-113.06C374.89,-105.44 263.1,-90.79 157.86,-74.16"/>
<polygon fill="midnightblue" stroke="midnightblue" points="158.12,-70.66 147.7,-72.55 157.02,-77.57 158.12,-70.66"/>
</g>
<!-- Node11 -->
<g id="node11" class="node">
<title>Node11</title>
<g id="a_node11"><a xlink:title=" ">
<polygon fill="none" stroke="#bfbfbf" points="369,-74 274,-74 274,-55 369,-55 369,-74"/>
<text text-anchor="middle" x="321.5" y="-62" font-family="Helvetica,sans-Serif" font-size="10.00">QTextDocument</text>
</a>
</g>
</g>
<!-- Node7&#45;&gt;Node11 -->
<g id="edge10" class="edge">
<title>Node7&#45;&gt;Node11</title>
<path fill="none" stroke="midnightblue" d="M453.28,-109.98C427.14,-101.16 386.1,-87.31 356.77,-77.41"/>
<polygon fill="midnightblue" stroke="midnightblue" points="357.52,-73.96 346.92,-74.08 355.28,-80.6 357.52,-73.96"/>
</g>
<!-- Node12 -->
<g id="node12" class="node">
<title>Node12</title>
<g id="a_node12"><a xlink:title=" ">
<polygon fill="none" stroke="#bfbfbf" points="468,-74 387,-74 387,-55 468,-55 468,-74"/>
<text text-anchor="middle" x="427.5" y="-62" font-family="Helvetica,sans-Serif" font-size="10.00">QColorDialog</text>
</a>
</g>
</g>
<!-- Node7&#45;&gt;Node12 -->
<g id="edge11" class="edge">
<title>Node7&#45;&gt;Node12</title>
<path fill="none" stroke="midnightblue" d="M470.08,-109.75C462.73,-102.11 451.87,-90.82 442.96,-81.56"/>
<polygon fill="midnightblue" stroke="midnightblue" points="445.22,-78.87 435.76,-74.09 440.18,-83.72 445.22,-78.87"/>
</g>
<!-- Node13 -->
<g id="node13" class="node">
<title>Node13</title>
<g id="a_node13"><a xlink:href="contextmenu_8h.html" target="_top" xlink:title=" ">
<polygon fill="none" stroke="black" points="255.5,-74 165.5,-74 165.5,-55 255.5,-55 255.5,-74"/>
<text text-anchor="middle" x="210.5" y="-62" font-family="Helvetica,sans-Serif" font-size="10.00">contextmenu.h</text>
</a>
</g>
</g>
<!-- Node7&#45;&gt;Node13 -->
<g id="edge13" class="edge">
<title>Node7&#45;&gt;Node13</title>
<path fill="none" stroke="midnightblue" d="M435.44,-109.98C388.79,-100.76 314.3,-86.03 263.94,-76.07"/>
<polygon fill="midnightblue" stroke="midnightblue" points="264.39,-72.59 253.9,-74.08 263.03,-79.46 264.39,-72.59"/>
</g>
<!-- Node14 -->
<g id="node14" class="node">
<title>Node14</title>
<g id="a_node14"><a xlink:href="colordropdownmenu_8h.html" target="_top" xlink:title=" ">
<polygon fill="none" stroke="black" points="716,-74 591,-74 591,-55 716,-55 716,-74"/>
<text text-anchor="middle" x="653.5" y="-62" font-family="Helvetica,sans-Serif" font-size="10.00">colordropdownmenu.h</text>
</a>
</g>
</g>
<!-- Node7&#45;&gt;Node14 -->
<g id="edge15" class="edge">
<title>Node7&#45;&gt;Node14</title>
<path fill="none" stroke="midnightblue" d="M506.62,-109.98C536.12,-101.05 582.69,-86.94 615.47,-77.02"/>
<polygon fill="midnightblue" stroke="midnightblue" points="616.61,-80.33 625.16,-74.08 614.58,-73.63 616.61,-80.33"/>
</g>
<!-- Node13&#45;&gt;Node4 -->
<g id="edge14" class="edge">
<title>Node13&#45;&gt;Node4</title>
<path fill="none" stroke="midnightblue" d="M255.56,-56.26C258.58,-55.82 261.58,-55.4 264.5,-55 392.96,-37.55 545.9,-21.4 615.56,-14.3"/>
<polygon fill="midnightblue" stroke="midnightblue" points="616.02,-17.77 625.62,-13.28 615.32,-10.81 616.02,-17.77"/>
</g>
<!-- Node14&#45;&gt;Node3 -->
<g id="edge16" class="edge">
<title>Node14&#45;&gt;Node3</title>
<path fill="none" stroke="midnightblue" d="M672.14,-54.98C690.8,-46.46 719.75,-33.23 741.24,-23.41"/>
<polygon fill="midnightblue" stroke="midnightblue" points="742.88,-26.51 750.52,-19.17 739.97,-20.14 742.88,-26.51"/>
</g>
<!-- Node14&#45;&gt;Node4 -->
<g id="edge17" class="edge">
<title>Node14&#45;&gt;Node4</title>
<path fill="none" stroke="midnightblue" d="M653.5,-54.75C653.5,-47.8 653.5,-37.85 653.5,-29.13"/>
<polygon fill="midnightblue" stroke="midnightblue" points="657,-29.09 653.5,-19.09 650,-29.09 657,-29.09"/>
</g>
<!-- Node15&#45;&gt;Node2 -->
<g id="edge22" class="edge">
<title>Node15&#45;&gt;Node2</title>
<path fill="none" stroke="midnightblue" d="M823.22,-109.98C813.66,-102.07 799.22,-90.11 787.72,-80.58"/>
<polygon fill="midnightblue" stroke="midnightblue" points="789.9,-77.85 779.97,-74.17 785.44,-83.24 789.9,-77.85"/>
</g>
<!-- Node15&#45;&gt;Node3 -->
<g id="edge20" class="edge">
<title>Node15&#45;&gt;Node3</title>
<path fill="none" stroke="midnightblue" d="M832.29,-109.73C830.23,-96.94 825.16,-72.76 814.5,-55 807.83,-43.89 797.76,-33.58 788.83,-25.68"/>
<polygon fill="midnightblue" stroke="midnightblue" points="790.99,-22.92 781.09,-19.16 786.48,-28.28 790.99,-22.92"/>
</g>
<!-- Node16 -->
<g id="node16" class="node">
<title>Node16</title>
<g id="a_node16"><a xlink:title=" ">
<polygon fill="none" stroke="#bfbfbf" points="917.5,-74 861.5,-74 861.5,-55 917.5,-55 917.5,-74"/>
<text text-anchor="middle" x="889.5" y="-62" font-family="Helvetica,sans-Serif" font-size="10.00">QObject</text>
</a>
</g>
</g>
<!-- Node15&#45;&gt;Node16 -->
<g id="edge19" class="edge">
<title>Node15&#45;&gt;Node16</title>
<path fill="none" stroke="midnightblue" d="M842.5,-109.98C850.69,-102.23 863.01,-90.58 872.97,-81.14"/>
<polygon fill="midnightblue" stroke="midnightblue" points="875.48,-83.59 880.34,-74.17 870.67,-78.5 875.48,-83.59"/>
</g>
<!-- Node17 -->
<g id="node17" class="node">
<title>Node17</title>
<g id="a_node17"><a xlink:title=" ">
<polygon fill="none" stroke="#bfbfbf" points="985.5,-74 935.5,-74 935.5,-55 985.5,-55 985.5,-74"/>
<text text-anchor="middle" x="960.5" y="-62" font-family="Helvetica,sans-Serif" font-size="10.00">QLabel</text>
</a>
</g>
</g>
<!-- Node15&#45;&gt;Node17 -->
<g id="edge21" class="edge">
<title>Node15&#45;&gt;Node17</title>
<path fill="none" stroke="midnightblue" d="M853.9,-109.98C874.52,-101.38 906.61,-87.99 930.19,-78.15"/>
<polygon fill="midnightblue" stroke="midnightblue" points="931.84,-81.25 939.72,-74.17 929.15,-74.79 931.84,-81.25"/>
</g>
</g>
</svg>
