<?xml version="1.0" encoding="UTF-8" standalone="no"?>
<!DOCTYPE svg PUBLIC "-//W3C//DTD SVG 1.1//EN"
 "http://www.w3.org/Graphics/SVG/1.1/DTD/svg11.dtd">
<!-- Generated by graphviz version 5.0.0 (0)
 -->
<!-- Title: contextmenu.h Pages: 1 -->
<svg width="604pt" height="192pt"
 viewBox="0.00 0.00 603.79 192.00" xmlns="http://www.w3.org/2000/svg" xmlns:xlink="http://www.w3.org/1999/xlink">
<g id="graph0" class="graph" transform="scale(1 1) rotate(0) translate(4 188)">
<title>contextmenu.h</title>
<!-- Node1 -->
<g id="node1" class="node">
<title>Node1</title>
<g id="a_node1"><a xlink:title=" ">
<polygon fill="#bfbfbf" stroke="black" points="179.79,-184 89.79,-184 89.79,-165 179.79,-165 179.79,-184"/>
<text text-anchor="middle" x="134.79" y="-172" font-family="Helvetica,sans-Serif" font-size="10.00">contextmenu.h</text>
</a>
</g>
</g>
<!-- Node2 -->
<g id="node2" class="node">
<title>Node2</title>
<g id="a_node2"><a xlink:href="contextmenu_8cpp.html" target="_top" xlink:title=" ">
<polygon fill="none" stroke="black" points="106.29,-129 5.29,-129 5.29,-110 106.29,-110 106.29,-129"/>
<text text-anchor="middle" x="55.79" y="-117" font-family="Helvetica,sans-Serif" font-size="10.00">contextmenu.cpp</text>
</a>
</g>
</g>
<!-- Node1&#45;&gt;Node2 -->
<g id="edge1" class="edge">
<title>Node1&#45;&gt;Node2</title>
<path fill="none" stroke="midnightblue" d="M113.41,-159.15C99.13,-149.57 80.82,-137.29 68.72,-129.17"/>
<polygon fill="midnightblue" stroke="midnightblue" points="111.85,-162.32 122.1,-164.98 115.75,-156.51 111.85,-162.32"/>
</g>
<!-- Node3 -->
<g id="node3" class="node">
<title>Node3</title>
<g id="a_node3"><a xlink:href="mainwindow_8h.html" target="_top" xlink:title=" ">
<polygon fill="none" stroke="black" points="323.29,-129 236.29,-129 236.29,-110 323.29,-110 323.29,-129"/>
<text text-anchor="middle" x="279.79" y="-117" font-family="Helvetica,sans-Serif" font-size="10.00">mainwindow.h</text>
</a>
</g>
</g>
<!-- Node1&#45;&gt;Node3 -->
<g id="edge2" class="edge">
<title>Node1&#45;&gt;Node3</title>
<path fill="none" stroke="midnightblue" d="M167.49,-161.55C194.41,-151.71 231.96,-137.98 256.07,-129.17"/>
<polygon fill="midnightblue" stroke="midnightblue" points="166.28,-158.26 158.09,-164.98 168.68,-164.84 166.28,-158.26"/>
</g>
<!-- Node12 -->
<g id="node12" class="node">
<title>Node12</title>
<g id="a_node12"><a xlink:href="tabmainwidget_8h.html" target="_top" xlink:title=" ">
<polygon fill="none" stroke="black" points="112.29,-74 13.29,-74 13.29,-55 112.29,-55 112.29,-74"/>
<text text-anchor="middle" x="62.79" y="-62" font-family="Helvetica,sans-Serif" font-size="10.00">tabmainwidget.h</text>
</a>
</g>
</g>
<!-- Node1&#45;&gt;Node12 -->
<g id="edge14" class="edge">
<title>Node1&#45;&gt;Node12</title>
<path fill="none" stroke="midnightblue" d="M132.11,-154.67C129.54,-141.35 124.68,-123.52 115.79,-110 105.76,-94.74 88.96,-81.91 76.96,-74.01"/>
<polygon fill="midnightblue" stroke="midnightblue" points="128.67,-155.32 133.77,-164.61 135.58,-154.17 128.67,-155.32"/>
</g>
<!-- Node4 -->
<g id="node4" class="node">
<title>Node4</title>
<g id="a_node4"><a xlink:href="colordropdownmenu_8cpp.html" target="_top" xlink:title=" ">
<polygon fill="none" stroke="black" points="348.29,-74 211.29,-74 211.29,-55 348.29,-55 348.29,-74"/>
<text text-anchor="middle" x="279.79" y="-62" font-family="Helvetica,sans-Serif" font-size="10.00">colordropdownmenu.cpp</text>
</a>
</g>
</g>
<!-- Node3&#45;&gt;Node4 -->
<g id="edge3" class="edge">
<title>Node3&#45;&gt;Node4</title>
<path fill="none" stroke="midnightblue" d="M279.79,-99.66C279.79,-90.93 279.79,-80.99 279.79,-74.09"/>
<polygon fill="midnightblue" stroke="midnightblue" points="276.29,-99.75 279.79,-109.75 283.29,-99.75 276.29,-99.75"/>
</g>
<!-- Node5 -->
<g id="node5" class="node">
<title>Node5</title>
<g id="a_node5"><a xlink:href="container_8cpp.html" target="_top" xlink:title=" ">
<polygon fill="none" stroke="black" points="595.79,-19 513.79,-19 513.79,0 595.79,0 595.79,-19"/>
<text text-anchor="middle" x="554.79" y="-7" font-family="Helvetica,sans-Serif" font-size="10.00">container.cpp</text>
</a>
</g>
</g>
<!-- Node3&#45;&gt;Node5 -->
<g id="edge4" class="edge">
<title>Node3&#45;&gt;Node5</title>
<path fill="none" stroke="midnightblue" d="M333.89,-117.22C380.67,-113.95 448.64,-103.86 499.79,-74 523.22,-60.33 541.64,-33 549.96,-19.08"/>
<polygon fill="midnightblue" stroke="midnightblue" points="333.42,-113.74 323.65,-117.85 333.85,-120.73 333.42,-113.74"/>
</g>
<!-- Node6 -->
<g id="node6" class="node">
<title>Node6</title>
<g id="a_node6"><a xlink:href="floattextedit_8cpp.html" target="_top" xlink:title=" ">
<polygon fill="none" stroke="black" points="370.29,-19 273.29,-19 273.29,0 370.29,0 370.29,-19"/>
<text text-anchor="middle" x="321.79" y="-7" font-family="Helvetica,sans-Serif" font-size="10.00">floattextedit.cpp</text>
</a>
</g>
</g>
<!-- Node3&#45;&gt;Node6 -->
<g id="edge5" class="edge">
<title>Node3&#45;&gt;Node6</title>
<path fill="none" stroke="midnightblue" d="M318.93,-105.89C333.82,-98.96 349.25,-88.71 357.79,-74 369.12,-54.49 347.29,-31.41 332.94,-19.16"/>
<polygon fill="midnightblue" stroke="midnightblue" points="317.14,-102.85 309.3,-109.97 319.87,-109.29 317.14,-102.85"/>
</g>
<!-- Node7 -->
<g id="node7" class="node">
<title>Node7</title>
<g id="a_node7"><a xlink:href="floattextedit_8h.html" target="_top" xlink:title=" ">
<polygon fill="none" stroke="black" points="490.79,-74 404.79,-74 404.79,-55 490.79,-55 490.79,-74"/>
<text text-anchor="middle" x="447.79" y="-62" font-family="Helvetica,sans-Serif" font-size="10.00">floattextedit.h</text>
</a>
</g>
</g>
<!-- Node3&#45;&gt;Node7 -->
<g id="edge6" class="edge">
<title>Node3&#45;&gt;Node7</title>
<path fill="none" stroke="midnightblue" d="M316.48,-106.93C347.85,-97.03 392.3,-83.01 420.59,-74.08"/>
<polygon fill="midnightblue" stroke="midnightblue" points="315.27,-103.64 306.79,-109.98 317.38,-110.31 315.27,-103.64"/>
</g>
<!-- Node8 -->
<g id="node8" class="node">
<title>Node8</title>
<g id="a_node8"><a xlink:href="mainwindow_8cpp.html" target="_top" xlink:title=" ">
<polygon fill="none" stroke="black" points="111.79,-19 13.79,-19 13.79,0 111.79,0 111.79,-19"/>
<text text-anchor="middle" x="62.79" y="-7" font-family="Helvetica,sans-Serif" font-size="10.00">mainwindow.cpp</text>
</a>
</g>
</g>
<!-- Node3&#45;&gt;Node8 -->
<g id="edge13" class="edge">
<title>Node3&#45;&gt;Node8</title>
<path fill="none" stroke="midnightblue" d="M225.95,-117.73C154.09,-115.44 32.62,-106.69 4.79,-74 -12.34,-53.88 21.95,-31.22 44.74,-19.16"/>
<polygon fill="midnightblue" stroke="midnightblue" points="226.08,-121.24 236.18,-118.03 226.28,-114.24 226.08,-121.24"/>
</g>
<!-- Node11 -->
<g id="node11" class="node">
<title>Node11</title>
<g id="a_node11"><a xlink:href="main_8cpp.html" target="_top" xlink:title=" ">
<polygon fill="none" stroke="black" points="192.79,-74 130.79,-74 130.79,-55 192.79,-55 192.79,-74"/>
<text text-anchor="middle" x="161.79" y="-62" font-family="Helvetica,sans-Serif" font-size="10.00">main.cpp</text>
</a>
</g>
</g>
<!-- Node3&#45;&gt;Node11 -->
<g id="edge12" class="edge">
<title>Node3&#45;&gt;Node11</title>
<path fill="none" stroke="midnightblue" d="M251.44,-105.77C229.68,-95.99 200.21,-82.75 181.1,-74.17"/>
<polygon fill="midnightblue" stroke="midnightblue" points="250.28,-109.08 260.84,-109.98 253.15,-102.69 250.28,-109.08"/>
</g>
<!-- Node7&#45;&gt;Node5 -->
<g id="edge7" class="edge">
<title>Node7&#45;&gt;Node5</title>
<path fill="none" stroke="midnightblue" d="M474.04,-50.5C493.72,-40.75 520.12,-27.68 537.29,-19.17"/>
<polygon fill="midnightblue" stroke="midnightblue" points="472.39,-47.41 464.99,-54.98 475.5,-53.68 472.39,-47.41"/>
</g>
<!-- Node7&#45;&gt;Node6 -->
<g id="edge8" class="edge">
<title>Node7&#45;&gt;Node6</title>
<path fill="none" stroke="midnightblue" d="M418.15,-51.03C394.85,-41.23 362.99,-27.83 342.41,-19.17"/>
<polygon fill="midnightblue" stroke="midnightblue" points="416.97,-54.33 427.55,-54.98 419.69,-47.88 416.97,-54.33"/>
</g>
<!-- Node7&#45;&gt;Node8 -->
<g id="edge9" class="edge">
<title>Node7&#45;&gt;Node8</title>
<path fill="none" stroke="midnightblue" d="M394.61,-56.18C319.77,-45.88 184.46,-27.25 111.9,-17.26"/>
<polygon fill="midnightblue" stroke="midnightblue" points="394.37,-59.68 404.75,-57.57 395.32,-52.74 394.37,-59.68"/>
</g>
<!-- Node9 -->
<g id="node9" class="node">
<title>Node9</title>
<g id="a_node9"><a xlink:href="notetabwidget_8cpp.html" target="_top" xlink:title=" ">
<polygon fill="none" stroke="black" points="495.29,-19 388.29,-19 388.29,0 495.29,0 495.29,-19"/>
<text text-anchor="middle" x="441.79" y="-7" font-family="Helvetica,sans-Serif" font-size="10.00">notetabwidget.cpp</text>
</a>
</g>
</g>
<!-- Node7&#45;&gt;Node9 -->
<g id="edge10" class="edge">
<title>Node7&#45;&gt;Node9</title>
<path fill="none" stroke="midnightblue" d="M445.66,-44.66C444.67,-35.93 443.55,-25.99 442.77,-19.09"/>
<polygon fill="midnightblue" stroke="midnightblue" points="442.2,-45.21 446.8,-54.75 449.16,-44.42 442.2,-45.21"/>
</g>
<!-- Node10 -->
<g id="node10" class="node">
<title>Node10</title>
<g id="a_node10"><a xlink:href="tabmainwidget_8cpp.html" target="_top" xlink:title=" ">
<polygon fill="none" stroke="black" points="249.79,-19 139.79,-19 139.79,0 249.79,0 249.79,-19"/>
<text text-anchor="middle" x="194.79" y="-7" font-family="Helvetica,sans-Serif" font-size="10.00">tabmainwidget.cpp</text>
</a>
</g>
</g>
<!-- Node7&#45;&gt;Node10 -->
<g id="edge11" class="edge">
<title>Node7&#45;&gt;Node10</title>
<path fill="none" stroke="midnightblue" d="M397.09,-52.88C349.67,-42.94 279.74,-28.3 235.76,-19.08"/>
<polygon fill="midnightblue" stroke="midnightblue" points="396.64,-56.36 407.15,-54.98 398.08,-49.51 396.64,-56.36"/>
</g>
<!-- Node12&#45;&gt;Node6 -->
<g id="edge15" class="edge">
<title>Node12&#45;&gt;Node6</title>
<path fill="none" stroke="midnightblue" d="M114.4,-52.94C162.94,-43.01 234.74,-28.31 279.85,-19.08"/>
<polygon fill="midnightblue" stroke="midnightblue" points="113.5,-49.55 104.41,-54.98 114.91,-56.41 113.5,-49.55"/>
</g>
<!-- Node12&#45;&gt;Node8 -->
<g id="edge16" class="edge">
<title>Node12&#45;&gt;Node8</title>
<path fill="none" stroke="midnightblue" d="M62.79,-44.66C62.79,-35.93 62.79,-25.99 62.79,-19.09"/>
<polygon fill="midnightblue" stroke="midnightblue" points="59.29,-44.75 62.79,-54.75 66.29,-44.75 59.29,-44.75"/>
</g>
<!-- Node12&#45;&gt;Node10 -->
<g id="edge17" class="edge">
<title>Node12&#45;&gt;Node10</title>
<path fill="none" stroke="midnightblue" d="M93.53,-51.16C117.97,-41.35 151.54,-27.87 173.2,-19.17"/>
<polygon fill="midnightblue" stroke="midnightblue" points="91.98,-48.01 84,-54.98 94.59,-54.51 91.98,-48.01"/>
</g>
</g>
</svg>
