<?xml version="1.0" encoding="UTF-8" standalone="no"?>
<!DOCTYPE svg PUBLIC "-//W3C//DTD SVG 1.1//EN"
 "http://www.w3.org/Graphics/SVG/1.1/DTD/svg11.dtd">
<!-- Generated by graphviz version 5.0.0 (0)
 -->
<!-- Title: floatimage.cpp Pages: 1 -->
<svg width="263pt" height="192pt"
 viewBox="0.00 0.00 262.50 192.00" xmlns="http://www.w3.org/2000/svg" xmlns:xlink="http://www.w3.org/1999/xlink">
<g id="graph0" class="graph" transform="scale(1 1) rotate(0) translate(4 188)">
<title>floatimage.cpp</title>
<!-- Node1 -->
<g id="node1" class="node">
<title>Node1</title>
<g id="a_node1"><a xlink:title=" ">
<polygon fill="#bfbfbf" stroke="black" points="153.5,-184 64.5,-184 64.5,-165 153.5,-165 153.5,-184"/>
<text text-anchor="middle" x="109" y="-172" font-family="Helvetica,sans-Serif" font-size="10.00">floatimage.cpp</text>
</a>
</g>
</g>
<!-- Node2 -->
<g id="node2" class="node">
<title>Node2</title>
<g id="a_node2"><a xlink:title=" ">
<polygon fill="none" stroke="#bfbfbf" points="50,-74 0,-74 0,-55 50,-55 50,-74"/>
<text text-anchor="middle" x="25" y="-62" font-family="Helvetica,sans-Serif" font-size="10.00">QLabel</text>
</a>
</g>
</g>
<!-- Node1&#45;&gt;Node2 -->
<g id="edge1" class="edge">
<title>Node1&#45;&gt;Node2</title>
<path fill="none" stroke="midnightblue" d="M97.79,-164.8C87.42,-156.38 72,-142.9 61,-129 49.72,-114.75 39.78,-96.53 33.22,-83.27"/>
<polygon fill="midnightblue" stroke="midnightblue" points="36.37,-81.74 28.89,-74.24 30.06,-84.77 36.37,-81.74"/>
</g>
<!-- Node3 -->
<g id="node3" class="node">
<title>Node3</title>
<g id="a_node3"><a xlink:href="floatimage_8h.html" target="_top" xlink:title=" ">
<polygon fill="none" stroke="black" points="148,-129 70,-129 70,-110 148,-110 148,-129"/>
<text text-anchor="middle" x="109" y="-117" font-family="Helvetica,sans-Serif" font-size="10.00">floatimage.h</text>
</a>
</g>
</g>
<!-- Node1&#45;&gt;Node3 -->
<g id="edge2" class="edge">
<title>Node1&#45;&gt;Node3</title>
<path fill="none" stroke="midnightblue" d="M109,-164.75C109,-157.8 109,-147.85 109,-139.13"/>
<polygon fill="midnightblue" stroke="midnightblue" points="112.5,-139.09 109,-129.09 105.5,-139.09 112.5,-139.09"/>
</g>
<!-- Node6 -->
<g id="node6" class="node">
<title>Node6</title>
<g id="a_node6"><a xlink:href="container_8h.html" target="_top" xlink:title=" ">
<polygon fill="none" stroke="black" points="251.5,-74 180.5,-74 180.5,-55 251.5,-55 251.5,-74"/>
<text text-anchor="middle" x="216" y="-62" font-family="Helvetica,sans-Serif" font-size="10.00">container.h</text>
</a>
</g>
</g>
<!-- Node1&#45;&gt;Node6 -->
<g id="edge9" class="edge">
<title>Node1&#45;&gt;Node6</title>
<path fill="none" stroke="midnightblue" d="M118.76,-164.84C128.6,-156.02 144.14,-141.85 157,-129 172.55,-113.47 189.55,-95 201.3,-81.99"/>
<polygon fill="midnightblue" stroke="midnightblue" points="204.11,-84.1 208.18,-74.32 198.9,-79.42 204.11,-84.1"/>
</g>
<!-- Node3&#45;&gt;Node2 -->
<g id="edge5" class="edge">
<title>Node3&#45;&gt;Node2</title>
<path fill="none" stroke="midnightblue" d="M95.5,-109.98C82.6,-101.84 62.9,-89.41 47.6,-79.76"/>
<polygon fill="midnightblue" stroke="midnightblue" points="49.07,-76.55 38.74,-74.17 45.33,-82.47 49.07,-76.55"/>
</g>
<!-- Node4 -->
<g id="node4" class="node">
<title>Node4</title>
<g id="a_node4"><a xlink:title=" ">
<polygon fill="none" stroke="#bfbfbf" points="124,-74 68,-74 68,-55 124,-55 124,-74"/>
<text text-anchor="middle" x="96" y="-62" font-family="Helvetica,sans-Serif" font-size="10.00">QObject</text>
</a>
</g>
</g>
<!-- Node3&#45;&gt;Node4 -->
<g id="edge3" class="edge">
<title>Node3&#45;&gt;Node4</title>
<path fill="none" stroke="midnightblue" d="M106.85,-109.75C105.13,-102.72 102.65,-92.62 100.5,-83.84"/>
<polygon fill="midnightblue" stroke="midnightblue" points="103.89,-82.97 98.11,-74.09 97.09,-84.63 103.89,-82.97"/>
</g>
<!-- Node5 -->
<g id="node5" class="node">
<title>Node5</title>
<g id="a_node5"><a xlink:title=" ">
<polygon fill="none" stroke="#bfbfbf" points="181.5,-19 122.5,-19 122.5,0 181.5,0 181.5,-19"/>
<text text-anchor="middle" x="152" y="-7" font-family="Helvetica,sans-Serif" font-size="10.00">QWidget</text>
</a>
</g>
</g>
<!-- Node3&#45;&gt;Node5 -->
<g id="edge4" class="edge">
<title>Node3&#45;&gt;Node5</title>
<path fill="none" stroke="midnightblue" d="M114.33,-109.89C119.59,-101.11 127.63,-86.98 133,-74 139.06,-59.36 144.1,-42.1 147.46,-29.28"/>
<polygon fill="midnightblue" stroke="midnightblue" points="150.92,-29.87 149.97,-19.32 144.13,-28.17 150.92,-29.87"/>
</g>
<!-- Node3&#45;&gt;Node6 -->
<g id="edge6" class="edge">
<title>Node3&#45;&gt;Node6</title>
<path fill="none" stroke="midnightblue" d="M126.19,-109.98C143.25,-101.54 169.63,-88.47 189.4,-78.68"/>
<polygon fill="midnightblue" stroke="midnightblue" points="191.09,-81.75 198.5,-74.17 187.98,-75.47 191.09,-81.75"/>
</g>
<!-- Node6&#45;&gt;Node5 -->
<g id="edge7" class="edge">
<title>Node6&#45;&gt;Node5</title>
<path fill="none" stroke="midnightblue" d="M205.72,-54.98C196.16,-47.07 181.72,-35.11 170.22,-25.58"/>
<polygon fill="midnightblue" stroke="midnightblue" points="172.4,-22.85 162.47,-19.17 167.94,-28.24 172.4,-22.85"/>
</g>
<!-- Node7 -->
<g id="node7" class="node">
<title>Node7</title>
<g id="a_node7"><a xlink:title=" ">
<polygon fill="none" stroke="#bfbfbf" points="254.5,-19 199.5,-19 199.5,0 254.5,0 254.5,-19"/>
<text text-anchor="middle" x="227" y="-7" font-family="Helvetica,sans-Serif" font-size="10.00">QFrame</text>
</a>
</g>
</g>
<!-- Node6&#45;&gt;Node7 -->
<g id="edge8" class="edge">
<title>Node6&#45;&gt;Node7</title>
<path fill="none" stroke="midnightblue" d="M217.82,-54.75C219.26,-47.8 221.32,-37.85 223.13,-29.13"/>
<polygon fill="midnightblue" stroke="midnightblue" points="226.61,-29.59 225.22,-19.09 219.76,-28.17 226.61,-29.59"/>
</g>
</g>
</svg>
