<?xml version="1.0" encoding="UTF-8" standalone="no"?>
<!DOCTYPE svg PUBLIC "-//W3C//DTD SVG 1.1//EN"
 "http://www.w3.org/Graphics/SVG/1.1/DTD/svg11.dtd">
<!-- Generated by graphviz version 5.0.0 (0)
 -->
<!-- Title: floatimage.h Pages: 1 -->
<svg width="260pt" height="137pt"
 viewBox="0.00 0.00 259.50 137.00" xmlns="http://www.w3.org/2000/svg" xmlns:xlink="http://www.w3.org/1999/xlink">
<g id="graph0" class="graph" transform="scale(1 1) rotate(0) translate(4 133)">
<title>floatimage.h</title>
<!-- Node1 -->
<g id="node1" class="node">
<title>Node1</title>
<g id="a_node1"><a xlink:title=" ">
<polygon fill="#bfbfbf" stroke="black" points="149,-129 71,-129 71,-110 149,-110 149,-129"/>
<text text-anchor="middle" x="110" y="-117" font-family="Helvetica,sans-Serif" font-size="10.00">floatimage.h</text>
</a>
</g>
</g>
<!-- Node2 -->
<g id="node2" class="node">
<title>Node2</title>
<g id="a_node2"><a xlink:title=" ">
<polygon fill="none" stroke="#bfbfbf" points="56,-74 0,-74 0,-55 56,-55 56,-74"/>
<text text-anchor="middle" x="28" y="-62" font-family="Helvetica,sans-Serif" font-size="10.00">QObject</text>
</a>
</g>
</g>
<!-- Node1&#45;&gt;Node2 -->
<g id="edge1" class="edge">
<title>Node1&#45;&gt;Node2</title>
<path fill="none" stroke="midnightblue" d="M96.83,-109.98C84.23,-101.84 65,-89.41 50.06,-79.76"/>
<polygon fill="midnightblue" stroke="midnightblue" points="51.71,-76.66 41.41,-74.17 47.91,-82.54 51.71,-76.66"/>
</g>
<!-- Node3 -->
<g id="node3" class="node">
<title>Node3</title>
<g id="a_node3"><a xlink:title=" ">
<polygon fill="none" stroke="#bfbfbf" points="142.5,-19 83.5,-19 83.5,0 142.5,0 142.5,-19"/>
<text text-anchor="middle" x="113" y="-7" font-family="Helvetica,sans-Serif" font-size="10.00">QWidget</text>
</a>
</g>
</g>
<!-- Node1&#45;&gt;Node3 -->
<g id="edge2" class="edge">
<title>Node1&#45;&gt;Node3</title>
<path fill="none" stroke="midnightblue" d="M107.84,-109.87C105.06,-97.66 100.82,-74.62 103,-55 103.96,-46.34 105.94,-36.91 107.89,-28.97"/>
<polygon fill="midnightblue" stroke="midnightblue" points="111.28,-29.83 110.43,-19.27 104.51,-28.06 111.28,-29.83"/>
</g>
<!-- Node4 -->
<g id="node4" class="node">
<title>Node4</title>
<g id="a_node4"><a xlink:title=" ">
<polygon fill="none" stroke="#bfbfbf" points="162,-74 112,-74 112,-55 162,-55 162,-74"/>
<text text-anchor="middle" x="137" y="-62" font-family="Helvetica,sans-Serif" font-size="10.00">QLabel</text>
</a>
</g>
</g>
<!-- Node1&#45;&gt;Node4 -->
<g id="edge3" class="edge">
<title>Node1&#45;&gt;Node4</title>
<path fill="none" stroke="midnightblue" d="M114.46,-109.75C118.12,-102.57 123.41,-92.18 127.95,-83.27"/>
<polygon fill="midnightblue" stroke="midnightblue" points="131.2,-84.59 132.62,-74.09 124.97,-81.41 131.2,-84.59"/>
</g>
<!-- Node5 -->
<g id="node5" class="node">
<title>Node5</title>
<g id="a_node5"><a xlink:href="container_8h.html" target="_top" xlink:title=" ">
<polygon fill="none" stroke="black" points="251.5,-74 180.5,-74 180.5,-55 251.5,-55 251.5,-74"/>
<text text-anchor="middle" x="216" y="-62" font-family="Helvetica,sans-Serif" font-size="10.00">container.h</text>
</a>
</g>
</g>
<!-- Node1&#45;&gt;Node5 -->
<g id="edge4" class="edge">
<title>Node1&#45;&gt;Node5</title>
<path fill="none" stroke="midnightblue" d="M127.03,-109.98C143.93,-101.54 170.06,-88.47 189.64,-78.68"/>
<polygon fill="midnightblue" stroke="midnightblue" points="191.28,-81.77 198.66,-74.17 188.15,-75.51 191.28,-81.77"/>
</g>
<!-- Node5&#45;&gt;Node3 -->
<g id="edge5" class="edge">
<title>Node5&#45;&gt;Node3</title>
<path fill="none" stroke="midnightblue" d="M199.45,-54.98C183.11,-46.57 157.87,-33.59 138.87,-23.81"/>
<polygon fill="midnightblue" stroke="midnightblue" points="140.34,-20.63 129.85,-19.17 137.14,-26.86 140.34,-20.63"/>
</g>
<!-- Node6 -->
<g id="node6" class="node">
<title>Node6</title>
<g id="a_node6"><a xlink:title=" ">
<polygon fill="none" stroke="#bfbfbf" points="243.5,-19 188.5,-19 188.5,0 243.5,0 243.5,-19"/>
<text text-anchor="middle" x="216" y="-7" font-family="Helvetica,sans-Serif" font-size="10.00">QFrame</text>
</a>
</g>
</g>
<!-- Node5&#45;&gt;Node6 -->
<g id="edge6" class="edge">
<title>Node5&#45;&gt;Node6</title>
<path fill="none" stroke="midnightblue" d="M216,-54.75C216,-47.8 216,-37.85 216,-29.13"/>
<polygon fill="midnightblue" stroke="midnightblue" points="219.5,-29.09 216,-19.09 212.5,-29.09 219.5,-29.09"/>
</g>
</g>
</svg>
