<?xml version="1.0" encoding="UTF-8" standalone="no"?>
<!DOCTYPE svg PUBLIC "-//W3C//DTD SVG 1.1//EN"
 "http://www.w3.org/Graphics/SVG/1.1/DTD/svg11.dtd">
<!-- Generated by graphviz version 5.0.0 (0)
 -->
<!-- Title: floattextedit.cpp Pages: 1 -->
<svg width="1134pt" height="247pt"
 viewBox="0.00 0.00 1133.50 247.00" xmlns="http://www.w3.org/2000/svg" xmlns:xlink="http://www.w3.org/1999/xlink">
<g id="graph0" class="graph" transform="scale(1 1) rotate(0) translate(4 243)">
<title>floattextedit.cpp</title>
<!-- Node1 -->
<g id="node1" class="node">
<title>Node1</title>
<g id="a_node1"><a xlink:title=" ">
<polygon fill="#bfbfbf" stroke="black" points="658,-239 561,-239 561,-220 658,-220 658,-239"/>
<text text-anchor="middle" x="609.5" y="-227" font-family="Helvetica,sans-Serif" font-size="10.00">floattextedit.cpp</text>
</a>
</g>
</g>
<!-- Node2 -->
<g id="node2" class="node">
<title>Node2</title>
<g id="a_node2"><a xlink:href="container_8h.html" target="_top" xlink:title=" ">
<polygon fill="none" stroke="black" points="71,-74 0,-74 0,-55 71,-55 71,-74"/>
<text text-anchor="middle" x="35.5" y="-62" font-family="Helvetica,sans-Serif" font-size="10.00">container.h</text>
</a>
</g>
</g>
<!-- Node1&#45;&gt;Node2 -->
<g id="edge1" class="edge">
<title>Node1&#45;&gt;Node2</title>
<path fill="none" stroke="midnightblue" d="M560.75,-229.22C487.49,-228.88 345.53,-222.65 232.5,-184 161.09,-159.58 87.68,-106.58 54.2,-80.54"/>
<polygon fill="midnightblue" stroke="midnightblue" points="56.23,-77.69 46.21,-74.25 51.9,-83.19 56.23,-77.69"/>
</g>
<!-- Node5 -->
<g id="node5" class="node">
<title>Node5</title>
<g id="a_node5"><a xlink:href="floattextedit_8h.html" target="_top" xlink:title=" ">
<polygon fill="none" stroke="black" points="327.5,-184 241.5,-184 241.5,-165 327.5,-165 327.5,-184"/>
<text text-anchor="middle" x="284.5" y="-172" font-family="Helvetica,sans-Serif" font-size="10.00">floattextedit.h</text>
</a>
</g>
</g>
<!-- Node1&#45;&gt;Node5 -->
<g id="edge4" class="edge">
<title>Node1&#45;&gt;Node5</title>
<path fill="none" stroke="midnightblue" d="M560.84,-220.57C500.88,-210.79 399.34,-194.23 337.46,-184.14"/>
<polygon fill="midnightblue" stroke="midnightblue" points="337.94,-180.67 327.51,-182.51 336.82,-187.58 337.94,-180.67"/>
</g>
<!-- Node7 -->
<g id="node7" class="node">
<title>Node7</title>
<g id="a_node7"><a xlink:href="mainwindow_8h.html" target="_top" xlink:title=" ">
<polygon fill="none" stroke="black" points="399,-129 312,-129 312,-110 399,-110 399,-129"/>
<text text-anchor="middle" x="355.5" y="-117" font-family="Helvetica,sans-Serif" font-size="10.00">mainwindow.h</text>
</a>
</g>
</g>
<!-- Node1&#45;&gt;Node7 -->
<g id="edge18" class="edge">
<title>Node1&#45;&gt;Node7</title>
<path fill="none" stroke="midnightblue" d="M560.87,-225.06C500.54,-219.84 402.35,-207.87 375.5,-184 362.96,-172.85 358.21,-153.92 356.45,-139.63"/>
<polygon fill="midnightblue" stroke="midnightblue" points="359.91,-139.06 355.58,-129.39 352.94,-139.65 359.91,-139.06"/>
</g>
<!-- Node15 -->
<g id="node15" class="node">
<title>Node15</title>
<g id="a_node15"><a xlink:title=" ">
<polygon fill="none" stroke="#bfbfbf" points="485,-184 384,-184 384,-165 485,-165 485,-184"/>
<text text-anchor="middle" x="434.5" y="-172" font-family="Helvetica,sans-Serif" font-size="10.00">ui_mainwindow.h</text>
</a>
</g>
</g>
<!-- Node1&#45;&gt;Node15 -->
<g id="edge19" class="edge">
<title>Node1&#45;&gt;Node15</title>
<path fill="none" stroke="midnightblue" d="M581.38,-219.98C551.88,-211.05 505.31,-196.94 472.53,-187.02"/>
<polygon fill="midnightblue" stroke="midnightblue" points="473.42,-183.63 462.84,-184.08 471.39,-190.33 473.42,-183.63"/>
</g>
<!-- Node16 -->
<g id="node16" class="node">
<title>Node16</title>
<g id="a_node16"><a xlink:href="tabmainwidget_8h.html" target="_top" xlink:title=" ">
<polygon fill="none" stroke="black" points="810,-129 711,-129 711,-110 810,-110 810,-129"/>
<text text-anchor="middle" x="760.5" y="-117" font-family="Helvetica,sans-Serif" font-size="10.00">tabmainwidget.h</text>
</a>
</g>
</g>
<!-- Node1&#45;&gt;Node16 -->
<g id="edge20" class="edge">
<title>Node1&#45;&gt;Node16</title>
<path fill="none" stroke="midnightblue" d="M583.95,-219.91C554.82,-208.76 513.55,-188 532.5,-165 553.44,-139.58 640.44,-128.48 700.7,-123.78"/>
<polygon fill="midnightblue" stroke="midnightblue" points="701.16,-127.26 710.87,-123.03 700.64,-120.28 701.16,-127.26"/>
</g>
<!-- Node17 -->
<g id="node17" class="node">
<title>Node17</title>
<g id="a_node17"><a xlink:title=" ">
<polygon fill="none" stroke="#bfbfbf" points="601.5,-184 541.5,-184 541.5,-165 601.5,-165 601.5,-184"/>
<text text-anchor="middle" x="571.5" y="-172" font-family="Helvetica,sans-Serif" font-size="10.00">iostream</text>
</a>
</g>
</g>
<!-- Node1&#45;&gt;Node17 -->
<g id="edge23" class="edge">
<title>Node1&#45;&gt;Node17</title>
<path fill="none" stroke="midnightblue" d="M603.23,-219.75C597.91,-212.34 590.14,-201.5 583.62,-192.41"/>
<polygon fill="midnightblue" stroke="midnightblue" points="586.33,-190.18 577.66,-184.09 580.64,-194.26 586.33,-190.18"/>
</g>
<!-- Node18 -->
<g id="node18" class="node">
<title>Node18</title>
<g id="a_node18"><a xlink:title=" ">
<polygon fill="none" stroke="#bfbfbf" points="675.5,-184 619.5,-184 619.5,-165 675.5,-165 675.5,-184"/>
<text text-anchor="middle" x="647.5" y="-172" font-family="Helvetica,sans-Serif" font-size="10.00">QObject</text>
</a>
</g>
</g>
<!-- Node1&#45;&gt;Node18 -->
<g id="edge24" class="edge">
<title>Node1&#45;&gt;Node18</title>
<path fill="none" stroke="midnightblue" d="M615.77,-219.75C621.09,-212.34 628.86,-201.5 635.38,-192.41"/>
<polygon fill="midnightblue" stroke="midnightblue" points="638.36,-194.26 641.34,-184.09 632.67,-190.18 638.36,-194.26"/>
</g>
<!-- Node19 -->
<g id="node19" class="node">
<title>Node19</title>
<g id="a_node19"><a xlink:title=" ">
<polygon fill="none" stroke="#bfbfbf" points="763.5,-184 693.5,-184 693.5,-165 763.5,-165 763.5,-184"/>
<text text-anchor="middle" x="728.5" y="-172" font-family="Helvetica,sans-Serif" font-size="10.00">QKeyEvent</text>
</a>
</g>
</g>
<!-- Node1&#45;&gt;Node19 -->
<g id="edge25" class="edge">
<title>Node1&#45;&gt;Node19</title>
<path fill="none" stroke="midnightblue" d="M628.62,-219.98C647.85,-211.42 677.73,-198.11 699.81,-188.28"/>
<polygon fill="midnightblue" stroke="midnightblue" points="701.32,-191.44 709.03,-184.17 698.47,-185.04 701.32,-191.44"/>
</g>
<!-- Node20 -->
<g id="node20" class="node">
<title>Node20</title>
<g id="a_node20"><a xlink:title=" ">
<polygon fill="none" stroke="#bfbfbf" points="861.5,-184 781.5,-184 781.5,-165 861.5,-165 861.5,-184"/>
<text text-anchor="middle" x="821.5" y="-172" font-family="Helvetica,sans-Serif" font-size="10.00">QFocusEvent</text>
</a>
</g>
</g>
<!-- Node1&#45;&gt;Node20 -->
<g id="edge26" class="edge">
<title>Node1&#45;&gt;Node20</title>
<path fill="none" stroke="midnightblue" d="M643.56,-219.98C679.92,-210.89 737.67,-196.46 777.47,-186.51"/>
<polygon fill="midnightblue" stroke="midnightblue" points="778.32,-189.9 787.17,-184.08 776.62,-183.11 778.32,-189.9"/>
</g>
<!-- Node21 -->
<g id="node21" class="node">
<title>Node21</title>
<g id="a_node21"><a xlink:title=" ">
<polygon fill="none" stroke="#bfbfbf" points="959,-184 880,-184 880,-165 959,-165 959,-184"/>
<text text-anchor="middle" x="919.5" y="-172" font-family="Helvetica,sans-Serif" font-size="10.00">QApplication</text>
</a>
</g>
</g>
<!-- Node1&#45;&gt;Node21 -->
<g id="edge27" class="edge">
<title>Node1&#45;&gt;Node21</title>
<path fill="none" stroke="midnightblue" d="M658.09,-220.26C708.36,-211.72 789.44,-197.93 869.64,-184.14"/>
<polygon fill="midnightblue" stroke="midnightblue" points="870.66,-187.52 879.92,-182.38 869.47,-180.62 870.66,-187.52"/>
</g>
<!-- Node22 -->
<g id="node22" class="node">
<title>Node22</title>
<g id="a_node22"><a xlink:title=" ">
<polygon fill="none" stroke="#bfbfbf" points="1045.5,-184 977.5,-184 977.5,-165 1045.5,-165 1045.5,-184"/>
<text text-anchor="middle" x="1011.5" y="-172" font-family="Helvetica,sans-Serif" font-size="10.00">QScrollBar</text>
</a>
</g>
</g>
<!-- Node1&#45;&gt;Node22 -->
<g id="edge28" class="edge">
<title>Node1&#45;&gt;Node22</title>
<path fill="none" stroke="midnightblue" d="M658.14,-223.59C725.35,-216.56 850.62,-202.57 967.11,-184.12"/>
<polygon fill="midnightblue" stroke="midnightblue" points="967.95,-187.53 977.27,-182.5 966.85,-180.62 967.95,-187.53"/>
</g>
<!-- Node23 -->
<g id="node23" class="node">
<title>Node23</title>
<g id="a_node23"><a xlink:title=" ">
<polygon fill="none" stroke="#bfbfbf" points="1125.5,-184 1063.5,-184 1063.5,-165 1125.5,-165 1125.5,-184"/>
<text text-anchor="middle" x="1094.5" y="-172" font-family="Helvetica,sans-Serif" font-size="10.00">QTextList</text>
</a>
</g>
</g>
<!-- Node1&#45;&gt;Node23 -->
<g id="edge29" class="edge">
<title>Node1&#45;&gt;Node23</title>
<path fill="none" stroke="midnightblue" d="M658.12,-225.39C738.34,-219.88 903.59,-206.92 1052.86,-184.1"/>
<polygon fill="midnightblue" stroke="midnightblue" points="1053.77,-187.5 1063.12,-182.51 1052.7,-180.58 1053.77,-187.5"/>
</g>
<!-- Node3 -->
<g id="node3" class="node">
<title>Node3</title>
<g id="a_node3"><a xlink:title=" ">
<polygon fill="none" stroke="#bfbfbf" points="701,-19 642,-19 642,0 701,0 701,-19"/>
<text text-anchor="middle" x="671.5" y="-7" font-family="Helvetica,sans-Serif" font-size="10.00">QWidget</text>
</a>
</g>
</g>
<!-- Node2&#45;&gt;Node3 -->
<g id="edge2" class="edge">
<title>Node2&#45;&gt;Node3</title>
<path fill="none" stroke="midnightblue" d="M71.46,-56.17C74.17,-55.73 76.88,-55.34 79.5,-55 320.88,-23.97 387.45,-53.21 631.46,-19.08"/>
<polygon fill="midnightblue" stroke="midnightblue" points="632.3,-22.49 641.71,-17.62 631.32,-15.56 632.3,-22.49"/>
</g>
<!-- Node4 -->
<g id="node4" class="node">
<title>Node4</title>
<g id="a_node4"><a xlink:title=" ">
<polygon fill="none" stroke="#bfbfbf" points="624,-19 569,-19 569,0 624,0 624,-19"/>
<text text-anchor="middle" x="596.5" y="-7" font-family="Helvetica,sans-Serif" font-size="10.00">QFrame</text>
</a>
</g>
</g>
<!-- Node2&#45;&gt;Node4 -->
<g id="edge3" class="edge">
<title>Node2&#45;&gt;Node4</title>
<path fill="none" stroke="midnightblue" d="M71.47,-56.23C74.18,-55.78 76.88,-55.36 79.5,-55 258.09,-30.13 473.45,-16.95 558.92,-12.38"/>
<polygon fill="midnightblue" stroke="midnightblue" points="559.12,-15.87 568.92,-11.85 558.75,-8.88 559.12,-15.87"/>
</g>
<!-- Node6 -->
<g id="node6" class="node">
<title>Node6</title>
<g id="a_node6"><a xlink:title=" ">
<polygon fill="none" stroke="#bfbfbf" points="294,-129 231,-129 231,-110 294,-110 294,-129"/>
<text text-anchor="middle" x="262.5" y="-117" font-family="Helvetica,sans-Serif" font-size="10.00">QTextEdit</text>
</a>
</g>
</g>
<!-- Node5&#45;&gt;Node6 -->
<g id="edge5" class="edge">
<title>Node5&#45;&gt;Node6</title>
<path fill="none" stroke="midnightblue" d="M280.87,-164.75C277.92,-157.65 273.67,-147.4 269.99,-138.56"/>
<polygon fill="midnightblue" stroke="midnightblue" points="273.13,-136.98 266.07,-129.09 266.67,-139.67 273.13,-136.98"/>
</g>
<!-- Node5&#45;&gt;Node7 -->
<g id="edge6" class="edge">
<title>Node5&#45;&gt;Node7</title>
<path fill="none" stroke="midnightblue" d="M295.91,-164.98C306.61,-157 322.84,-144.88 335.66,-135.31"/>
<polygon fill="midnightblue" stroke="midnightblue" points="337.97,-137.96 343.89,-129.17 333.78,-132.35 337.97,-137.96"/>
</g>
<!-- Node7&#45;&gt;Node2 -->
<g id="edge12" class="edge">
<title>Node7&#45;&gt;Node2</title>
<path fill="none" stroke="midnightblue" d="M311.89,-111.51C244.75,-100.73 120.33,-80.75 81.02,-74.17"/>
<polygon fill="midnightblue" stroke="midnightblue" points="81.47,-70.69 71.02,-72.46 80.29,-77.59 81.47,-70.69"/>
</g>
<!-- Node8 -->
<g id="node8" class="node">
<title>Node8</title>
<g id="a_node8"><a xlink:title=" ">
<polygon fill="none" stroke="#bfbfbf" points="176,-74 89,-74 89,-55 176,-55 176,-74"/>
<text text-anchor="middle" x="132.5" y="-62" font-family="Helvetica,sans-Serif" font-size="10.00">QMainWindow</text>
</a>
</g>
</g>
<!-- Node7&#45;&gt;Node8 -->
<g id="edge7" class="edge">
<title>Node7&#45;&gt;Node8</title>
<path fill="none" stroke="midnightblue" d="M319.67,-109.98C281.34,-100.87 220.42,-86.4 178.55,-76.45"/>
<polygon fill="midnightblue" stroke="midnightblue" points="179.15,-72.99 168.61,-74.08 177.53,-79.8 179.15,-72.99"/>
</g>
<!-- Node9 -->
<g id="node9" class="node">
<title>Node9</title>
<g id="a_node9"><a xlink:title=" ">
<polygon fill="none" stroke="#bfbfbf" points="247,-74 194,-74 194,-55 247,-55 247,-74"/>
<text text-anchor="middle" x="220.5" y="-62" font-family="Helvetica,sans-Serif" font-size="10.00">QString</text>
</a>
</g>
</g>
<!-- Node7&#45;&gt;Node9 -->
<g id="edge8" class="edge">
<title>Node7&#45;&gt;Node9</title>
<path fill="none" stroke="midnightblue" d="M333.81,-109.98C311.7,-101.3 277.18,-87.75 252.05,-77.88"/>
<polygon fill="midnightblue" stroke="midnightblue" points="253.17,-74.57 242.58,-74.17 250.61,-81.08 253.17,-74.57"/>
</g>
<!-- Node10 -->
<g id="node10" class="node">
<title>Node10</title>
<g id="a_node10"><a xlink:title=" ">
<polygon fill="none" stroke="#bfbfbf" points="341.5,-74 265.5,-74 265.5,-55 341.5,-55 341.5,-74"/>
<text text-anchor="middle" x="303.5" y="-62" font-family="Helvetica,sans-Serif" font-size="10.00">QListWidget</text>
</a>
</g>
</g>
<!-- Node7&#45;&gt;Node10 -->
<g id="edge9" class="edge">
<title>Node7&#45;&gt;Node10</title>
<path fill="none" stroke="midnightblue" d="M346.91,-109.75C339.34,-102.03 328.12,-90.6 318.99,-81.28"/>
<polygon fill="midnightblue" stroke="midnightblue" points="321.43,-78.78 311.93,-74.09 316.43,-83.68 321.43,-78.78"/>
</g>
<!-- Node11 -->
<g id="node11" class="node">
<title>Node11</title>
<g id="a_node11"><a xlink:title=" ">
<polygon fill="none" stroke="#bfbfbf" points="455,-74 360,-74 360,-55 455,-55 455,-74"/>
<text text-anchor="middle" x="407.5" y="-62" font-family="Helvetica,sans-Serif" font-size="10.00">QTextDocument</text>
</a>
</g>
</g>
<!-- Node7&#45;&gt;Node11 -->
<g id="edge10" class="edge">
<title>Node7&#45;&gt;Node11</title>
<path fill="none" stroke="midnightblue" d="M364.09,-109.75C371.66,-102.03 382.88,-90.6 392.01,-81.28"/>
<polygon fill="midnightblue" stroke="midnightblue" points="394.57,-83.68 399.07,-74.09 389.57,-78.78 394.57,-83.68"/>
</g>
<!-- Node12 -->
<g id="node12" class="node">
<title>Node12</title>
<g id="a_node12"><a xlink:title=" ">
<polygon fill="none" stroke="#bfbfbf" points="554,-74 473,-74 473,-55 554,-55 554,-74"/>
<text text-anchor="middle" x="513.5" y="-62" font-family="Helvetica,sans-Serif" font-size="10.00">QColorDialog</text>
</a>
</g>
</g>
<!-- Node7&#45;&gt;Node12 -->
<g id="edge11" class="edge">
<title>Node7&#45;&gt;Node12</title>
<path fill="none" stroke="midnightblue" d="M380.89,-109.98C407.3,-101.13 448.85,-87.19 478.39,-77.28"/>
<polygon fill="midnightblue" stroke="midnightblue" points="479.55,-80.58 487.92,-74.08 477.32,-73.94 479.55,-80.58"/>
</g>
<!-- Node13 -->
<g id="node13" class="node">
<title>Node13</title>
<g id="a_node13"><a xlink:href="contextmenu_8h.html" target="_top" xlink:title=" ">
<polygon fill="none" stroke="black" points="805.5,-74 715.5,-74 715.5,-55 805.5,-55 805.5,-74"/>
<text text-anchor="middle" x="760.5" y="-62" font-family="Helvetica,sans-Serif" font-size="10.00">contextmenu.h</text>
</a>
</g>
</g>
<!-- Node7&#45;&gt;Node13 -->
<g id="edge13" class="edge">
<title>Node7&#45;&gt;Node13</title>
<path fill="none" stroke="midnightblue" d="M399.06,-113.4C463.58,-105.76 588.63,-90.59 705.26,-74.14"/>
<polygon fill="midnightblue" stroke="midnightblue" points="706.02,-77.57 715.43,-72.7 705.04,-70.64 706.02,-77.57"/>
</g>
<!-- Node14 -->
<g id="node14" class="node">
<title>Node14</title>
<g id="a_node14"><a xlink:href="colordropdownmenu_8h.html" target="_top" xlink:title=" ">
<polygon fill="none" stroke="black" points="697,-74 572,-74 572,-55 697,-55 697,-74"/>
<text text-anchor="middle" x="634.5" y="-62" font-family="Helvetica,sans-Serif" font-size="10.00">colordropdownmenu.h</text>
</a>
</g>
</g>
<!-- Node7&#45;&gt;Node14 -->
<g id="edge15" class="edge">
<title>Node7&#45;&gt;Node14</title>
<path fill="none" stroke="midnightblue" d="M399.09,-110.22C447.76,-100.97 526.61,-86 579.48,-75.95"/>
<polygon fill="midnightblue" stroke="midnightblue" points="580.19,-79.38 589.36,-74.07 578.89,-72.5 580.19,-79.38"/>
</g>
<!-- Node13&#45;&gt;Node4 -->
<g id="edge14" class="edge">
<title>Node13&#45;&gt;Node4</title>
<path fill="none" stroke="midnightblue" d="M734.15,-54.98C706.74,-46.13 663.61,-32.19 632.94,-22.28"/>
<polygon fill="midnightblue" stroke="midnightblue" points="633.65,-18.83 623.06,-19.08 631.5,-25.49 633.65,-18.83"/>
</g>
<!-- Node14&#45;&gt;Node3 -->
<g id="edge16" class="edge">
<title>Node14&#45;&gt;Node3</title>
<path fill="none" stroke="midnightblue" d="M640.61,-54.75C645.78,-47.34 653.35,-36.5 659.69,-27.41"/>
<polygon fill="midnightblue" stroke="midnightblue" points="662.65,-29.29 665.5,-19.09 656.91,-25.29 662.65,-29.29"/>
</g>
<!-- Node14&#45;&gt;Node4 -->
<g id="edge17" class="edge">
<title>Node14&#45;&gt;Node4</title>
<path fill="none" stroke="midnightblue" d="M628.23,-54.75C622.91,-47.34 615.14,-36.5 608.62,-27.41"/>
<polygon fill="midnightblue" stroke="midnightblue" points="611.33,-25.18 602.66,-19.09 605.64,-29.26 611.33,-25.18"/>
</g>
<!-- Node16&#45;&gt;Node3 -->
<g id="edge21" class="edge">
<title>Node16&#45;&gt;Node3</title>
<path fill="none" stroke="midnightblue" d="M777.09,-109.98C798.06,-98.09 829.68,-75.63 814.5,-55 791.06,-23.16 745.02,-13.45 711.5,-10.8"/>
<polygon fill="midnightblue" stroke="midnightblue" points="711.29,-7.29 701.1,-10.18 710.87,-14.27 711.29,-7.29"/>
</g>
<!-- Node16&#45;&gt;Node13 -->
<g id="edge22" class="edge">
<title>Node16&#45;&gt;Node13</title>
<path fill="none" stroke="midnightblue" d="M760.5,-109.75C760.5,-102.8 760.5,-92.85 760.5,-84.13"/>
<polygon fill="midnightblue" stroke="midnightblue" points="764,-84.09 760.5,-74.09 757,-84.09 764,-84.09"/>
</g>
</g>
</svg>
