<?xml version="1.0" encoding="UTF-8" standalone="no"?>
<!DOCTYPE svg PUBLIC "-//W3C//DTD SVG 1.1//EN"
 "http://www.w3.org/Graphics/SVG/1.1/DTD/svg11.dtd">
<!-- Generated by graphviz version 5.0.0 (0)
 -->
<!-- Title: Graphical Class Hierarchy Pages: 1 -->
<svg width="219pt" height="138pt"
 viewBox="0.00 0.00 219.00 138.00" xmlns="http://www.w3.org/2000/svg" xmlns:xlink="http://www.w3.org/1999/xlink">
<g id="graph0" class="graph" transform="scale(1 1) rotate(0) translate(4 134)">
<title>Graphical Class Hierarchy</title>
<!-- Node0 -->
<g id="node1" class="node">
<title>Node0</title>
<g id="a_node1"><a xlink:title=" ">
<polygon fill="none" stroke="#bfbfbf" points="55,-74 0,-74 0,-55 55,-55 55,-74"/>
<text text-anchor="middle" x="27.5" y="-62" font-family="Helvetica,sans-Serif" font-size="10.00">QFrame</text>
</a>
</g>
</g>
<!-- Node1 -->
<g id="node2" class="node">
<title>Node1</title>
<g id="a_node2"><a xlink:href="class_color_drop_down_menu.html" target="_top" xlink:title=" ">
<polygon fill="none" stroke="black" points="211,-130 91,-130 91,-111 211,-111 211,-130"/>
<text text-anchor="middle" x="151" y="-118" font-family="Helvetica,sans-Serif" font-size="10.00">ColorDropDownMenu</text>
</a>
</g>
</g>
<!-- Node0&#45;&gt;Node1 -->
<g id="edge1" class="edge">
<title>Node0&#45;&gt;Node1</title>
<path fill="none" stroke="midnightblue" d="M50.92,-80.02C62.51,-87.54 77.1,-96.27 91,-102.5 98.13,-105.7 106,-108.53 113.59,-110.96"/>
<polygon fill="midnightblue" stroke="midnightblue" points="52.61,-76.93 42.34,-74.31 48.73,-82.76 52.61,-76.93"/>
</g>
<!-- Node2 -->
<g id="node3" class="node">
<title>Node2</title>
<g id="a_node3"><a xlink:href="class_color_well.html" target="_top" xlink:title="Color container for dialogs and context menus.">
<polygon fill="none" stroke="black" points="182.5,-93 119.5,-93 119.5,-74 182.5,-74 182.5,-93"/>
<text text-anchor="middle" x="151" y="-81" font-family="Helvetica,sans-Serif" font-size="10.00">ColorWell</text>
</a>
</g>
</g>
<!-- Node0&#45;&gt;Node2 -->
<g id="edge2" class="edge">
<title>Node0&#45;&gt;Node2</title>
<path fill="none" stroke="midnightblue" d="M65.4,-70.27C82.57,-72.96 102.76,-76.11 119.11,-78.67"/>
<polygon fill="midnightblue" stroke="midnightblue" points="65.58,-66.76 55.16,-68.67 64.5,-73.67 65.58,-66.76"/>
</g>
<!-- Node3 -->
<g id="node4" class="node">
<title>Node3</title>
<g id="a_node4"><a xlink:href="class_container.html" target="_top" xlink:title="Visible frame for all objects contained on the note page.">
<polygon fill="none" stroke="black" points="183,-56 119,-56 119,-37 183,-37 183,-56"/>
<text text-anchor="middle" x="151" y="-44" font-family="Helvetica,sans-Serif" font-size="10.00">Container</text>
</a>
</g>
</g>
<!-- Node0&#45;&gt;Node3 -->
<g id="edge3" class="edge">
<title>Node0&#45;&gt;Node3</title>
<path fill="none" stroke="midnightblue" d="M65.32,-59.04C82.35,-56.52 102.37,-53.56 118.67,-51.14"/>
<polygon fill="midnightblue" stroke="midnightblue" points="64.54,-55.62 55.16,-60.55 65.57,-62.55 64.54,-55.62"/>
</g>
<!-- Node4 -->
<g id="node5" class="node">
<title>Node4</title>
<g id="a_node5"><a xlink:href="class_context_menu.html" target="_top" xlink:title=" ">
<polygon fill="none" stroke="black" points="192,-19 110,-19 110,0 192,0 192,-19"/>
<text text-anchor="middle" x="151" y="-7" font-family="Helvetica,sans-Serif" font-size="10.00">ContextMenu</text>
</a>
</g>
</g>
<!-- Node0&#45;&gt;Node4 -->
<g id="edge4" class="edge">
<title>Node0&#45;&gt;Node4</title>
<path fill="none" stroke="midnightblue" d="M51.99,-49.4C63.45,-42.43 77.63,-34.42 91,-28.5 98.97,-24.97 107.8,-21.77 116.15,-19.05"/>
<polygon fill="midnightblue" stroke="midnightblue" points="50.09,-46.45 43.44,-54.69 53.78,-52.4 50.09,-46.45"/>
</g>
</g>
</svg>
