<?xml version="1.0" encoding="UTF-8" standalone="no"?>
<!DOCTYPE svg PUBLIC "-//W3C//DTD SVG 1.1//EN"
 "http://www.w3.org/Graphics/SVG/1.1/DTD/svg11.dtd">
<!-- Generated by graphviz version 5.0.0 (0)
 -->
<!-- Title: Graphical Class Hierarchy Pages: 1 -->
<svg width="210pt" height="64pt"
 viewBox="0.00 0.00 210.00 64.00" xmlns="http://www.w3.org/2000/svg" xmlns:xlink="http://www.w3.org/1999/xlink">
<g id="graph0" class="graph" transform="scale(1 1) rotate(0) translate(4 60)">
<title>Graphical Class Hierarchy</title>
<!-- Node0 -->
<g id="node1" class="node">
<title>Node0</title>
<g id="a_node1"><a xlink:title=" ">
<polygon fill="none" stroke="#bfbfbf" points="75,-37 0,-37 0,-18 75,-18 75,-37"/>
<text text-anchor="middle" x="37.5" y="-25" font-family="Helvetica,sans-Serif" font-size="10.00">QTabWidget</text>
</a>
</g>
</g>
<!-- Node1 -->
<g id="node2" class="node">
<title>Node1</title>
<g id="a_node2"><a xlink:href="class_note_tab_widget.html" target="_top" xlink:title=" ">
<polygon fill="none" stroke="black" points="202,-56 111,-56 111,-37 202,-37 202,-56"/>
<text text-anchor="middle" x="156.5" y="-44" font-family="Helvetica,sans-Serif" font-size="10.00">NoteTabWidget</text>
</a>
</g>
</g>
<!-- Node0&#45;&gt;Node1 -->
<g id="edge1" class="edge">
<title>Node0&#45;&gt;Node1</title>
<path fill="none" stroke="midnightblue" d="M85.23,-35.09C93.63,-36.45 102.37,-37.87 110.71,-39.23"/>
<polygon fill="midnightblue" stroke="midnightblue" points="85.63,-31.61 75.2,-33.46 84.51,-38.52 85.63,-31.61"/>
</g>
<!-- Node2 -->
<g id="node3" class="node">
<title>Node2</title>
<g id="a_node3"><a xlink:href="class_ribbon_bar.html" target="_top" xlink:title=" ">
<polygon fill="none" stroke="black" points="190,-19 123,-19 123,0 190,0 190,-19"/>
<text text-anchor="middle" x="156.5" y="-7" font-family="Helvetica,sans-Serif" font-size="10.00">RibbonBar</text>
</a>
</g>
</g>
<!-- Node0&#45;&gt;Node2 -->
<g id="edge2" class="edge">
<title>Node0&#45;&gt;Node2</title>
<path fill="none" stroke="midnightblue" d="M85.13,-20.33C97.78,-18.38 111.2,-16.32 122.89,-14.52"/>
<polygon fill="midnightblue" stroke="midnightblue" points="84.55,-16.87 75.2,-21.85 85.61,-23.79 84.55,-16.87"/>
</g>
</g>
</svg>
