<?xml version="1.0" encoding="UTF-8" standalone="no"?>
<!DOCTYPE svg PUBLIC "-//W3C//DTD SVG 1.1//EN"
 "http://www.w3.org/Graphics/SVG/1.1/DTD/svg11.dtd">
<!-- Generated by graphviz version 5.0.0 (0)
 -->
<!-- Title: mainwindow.h Pages: 1 -->
<svg width="606pt" height="137pt"
 viewBox="0.00 0.00 605.50 137.00" xmlns="http://www.w3.org/2000/svg" xmlns:xlink="http://www.w3.org/1999/xlink">
<g id="graph0" class="graph" transform="scale(1 1) rotate(0) translate(4 133)">
<title>mainwindow.h</title>
<!-- Node1 -->
<g id="node1" class="node">
<title>Node1</title>
<g id="a_node1"><a xlink:title=" ">
<polygon fill="#bfbfbf" stroke="black" points="282,-129 195,-129 195,-110 282,-110 282,-129"/>
<text text-anchor="middle" x="238.5" y="-117" font-family="Helvetica,sans-Serif" font-size="10.00">mainwindow.h</text>
</a>
</g>
</g>
<!-- Node2 -->
<g id="node2" class="node">
<title>Node2</title>
<g id="a_node2"><a xlink:href="colordropdownmenu_8cpp.html" target="_top" xlink:title=" ">
<polygon fill="none" stroke="black" points="137,-74 0,-74 0,-55 137,-55 137,-74"/>
<text text-anchor="middle" x="68.5" y="-62" font-family="Helvetica,sans-Serif" font-size="10.00">colordropdownmenu.cpp</text>
</a>
</g>
</g>
<!-- Node1&#45;&gt;Node2 -->
<g id="edge1" class="edge">
<title>Node1&#45;&gt;Node2</title>
<path fill="none" stroke="midnightblue" d="M201.38,-106.93C169.63,-97.03 124.65,-83.01 96.03,-74.08"/>
<polygon fill="midnightblue" stroke="midnightblue" points="200.6,-110.35 211.19,-109.98 202.68,-103.67 200.6,-110.35"/>
</g>
<!-- Node3 -->
<g id="node3" class="node">
<title>Node3</title>
<g id="a_node3"><a xlink:href="container_8cpp.html" target="_top" xlink:title=" ">
<polygon fill="none" stroke="black" points="111.5,-19 29.5,-19 29.5,0 111.5,0 111.5,-19"/>
<text text-anchor="middle" x="70.5" y="-7" font-family="Helvetica,sans-Serif" font-size="10.00">container.cpp</text>
</a>
</g>
</g>
<!-- Node1&#45;&gt;Node3 -->
<g id="edge2" class="edge">
<title>Node1&#45;&gt;Node3</title>
<path fill="none" stroke="midnightblue" d="M218,-103.95C199.32,-90.83 170.86,-71.16 145.5,-55 125.07,-41.98 100.88,-27.85 85.61,-19.09"/>
<polygon fill="midnightblue" stroke="midnightblue" points="216.14,-106.92 226.33,-109.83 220.18,-101.2 216.14,-106.92"/>
</g>
<!-- Node4 -->
<g id="node4" class="node">
<title>Node4</title>
<g id="a_node4"><a xlink:href="floattextedit_8cpp.html" target="_top" xlink:title=" ">
<polygon fill="none" stroke="black" points="227,-19 130,-19 130,0 227,0 227,-19"/>
<text text-anchor="middle" x="178.5" y="-7" font-family="Helvetica,sans-Serif" font-size="10.00">floattextedit.cpp</text>
</a>
</g>
</g>
<!-- Node1&#45;&gt;Node4 -->
<g id="edge3" class="edge">
<title>Node1&#45;&gt;Node4</title>
<path fill="none" stroke="midnightblue" d="M228.64,-100.76C215.6,-77.28 193.12,-36.81 183.31,-19.16"/>
<polygon fill="midnightblue" stroke="midnightblue" points="225.67,-102.62 233.59,-109.66 231.79,-99.22 225.67,-102.62"/>
</g>
<!-- Node5 -->
<g id="node5" class="node">
<title>Node5</title>
<g id="a_node5"><a xlink:href="floattextedit_8h.html" target="_top" xlink:title=" ">
<polygon fill="none" stroke="black" points="317.5,-74 231.5,-74 231.5,-55 317.5,-55 317.5,-74"/>
<text text-anchor="middle" x="274.5" y="-62" font-family="Helvetica,sans-Serif" font-size="10.00">floattextedit.h</text>
</a>
</g>
</g>
<!-- Node1&#45;&gt;Node5 -->
<g id="edge4" class="edge">
<title>Node1&#45;&gt;Node5</title>
<path fill="none" stroke="midnightblue" d="M250.12,-101.39C256.32,-92.27 263.67,-81.45 268.67,-74.09"/>
<polygon fill="midnightblue" stroke="midnightblue" points="247.17,-99.51 244.44,-109.75 252.96,-103.44 247.17,-99.51"/>
</g>
<!-- Node6 -->
<g id="node6" class="node">
<title>Node6</title>
<g id="a_node6"><a xlink:href="mainwindow_8cpp.html" target="_top" xlink:title=" ">
<polygon fill="none" stroke="black" points="597.5,-19 499.5,-19 499.5,0 597.5,0 597.5,-19"/>
<text text-anchor="middle" x="548.5" y="-7" font-family="Helvetica,sans-Serif" font-size="10.00">mainwindow.cpp</text>
</a>
</g>
</g>
<!-- Node1&#45;&gt;Node6 -->
<g id="edge11" class="edge">
<title>Node1&#45;&gt;Node6</title>
<path fill="none" stroke="midnightblue" d="M264.65,-105.28C301.18,-86.81 363.2,-55.48 364.5,-55 409.23,-38.57 462.32,-26.47 499.95,-19.08"/>
<polygon fill="midnightblue" stroke="midnightblue" points="262.87,-102.25 255.53,-109.89 266.03,-108.5 262.87,-102.25"/>
</g>
<!-- Node9 -->
<g id="node9" class="node">
<title>Node9</title>
<g id="a_node9"><a xlink:href="main_8cpp.html" target="_top" xlink:title=" ">
<polygon fill="none" stroke="black" points="435.5,-74 373.5,-74 373.5,-55 435.5,-55 435.5,-74"/>
<text text-anchor="middle" x="404.5" y="-62" font-family="Helvetica,sans-Serif" font-size="10.00">main.cpp</text>
</a>
</g>
</g>
<!-- Node1&#45;&gt;Node9 -->
<g id="edge10" class="edge">
<title>Node1&#45;&gt;Node9</title>
<path fill="none" stroke="midnightblue" d="M274.75,-106.93C305.75,-97.03 349.67,-83.01 377.62,-74.08"/>
<polygon fill="midnightblue" stroke="midnightblue" points="273.63,-103.61 265.17,-109.98 275.76,-110.28 273.63,-103.61"/>
</g>
<!-- Node5&#45;&gt;Node3 -->
<g id="edge5" class="edge">
<title>Node5&#45;&gt;Node3</title>
<path fill="none" stroke="midnightblue" d="M231.92,-52.44C193.73,-42.52 138.48,-28.16 103.53,-19.08"/>
<polygon fill="midnightblue" stroke="midnightblue" points="231.17,-55.86 241.72,-54.98 232.93,-49.08 231.17,-55.86"/>
</g>
<!-- Node5&#45;&gt;Node4 -->
<g id="edge6" class="edge">
<title>Node5&#45;&gt;Node4</title>
<path fill="none" stroke="midnightblue" d="M249.98,-49.97C232.44,-40.28 209.33,-27.52 194.2,-19.17"/>
<polygon fill="midnightblue" stroke="midnightblue" points="248.63,-53.22 259.08,-54.98 252.01,-47.09 248.63,-53.22"/>
</g>
<!-- Node5&#45;&gt;Node6 -->
<g id="edge7" class="edge">
<title>Node5&#45;&gt;Node6</title>
<path fill="none" stroke="midnightblue" d="M327.54,-53.24C378.96,-43.29 456.07,-28.38 504.28,-19.05"/>
<polygon fill="midnightblue" stroke="midnightblue" points="326.77,-49.82 317.61,-55.16 328.1,-56.7 326.77,-49.82"/>
</g>
<!-- Node7 -->
<g id="node7" class="node">
<title>Node7</title>
<g id="a_node7"><a xlink:href="notetabwidget_8cpp.html" target="_top" xlink:title=" ">
<polygon fill="none" stroke="black" points="481,-19 374,-19 374,0 481,0 481,-19"/>
<text text-anchor="middle" x="427.5" y="-7" font-family="Helvetica,sans-Serif" font-size="10.00">notetabwidget.cpp</text>
</a>
</g>
</g>
<!-- Node5&#45;&gt;Node7 -->
<g id="edge8" class="edge">
<title>Node5&#45;&gt;Node7</title>
<path fill="none" stroke="midnightblue" d="M308.65,-51.67C337.18,-41.79 377.19,-27.93 402.73,-19.08"/>
<polygon fill="midnightblue" stroke="midnightblue" points="307.39,-48.4 299.08,-54.98 309.68,-55.02 307.39,-48.4"/>
</g>
<!-- Node8 -->
<g id="node8" class="node">
<title>Node8</title>
<g id="a_node8"><a xlink:href="tabmainwidget_8cpp.html" target="_top" xlink:title=" ">
<polygon fill="none" stroke="black" points="355.5,-19 245.5,-19 245.5,0 355.5,0 355.5,-19"/>
<text text-anchor="middle" x="300.5" y="-7" font-family="Helvetica,sans-Serif" font-size="10.00">tabmainwidget.cpp</text>
</a>
</g>
</g>
<!-- Node5&#45;&gt;Node8 -->
<g id="edge9" class="edge">
<title>Node5&#45;&gt;Node8</title>
<path fill="none" stroke="midnightblue" d="M283.32,-45.53C287.7,-36.6 292.79,-26.22 296.29,-19.09"/>
<polygon fill="midnightblue" stroke="midnightblue" points="280.06,-44.23 278.79,-54.75 286.34,-47.31 280.06,-44.23"/>
</g>
</g>
</svg>
