<?xml version="1.0" encoding="UTF-8" standalone="no"?>
<!DOCTYPE svg PUBLIC "-//W3C//DTD SVG 1.1//EN"
 "http://www.w3.org/Graphics/SVG/1.1/DTD/svg11.dtd">
<!-- Generated by graphviz version 5.0.0 (0)
 -->
<!-- Title: main.cpp Pages: 1 -->
<svg width="814pt" height="192pt"
 viewBox="0.00 0.00 813.50 192.00" xmlns="http://www.w3.org/2000/svg" xmlns:xlink="http://www.w3.org/1999/xlink">
<g id="graph0" class="graph" transform="scale(1 1) rotate(0) translate(4 188)">
<title>main.cpp</title>
<!-- Node1 -->
<g id="node1" class="node">
<title>Node1</title>
<g id="a_node1"><a xlink:title=" ">
<polygon fill="#bfbfbf" stroke="black" points="545.5,-184 483.5,-184 483.5,-165 545.5,-165 545.5,-184"/>
<text text-anchor="middle" x="514.5" y="-172" font-family="Helvetica,sans-Serif" font-size="10.00">main.cpp</text>
</a>
</g>
</g>
<!-- Node2 -->
<g id="node2" class="node">
<title>Node2</title>
<g id="a_node2"><a xlink:href="mainwindow_8h.html" target="_top" xlink:title=" ">
<polygon fill="none" stroke="black" points="415,-129 328,-129 328,-110 415,-110 415,-129"/>
<text text-anchor="middle" x="371.5" y="-117" font-family="Helvetica,sans-Serif" font-size="10.00">mainwindow.h</text>
</a>
</g>
</g>
<!-- Node1&#45;&gt;Node2 -->
<g id="edge1" class="edge">
<title>Node1&#45;&gt;Node2</title>
<path fill="none" stroke="midnightblue" d="M491.52,-164.98C468,-156.27 431.21,-142.63 404.56,-132.75"/>
<polygon fill="midnightblue" stroke="midnightblue" points="405.49,-129.36 394.89,-129.17 403.05,-135.93 405.49,-129.36"/>
</g>
<!-- Node13 -->
<g id="node13" class="node">
<title>Node13</title>
<g id="a_node13"><a xlink:title=" ">
<polygon fill="none" stroke="#bfbfbf" points="512,-129 433,-129 433,-110 512,-110 512,-129"/>
<text text-anchor="middle" x="472.5" y="-117" font-family="Helvetica,sans-Serif" font-size="10.00">QApplication</text>
</a>
</g>
</g>
<!-- Node1&#45;&gt;Node13 -->
<g id="edge15" class="edge">
<title>Node1&#45;&gt;Node13</title>
<path fill="none" stroke="midnightblue" d="M507.56,-164.75C501.63,-157.26 492.93,-146.28 485.68,-137.13"/>
<polygon fill="midnightblue" stroke="midnightblue" points="488.26,-134.75 479.31,-129.09 482.77,-139.1 488.26,-134.75"/>
</g>
<!-- Node14 -->
<g id="node14" class="node">
<title>Node14</title>
<g id="a_node14"><a xlink:title=" ">
<polygon fill="none" stroke="#bfbfbf" points="585.5,-129 529.5,-129 529.5,-110 585.5,-110 585.5,-129"/>
<text text-anchor="middle" x="557.5" y="-117" font-family="Helvetica,sans-Serif" font-size="10.00">QLocale</text>
</a>
</g>
</g>
<!-- Node1&#45;&gt;Node14 -->
<g id="edge16" class="edge">
<title>Node1&#45;&gt;Node14</title>
<path fill="none" stroke="midnightblue" d="M521.6,-164.75C527.67,-157.26 536.59,-146.28 544.01,-137.13"/>
<polygon fill="midnightblue" stroke="midnightblue" points="546.95,-139.06 550.53,-129.09 541.51,-134.65 546.95,-139.06"/>
</g>
<!-- Node15 -->
<g id="node15" class="node">
<title>Node15</title>
<g id="a_node15"><a xlink:title=" ">
<polygon fill="none" stroke="#bfbfbf" points="675.5,-129 603.5,-129 603.5,-110 675.5,-110 675.5,-129"/>
<text text-anchor="middle" x="639.5" y="-117" font-family="Helvetica,sans-Serif" font-size="10.00">QTranslator</text>
</a>
</g>
</g>
<!-- Node1&#45;&gt;Node15 -->
<g id="edge17" class="edge">
<title>Node1&#45;&gt;Node15</title>
<path fill="none" stroke="midnightblue" d="M534.58,-164.98C554.87,-156.38 586.46,-142.99 609.67,-133.15"/>
<polygon fill="midnightblue" stroke="midnightblue" points="611.21,-136.3 619.05,-129.17 608.48,-129.85 611.21,-136.3"/>
</g>
<!-- Node3 -->
<g id="node3" class="node">
<title>Node3</title>
<g id="a_node3"><a xlink:title=" ">
<polygon fill="none" stroke="#bfbfbf" points="87,-74 0,-74 0,-55 87,-55 87,-74"/>
<text text-anchor="middle" x="43.5" y="-62" font-family="Helvetica,sans-Serif" font-size="10.00">QMainWindow</text>
</a>
</g>
</g>
<!-- Node2&#45;&gt;Node3 -->
<g id="edge2" class="edge">
<title>Node2&#45;&gt;Node3</title>
<path fill="none" stroke="midnightblue" d="M327.99,-111.52C275.63,-103.1 184.73,-88.48 97.28,-74.29"/>
<polygon fill="midnightblue" stroke="midnightblue" points="97.62,-70.8 87.19,-72.65 96.5,-77.71 97.62,-70.8"/>
</g>
<!-- Node4 -->
<g id="node4" class="node">
<title>Node4</title>
<g id="a_node4"><a xlink:title=" ">
<polygon fill="none" stroke="#bfbfbf" points="158,-74 105,-74 105,-55 158,-55 158,-74"/>
<text text-anchor="middle" x="131.5" y="-62" font-family="Helvetica,sans-Serif" font-size="10.00">QString</text>
</a>
</g>
</g>
<!-- Node2&#45;&gt;Node4 -->
<g id="edge3" class="edge">
<title>Node2&#45;&gt;Node4</title>
<path fill="none" stroke="midnightblue" d="M331.2,-109.92C292.11,-101.55 230.85,-88.32 168.28,-74.15"/>
<polygon fill="midnightblue" stroke="midnightblue" points="168.75,-70.66 158.22,-71.86 167.2,-77.49 168.75,-70.66"/>
</g>
<!-- Node5 -->
<g id="node5" class="node">
<title>Node5</title>
<g id="a_node5"><a xlink:title=" ">
<polygon fill="none" stroke="#bfbfbf" points="252.5,-74 176.5,-74 176.5,-55 252.5,-55 252.5,-74"/>
<text text-anchor="middle" x="214.5" y="-62" font-family="Helvetica,sans-Serif" font-size="10.00">QListWidget</text>
</a>
</g>
</g>
<!-- Node2&#45;&gt;Node5 -->
<g id="edge4" class="edge">
<title>Node2&#45;&gt;Node5</title>
<path fill="none" stroke="midnightblue" d="M346.28,-109.98C320.14,-101.16 279.1,-87.31 249.77,-77.41"/>
<polygon fill="midnightblue" stroke="midnightblue" points="250.52,-73.96 239.92,-74.08 248.28,-80.6 250.52,-73.96"/>
</g>
<!-- Node6 -->
<g id="node6" class="node">
<title>Node6</title>
<g id="a_node6"><a xlink:title=" ">
<polygon fill="none" stroke="#bfbfbf" points="366,-74 271,-74 271,-55 366,-55 366,-74"/>
<text text-anchor="middle" x="318.5" y="-62" font-family="Helvetica,sans-Serif" font-size="10.00">QTextDocument</text>
</a>
</g>
</g>
<!-- Node2&#45;&gt;Node6 -->
<g id="edge5" class="edge">
<title>Node2&#45;&gt;Node6</title>
<path fill="none" stroke="midnightblue" d="M362.75,-109.75C355.03,-102.03 343.6,-90.6 334.28,-81.28"/>
<polygon fill="midnightblue" stroke="midnightblue" points="336.64,-78.69 327.09,-74.09 331.69,-83.64 336.64,-78.69"/>
</g>
<!-- Node7 -->
<g id="node7" class="node">
<title>Node7</title>
<g id="a_node7"><a xlink:title=" ">
<polygon fill="none" stroke="#bfbfbf" points="465,-74 384,-74 384,-55 465,-55 465,-74"/>
<text text-anchor="middle" x="424.5" y="-62" font-family="Helvetica,sans-Serif" font-size="10.00">QColorDialog</text>
</a>
</g>
</g>
<!-- Node2&#45;&gt;Node7 -->
<g id="edge6" class="edge">
<title>Node2&#45;&gt;Node7</title>
<path fill="none" stroke="midnightblue" d="M380.25,-109.75C387.97,-102.03 399.4,-90.6 408.72,-81.28"/>
<polygon fill="midnightblue" stroke="midnightblue" points="411.31,-83.64 415.91,-74.09 406.36,-78.69 411.31,-83.64"/>
</g>
<!-- Node8 -->
<g id="node8" class="node">
<title>Node8</title>
<g id="a_node8"><a xlink:href="container_8h.html" target="_top" xlink:title=" ">
<polygon fill="none" stroke="black" points="554,-74 483,-74 483,-55 554,-55 554,-74"/>
<text text-anchor="middle" x="518.5" y="-62" font-family="Helvetica,sans-Serif" font-size="10.00">container.h</text>
</a>
</g>
</g>
<!-- Node2&#45;&gt;Node8 -->
<g id="edge7" class="edge">
<title>Node2&#45;&gt;Node8</title>
<path fill="none" stroke="midnightblue" d="M395.12,-109.98C419.4,-101.23 457.45,-87.51 484.87,-77.62"/>
<polygon fill="midnightblue" stroke="midnightblue" points="486.23,-80.85 494.45,-74.17 483.86,-74.27 486.23,-80.85"/>
</g>
<!-- Node11 -->
<g id="node11" class="node">
<title>Node11</title>
<g id="a_node11"><a xlink:href="contextmenu_8h.html" target="_top" xlink:title=" ">
<polygon fill="none" stroke="black" points="805.5,-74 715.5,-74 715.5,-55 805.5,-55 805.5,-74"/>
<text text-anchor="middle" x="760.5" y="-62" font-family="Helvetica,sans-Serif" font-size="10.00">contextmenu.h</text>
</a>
</g>
</g>
<!-- Node2&#45;&gt;Node11 -->
<g id="edge10" class="edge">
<title>Node2&#45;&gt;Node11</title>
<path fill="none" stroke="midnightblue" d="M415.18,-111.25C417.99,-110.81 420.78,-110.39 423.5,-110 545.79,-92.23 579.29,-91.87 705.39,-74.12"/>
<polygon fill="midnightblue" stroke="midnightblue" points="706.02,-77.56 715.43,-72.7 705.04,-70.63 706.02,-77.56"/>
</g>
<!-- Node12 -->
<g id="node12" class="node">
<title>Node12</title>
<g id="a_node12"><a xlink:href="colordropdownmenu_8h.html" target="_top" xlink:title=" ">
<polygon fill="none" stroke="black" points="697,-74 572,-74 572,-55 697,-55 697,-74"/>
<text text-anchor="middle" x="634.5" y="-62" font-family="Helvetica,sans-Serif" font-size="10.00">colordropdownmenu.h</text>
</a>
</g>
</g>
<!-- Node2&#45;&gt;Node12 -->
<g id="edge12" class="edge">
<title>Node2&#45;&gt;Node12</title>
<path fill="none" stroke="midnightblue" d="M413.76,-109.98C459.54,-100.76 532.64,-86.03 582.05,-76.07"/>
<polygon fill="midnightblue" stroke="midnightblue" points="582.8,-79.49 591.91,-74.08 581.42,-72.63 582.8,-79.49"/>
</g>
<!-- Node9 -->
<g id="node9" class="node">
<title>Node9</title>
<g id="a_node9"><a xlink:title=" ">
<polygon fill="none" stroke="#bfbfbf" points="569,-19 510,-19 510,0 569,0 569,-19"/>
<text text-anchor="middle" x="539.5" y="-7" font-family="Helvetica,sans-Serif" font-size="10.00">QWidget</text>
</a>
</g>
</g>
<!-- Node8&#45;&gt;Node9 -->
<g id="edge8" class="edge">
<title>Node8&#45;&gt;Node9</title>
<path fill="none" stroke="midnightblue" d="M521.97,-54.75C524.78,-47.65 528.84,-37.4 532.35,-28.56"/>
<polygon fill="midnightblue" stroke="midnightblue" points="535.67,-29.68 536.1,-19.09 529.16,-27.1 535.67,-29.68"/>
</g>
<!-- Node10 -->
<g id="node10" class="node">
<title>Node10</title>
<g id="a_node10"><a xlink:title=" ">
<polygon fill="none" stroke="#bfbfbf" points="662,-19 607,-19 607,0 662,0 662,-19"/>
<text text-anchor="middle" x="634.5" y="-7" font-family="Helvetica,sans-Serif" font-size="10.00">QFrame</text>
</a>
</g>
</g>
<!-- Node8&#45;&gt;Node10 -->
<g id="edge9" class="edge">
<title>Node8&#45;&gt;Node10</title>
<path fill="none" stroke="midnightblue" d="M537.14,-54.98C555.8,-46.46 584.75,-33.23 606.24,-23.41"/>
<polygon fill="midnightblue" stroke="midnightblue" points="607.88,-26.51 615.52,-19.17 604.97,-20.14 607.88,-26.51"/>
</g>
<!-- Node11&#45;&gt;Node10 -->
<g id="edge11" class="edge">
<title>Node11&#45;&gt;Node10</title>
<path fill="none" stroke="midnightblue" d="M740.26,-54.98C719.8,-46.38 687.97,-32.99 664.57,-23.15"/>
<polygon fill="midnightblue" stroke="midnightblue" points="665.69,-19.82 655.11,-19.17 662.97,-26.27 665.69,-19.82"/>
</g>
<!-- Node12&#45;&gt;Node9 -->
<g id="edge13" class="edge">
<title>Node12&#45;&gt;Node9</title>
<path fill="none" stroke="midnightblue" d="M619.24,-54.98C604.37,-46.69 581.52,-33.94 564.08,-24.22"/>
<polygon fill="midnightblue" stroke="midnightblue" points="565.48,-20.99 555.04,-19.17 562.07,-27.1 565.48,-20.99"/>
</g>
<!-- Node12&#45;&gt;Node10 -->
<g id="edge14" class="edge">
<title>Node12&#45;&gt;Node10</title>
<path fill="none" stroke="midnightblue" d="M634.5,-54.75C634.5,-47.8 634.5,-37.85 634.5,-29.13"/>
<polygon fill="midnightblue" stroke="midnightblue" points="638,-29.09 634.5,-19.09 631,-29.09 638,-29.09"/>
</g>
</g>
</svg>
