<?xml version="1.0" encoding="UTF-8" standalone="no"?>
<!DOCTYPE svg PUBLIC "-//W3C//DTD SVG 1.1//EN"
 "http://www.w3.org/Graphics/SVG/1.1/DTD/svg11.dtd">
<!-- Generated by graphviz version 5.0.0 (0)
 -->
<!-- Title: mainwindow.cpp Pages: 1 -->
<svg width="2687pt" height="247pt"
 viewBox="0.00 0.00 2686.50 247.00" xmlns="http://www.w3.org/2000/svg" xmlns:xlink="http://www.w3.org/1999/xlink">
<g id="graph0" class="graph" transform="scale(1 1) rotate(0) translate(4 243)">
<title>mainwindow.cpp</title>
<!-- Node1 -->
<g id="node1" class="node">
<title>Node1</title>
<g id="a_node1"><a xlink:title=" ">
<polygon fill="#bfbfbf" stroke="black" points="1267.5,-239 1169.5,-239 1169.5,-220 1267.5,-220 1267.5,-239"/>
<text text-anchor="middle" x="1218.5" y="-227" font-family="Helvetica,sans-Serif" font-size="10.00">mainwindow.cpp</text>
</a>
</g>
</g>
<!-- Node2 -->
<g id="node2" class="node">
<title>Node2</title>
<g id="a_node2"><a xlink:href="mainwindow_8h.html" target="_top" xlink:title=" ">
<polygon fill="none" stroke="black" points="370,-129 283,-129 283,-110 370,-110 370,-129"/>
<text text-anchor="middle" x="326.5" y="-117" font-family="Helvetica,sans-Serif" font-size="10.00">mainwindow.h</text>
</a>
</g>
</g>
<!-- Node1&#45;&gt;Node2 -->
<g id="edge1" class="edge">
<title>Node1&#45;&gt;Node2</title>
<path fill="none" stroke="midnightblue" d="M1169.47,-227.97C983.77,-225.72 332.61,-215.61 302.5,-184 290.11,-171 300.98,-150.98 311.8,-136.9"/>
<polygon fill="midnightblue" stroke="midnightblue" points="314.64,-138.95 318.32,-129.02 309.25,-134.49 314.64,-138.95"/>
</g>
<!-- Node4 -->
<g id="node4" class="node">
<title>Node4</title>
<g id="a_node4"><a xlink:title=" ">
<polygon fill="none" stroke="#bfbfbf" points="53,-74 0,-74 0,-55 53,-55 53,-74"/>
<text text-anchor="middle" x="26.5" y="-62" font-family="Helvetica,sans-Serif" font-size="10.00">QString</text>
</a>
</g>
</g>
<!-- Node1&#45;&gt;Node4 -->
<g id="edge34" class="edge">
<title>Node1&#45;&gt;Node4</title>
<path fill="none" stroke="midnightblue" d="M1169.33,-227.69C981.89,-224.39 318.09,-210.91 227.5,-184 153.71,-162.08 78.72,-107.41 44.97,-80.69"/>
<polygon fill="midnightblue" stroke="midnightblue" points="46.93,-77.77 36.94,-74.24 42.54,-83.23 46.93,-77.77"/>
</g>
<!-- Node6 -->
<g id="node6" class="node">
<title>Node6</title>
<g id="a_node6"><a xlink:title=" ">
<polygon fill="none" stroke="#bfbfbf" points="166,-74 71,-74 71,-55 166,-55 166,-74"/>
<text text-anchor="middle" x="118.5" y="-62" font-family="Helvetica,sans-Serif" font-size="10.00">QTextDocument</text>
</a>
</g>
</g>
<!-- Node1&#45;&gt;Node6 -->
<g id="edge46" class="edge">
<title>Node1&#45;&gt;Node6</title>
<path fill="none" stroke="midnightblue" d="M1169.33,-227.97C986.5,-225.74 352.12,-215.78 267.5,-184 209.71,-162.29 156.93,-109.18 132.61,-82.04"/>
<polygon fill="midnightblue" stroke="midnightblue" points="134.97,-79.43 125.75,-74.22 129.71,-84.04 134.97,-79.43"/>
</g>
<!-- Node7 -->
<g id="node7" class="node">
<title>Node7</title>
<g id="a_node7"><a xlink:title=" ">
<polygon fill="none" stroke="#bfbfbf" points="265,-74 184,-74 184,-55 265,-55 265,-74"/>
<text text-anchor="middle" x="224.5" y="-62" font-family="Helvetica,sans-Serif" font-size="10.00">QColorDialog</text>
</a>
</g>
</g>
<!-- Node1&#45;&gt;Node7 -->
<g id="edge52" class="edge">
<title>Node1&#45;&gt;Node7</title>
<path fill="none" stroke="midnightblue" d="M1169.29,-228.85C988.63,-229.77 368.52,-229.56 293.5,-184 256.48,-161.52 237.23,-111.14 229.19,-83.87"/>
<polygon fill="midnightblue" stroke="midnightblue" points="232.51,-82.76 226.49,-74.05 225.76,-84.62 232.51,-82.76"/>
</g>
<!-- Node12 -->
<g id="node12" class="node">
<title>Node12</title>
<g id="a_node12"><a xlink:href="colordropdownmenu_8h.html" target="_top" xlink:title=" ">
<polygon fill="none" stroke="black" points="608,-74 483,-74 483,-55 608,-55 608,-74"/>
<text text-anchor="middle" x="545.5" y="-62" font-family="Helvetica,sans-Serif" font-size="10.00">colordropdownmenu.h</text>
</a>
</g>
</g>
<!-- Node1&#45;&gt;Node12 -->
<g id="edge27" class="edge">
<title>Node1&#45;&gt;Node12</title>
<path fill="none" stroke="midnightblue" d="M1169.36,-227.32C1035.12,-223.74 669.04,-211.55 622.5,-184 584.09,-161.26 561.38,-110.99 551.46,-83.81"/>
<polygon fill="midnightblue" stroke="midnightblue" points="554.65,-82.33 548.08,-74.02 548.04,-84.61 554.65,-82.33"/>
</g>
<!-- Node13 -->
<g id="node13" class="node">
<title>Node13</title>
<g id="a_node13"><a xlink:title=" ">
<polygon fill="none" stroke="#bfbfbf" points="517,-184 416,-184 416,-165 517,-165 517,-184"/>
<text text-anchor="middle" x="466.5" y="-172" font-family="Helvetica,sans-Serif" font-size="10.00">ui_mainwindow.h</text>
</a>
</g>
</g>
<!-- Node1&#45;&gt;Node13 -->
<g id="edge15" class="edge">
<title>Node1&#45;&gt;Node13</title>
<path fill="none" stroke="midnightblue" d="M1169.26,-226.42C1056.32,-221.4 770,-207.29 531.5,-184 530.19,-183.87 528.87,-183.74 527.54,-183.6"/>
<polygon fill="midnightblue" stroke="midnightblue" points="527.53,-180.08 517.21,-182.46 526.76,-187.04 527.53,-180.08"/>
</g>
<!-- Node14 -->
<g id="node14" class="node">
<title>Node14</title>
<g id="a_node14"><a xlink:href="tabmainwidget_8h.html" target="_top" xlink:title=" ">
<polygon fill="none" stroke="black" points="721,-129 622,-129 622,-110 721,-110 721,-129"/>
<text text-anchor="middle" x="671.5" y="-117" font-family="Helvetica,sans-Serif" font-size="10.00">tabmainwidget.h</text>
</a>
</g>
</g>
<!-- Node1&#45;&gt;Node14 -->
<g id="edge16" class="edge">
<title>Node1&#45;&gt;Node14</title>
<path fill="none" stroke="midnightblue" d="M1169.11,-228.51C1034.32,-228.02 667.72,-223.07 631.5,-184 617.85,-169.27 635.13,-149.26 651.05,-135.67"/>
<polygon fill="midnightblue" stroke="midnightblue" points="653.49,-138.2 659.08,-129.2 649.1,-132.75 653.49,-138.2"/>
</g>
<!-- Node15 -->
<g id="node15" class="node">
<title>Node15</title>
<g id="a_node15"><a xlink:href="floattextedit_8h.html" target="_top" xlink:title=" ">
<polygon fill="none" stroke="black" points="397.5,-184 311.5,-184 311.5,-165 397.5,-165 397.5,-184"/>
<text text-anchor="middle" x="354.5" y="-172" font-family="Helvetica,sans-Serif" font-size="10.00">floattextedit.h</text>
</a>
</g>
</g>
<!-- Node1&#45;&gt;Node15 -->
<g id="edge19" class="edge">
<title>Node1&#45;&gt;Node15</title>
<path fill="none" stroke="midnightblue" d="M1169.45,-227.59C1042.92,-224.85 695.27,-214.89 407.5,-184 407.4,-183.99 407.3,-183.98 407.2,-183.97"/>
<polygon fill="midnightblue" stroke="midnightblue" points="407.9,-180.53 397.55,-182.79 407.05,-187.48 407.9,-180.53"/>
</g>
<!-- Node17 -->
<g id="node17" class="node">
<title>Node17</title>
<g id="a_node17"><a xlink:href="floatimage_8h.html" target="_top" xlink:title=" ">
<polygon fill="none" stroke="black" points="911.5,-129 833.5,-129 833.5,-110 911.5,-110 911.5,-129"/>
<text text-anchor="middle" x="872.5" y="-117" font-family="Helvetica,sans-Serif" font-size="10.00">floatimage.h</text>
</a>
</g>
</g>
<!-- Node1&#45;&gt;Node17 -->
<g id="edge22" class="edge">
<title>Node1&#45;&gt;Node17</title>
<path fill="none" stroke="midnightblue" d="M1169.39,-228.45C1036.27,-227.79 676.1,-222.45 640.5,-184 634.76,-177.8 635.12,-171.51 640.5,-165 663.22,-137.51 762.17,-126.83 823.27,-122.81"/>
<polygon fill="midnightblue" stroke="midnightblue" points="823.71,-126.29 833.47,-122.18 823.27,-119.3 823.71,-126.29"/>
</g>
<!-- Node20 -->
<g id="node20" class="node">
<title>Node20</title>
<g id="a_node20"><a xlink:title=" ">
<polygon fill="none" stroke="#bfbfbf" points="709.5,-184 649.5,-184 649.5,-165 709.5,-165 709.5,-184"/>
<text text-anchor="middle" x="679.5" y="-172" font-family="Helvetica,sans-Serif" font-size="10.00">iostream</text>
</a>
</g>
</g>
<!-- Node1&#45;&gt;Node20 -->
<g id="edge28" class="edge">
<title>Node1&#45;&gt;Node20</title>
<path fill="none" stroke="midnightblue" d="M1169.28,-226.18C1081.06,-221.57 890.07,-209.55 719.57,-183.97"/>
<polygon fill="midnightblue" stroke="midnightblue" points="720.08,-180.51 709.66,-182.47 719.02,-187.43 720.08,-180.51"/>
</g>
<!-- Node21 -->
<g id="node21" class="node">
<title>Node21</title>
<g id="a_node21"><a xlink:title=" ">
<polygon fill="none" stroke="#bfbfbf" points="783.5,-184 727.5,-184 727.5,-165 783.5,-165 783.5,-184"/>
<text text-anchor="middle" x="755.5" y="-172" font-family="Helvetica,sans-Serif" font-size="10.00">QDialog</text>
</a>
</g>
</g>
<!-- Node1&#45;&gt;Node21 -->
<g id="edge29" class="edge">
<title>Node1&#45;&gt;Node21</title>
<path fill="none" stroke="midnightblue" d="M1169.49,-225.22C1090.14,-219.5 928.76,-206.13 793.5,-184 793.4,-183.98 793.3,-183.97 793.2,-183.95"/>
<polygon fill="midnightblue" stroke="midnightblue" points="794.12,-180.56 783.65,-182.18 792.84,-187.44 794.12,-180.56"/>
</g>
<!-- Node22 -->
<g id="node22" class="node">
<title>Node22</title>
<g id="a_node22"><a xlink:title=" ">
<polygon fill="none" stroke="#bfbfbf" points="865,-184 802,-184 802,-165 865,-165 865,-184"/>
<text text-anchor="middle" x="833.5" y="-172" font-family="Helvetica,sans-Serif" font-size="10.00">QLineEdit</text>
</a>
</g>
</g>
<!-- Node1&#45;&gt;Node22 -->
<g id="edge30" class="edge">
<title>Node1&#45;&gt;Node22</title>
<path fill="none" stroke="midnightblue" d="M1169.34,-223.33C1104.38,-216.23 986.2,-202.41 875.26,-184.01"/>
<polygon fill="midnightblue" stroke="midnightblue" points="875.68,-180.53 865.24,-182.33 874.52,-187.43 875.68,-180.53"/>
</g>
<!-- Node23 -->
<g id="node23" class="node">
<title>Node23</title>
<g id="a_node23"><a xlink:title=" ">
<polygon fill="none" stroke="#bfbfbf" points="966,-184 883,-184 883,-165 966,-165 966,-184"/>
<text text-anchor="middle" x="924.5" y="-172" font-family="Helvetica,sans-Serif" font-size="10.00">QVBoxLayout</text>
</a>
</g>
</g>
<!-- Node1&#45;&gt;Node23 -->
<g id="edge31" class="edge">
<title>Node1&#45;&gt;Node23</title>
<path fill="none" stroke="midnightblue" d="M1171.26,-219.98C1117.93,-210.37 1031.44,-194.78 976.3,-184.84"/>
<polygon fill="midnightblue" stroke="midnightblue" points="976.84,-181.38 966.38,-183.05 975.6,-188.27 976.84,-181.38"/>
</g>
<!-- Node24 -->
<g id="node24" class="node">
<title>Node24</title>
<g id="a_node24"><a xlink:title=" ">
<polygon fill="none" stroke="#bfbfbf" points="1067,-184 984,-184 984,-165 1067,-165 1067,-184"/>
<text text-anchor="middle" x="1025.5" y="-172" font-family="Helvetica,sans-Serif" font-size="10.00">QHBoxLayout</text>
</a>
</g>
</g>
<!-- Node1&#45;&gt;Node24 -->
<g id="edge32" class="edge">
<title>Node1&#45;&gt;Node24</title>
<path fill="none" stroke="midnightblue" d="M1187.49,-219.98C1154.67,-210.97 1102.7,-196.7 1066.51,-186.76"/>
<polygon fill="midnightblue" stroke="midnightblue" points="1067.32,-183.36 1056.75,-184.08 1065.47,-190.11 1067.32,-183.36"/>
</g>
<!-- Node25 -->
<g id="node25" class="node">
<title>Node25</title>
<g id="a_node25"><a xlink:title=" ">
<polygon fill="none" stroke="#bfbfbf" points="1165.5,-184 1085.5,-184 1085.5,-165 1165.5,-165 1165.5,-184"/>
<text text-anchor="middle" x="1125.5" y="-172" font-family="Helvetica,sans-Serif" font-size="10.00">QPushButton</text>
</a>
</g>
</g>
<!-- Node1&#45;&gt;Node25 -->
<g id="edge33" class="edge">
<title>Node1&#45;&gt;Node25</title>
<path fill="none" stroke="midnightblue" d="M1203.56,-219.98C1189,-211.69 1166.63,-198.94 1149.57,-189.22"/>
<polygon fill="midnightblue" stroke="midnightblue" points="1151.14,-186.08 1140.71,-184.17 1147.67,-192.16 1151.14,-186.08"/>
</g>
<!-- Node26 -->
<g id="node26" class="node">
<title>Node26</title>
<g id="a_node26"><a xlink:title=" ">
<polygon fill="none" stroke="#bfbfbf" points="1253.5,-184 1183.5,-184 1183.5,-165 1253.5,-165 1253.5,-184"/>
<text text-anchor="middle" x="1218.5" y="-172" font-family="Helvetica,sans-Serif" font-size="10.00">QKeyEvent</text>
</a>
</g>
</g>
<!-- Node1&#45;&gt;Node26 -->
<g id="edge35" class="edge">
<title>Node1&#45;&gt;Node26</title>
<path fill="none" stroke="midnightblue" d="M1218.5,-219.75C1218.5,-212.8 1218.5,-202.85 1218.5,-194.13"/>
<polygon fill="midnightblue" stroke="midnightblue" points="1222,-194.09 1218.5,-184.09 1215,-194.09 1222,-194.09"/>
</g>
<!-- Node27 -->
<g id="node27" class="node">
<title>Node27</title>
<g id="a_node27"><a xlink:title=" ">
<polygon fill="none" stroke="#bfbfbf" points="1347.5,-184 1271.5,-184 1271.5,-165 1347.5,-165 1347.5,-184"/>
<text text-anchor="middle" x="1309.5" y="-172" font-family="Helvetica,sans-Serif" font-size="10.00">QTextCursor</text>
</a>
</g>
</g>
<!-- Node1&#45;&gt;Node27 -->
<g id="edge36" class="edge">
<title>Node1&#45;&gt;Node27</title>
<path fill="none" stroke="midnightblue" d="M1233.12,-219.98C1247.36,-211.69 1269.25,-198.94 1285.95,-189.22"/>
<polygon fill="midnightblue" stroke="midnightblue" points="1287.73,-192.23 1294.61,-184.17 1284.21,-186.18 1287.73,-192.23"/>
</g>
<!-- Node28 -->
<g id="node28" class="node">
<title>Node28</title>
<g id="a_node28"><a xlink:title=" ">
<polygon fill="none" stroke="#bfbfbf" points="1407,-184 1366,-184 1366,-165 1407,-165 1407,-184"/>
<text text-anchor="middle" x="1386.5" y="-172" font-family="Helvetica,sans-Serif" font-size="10.00">QFile</text>
</a>
</g>
</g>
<!-- Node1&#45;&gt;Node28 -->
<g id="edge37" class="edge">
<title>Node1&#45;&gt;Node28</title>
<path fill="none" stroke="midnightblue" d="M1245.49,-219.98C1275.79,-210.43 1324.82,-194.96 1356.35,-185.01"/>
<polygon fill="midnightblue" stroke="midnightblue" points="1357.45,-188.34 1365.93,-181.99 1355.34,-181.66 1357.45,-188.34"/>
</g>
<!-- Node29 -->
<g id="node29" class="node">
<title>Node29</title>
<g id="a_node29"><a xlink:title=" ">
<polygon fill="none" stroke="#bfbfbf" points="1463.5,-184 1425.5,-184 1425.5,-165 1463.5,-165 1463.5,-184"/>
<text text-anchor="middle" x="1444.5" y="-172" font-family="Helvetica,sans-Serif" font-size="10.00">QDir</text>
</a>
</g>
</g>
<!-- Node1&#45;&gt;Node29 -->
<g id="edge38" class="edge">
<title>Node1&#45;&gt;Node29</title>
<path fill="none" stroke="midnightblue" d="M1260.82,-219.93C1298.94,-212 1356.69,-199.47 1415.45,-184.13"/>
<polygon fill="midnightblue" stroke="midnightblue" points="1416.5,-187.47 1425.27,-181.54 1414.71,-180.7 1416.5,-187.47"/>
</g>
<!-- Node30 -->
<g id="node30" class="node">
<title>Node30</title>
<g id="a_node30"><a xlink:title=" ">
<polygon fill="none" stroke="#bfbfbf" points="1561.5,-184 1481.5,-184 1481.5,-165 1561.5,-165 1561.5,-184"/>
<text text-anchor="middle" x="1521.5" y="-172" font-family="Helvetica,sans-Serif" font-size="10.00">QTextStream</text>
</a>
</g>
</g>
<!-- Node1&#45;&gt;Node30 -->
<g id="edge39" class="edge">
<title>Node1&#45;&gt;Node30</title>
<path fill="none" stroke="midnightblue" d="M1267.18,-219.98C1323.09,-210.21 1414.37,-194.24 1471.02,-184.33"/>
<polygon fill="midnightblue" stroke="midnightblue" points="1471.93,-187.72 1481.18,-182.55 1470.72,-180.83 1471.93,-187.72"/>
</g>
<!-- Node31 -->
<g id="node31" class="node">
<title>Node31</title>
<g id="a_node31"><a xlink:title=" ">
<polygon fill="none" stroke="#bfbfbf" points="1649.5,-184 1579.5,-184 1579.5,-165 1649.5,-165 1649.5,-184"/>
<text text-anchor="middle" x="1614.5" y="-172" font-family="Helvetica,sans-Serif" font-size="10.00">QPdfWriter</text>
</a>
</g>
</g>
<!-- Node1&#45;&gt;Node31 -->
<g id="edge40" class="edge">
<title>Node1&#45;&gt;Node31</title>
<path fill="none" stroke="midnightblue" d="M1267.62,-223.31C1333.85,-216.09 1455.69,-202.01 1569.54,-184.06"/>
<polygon fill="midnightblue" stroke="midnightblue" points="1570.15,-187.51 1579.47,-182.48 1569.05,-180.59 1570.15,-187.51"/>
</g>
<!-- Node32 -->
<g id="node32" class="node">
<title>Node32</title>
<g id="a_node32"><a xlink:title=" ">
<polygon fill="none" stroke="#bfbfbf" points="1725.5,-184 1667.5,-184 1667.5,-165 1725.5,-165 1725.5,-184"/>
<text text-anchor="middle" x="1696.5" y="-172" font-family="Helvetica,sans-Serif" font-size="10.00">QPainter</text>
</a>
</g>
</g>
<!-- Node1&#45;&gt;Node32 -->
<g id="edge41" class="edge">
<title>Node1&#45;&gt;Node32</title>
<path fill="none" stroke="midnightblue" d="M1267.58,-225.45C1347.3,-220.09 1510,-207.4 1657,-184.06"/>
<polygon fill="midnightblue" stroke="midnightblue" points="1657.79,-187.48 1667.11,-182.44 1656.68,-180.57 1657.79,-187.48"/>
</g>
<!-- Node33 -->
<g id="node33" class="node">
<title>Node33</title>
<g id="a_node33"><a xlink:title=" ">
<polygon fill="none" stroke="#bfbfbf" points="1849.5,-184 1743.5,-184 1743.5,-165 1849.5,-165 1849.5,-184"/>
<text text-anchor="middle" x="1796.5" y="-172" font-family="Helvetica,sans-Serif" font-size="10.00">QDesktopServices</text>
</a>
</g>
</g>
<!-- Node1&#45;&gt;Node33 -->
<g id="edge42" class="edge">
<title>Node1&#45;&gt;Node33</title>
<path fill="none" stroke="midnightblue" d="M1267.67,-225.09C1357.82,-218.65 1555.85,-203.67 1733.38,-184.07"/>
<polygon fill="midnightblue" stroke="midnightblue" points="1733.87,-187.54 1743.42,-182.96 1733.1,-180.58 1733.87,-187.54"/>
</g>
<!-- Node34 -->
<g id="node34" class="node">
<title>Node34</title>
<g id="a_node34"><a xlink:title=" ">
<polygon fill="none" stroke="#bfbfbf" points="2035.5,-184 1867.5,-184 1867.5,-165 2035.5,-165 2035.5,-184"/>
<text text-anchor="middle" x="1951.5" y="-172" font-family="Helvetica,sans-Serif" font-size="10.00">QAbstractTextDocumentLayout</text>
</a>
</g>
</g>
<!-- Node1&#45;&gt;Node34 -->
<g id="edge43" class="edge">
<title>Node1&#45;&gt;Node34</title>
<path fill="none" stroke="midnightblue" d="M1267.51,-225.46C1373.14,-218.82 1630.44,-202.23 1857.26,-184.08"/>
<polygon fill="midnightblue" stroke="midnightblue" points="1857.67,-187.56 1867.36,-183.27 1857.11,-180.58 1857.67,-187.56"/>
</g>
<!-- Node35 -->
<g id="node35" class="node">
<title>Node35</title>
<g id="a_node35"><a xlink:title=" ">
<polygon fill="none" stroke="#bfbfbf" points="2125,-184 2054,-184 2054,-165 2125,-165 2125,-184"/>
<text text-anchor="middle" x="2089.5" y="-172" font-family="Helvetica,sans-Serif" font-size="10.00">QClipboard</text>
</a>
</g>
</g>
<!-- Node1&#45;&gt;Node35 -->
<g id="edge44" class="edge">
<title>Node1&#45;&gt;Node35</title>
<path fill="none" stroke="midnightblue" d="M1267.57,-228.13C1394.34,-226.68 1743.2,-219.61 2043.49,-183.93"/>
<polygon fill="midnightblue" stroke="midnightblue" points="2044.19,-187.37 2053.71,-182.71 2043.36,-180.42 2044.19,-187.37"/>
</g>
<!-- Node36 -->
<g id="node36" class="node">
<title>Node36</title>
<g id="a_node36"><a xlink:title=" ">
<polygon fill="none" stroke="#bfbfbf" points="2218,-184 2143,-184 2143,-165 2218,-165 2218,-184"/>
<text text-anchor="middle" x="2180.5" y="-172" font-family="Helvetica,sans-Serif" font-size="10.00">QMimeData</text>
</a>
</g>
</g>
<!-- Node1&#45;&gt;Node36 -->
<g id="edge45" class="edge">
<title>Node1&#45;&gt;Node36</title>
<path fill="none" stroke="midnightblue" d="M1267.84,-228.43C1404.07,-227.73 1796.98,-222.37 2132.5,-184.07"/>
<polygon fill="midnightblue" stroke="midnightblue" points="2133.37,-187.49 2142.91,-182.87 2132.57,-180.54 2133.37,-187.49"/>
</g>
<!-- Node37 -->
<g id="node37" class="node">
<title>Node37</title>
<g id="a_node37"><a xlink:title=" ">
<polygon fill="none" stroke="#bfbfbf" points="2328.5,-184 2236.5,-184 2236.5,-165 2328.5,-165 2328.5,-184"/>
<text text-anchor="middle" x="2282.5" y="-172" font-family="Helvetica,sans-Serif" font-size="10.00">QFontDatabase</text>
</a>
</g>
</g>
<!-- Node1&#45;&gt;Node37 -->
<g id="edge47" class="edge">
<title>Node1&#45;&gt;Node37</title>
<path fill="none" stroke="midnightblue" d="M1267.72,-228.23C1412.88,-227.04 1851.95,-220.51 2226.12,-184.01"/>
<polygon fill="midnightblue" stroke="midnightblue" points="2226.72,-187.47 2236.33,-183.01 2226.04,-180.51 2226.72,-187.47"/>
</g>
<!-- Node38 -->
<g id="node38" class="node">
<title>Node38</title>
<g id="a_node38"><a xlink:title=" ">
<polygon fill="none" stroke="#bfbfbf" points="2408.5,-184 2346.5,-184 2346.5,-165 2408.5,-165 2408.5,-184"/>
<text text-anchor="middle" x="2377.5" y="-172" font-family="Helvetica,sans-Serif" font-size="10.00">QTextList</text>
</a>
</g>
</g>
<!-- Node1&#45;&gt;Node38 -->
<g id="edge48" class="edge">
<title>Node1&#45;&gt;Node38</title>
<path fill="none" stroke="midnightblue" d="M1267.66,-227.66C1452.48,-224.31 2106.35,-210.9 2336.18,-183.9"/>
<polygon fill="midnightblue" stroke="midnightblue" points="2336.64,-187.37 2346.14,-182.69 2335.79,-180.42 2336.64,-187.37"/>
</g>
<!-- Node39 -->
<g id="node39" class="node">
<title>Node39</title>
<g id="a_node39"><a xlink:title=" ">
<polygon fill="none" stroke="#bfbfbf" points="2500.5,-184 2426.5,-184 2426.5,-165 2500.5,-165 2500.5,-184"/>
<text text-anchor="middle" x="2463.5" y="-172" font-family="Helvetica,sans-Serif" font-size="10.00">QScrollArea</text>
</a>
</g>
</g>
<!-- Node1&#45;&gt;Node39 -->
<g id="edge49" class="edge">
<title>Node1&#45;&gt;Node39</title>
<path fill="none" stroke="midnightblue" d="M1267.77,-227.63C1461.17,-224.07 2169.37,-209.61 2416.41,-183.91"/>
<polygon fill="midnightblue" stroke="midnightblue" points="2416.84,-187.38 2426.41,-182.83 2416.09,-180.42 2416.84,-187.38"/>
</g>
<!-- Node40 -->
<g id="node40" class="node">
<title>Node40</title>
<g id="a_node40"><a xlink:title=" ">
<polygon fill="none" stroke="#bfbfbf" points="2592.5,-184 2518.5,-184 2518.5,-165 2592.5,-165 2592.5,-184"/>
<text text-anchor="middle" x="2555.5" y="-172" font-family="Helvetica,sans-Serif" font-size="10.00">QSizePolicy</text>
</a>
</g>
</g>
<!-- Node1&#45;&gt;Node40 -->
<g id="edge50" class="edge">
<title>Node1&#45;&gt;Node40</title>
<path fill="none" stroke="midnightblue" d="M1267.67,-227.78C1470.31,-224.67 2242.09,-211.32 2508.39,-183.91"/>
<polygon fill="midnightblue" stroke="midnightblue" points="2508.84,-187.38 2518.41,-182.84 2508.1,-180.42 2508.84,-187.38"/>
</g>
<!-- Node41 -->
<g id="node41" class="node">
<title>Node41</title>
<g id="a_node41"><a xlink:title=" ">
<polygon fill="none" stroke="#bfbfbf" points="2678.5,-184 2610.5,-184 2610.5,-165 2678.5,-165 2678.5,-184"/>
<text text-anchor="middle" x="2644.5" y="-172" font-family="Helvetica,sans-Serif" font-size="10.00">QScrollBar</text>
</a>
</g>
</g>
<!-- Node1&#45;&gt;Node41 -->
<g id="edge51" class="edge">
<title>Node1&#45;&gt;Node41</title>
<path fill="none" stroke="midnightblue" d="M1267.53,-227.99C1478.94,-225.65 2314.33,-214.69 2599.98,-183.93"/>
<polygon fill="midnightblue" stroke="midnightblue" points="2600.76,-187.36 2610.31,-182.78 2599.99,-180.41 2600.76,-187.36"/>
</g>
<!-- Node3 -->
<g id="node3" class="node">
<title>Node3</title>
<g id="a_node3"><a xlink:title=" ">
<polygon fill="none" stroke="#bfbfbf" points="370,-74 283,-74 283,-55 370,-55 370,-74"/>
<text text-anchor="middle" x="326.5" y="-62" font-family="Helvetica,sans-Serif" font-size="10.00">QMainWindow</text>
</a>
</g>
</g>
<!-- Node2&#45;&gt;Node3 -->
<g id="edge2" class="edge">
<title>Node2&#45;&gt;Node3</title>
<path fill="none" stroke="midnightblue" d="M326.5,-109.75C326.5,-102.8 326.5,-92.85 326.5,-84.13"/>
<polygon fill="midnightblue" stroke="midnightblue" points="330,-84.09 326.5,-74.09 323,-84.09 330,-84.09"/>
</g>
<!-- Node2&#45;&gt;Node4 -->
<g id="edge3" class="edge">
<title>Node2&#45;&gt;Node4</title>
<path fill="none" stroke="midnightblue" d="M282.71,-112.13C232.03,-104.55 145.84,-90.97 63.03,-74.2"/>
<polygon fill="midnightblue" stroke="midnightblue" points="63.71,-70.77 53.21,-72.2 62.31,-77.63 63.71,-70.77"/>
</g>
<!-- Node5 -->
<g id="node5" class="node">
<title>Node5</title>
<g id="a_node5"><a xlink:title=" ">
<polygon fill="none" stroke="#bfbfbf" points="464.5,-74 388.5,-74 388.5,-55 464.5,-55 464.5,-74"/>
<text text-anchor="middle" x="426.5" y="-62" font-family="Helvetica,sans-Serif" font-size="10.00">QListWidget</text>
</a>
</g>
</g>
<!-- Node2&#45;&gt;Node5 -->
<g id="edge4" class="edge">
<title>Node2&#45;&gt;Node5</title>
<path fill="none" stroke="midnightblue" d="M342.57,-109.98C358.36,-101.61 382.72,-88.7 401.13,-78.95"/>
<polygon fill="midnightblue" stroke="midnightblue" points="402.94,-81.95 410.14,-74.17 399.67,-75.76 402.94,-81.95"/>
</g>
<!-- Node2&#45;&gt;Node6 -->
<g id="edge5" class="edge">
<title>Node2&#45;&gt;Node6</title>
<path fill="none" stroke="midnightblue" d="M293.08,-109.98C257.56,-100.93 201.23,-86.58 162.2,-76.64"/>
<polygon fill="midnightblue" stroke="midnightblue" points="162.74,-73.16 152.18,-74.08 161.01,-79.94 162.74,-73.16"/>
</g>
<!-- Node2&#45;&gt;Node7 -->
<g id="edge6" class="edge">
<title>Node2&#45;&gt;Node7</title>
<path fill="none" stroke="midnightblue" d="M310.11,-109.98C293.93,-101.57 268.93,-88.59 250.12,-78.81"/>
<polygon fill="midnightblue" stroke="midnightblue" points="251.67,-75.68 241.19,-74.17 248.45,-81.89 251.67,-75.68"/>
</g>
<!-- Node8 -->
<g id="node8" class="node">
<title>Node8</title>
<g id="a_node8"><a xlink:href="container_8h.html" target="_top" xlink:title=" ">
<polygon fill="none" stroke="black" points="806,-74 735,-74 735,-55 806,-55 806,-74"/>
<text text-anchor="middle" x="770.5" y="-62" font-family="Helvetica,sans-Serif" font-size="10.00">container.h</text>
</a>
</g>
</g>
<!-- Node2&#45;&gt;Node8 -->
<g id="edge7" class="edge">
<title>Node2&#45;&gt;Node8</title>
<path fill="none" stroke="midnightblue" d="M370.14,-111.3C373.31,-110.84 376.45,-110.4 379.5,-110 529.48,-90.19 570.76,-96.1 724.4,-74.04"/>
<polygon fill="midnightblue" stroke="midnightblue" points="725.29,-77.44 734.68,-72.54 724.28,-70.52 725.29,-77.44"/>
</g>
<!-- Node11 -->
<g id="node11" class="node">
<title>Node11</title>
<g id="a_node11"><a xlink:href="contextmenu_8h.html" target="_top" xlink:title=" ">
<polygon fill="none" stroke="black" points="716.5,-74 626.5,-74 626.5,-55 716.5,-55 716.5,-74"/>
<text text-anchor="middle" x="671.5" y="-62" font-family="Helvetica,sans-Serif" font-size="10.00">contextmenu.h</text>
</a>
</g>
</g>
<!-- Node2&#45;&gt;Node11 -->
<g id="edge10" class="edge">
<title>Node2&#45;&gt;Node11</title>
<path fill="none" stroke="midnightblue" d="M370.17,-111.47C373.33,-110.97 376.46,-110.47 379.5,-110 482.01,-94.03 510.09,-90.52 616.25,-74.18"/>
<polygon fill="midnightblue" stroke="midnightblue" points="617.07,-77.6 626.42,-72.62 616.01,-70.68 617.07,-77.6"/>
</g>
<!-- Node2&#45;&gt;Node12 -->
<g id="edge12" class="edge">
<title>Node2&#45;&gt;Node12</title>
<path fill="none" stroke="midnightblue" d="M361.69,-109.98C399.33,-100.87 459.16,-86.4 500.27,-76.45"/>
<polygon fill="midnightblue" stroke="midnightblue" points="501.14,-79.84 510.04,-74.08 499.5,-73.03 501.14,-79.84"/>
</g>
<!-- Node9 -->
<g id="node9" class="node">
<title>Node9</title>
<g id="a_node9"><a xlink:title=" ">
<polygon fill="none" stroke="#bfbfbf" points="832,-19 773,-19 773,0 832,0 832,-19"/>
<text text-anchor="middle" x="802.5" y="-7" font-family="Helvetica,sans-Serif" font-size="10.00">QWidget</text>
</a>
</g>
</g>
<!-- Node8&#45;&gt;Node9 -->
<g id="edge8" class="edge">
<title>Node8&#45;&gt;Node9</title>
<path fill="none" stroke="midnightblue" d="M775.78,-54.75C780.21,-47.42 786.66,-36.73 792.12,-27.7"/>
<polygon fill="midnightblue" stroke="midnightblue" points="795.14,-29.46 797.31,-19.09 789.15,-25.84 795.14,-29.46"/>
</g>
<!-- Node10 -->
<g id="node10" class="node">
<title>Node10</title>
<g id="a_node10"><a xlink:title=" ">
<polygon fill="none" stroke="#bfbfbf" points="699,-19 644,-19 644,0 699,0 699,-19"/>
<text text-anchor="middle" x="671.5" y="-7" font-family="Helvetica,sans-Serif" font-size="10.00">QFrame</text>
</a>
</g>
</g>
<!-- Node8&#45;&gt;Node10 -->
<g id="edge9" class="edge">
<title>Node8&#45;&gt;Node10</title>
<path fill="none" stroke="midnightblue" d="M754.59,-54.98C738.95,-46.61 714.84,-33.7 696.62,-23.95"/>
<polygon fill="midnightblue" stroke="midnightblue" points="698.16,-20.8 687.7,-19.17 694.86,-26.98 698.16,-20.8"/>
</g>
<!-- Node11&#45;&gt;Node10 -->
<g id="edge11" class="edge">
<title>Node11&#45;&gt;Node10</title>
<path fill="none" stroke="midnightblue" d="M671.5,-54.75C671.5,-47.8 671.5,-37.85 671.5,-29.13"/>
<polygon fill="midnightblue" stroke="midnightblue" points="675,-29.09 671.5,-19.09 668,-29.09 675,-29.09"/>
</g>
<!-- Node12&#45;&gt;Node9 -->
<g id="edge13" class="edge">
<title>Node12&#45;&gt;Node9</title>
<path fill="none" stroke="midnightblue" d="M586.79,-54.98C635.31,-44.98 715.22,-28.5 762.96,-18.65"/>
<polygon fill="midnightblue" stroke="midnightblue" points="763.84,-22.05 772.93,-16.6 762.43,-15.19 763.84,-22.05"/>
</g>
<!-- Node12&#45;&gt;Node10 -->
<g id="edge14" class="edge">
<title>Node12&#45;&gt;Node10</title>
<path fill="none" stroke="midnightblue" d="M565.74,-54.98C586.2,-46.38 618.03,-32.99 641.43,-23.15"/>
<polygon fill="midnightblue" stroke="midnightblue" points="643.03,-26.27 650.89,-19.17 640.31,-19.82 643.03,-26.27"/>
</g>
<!-- Node14&#45;&gt;Node9 -->
<g id="edge17" class="edge">
<title>Node14&#45;&gt;Node9</title>
<path fill="none" stroke="midnightblue" d="M721.06,-117.41C753.6,-113.8 793.99,-103.16 815.5,-74 825.28,-60.74 819.62,-41.87 812.98,-28.15"/>
<polygon fill="midnightblue" stroke="midnightblue" points="816,-26.37 808.18,-19.22 809.83,-29.68 816,-26.37"/>
</g>
<!-- Node14&#45;&gt;Node11 -->
<g id="edge18" class="edge">
<title>Node14&#45;&gt;Node11</title>
<path fill="none" stroke="midnightblue" d="M671.5,-109.75C671.5,-102.8 671.5,-92.85 671.5,-84.13"/>
<polygon fill="midnightblue" stroke="midnightblue" points="675,-84.09 671.5,-74.09 668,-84.09 675,-84.09"/>
</g>
<!-- Node15&#45;&gt;Node2 -->
<g id="edge21" class="edge">
<title>Node15&#45;&gt;Node2</title>
<path fill="none" stroke="midnightblue" d="M349.88,-164.75C346.04,-157.49 340.48,-146.95 335.74,-137.98"/>
<polygon fill="midnightblue" stroke="midnightblue" points="338.8,-136.3 331.04,-129.09 332.61,-139.57 338.8,-136.3"/>
</g>
<!-- Node16 -->
<g id="node16" class="node">
<title>Node16</title>
<g id="a_node16"><a xlink:title=" ">
<polygon fill="none" stroke="#bfbfbf" points="451,-129 388,-129 388,-110 451,-110 451,-129"/>
<text text-anchor="middle" x="419.5" y="-117" font-family="Helvetica,sans-Serif" font-size="10.00">QTextEdit</text>
</a>
</g>
</g>
<!-- Node15&#45;&gt;Node16 -->
<g id="edge20" class="edge">
<title>Node15&#45;&gt;Node16</title>
<path fill="none" stroke="midnightblue" d="M364.94,-164.98C374.65,-157.07 389.32,-145.11 401,-135.58"/>
<polygon fill="midnightblue" stroke="midnightblue" points="403.33,-138.2 408.87,-129.17 398.9,-132.78 403.33,-138.2"/>
</g>
<!-- Node17&#45;&gt;Node8 -->
<g id="edge26" class="edge">
<title>Node17&#45;&gt;Node8</title>
<path fill="none" stroke="midnightblue" d="M856.11,-109.98C839.93,-101.57 814.93,-88.59 796.12,-78.81"/>
<polygon fill="midnightblue" stroke="midnightblue" points="797.67,-75.68 787.19,-74.17 794.45,-81.89 797.67,-75.68"/>
</g>
<!-- Node17&#45;&gt;Node9 -->
<g id="edge24" class="edge">
<title>Node17&#45;&gt;Node9</title>
<path fill="none" stroke="midnightblue" d="M870.49,-109.72C867.29,-96.92 860.16,-72.73 848.5,-55 841.3,-44.05 830.98,-33.75 821.93,-25.82"/>
<polygon fill="midnightblue" stroke="midnightblue" points="824.02,-23 814.11,-19.25 819.52,-28.37 824.02,-23"/>
</g>
<!-- Node18 -->
<g id="node18" class="node">
<title>Node18</title>
<g id="a_node18"><a xlink:title=" ">
<polygon fill="none" stroke="#bfbfbf" points="956.5,-74 900.5,-74 900.5,-55 956.5,-55 956.5,-74"/>
<text text-anchor="middle" x="928.5" y="-62" font-family="Helvetica,sans-Serif" font-size="10.00">QObject</text>
</a>
</g>
</g>
<!-- Node17&#45;&gt;Node18 -->
<g id="edge23" class="edge">
<title>Node17&#45;&gt;Node18</title>
<path fill="none" stroke="midnightblue" d="M881.5,-109.98C889.69,-102.23 902.01,-90.58 911.97,-81.14"/>
<polygon fill="midnightblue" stroke="midnightblue" points="914.48,-83.59 919.34,-74.17 909.67,-78.5 914.48,-83.59"/>
</g>
<!-- Node19 -->
<g id="node19" class="node">
<title>Node19</title>
<g id="a_node19"><a xlink:title=" ">
<polygon fill="none" stroke="#bfbfbf" points="1024.5,-74 974.5,-74 974.5,-55 1024.5,-55 1024.5,-74"/>
<text text-anchor="middle" x="999.5" y="-62" font-family="Helvetica,sans-Serif" font-size="10.00">QLabel</text>
</a>
</g>
</g>
<!-- Node17&#45;&gt;Node19 -->
<g id="edge25" class="edge">
<title>Node17&#45;&gt;Node19</title>
<path fill="none" stroke="midnightblue" d="M892.9,-109.98C913.52,-101.38 945.61,-87.99 969.19,-78.15"/>
<polygon fill="midnightblue" stroke="midnightblue" points="970.84,-81.25 978.72,-74.17 968.15,-74.79 970.84,-81.25"/>
</g>
</g>
</svg>
