<?xml version="1.0" encoding="UTF-8" standalone="no"?>
<!DOCTYPE svg PUBLIC "-//W3C//DTD SVG 1.1//EN"
 "http://www.w3.org/Graphics/SVG/1.1/DTD/svg11.dtd">
<!-- Generated by graphviz version 5.0.0 (0)
 -->
<!-- Title: mainwindow.h Pages: 1 -->
<svg width="831pt" height="137pt"
 viewBox="0.00 0.00 830.50 137.00" xmlns="http://www.w3.org/2000/svg" xmlns:xlink="http://www.w3.org/1999/xlink">
<g id="graph0" class="graph" transform="scale(1 1) rotate(0) translate(4 133)">
<title>mainwindow.h</title>
<!-- Node1 -->
<g id="node1" class="node">
<title>Node1</title>
<g id="a_node1"><a xlink:title=" ">
<polygon fill="#bfbfbf" stroke="black" points="358,-129 271,-129 271,-110 358,-110 358,-129"/>
<text text-anchor="middle" x="314.5" y="-117" font-family="Helvetica,sans-Serif" font-size="10.00">mainwindow.h</text>
</a>
</g>
</g>
<!-- Node2 -->
<g id="node2" class="node">
<title>Node2</title>
<g id="a_node2"><a xlink:href="colordropdownmenu_8cpp.html" target="_top" xlink:title=" ">
<polygon fill="none" stroke="black" points="137,-19 0,-19 0,0 137,0 137,-19"/>
<text text-anchor="middle" x="68.5" y="-7" font-family="Helvetica,sans-Serif" font-size="10.00">colordropdownmenu.cpp</text>
</a>
</g>
</g>
<!-- Node1&#45;&gt;Node2 -->
<g id="edge1" class="edge">
<title>Node1&#45;&gt;Node2</title>
<path fill="none" stroke="midnightblue" d="M260.77,-109.49C227.78,-102.62 185.32,-91.34 150.5,-74 120.84,-59.23 91.46,-32.89 77.27,-19.24"/>
<polygon fill="midnightblue" stroke="midnightblue" points="260.2,-112.94 270.69,-111.48 261.57,-106.08 260.2,-112.94"/>
</g>
<!-- Node3 -->
<g id="node3" class="node">
<title>Node3</title>
<g id="a_node3"><a xlink:href="colorwell_8cpp.html" target="_top" xlink:title=" ">
<polygon fill="none" stroke="black" points="236,-19 155,-19 155,0 236,0 236,-19"/>
<text text-anchor="middle" x="195.5" y="-7" font-family="Helvetica,sans-Serif" font-size="10.00">colorwell.cpp</text>
</a>
</g>
</g>
<!-- Node1&#45;&gt;Node3 -->
<g id="edge2" class="edge">
<title>Node1&#45;&gt;Node3</title>
<path fill="none" stroke="midnightblue" d="M297.32,-102.91C271.89,-79.83 225.1,-37.37 205.04,-19.16"/>
<polygon fill="midnightblue" stroke="midnightblue" points="295,-105.53 304.76,-109.66 299.71,-100.35 295,-105.53"/>
</g>
<!-- Node4 -->
<g id="node4" class="node">
<title>Node4</title>
<g id="a_node4"><a xlink:href="colorwell_8h.html" target="_top" xlink:title=" ">
<polygon fill="none" stroke="black" points="229.5,-74 159.5,-74 159.5,-55 229.5,-55 229.5,-74"/>
<text text-anchor="middle" x="194.5" y="-62" font-family="Helvetica,sans-Serif" font-size="10.00">colorwell.h</text>
</a>
</g>
</g>
<!-- Node1&#45;&gt;Node4 -->
<g id="edge3" class="edge">
<title>Node1&#45;&gt;Node4</title>
<path fill="none" stroke="midnightblue" d="M285.97,-105.9C263.8,-96.11 233.65,-82.79 214.13,-74.17"/>
<polygon fill="midnightblue" stroke="midnightblue" points="284.66,-109.15 295.22,-109.98 287.49,-102.74 284.66,-109.15"/>
</g>
<!-- Node5 -->
<g id="node5" class="node">
<title>Node5</title>
<g id="a_node5"><a xlink:href="container_8cpp.html" target="_top" xlink:title=" ">
<polygon fill="none" stroke="black" points="336.5,-19 254.5,-19 254.5,0 336.5,0 336.5,-19"/>
<text text-anchor="middle" x="295.5" y="-7" font-family="Helvetica,sans-Serif" font-size="10.00">container.cpp</text>
</a>
</g>
</g>
<!-- Node1&#45;&gt;Node5 -->
<g id="edge6" class="edge">
<title>Node1&#45;&gt;Node5</title>
<path fill="none" stroke="midnightblue" d="M311.21,-99.8C307.06,-76.2 300.09,-36.58 297.02,-19.16"/>
<polygon fill="midnightblue" stroke="midnightblue" points="307.77,-100.42 312.95,-109.66 314.66,-99.21 307.77,-100.42"/>
</g>
<!-- Node6 -->
<g id="node6" class="node">
<title>Node6</title>
<g id="a_node6"><a xlink:href="floattextedit_8cpp.html" target="_top" xlink:title=" ">
<polygon fill="none" stroke="black" points="452,-19 355,-19 355,0 452,0 452,-19"/>
<text text-anchor="middle" x="403.5" y="-7" font-family="Helvetica,sans-Serif" font-size="10.00">floattextedit.cpp</text>
</a>
</g>
</g>
<!-- Node1&#45;&gt;Node6 -->
<g id="edge7" class="edge">
<title>Node1&#45;&gt;Node6</title>
<path fill="none" stroke="midnightblue" d="M323.22,-100.67C330.18,-87.37 340.68,-69.14 352.5,-55 364.26,-40.94 380.62,-27.49 391.62,-19.13"/>
<polygon fill="midnightblue" stroke="midnightblue" points="320.03,-99.22 318.64,-109.72 326.28,-102.38 320.03,-99.22"/>
</g>
<!-- Node7 -->
<g id="node7" class="node">
<title>Node7</title>
<g id="a_node7"><a xlink:href="floattextedit_8h.html" target="_top" xlink:title=" ">
<polygon fill="none" stroke="black" points="447.5,-74 361.5,-74 361.5,-55 447.5,-55 447.5,-74"/>
<text text-anchor="middle" x="404.5" y="-62" font-family="Helvetica,sans-Serif" font-size="10.00">floattextedit.h</text>
</a>
</g>
</g>
<!-- Node1&#45;&gt;Node7 -->
<g id="edge8" class="edge">
<title>Node1&#45;&gt;Node7</title>
<path fill="none" stroke="midnightblue" d="M337.94,-104.7C354.34,-95.04 375.73,-82.44 389.78,-74.17"/>
<polygon fill="midnightblue" stroke="midnightblue" points="335.8,-101.89 328.96,-109.98 339.35,-107.93 335.8,-101.89"/>
</g>
<!-- Node8 -->
<g id="node8" class="node">
<title>Node8</title>
<g id="a_node8"><a xlink:href="mainwindow_8cpp.html" target="_top" xlink:title=" ">
<polygon fill="none" stroke="black" points="822.5,-19 724.5,-19 724.5,0 822.5,0 822.5,-19"/>
<text text-anchor="middle" x="773.5" y="-7" font-family="Helvetica,sans-Serif" font-size="10.00">mainwindow.cpp</text>
</a>
</g>
</g>
<!-- Node1&#45;&gt;Node8 -->
<g id="edge15" class="edge">
<title>Node1&#45;&gt;Node8</title>
<path fill="none" stroke="midnightblue" d="M356.55,-107.24C385.15,-99.12 423.6,-87.28 456.5,-74 474.01,-66.93 476.52,-60.78 494.5,-55 505.34,-51.52 647.34,-29.66 724.45,-17.93"/>
<polygon fill="midnightblue" stroke="midnightblue" points="355.56,-103.88 346.88,-109.95 357.45,-110.62 355.56,-103.88"/>
</g>
<!-- Node11 -->
<g id="node11" class="node">
<title>Node11</title>
<g id="a_node11"><a xlink:href="main_8cpp.html" target="_top" xlink:title=" ">
<polygon fill="none" stroke="black" points="565.5,-74 503.5,-74 503.5,-55 565.5,-55 565.5,-74"/>
<text text-anchor="middle" x="534.5" y="-62" font-family="Helvetica,sans-Serif" font-size="10.00">main.cpp</text>
</a>
</g>
</g>
<!-- Node1&#45;&gt;Node11 -->
<g id="edge14" class="edge">
<title>Node1&#45;&gt;Node11</title>
<path fill="none" stroke="midnightblue" d="M359.72,-107.61C402.52,-97.29 465.64,-82.09 503.16,-73.05"/>
<polygon fill="midnightblue" stroke="midnightblue" points="358.75,-104.24 349.85,-109.98 360.39,-111.05 358.75,-104.24"/>
</g>
<!-- Node4&#45;&gt;Node2 -->
<g id="edge4" class="edge">
<title>Node4&#45;&gt;Node2</title>
<path fill="none" stroke="midnightblue" d="M164.85,-51.03C141.55,-41.23 109.7,-27.83 89.11,-19.17"/>
<polygon fill="midnightblue" stroke="midnightblue" points="163.68,-54.33 174.26,-54.98 166.4,-47.88 163.68,-54.33"/>
</g>
<!-- Node4&#45;&gt;Node3 -->
<g id="edge5" class="edge">
<title>Node4&#45;&gt;Node3</title>
<path fill="none" stroke="midnightblue" d="M194.86,-44.66C195.02,-35.93 195.21,-25.99 195.34,-19.09"/>
<polygon fill="midnightblue" stroke="midnightblue" points="191.35,-44.68 194.67,-54.75 198.35,-44.82 191.35,-44.68"/>
</g>
<!-- Node7&#45;&gt;Node5 -->
<g id="edge9" class="edge">
<title>Node7&#45;&gt;Node5</title>
<path fill="none" stroke="midnightblue" d="M377.77,-50.5C357.71,-40.75 330.82,-27.68 313.33,-19.17"/>
<polygon fill="midnightblue" stroke="midnightblue" points="376.46,-53.76 386.99,-54.98 379.52,-47.46 376.46,-53.76"/>
</g>
<!-- Node7&#45;&gt;Node6 -->
<g id="edge10" class="edge">
<title>Node7&#45;&gt;Node6</title>
<path fill="none" stroke="midnightblue" d="M404.14,-44.66C403.98,-35.93 403.79,-25.99 403.66,-19.09"/>
<polygon fill="midnightblue" stroke="midnightblue" points="400.65,-44.82 404.33,-54.75 407.65,-44.68 400.65,-44.82"/>
</g>
<!-- Node7&#45;&gt;Node8 -->
<g id="edge11" class="edge">
<title>Node7&#45;&gt;Node8</title>
<path fill="none" stroke="midnightblue" d="M457.7,-55.55C458.98,-55.37 460.25,-55.18 461.5,-55 574.33,-38.59 602.65,-35.27 715.5,-19 718.42,-18.58 721.42,-18.14 724.45,-17.7"/>
<polygon fill="midnightblue" stroke="midnightblue" points="457.14,-52.1 447.76,-57.02 458.16,-59.02 457.14,-52.1"/>
</g>
<!-- Node9 -->
<g id="node9" class="node">
<title>Node9</title>
<g id="a_node9"><a xlink:href="notetabwidget_8cpp.html" target="_top" xlink:title=" ">
<polygon fill="none" stroke="black" points="706,-19 599,-19 599,0 706,0 706,-19"/>
<text text-anchor="middle" x="652.5" y="-7" font-family="Helvetica,sans-Serif" font-size="10.00">notetabwidget.cpp</text>
</a>
</g>
</g>
<!-- Node7&#45;&gt;Node9 -->
<g id="edge12" class="edge">
<title>Node7&#45;&gt;Node9</title>
<path fill="none" stroke="midnightblue" d="M454.2,-52.88C500.68,-42.94 569.23,-28.3 612.34,-19.08"/>
<polygon fill="midnightblue" stroke="midnightblue" points="453.39,-49.47 444.35,-54.98 454.86,-56.32 453.39,-49.47"/>
</g>
<!-- Node10 -->
<g id="node10" class="node">
<title>Node10</title>
<g id="a_node10"><a xlink:href="tabmainwidget_8cpp.html" target="_top" xlink:title=" ">
<polygon fill="none" stroke="black" points="580.5,-19 470.5,-19 470.5,0 580.5,0 580.5,-19"/>
<text text-anchor="middle" x="525.5" y="-7" font-family="Helvetica,sans-Serif" font-size="10.00">tabmainwidget.cpp</text>
</a>
</g>
</g>
<!-- Node7&#45;&gt;Node10 -->
<g id="edge13" class="edge">
<title>Node7&#45;&gt;Node10</title>
<path fill="none" stroke="midnightblue" d="M433.27,-50.9C455.62,-41.11 486.02,-27.79 505.71,-19.17"/>
<polygon fill="midnightblue" stroke="midnightblue" points="431.7,-47.77 423.94,-54.98 434.5,-54.18 431.7,-47.77"/>
</g>
</g>
</svg>
