<?xml version="1.0" encoding="UTF-8" standalone="no"?>
<!DOCTYPE svg PUBLIC "-//W3C//DTD SVG 1.1//EN"
 "http://www.w3.org/Graphics/SVG/1.1/DTD/svg11.dtd">
<!-- Generated by graphviz version 5.0.0 (0)
 -->
<!-- Title: notetabwidget.cpp Pages: 1 -->
<svg width="814pt" height="247pt"
 viewBox="0.00 0.00 813.50 247.00" xmlns="http://www.w3.org/2000/svg" xmlns:xlink="http://www.w3.org/1999/xlink">
<g id="graph0" class="graph" transform="scale(1 1) rotate(0) translate(4 243)">
<title>notetabwidget.cpp</title>
<!-- Node1 -->
<g id="node1" class="node">
<title>Node1</title>
<g id="a_node1"><a xlink:title=" ">
<polygon fill="#bfbfbf" stroke="black" points="466,-239 359,-239 359,-220 466,-220 466,-239"/>
<text text-anchor="middle" x="412.5" y="-227" font-family="Helvetica,sans-Serif" font-size="10.00">notetabwidget.cpp</text>
</a>
</g>
</g>
<!-- Node2 -->
<g id="node2" class="node">
<title>Node2</title>
<g id="a_node2"><a xlink:href="floattextedit_8h.html" target="_top" xlink:title=" ">
<polygon fill="none" stroke="black" points="401.5,-184 315.5,-184 315.5,-165 401.5,-165 401.5,-184"/>
<text text-anchor="middle" x="358.5" y="-172" font-family="Helvetica,sans-Serif" font-size="10.00">floattextedit.h</text>
</a>
</g>
</g>
<!-- Node1&#45;&gt;Node2 -->
<g id="edge1" class="edge">
<title>Node1&#45;&gt;Node2</title>
<path fill="none" stroke="midnightblue" d="M403.58,-219.75C395.72,-212.03 384.07,-200.6 374.58,-191.28"/>
<polygon fill="midnightblue" stroke="midnightblue" points="376.84,-188.6 367.25,-184.09 371.94,-193.59 376.84,-188.6"/>
</g>
<!-- Node3 -->
<g id="node3" class="node">
<title>Node3</title>
<g id="a_node3"><a xlink:title=" ">
<polygon fill="none" stroke="#bfbfbf" points="310,-129 247,-129 247,-110 310,-110 310,-129"/>
<text text-anchor="middle" x="278.5" y="-117" font-family="Helvetica,sans-Serif" font-size="10.00">QTextEdit</text>
</a>
</g>
</g>
<!-- Node1&#45;&gt;Node3 -->
<g id="edge20" class="edge">
<title>Node1&#45;&gt;Node3</title>
<path fill="none" stroke="midnightblue" d="M374.19,-219.99C352.06,-213.37 325.01,-202.18 306.5,-184 294.02,-171.74 286.69,-152.96 282.68,-139"/>
<polygon fill="midnightblue" stroke="midnightblue" points="286.01,-137.88 280.15,-129.06 279.23,-139.61 286.01,-137.88"/>
</g>
<!-- Node15 -->
<g id="node15" class="node">
<title>Node15</title>
<g id="a_node15"><a xlink:href="notetabwidget_8h.html" target="_top" xlink:title=" ">
<polygon fill="none" stroke="black" points="515.5,-184 419.5,-184 419.5,-165 515.5,-165 515.5,-184"/>
<text text-anchor="middle" x="467.5" y="-172" font-family="Helvetica,sans-Serif" font-size="10.00">notetabwidget.h</text>
</a>
</g>
</g>
<!-- Node1&#45;&gt;Node15 -->
<g id="edge17" class="edge">
<title>Node1&#45;&gt;Node15</title>
<path fill="none" stroke="midnightblue" d="M421.58,-219.75C429.59,-212.03 441.46,-200.6 451.12,-191.28"/>
<polygon fill="midnightblue" stroke="midnightblue" points="453.81,-193.55 458.59,-184.09 448.96,-188.51 453.81,-193.55"/>
</g>
<!-- Node17 -->
<g id="node17" class="node">
<title>Node17</title>
<g id="a_node17"><a xlink:title=" ">
<polygon fill="none" stroke="#bfbfbf" points="617.5,-184 533.5,-184 533.5,-165 617.5,-165 617.5,-184"/>
<text text-anchor="middle" x="575.5" y="-172" font-family="Helvetica,sans-Serif" font-size="10.00">QMouseEvent</text>
</a>
</g>
</g>
<!-- Node1&#45;&gt;Node17 -->
<g id="edge19" class="edge">
<title>Node1&#45;&gt;Node17</title>
<path fill="none" stroke="midnightblue" d="M438.69,-219.98C465.94,-211.13 508.8,-197.19 539.28,-187.28"/>
<polygon fill="midnightblue" stroke="midnightblue" points="540.68,-190.5 549.11,-184.08 538.51,-183.85 540.68,-190.5"/>
</g>
<!-- Node2&#45;&gt;Node3 -->
<g id="edge2" class="edge">
<title>Node2&#45;&gt;Node3</title>
<path fill="none" stroke="midnightblue" d="M345.65,-164.98C333.36,-156.84 314.59,-144.41 300.02,-134.76"/>
<polygon fill="midnightblue" stroke="midnightblue" points="301.86,-131.78 291.59,-129.17 297.99,-137.61 301.86,-131.78"/>
</g>
<!-- Node4 -->
<g id="node4" class="node">
<title>Node4</title>
<g id="a_node4"><a xlink:href="mainwindow_8h.html" target="_top" xlink:title=" ">
<polygon fill="none" stroke="black" points="415,-129 328,-129 328,-110 415,-110 415,-129"/>
<text text-anchor="middle" x="371.5" y="-117" font-family="Helvetica,sans-Serif" font-size="10.00">mainwindow.h</text>
</a>
</g>
</g>
<!-- Node2&#45;&gt;Node4 -->
<g id="edge3" class="edge">
<title>Node2&#45;&gt;Node4</title>
<path fill="none" stroke="midnightblue" d="M360.65,-164.75C362.37,-157.72 364.85,-147.62 367,-138.84"/>
<polygon fill="midnightblue" stroke="midnightblue" points="370.41,-139.63 369.39,-129.09 363.61,-137.97 370.41,-139.63"/>
</g>
<!-- Node5 -->
<g id="node5" class="node">
<title>Node5</title>
<g id="a_node5"><a xlink:title=" ">
<polygon fill="none" stroke="#bfbfbf" points="87,-74 0,-74 0,-55 87,-55 87,-74"/>
<text text-anchor="middle" x="43.5" y="-62" font-family="Helvetica,sans-Serif" font-size="10.00">QMainWindow</text>
</a>
</g>
</g>
<!-- Node4&#45;&gt;Node5 -->
<g id="edge4" class="edge">
<title>Node4&#45;&gt;Node5</title>
<path fill="none" stroke="midnightblue" d="M327.99,-111.52C275.63,-103.1 184.73,-88.48 97.28,-74.29"/>
<polygon fill="midnightblue" stroke="midnightblue" points="97.62,-70.8 87.19,-72.65 96.5,-77.71 97.62,-70.8"/>
</g>
<!-- Node6 -->
<g id="node6" class="node">
<title>Node6</title>
<g id="a_node6"><a xlink:title=" ">
<polygon fill="none" stroke="#bfbfbf" points="158,-74 105,-74 105,-55 158,-55 158,-74"/>
<text text-anchor="middle" x="131.5" y="-62" font-family="Helvetica,sans-Serif" font-size="10.00">QString</text>
</a>
</g>
</g>
<!-- Node4&#45;&gt;Node6 -->
<g id="edge5" class="edge">
<title>Node4&#45;&gt;Node6</title>
<path fill="none" stroke="midnightblue" d="M331.2,-109.92C292.11,-101.55 230.85,-88.32 168.28,-74.15"/>
<polygon fill="midnightblue" stroke="midnightblue" points="168.75,-70.66 158.22,-71.86 167.2,-77.49 168.75,-70.66"/>
</g>
<!-- Node7 -->
<g id="node7" class="node">
<title>Node7</title>
<g id="a_node7"><a xlink:title=" ">
<polygon fill="none" stroke="#bfbfbf" points="252.5,-74 176.5,-74 176.5,-55 252.5,-55 252.5,-74"/>
<text text-anchor="middle" x="214.5" y="-62" font-family="Helvetica,sans-Serif" font-size="10.00">QListWidget</text>
</a>
</g>
</g>
<!-- Node4&#45;&gt;Node7 -->
<g id="edge6" class="edge">
<title>Node4&#45;&gt;Node7</title>
<path fill="none" stroke="midnightblue" d="M346.28,-109.98C320.14,-101.16 279.1,-87.31 249.77,-77.41"/>
<polygon fill="midnightblue" stroke="midnightblue" points="250.52,-73.96 239.92,-74.08 248.28,-80.6 250.52,-73.96"/>
</g>
<!-- Node8 -->
<g id="node8" class="node">
<title>Node8</title>
<g id="a_node8"><a xlink:title=" ">
<polygon fill="none" stroke="#bfbfbf" points="366,-74 271,-74 271,-55 366,-55 366,-74"/>
<text text-anchor="middle" x="318.5" y="-62" font-family="Helvetica,sans-Serif" font-size="10.00">QTextDocument</text>
</a>
</g>
</g>
<!-- Node4&#45;&gt;Node8 -->
<g id="edge7" class="edge">
<title>Node4&#45;&gt;Node8</title>
<path fill="none" stroke="midnightblue" d="M362.75,-109.75C355.03,-102.03 343.6,-90.6 334.28,-81.28"/>
<polygon fill="midnightblue" stroke="midnightblue" points="336.64,-78.69 327.09,-74.09 331.69,-83.64 336.64,-78.69"/>
</g>
<!-- Node9 -->
<g id="node9" class="node">
<title>Node9</title>
<g id="a_node9"><a xlink:title=" ">
<polygon fill="none" stroke="#bfbfbf" points="465,-74 384,-74 384,-55 465,-55 465,-74"/>
<text text-anchor="middle" x="424.5" y="-62" font-family="Helvetica,sans-Serif" font-size="10.00">QColorDialog</text>
</a>
</g>
</g>
<!-- Node4&#45;&gt;Node9 -->
<g id="edge8" class="edge">
<title>Node4&#45;&gt;Node9</title>
<path fill="none" stroke="midnightblue" d="M380.25,-109.75C387.97,-102.03 399.4,-90.6 408.72,-81.28"/>
<polygon fill="midnightblue" stroke="midnightblue" points="411.31,-83.64 415.91,-74.09 406.36,-78.69 411.31,-83.64"/>
</g>
<!-- Node10 -->
<g id="node10" class="node">
<title>Node10</title>
<g id="a_node10"><a xlink:href="container_8h.html" target="_top" xlink:title=" ">
<polygon fill="none" stroke="black" points="554,-74 483,-74 483,-55 554,-55 554,-74"/>
<text text-anchor="middle" x="518.5" y="-62" font-family="Helvetica,sans-Serif" font-size="10.00">container.h</text>
</a>
</g>
</g>
<!-- Node4&#45;&gt;Node10 -->
<g id="edge9" class="edge">
<title>Node4&#45;&gt;Node10</title>
<path fill="none" stroke="midnightblue" d="M395.12,-109.98C419.4,-101.23 457.45,-87.51 484.87,-77.62"/>
<polygon fill="midnightblue" stroke="midnightblue" points="486.23,-80.85 494.45,-74.17 483.86,-74.27 486.23,-80.85"/>
</g>
<!-- Node13 -->
<g id="node13" class="node">
<title>Node13</title>
<g id="a_node13"><a xlink:href="contextmenu_8h.html" target="_top" xlink:title=" ">
<polygon fill="none" stroke="black" points="805.5,-74 715.5,-74 715.5,-55 805.5,-55 805.5,-74"/>
<text text-anchor="middle" x="760.5" y="-62" font-family="Helvetica,sans-Serif" font-size="10.00">contextmenu.h</text>
</a>
</g>
</g>
<!-- Node4&#45;&gt;Node13 -->
<g id="edge12" class="edge">
<title>Node4&#45;&gt;Node13</title>
<path fill="none" stroke="midnightblue" d="M415.18,-111.25C417.99,-110.81 420.78,-110.4 423.5,-110 548.53,-91.81 580.39,-91.65 705.5,-74 705.6,-73.99 705.7,-73.97 705.81,-73.96"/>
<polygon fill="midnightblue" stroke="midnightblue" points="706.1,-77.45 715.49,-72.55 705.09,-70.52 706.1,-77.45"/>
</g>
<!-- Node14 -->
<g id="node14" class="node">
<title>Node14</title>
<g id="a_node14"><a xlink:href="colordropdownmenu_8h.html" target="_top" xlink:title=" ">
<polygon fill="none" stroke="black" points="697,-74 572,-74 572,-55 697,-55 697,-74"/>
<text text-anchor="middle" x="634.5" y="-62" font-family="Helvetica,sans-Serif" font-size="10.00">colordropdownmenu.h</text>
</a>
</g>
</g>
<!-- Node4&#45;&gt;Node14 -->
<g id="edge14" class="edge">
<title>Node4&#45;&gt;Node14</title>
<path fill="none" stroke="midnightblue" d="M413.76,-109.98C459.54,-100.76 532.64,-86.03 582.05,-76.07"/>
<polygon fill="midnightblue" stroke="midnightblue" points="582.8,-79.49 591.91,-74.08 581.42,-72.63 582.8,-79.49"/>
</g>
<!-- Node11 -->
<g id="node11" class="node">
<title>Node11</title>
<g id="a_node11"><a xlink:title=" ">
<polygon fill="none" stroke="#bfbfbf" points="569,-19 510,-19 510,0 569,0 569,-19"/>
<text text-anchor="middle" x="539.5" y="-7" font-family="Helvetica,sans-Serif" font-size="10.00">QWidget</text>
</a>
</g>
</g>
<!-- Node10&#45;&gt;Node11 -->
<g id="edge10" class="edge">
<title>Node10&#45;&gt;Node11</title>
<path fill="none" stroke="midnightblue" d="M521.97,-54.75C524.78,-47.65 528.84,-37.4 532.35,-28.56"/>
<polygon fill="midnightblue" stroke="midnightblue" points="535.67,-29.68 536.1,-19.09 529.16,-27.1 535.67,-29.68"/>
</g>
<!-- Node12 -->
<g id="node12" class="node">
<title>Node12</title>
<g id="a_node12"><a xlink:title=" ">
<polygon fill="none" stroke="#bfbfbf" points="662,-19 607,-19 607,0 662,0 662,-19"/>
<text text-anchor="middle" x="634.5" y="-7" font-family="Helvetica,sans-Serif" font-size="10.00">QFrame</text>
</a>
</g>
</g>
<!-- Node10&#45;&gt;Node12 -->
<g id="edge11" class="edge">
<title>Node10&#45;&gt;Node12</title>
<path fill="none" stroke="midnightblue" d="M537.14,-54.98C555.8,-46.46 584.75,-33.23 606.24,-23.41"/>
<polygon fill="midnightblue" stroke="midnightblue" points="607.88,-26.51 615.52,-19.17 604.97,-20.14 607.88,-26.51"/>
</g>
<!-- Node13&#45;&gt;Node12 -->
<g id="edge13" class="edge">
<title>Node13&#45;&gt;Node12</title>
<path fill="none" stroke="midnightblue" d="M740.26,-54.98C719.8,-46.38 687.97,-32.99 664.57,-23.15"/>
<polygon fill="midnightblue" stroke="midnightblue" points="665.69,-19.82 655.11,-19.17 662.97,-26.27 665.69,-19.82"/>
</g>
<!-- Node14&#45;&gt;Node11 -->
<g id="edge15" class="edge">
<title>Node14&#45;&gt;Node11</title>
<path fill="none" stroke="midnightblue" d="M619.24,-54.98C604.37,-46.69 581.52,-33.94 564.08,-24.22"/>
<polygon fill="midnightblue" stroke="midnightblue" points="565.48,-20.99 555.04,-19.17 562.07,-27.1 565.48,-20.99"/>
</g>
<!-- Node14&#45;&gt;Node12 -->
<g id="edge16" class="edge">
<title>Node14&#45;&gt;Node12</title>
<path fill="none" stroke="midnightblue" d="M634.5,-54.75C634.5,-47.8 634.5,-37.85 634.5,-29.13"/>
<polygon fill="midnightblue" stroke="midnightblue" points="638,-29.09 634.5,-19.09 631,-29.09 638,-29.09"/>
</g>
<!-- Node16 -->
<g id="node16" class="node">
<title>Node16</title>
<g id="a_node16"><a xlink:title=" ">
<polygon fill="none" stroke="#bfbfbf" points="508,-129 433,-129 433,-110 508,-110 508,-129"/>
<text text-anchor="middle" x="470.5" y="-117" font-family="Helvetica,sans-Serif" font-size="10.00">QTabWidget</text>
</a>
</g>
</g>
<!-- Node15&#45;&gt;Node16 -->
<g id="edge18" class="edge">
<title>Node15&#45;&gt;Node16</title>
<path fill="none" stroke="midnightblue" d="M468,-164.75C468.39,-157.8 468.95,-147.85 469.45,-139.13"/>
<polygon fill="midnightblue" stroke="midnightblue" points="472.94,-139.27 470.01,-129.09 465.95,-138.88 472.94,-139.27"/>
</g>
</g>
</svg>
