<?xml version="1.0" encoding="UTF-8" standalone="no"?>
<!DOCTYPE svg PUBLIC "-//W3C//DTD SVG 1.1//EN"
 "http://www.w3.org/Graphics/SVG/1.1/DTD/svg11.dtd">
<!-- Generated by graphviz version 5.0.0 (0)
 -->
<!-- Title: tabmainwidget.cpp Pages: 1 -->
<svg width="1417pt" height="247pt"
 viewBox="0.00 0.00 1416.50 247.00" xmlns="http://www.w3.org/2000/svg" xmlns:xlink="http://www.w3.org/1999/xlink">
<g id="graph0" class="graph" transform="scale(1 1) rotate(0) translate(4 243)">
<title>tabmainwidget.cpp</title>
<!-- Node1 -->
<g id="node1" class="node">
<title>Node1</title>
<g id="a_node1"><a xlink:title=" ">
<polygon fill="#bfbfbf" stroke="black" points="1003.5,-239 893.5,-239 893.5,-220 1003.5,-220 1003.5,-239"/>
<text text-anchor="middle" x="948.5" y="-227" font-family="Helvetica,sans-Serif" font-size="10.00">tabmainwidget.cpp</text>
</a>
</g>
</g>
<!-- Node2 -->
<g id="node2" class="node">
<title>Node2</title>
<g id="a_node2"><a xlink:href="tabmainwidget_8h.html" target="_top" xlink:title=" ">
<polygon fill="none" stroke="black" points="794,-129 695,-129 695,-110 794,-110 794,-129"/>
<text text-anchor="middle" x="744.5" y="-117" font-family="Helvetica,sans-Serif" font-size="10.00">tabmainwidget.h</text>
</a>
</g>
</g>
<!-- Node1&#45;&gt;Node2 -->
<g id="edge1" class="edge">
<title>Node1&#45;&gt;Node2</title>
<path fill="none" stroke="midnightblue" d="M908.85,-219.96C881.16,-212.91 844.03,-201.25 814.5,-184 792.71,-171.27 771.83,-150.91 758.64,-136.69"/>
<polygon fill="midnightblue" stroke="midnightblue" points="761.11,-134.21 751.81,-129.13 755.92,-138.9 761.11,-134.21"/>
</g>
<!-- Node3 -->
<g id="node3" class="node">
<title>Node3</title>
<g id="a_node3"><a xlink:title=" ">
<polygon fill="none" stroke="#bfbfbf" points="838,-19 779,-19 779,0 838,0 838,-19"/>
<text text-anchor="middle" x="808.5" y="-7" font-family="Helvetica,sans-Serif" font-size="10.00">QWidget</text>
</a>
</g>
</g>
<!-- Node1&#45;&gt;Node3 -->
<g id="edge31" class="edge">
<title>Node1&#45;&gt;Node3</title>
<path fill="none" stroke="midnightblue" d="M943.36,-219.77C933.25,-202.53 910.11,-162.84 891.5,-129 873.59,-96.42 874.47,-84.99 852.5,-55 844.91,-44.64 834.95,-34.36 826.42,-26.29"/>
<polygon fill="midnightblue" stroke="midnightblue" points="828.54,-23.49 818.81,-19.31 823.81,-28.65 828.54,-23.49"/>
</g>
<!-- Node6 -->
<g id="node6" class="node">
<title>Node6</title>
<g id="a_node6"><a xlink:href="floattextedit_8h.html" target="_top" xlink:title=" ">
<polygon fill="none" stroke="black" points="469.5,-184 383.5,-184 383.5,-165 469.5,-165 469.5,-184"/>
<text text-anchor="middle" x="426.5" y="-172" font-family="Helvetica,sans-Serif" font-size="10.00">floattextedit.h</text>
</a>
</g>
</g>
<!-- Node1&#45;&gt;Node6 -->
<g id="edge5" class="edge">
<title>Node1&#45;&gt;Node6</title>
<path fill="none" stroke="midnightblue" d="M893.13,-222.88C792.14,-212.62 579.3,-191.01 479.84,-180.92"/>
<polygon fill="midnightblue" stroke="midnightblue" points="480.01,-177.42 469.71,-179.89 479.31,-184.38 480.01,-177.42"/>
</g>
<!-- Node14 -->
<g id="node14" class="node">
<title>Node14</title>
<g id="a_node14"><a xlink:href="container_8h.html" target="_top" xlink:title=" ">
<polygon fill="none" stroke="black" points="844,-74 773,-74 773,-55 844,-55 844,-74"/>
<text text-anchor="middle" x="808.5" y="-62" font-family="Helvetica,sans-Serif" font-size="10.00">container.h</text>
</a>
</g>
</g>
<!-- Node1&#45;&gt;Node14 -->
<g id="edge27" class="edge">
<title>Node1&#45;&gt;Node14</title>
<path fill="none" stroke="midnightblue" d="M918.85,-219.86C899.5,-212.91 874.87,-201.38 858.5,-184 831.3,-155.11 817.77,-109.23 812.04,-83.87"/>
<polygon fill="midnightblue" stroke="midnightblue" points="815.46,-83.15 809.99,-74.08 808.61,-84.58 815.46,-83.15"/>
</g>
<!-- Node16 -->
<g id="node16" class="node">
<title>Node16</title>
<g id="a_node16"><a xlink:href="floatimage_8h.html" target="_top" xlink:title=" ">
<polygon fill="none" stroke="black" points="978.5,-129 900.5,-129 900.5,-110 978.5,-110 978.5,-129"/>
<text text-anchor="middle" x="939.5" y="-117" font-family="Helvetica,sans-Serif" font-size="10.00">floatimage.h</text>
</a>
</g>
</g>
<!-- Node1&#45;&gt;Node16 -->
<g id="edge20" class="edge">
<title>Node1&#45;&gt;Node16</title>
<path fill="none" stroke="midnightblue" d="M943.62,-219.98C938.94,-211.26 932.19,-197.17 929.5,-184 926.42,-168.95 929.55,-151.72 933.09,-139.01"/>
<polygon fill="midnightblue" stroke="midnightblue" points="936.52,-139.76 936.17,-129.17 929.84,-137.67 936.52,-139.76"/>
</g>
<!-- Node19 -->
<g id="node19" class="node">
<title>Node19</title>
<g id="a_node19"><a xlink:href="notetabwidget_8h.html" target="_top" xlink:title=" ">
<polygon fill="none" stroke="black" points="1034.5,-184 938.5,-184 938.5,-165 1034.5,-165 1034.5,-184"/>
<text text-anchor="middle" x="986.5" y="-172" font-family="Helvetica,sans-Serif" font-size="10.00">notetabwidget.h</text>
</a>
</g>
</g>
<!-- Node1&#45;&gt;Node19 -->
<g id="edge25" class="edge">
<title>Node1&#45;&gt;Node19</title>
<path fill="none" stroke="midnightblue" d="M954.77,-219.75C960.09,-212.34 967.86,-201.5 974.38,-192.41"/>
<polygon fill="midnightblue" stroke="midnightblue" points="977.36,-194.26 980.34,-184.09 971.67,-190.18 977.36,-194.26"/>
</g>
<!-- Node21 -->
<g id="node21" class="node">
<title>Node21</title>
<g id="a_node21"><a xlink:title=" ">
<polygon fill="none" stroke="#bfbfbf" points="1112.5,-184 1052.5,-184 1052.5,-165 1112.5,-165 1112.5,-184"/>
<text text-anchor="middle" x="1082.5" y="-172" font-family="Helvetica,sans-Serif" font-size="10.00">iostream</text>
</a>
</g>
</g>
<!-- Node1&#45;&gt;Node21 -->
<g id="edge28" class="edge">
<title>Node1&#45;&gt;Node21</title>
<path fill="none" stroke="midnightblue" d="M970.03,-219.98C991.97,-211.3 1026.24,-197.75 1051.19,-187.88"/>
<polygon fill="midnightblue" stroke="midnightblue" points="1052.57,-191.1 1060.58,-184.17 1049.99,-184.59 1052.57,-191.1"/>
</g>
<!-- Node22 -->
<g id="node22" class="node">
<title>Node22</title>
<g id="a_node22"><a xlink:title=" ">
<polygon fill="none" stroke="#bfbfbf" points="1214,-184 1131,-184 1131,-165 1214,-165 1214,-184"/>
<text text-anchor="middle" x="1172.5" y="-172" font-family="Helvetica,sans-Serif" font-size="10.00">QHBoxLayout</text>
</a>
</g>
</g>
<!-- Node1&#45;&gt;Node22 -->
<g id="edge29" class="edge">
<title>Node1&#45;&gt;Node22</title>
<path fill="none" stroke="midnightblue" d="M984.49,-219.98C1022.99,-210.87 1084.19,-196.4 1126.24,-186.45"/>
<polygon fill="midnightblue" stroke="midnightblue" points="1127.3,-189.79 1136.23,-184.08 1125.69,-182.98 1127.3,-189.79"/>
</g>
<!-- Node23 -->
<g id="node23" class="node">
<title>Node23</title>
<g id="a_node23"><a xlink:title=" ">
<polygon fill="none" stroke="#bfbfbf" points="1316.5,-184 1232.5,-184 1232.5,-165 1316.5,-165 1316.5,-184"/>
<text text-anchor="middle" x="1274.5" y="-172" font-family="Helvetica,sans-Serif" font-size="10.00">QMouseEvent</text>
</a>
</g>
</g>
<!-- Node1&#45;&gt;Node23 -->
<g id="edge30" class="edge">
<title>Node1&#45;&gt;Node23</title>
<path fill="none" stroke="midnightblue" d="M1001.75,-219.96C1054.99,-211.4 1139.5,-197.78 1222.38,-184.18"/>
<polygon fill="midnightblue" stroke="midnightblue" points="1223.18,-187.59 1232.48,-182.52 1222.04,-180.69 1223.18,-187.59"/>
</g>
<!-- Node24 -->
<g id="node24" class="node">
<title>Node24</title>
<g id="a_node24"><a xlink:title=" ">
<polygon fill="none" stroke="#bfbfbf" points="1408.5,-184 1334.5,-184 1334.5,-165 1408.5,-165 1408.5,-184"/>
<text text-anchor="middle" x="1371.5" y="-172" font-family="Helvetica,sans-Serif" font-size="10.00">QSizePolicy</text>
</a>
</g>
</g>
<!-- Node1&#45;&gt;Node24 -->
<g id="edge32" class="edge">
<title>Node1&#45;&gt;Node24</title>
<path fill="none" stroke="midnightblue" d="M1003.59,-223.13C1075.15,-215.91 1204.16,-202.03 1324.27,-184.1"/>
<polygon fill="midnightblue" stroke="midnightblue" points="1325.01,-187.52 1334.38,-182.57 1323.97,-180.6 1325.01,-187.52"/>
</g>
<!-- Node2&#45;&gt;Node3 -->
<g id="edge2" class="edge">
<title>Node2&#45;&gt;Node3</title>
<path fill="none" stroke="midnightblue" d="M745.71,-109.73C747.77,-96.94 752.84,-72.76 763.5,-55 770.17,-43.89 780.24,-33.58 789.17,-25.68"/>
<polygon fill="midnightblue" stroke="midnightblue" points="791.52,-28.28 796.91,-19.16 787.01,-22.92 791.52,-28.28"/>
</g>
<!-- Node4 -->
<g id="node4" class="node">
<title>Node4</title>
<g id="a_node4"><a xlink:href="contextmenu_8h.html" target="_top" xlink:title=" ">
<polygon fill="none" stroke="black" points="716.5,-74 626.5,-74 626.5,-55 716.5,-55 716.5,-74"/>
<text text-anchor="middle" x="671.5" y="-62" font-family="Helvetica,sans-Serif" font-size="10.00">contextmenu.h</text>
</a>
</g>
</g>
<!-- Node2&#45;&gt;Node4 -->
<g id="edge3" class="edge">
<title>Node2&#45;&gt;Node4</title>
<path fill="none" stroke="midnightblue" d="M732.77,-109.98C721.77,-102 705.08,-89.88 691.9,-80.31"/>
<polygon fill="midnightblue" stroke="midnightblue" points="693.59,-77.21 683.44,-74.17 689.48,-82.88 693.59,-77.21"/>
</g>
<!-- Node5 -->
<g id="node5" class="node">
<title>Node5</title>
<g id="a_node5"><a xlink:title=" ">
<polygon fill="none" stroke="#bfbfbf" points="699,-19 644,-19 644,0 699,0 699,-19"/>
<text text-anchor="middle" x="671.5" y="-7" font-family="Helvetica,sans-Serif" font-size="10.00">QFrame</text>
</a>
</g>
</g>
<!-- Node4&#45;&gt;Node5 -->
<g id="edge4" class="edge">
<title>Node4&#45;&gt;Node5</title>
<path fill="none" stroke="midnightblue" d="M671.5,-54.75C671.5,-47.8 671.5,-37.85 671.5,-29.13"/>
<polygon fill="midnightblue" stroke="midnightblue" points="675,-29.09 671.5,-19.09 668,-29.09 675,-29.09"/>
</g>
<!-- Node7 -->
<g id="node7" class="node">
<title>Node7</title>
<g id="a_node7"><a xlink:title=" ">
<polygon fill="none" stroke="#bfbfbf" points="365,-129 302,-129 302,-110 365,-110 365,-129"/>
<text text-anchor="middle" x="333.5" y="-117" font-family="Helvetica,sans-Serif" font-size="10.00">QTextEdit</text>
</a>
</g>
</g>
<!-- Node6&#45;&gt;Node7 -->
<g id="edge6" class="edge">
<title>Node6&#45;&gt;Node7</title>
<path fill="none" stroke="midnightblue" d="M411.56,-164.98C397,-156.69 374.63,-143.94 357.57,-134.22"/>
<polygon fill="midnightblue" stroke="midnightblue" points="359.14,-131.08 348.71,-129.17 355.67,-137.16 359.14,-131.08"/>
</g>
<!-- Node8 -->
<g id="node8" class="node">
<title>Node8</title>
<g id="a_node8"><a xlink:href="mainwindow_8h.html" target="_top" xlink:title=" ">
<polygon fill="none" stroke="black" points="470,-129 383,-129 383,-110 470,-110 470,-129"/>
<text text-anchor="middle" x="426.5" y="-117" font-family="Helvetica,sans-Serif" font-size="10.00">mainwindow.h</text>
</a>
</g>
</g>
<!-- Node6&#45;&gt;Node8 -->
<g id="edge7" class="edge">
<title>Node6&#45;&gt;Node8</title>
<path fill="none" stroke="midnightblue" d="M426.5,-164.75C426.5,-157.8 426.5,-147.85 426.5,-139.13"/>
<polygon fill="midnightblue" stroke="midnightblue" points="430,-139.09 426.5,-129.09 423,-139.09 430,-139.09"/>
</g>
<!-- Node8&#45;&gt;Node4 -->
<g id="edge16" class="edge">
<title>Node8&#45;&gt;Node4</title>
<path fill="none" stroke="midnightblue" d="M465.86,-109.98C508.24,-100.82 575.76,-86.21 621.78,-76.26"/>
<polygon fill="midnightblue" stroke="midnightblue" points="622.79,-79.62 631.83,-74.08 621.31,-72.78 622.79,-79.62"/>
</g>
<!-- Node9 -->
<g id="node9" class="node">
<title>Node9</title>
<g id="a_node9"><a xlink:title=" ">
<polygon fill="none" stroke="#bfbfbf" points="299,-74 212,-74 212,-55 299,-55 299,-74"/>
<text text-anchor="middle" x="255.5" y="-62" font-family="Helvetica,sans-Serif" font-size="10.00">QMainWindow</text>
</a>
</g>
</g>
<!-- Node8&#45;&gt;Node9 -->
<g id="edge8" class="edge">
<title>Node8&#45;&gt;Node9</title>
<path fill="none" stroke="midnightblue" d="M399.03,-109.98C370.32,-101.09 325.08,-87.07 293.08,-77.15"/>
<polygon fill="midnightblue" stroke="midnightblue" points="293.78,-73.7 283.19,-74.08 291.7,-80.39 293.78,-73.7"/>
</g>
<!-- Node10 -->
<g id="node10" class="node">
<title>Node10</title>
<g id="a_node10"><a xlink:title=" ">
<polygon fill="none" stroke="#bfbfbf" points="370,-74 317,-74 317,-55 370,-55 370,-74"/>
<text text-anchor="middle" x="343.5" y="-62" font-family="Helvetica,sans-Serif" font-size="10.00">QString</text>
</a>
</g>
</g>
<!-- Node8&#45;&gt;Node10 -->
<g id="edge9" class="edge">
<title>Node8&#45;&gt;Node10</title>
<path fill="none" stroke="midnightblue" d="M413.16,-109.98C400.41,-101.84 380.95,-89.41 365.83,-79.76"/>
<polygon fill="midnightblue" stroke="midnightblue" points="367.39,-76.6 357.08,-74.17 363.62,-82.5 367.39,-76.6"/>
</g>
<!-- Node11 -->
<g id="node11" class="node">
<title>Node11</title>
<g id="a_node11"><a xlink:title=" ">
<polygon fill="none" stroke="#bfbfbf" points="464.5,-74 388.5,-74 388.5,-55 464.5,-55 464.5,-74"/>
<text text-anchor="middle" x="426.5" y="-62" font-family="Helvetica,sans-Serif" font-size="10.00">QListWidget</text>
</a>
</g>
</g>
<!-- Node8&#45;&gt;Node11 -->
<g id="edge10" class="edge">
<title>Node8&#45;&gt;Node11</title>
<path fill="none" stroke="midnightblue" d="M426.5,-109.75C426.5,-102.8 426.5,-92.85 426.5,-84.13"/>
<polygon fill="midnightblue" stroke="midnightblue" points="430,-84.09 426.5,-74.09 423,-84.09 430,-84.09"/>
</g>
<!-- Node12 -->
<g id="node12" class="node">
<title>Node12</title>
<g id="a_node12"><a xlink:title=" ">
<polygon fill="none" stroke="#bfbfbf" points="95,-74 0,-74 0,-55 95,-55 95,-74"/>
<text text-anchor="middle" x="47.5" y="-62" font-family="Helvetica,sans-Serif" font-size="10.00">QTextDocument</text>
</a>
</g>
</g>
<!-- Node8&#45;&gt;Node12 -->
<g id="edge11" class="edge">
<title>Node8&#45;&gt;Node12</title>
<path fill="none" stroke="midnightblue" d="M382.84,-111.4C379.68,-110.92 376.54,-110.45 373.5,-110 256.88,-92.88 225.01,-91.17 105.09,-74.2"/>
<polygon fill="midnightblue" stroke="midnightblue" points="105.54,-70.73 95.15,-72.79 104.56,-77.66 105.54,-70.73"/>
</g>
<!-- Node13 -->
<g id="node13" class="node">
<title>Node13</title>
<g id="a_node13"><a xlink:title=" ">
<polygon fill="none" stroke="#bfbfbf" points="194,-74 113,-74 113,-55 194,-55 194,-74"/>
<text text-anchor="middle" x="153.5" y="-62" font-family="Helvetica,sans-Serif" font-size="10.00">QColorDialog</text>
</a>
</g>
</g>
<!-- Node8&#45;&gt;Node13 -->
<g id="edge12" class="edge">
<title>Node8&#45;&gt;Node13</title>
<path fill="none" stroke="midnightblue" d="M382.94,-110.04C334.25,-100.59 255.52,-85.31 204.13,-75.33"/>
<polygon fill="midnightblue" stroke="midnightblue" points="204.71,-71.88 194.23,-73.41 203.38,-78.75 204.71,-71.88"/>
</g>
<!-- Node8&#45;&gt;Node14 -->
<g id="edge13" class="edge">
<title>Node8&#45;&gt;Node14</title>
<path fill="none" stroke="midnightblue" d="M470.32,-112.42C543.22,-102.31 688.71,-82.12 762.83,-71.84"/>
<polygon fill="midnightblue" stroke="midnightblue" points="763.37,-75.29 772.8,-70.45 762.41,-68.36 763.37,-75.29"/>
</g>
<!-- Node15 -->
<g id="node15" class="node">
<title>Node15</title>
<g id="a_node15"><a xlink:href="colordropdownmenu_8h.html" target="_top" xlink:title=" ">
<polygon fill="none" stroke="black" points="608,-74 483,-74 483,-55 608,-55 608,-74"/>
<text text-anchor="middle" x="545.5" y="-62" font-family="Helvetica,sans-Serif" font-size="10.00">colordropdownmenu.h</text>
</a>
</g>
</g>
<!-- Node8&#45;&gt;Node15 -->
<g id="edge17" class="edge">
<title>Node8&#45;&gt;Node15</title>
<path fill="none" stroke="midnightblue" d="M445.62,-109.98C464.85,-101.42 494.73,-88.11 516.81,-78.28"/>
<polygon fill="midnightblue" stroke="midnightblue" points="518.32,-81.44 526.03,-74.17 515.47,-75.04 518.32,-81.44"/>
</g>
<!-- Node14&#45;&gt;Node3 -->
<g id="edge14" class="edge">
<title>Node14&#45;&gt;Node3</title>
<path fill="none" stroke="midnightblue" d="M808.5,-54.75C808.5,-47.8 808.5,-37.85 808.5,-29.13"/>
<polygon fill="midnightblue" stroke="midnightblue" points="812,-29.09 808.5,-19.09 805,-29.09 812,-29.09"/>
</g>
<!-- Node14&#45;&gt;Node5 -->
<g id="edge15" class="edge">
<title>Node14&#45;&gt;Node5</title>
<path fill="none" stroke="midnightblue" d="M786.49,-54.98C764.05,-46.3 729.02,-32.75 703.51,-22.88"/>
<polygon fill="midnightblue" stroke="midnightblue" points="704.5,-19.51 693.91,-19.17 701.98,-26.04 704.5,-19.51"/>
</g>
<!-- Node15&#45;&gt;Node3 -->
<g id="edge18" class="edge">
<title>Node15&#45;&gt;Node3</title>
<path fill="none" stroke="midnightblue" d="M587.76,-54.98C637.78,-44.9 720.42,-28.25 769.14,-18.43"/>
<polygon fill="midnightblue" stroke="midnightblue" points="769.89,-21.85 779,-16.45 768.5,-14.99 769.89,-21.85"/>
</g>
<!-- Node15&#45;&gt;Node5 -->
<g id="edge19" class="edge">
<title>Node15&#45;&gt;Node5</title>
<path fill="none" stroke="midnightblue" d="M565.74,-54.98C586.2,-46.38 618.03,-32.99 641.43,-23.15"/>
<polygon fill="midnightblue" stroke="midnightblue" points="643.03,-26.27 650.89,-19.17 640.31,-19.82 643.03,-26.27"/>
</g>
<!-- Node16&#45;&gt;Node3 -->
<g id="edge22" class="edge">
<title>Node16&#45;&gt;Node3</title>
<path fill="none" stroke="midnightblue" d="M933.8,-109.85C924.87,-96.79 906.54,-71.77 886.5,-55 871.45,-42.4 852.34,-31.44 836.81,-23.54"/>
<polygon fill="midnightblue" stroke="midnightblue" points="838.18,-20.32 827.66,-19.04 835.09,-26.59 838.18,-20.32"/>
</g>
<!-- Node16&#45;&gt;Node14 -->
<g id="edge24" class="edge">
<title>Node16&#45;&gt;Node14</title>
<path fill="none" stroke="midnightblue" d="M918.45,-109.98C897.09,-101.34 863.8,-87.87 839.44,-78.02"/>
<polygon fill="midnightblue" stroke="midnightblue" points="840.51,-74.68 829.93,-74.17 837.89,-81.17 840.51,-74.68"/>
</g>
<!-- Node17 -->
<g id="node17" class="node">
<title>Node17</title>
<g id="a_node17"><a xlink:title=" ">
<polygon fill="none" stroke="#bfbfbf" points="994.5,-74 938.5,-74 938.5,-55 994.5,-55 994.5,-74"/>
<text text-anchor="middle" x="966.5" y="-62" font-family="Helvetica,sans-Serif" font-size="10.00">QObject</text>
</a>
</g>
</g>
<!-- Node16&#45;&gt;Node17 -->
<g id="edge21" class="edge">
<title>Node16&#45;&gt;Node17</title>
<path fill="none" stroke="midnightblue" d="M943.96,-109.75C947.62,-102.57 952.91,-92.18 957.45,-83.27"/>
<polygon fill="midnightblue" stroke="midnightblue" points="960.7,-84.59 962.12,-74.09 954.47,-81.41 960.7,-84.59"/>
</g>
<!-- Node18 -->
<g id="node18" class="node">
<title>Node18</title>
<g id="a_node18"><a xlink:title=" ">
<polygon fill="none" stroke="#bfbfbf" points="1062.5,-74 1012.5,-74 1012.5,-55 1062.5,-55 1062.5,-74"/>
<text text-anchor="middle" x="1037.5" y="-62" font-family="Helvetica,sans-Serif" font-size="10.00">QLabel</text>
</a>
</g>
</g>
<!-- Node16&#45;&gt;Node18 -->
<g id="edge23" class="edge">
<title>Node16&#45;&gt;Node18</title>
<path fill="none" stroke="midnightblue" d="M955.25,-109.98C970.73,-101.61 994.59,-88.7 1012.64,-78.95"/>
<polygon fill="midnightblue" stroke="midnightblue" points="1014.34,-82.01 1021.47,-74.17 1011.01,-75.85 1014.34,-82.01"/>
</g>
<!-- Node20 -->
<g id="node20" class="node">
<title>Node20</title>
<g id="a_node20"><a xlink:title=" ">
<polygon fill="none" stroke="#bfbfbf" points="1072,-129 997,-129 997,-110 1072,-110 1072,-129"/>
<text text-anchor="middle" x="1034.5" y="-117" font-family="Helvetica,sans-Serif" font-size="10.00">QTabWidget</text>
</a>
</g>
</g>
<!-- Node19&#45;&gt;Node20 -->
<g id="edge26" class="edge">
<title>Node19&#45;&gt;Node20</title>
<path fill="none" stroke="midnightblue" d="M994.43,-164.75C1001.35,-157.11 1011.57,-145.82 1019.95,-136.56"/>
<polygon fill="midnightblue" stroke="midnightblue" points="1022.6,-138.85 1026.72,-129.09 1017.41,-134.15 1022.6,-138.85"/>
</g>
</g>
</svg>
