<?xml version="1.0" encoding="UTF-8" standalone="no"?>
<!DOCTYPE svg PUBLIC "-//W3C//DTD SVG 1.1//EN"
 "http://www.w3.org/Graphics/SVG/1.1/DTD/svg11.dtd">
<!-- Generated by graphviz version 5.0.0 (0)
 -->
<!-- Title: tabmainwidget.h Pages: 1 -->
<svg width="350pt" height="82pt"
 viewBox="0.00 0.00 349.50 82.00" xmlns="http://www.w3.org/2000/svg" xmlns:xlink="http://www.w3.org/1999/xlink">
<g id="graph0" class="graph" transform="scale(1 1) rotate(0) translate(4 78)">
<title>tabmainwidget.h</title>
<!-- Node1 -->
<g id="node1" class="node">
<title>Node1</title>
<g id="a_node1"><a xlink:title=" ">
<polygon fill="#bfbfbf" stroke="black" points="214,-74 115,-74 115,-55 214,-55 214,-74"/>
<text text-anchor="middle" x="164.5" y="-62" font-family="Helvetica,sans-Serif" font-size="10.00">tabmainwidget.h</text>
</a>
</g>
</g>
<!-- Node2 -->
<g id="node2" class="node">
<title>Node2</title>
<g id="a_node2"><a xlink:href="floattextedit_8cpp.html" target="_top" xlink:title=" ">
<polygon fill="none" stroke="black" points="97,-19 0,-19 0,0 97,0 97,-19"/>
<text text-anchor="middle" x="48.5" y="-7" font-family="Helvetica,sans-Serif" font-size="10.00">floattextedit.cpp</text>
</a>
</g>
</g>
<!-- Node1&#45;&gt;Node2 -->
<g id="edge1" class="edge">
<title>Node1&#45;&gt;Node2</title>
<path fill="none" stroke="midnightblue" d="M136.63,-50.77C115.23,-40.99 86.26,-27.75 67.48,-19.17"/>
<polygon fill="midnightblue" stroke="midnightblue" points="135.31,-54.01 145.86,-54.98 138.22,-47.65 135.31,-54.01"/>
</g>
<!-- Node3 -->
<g id="node3" class="node">
<title>Node3</title>
<g id="a_node3"><a xlink:href="mainwindow_8cpp.html" target="_top" xlink:title=" ">
<polygon fill="none" stroke="black" points="213.5,-19 115.5,-19 115.5,0 213.5,0 213.5,-19"/>
<text text-anchor="middle" x="164.5" y="-7" font-family="Helvetica,sans-Serif" font-size="10.00">mainwindow.cpp</text>
</a>
</g>
</g>
<!-- Node1&#45;&gt;Node3 -->
<g id="edge2" class="edge">
<title>Node1&#45;&gt;Node3</title>
<path fill="none" stroke="midnightblue" d="M164.5,-44.66C164.5,-35.93 164.5,-25.99 164.5,-19.09"/>
<polygon fill="midnightblue" stroke="midnightblue" points="161,-44.75 164.5,-54.75 168,-44.75 161,-44.75"/>
</g>
<!-- Node4 -->
<g id="node4" class="node">
<title>Node4</title>
<g id="a_node4"><a xlink:href="tabmainwidget_8cpp.html" target="_top" xlink:title=" ">
<polygon fill="none" stroke="black" points="341.5,-19 231.5,-19 231.5,0 341.5,0 341.5,-19"/>
<text text-anchor="middle" x="286.5" y="-7" font-family="Helvetica,sans-Serif" font-size="10.00">tabmainwidget.cpp</text>
</a>
</g>
</g>
<!-- Node1&#45;&gt;Node4 -->
<g id="edge3" class="edge">
<title>Node1&#45;&gt;Node4</title>
<path fill="none" stroke="midnightblue" d="M193.51,-50.9C216.04,-41.11 246.7,-27.79 266.54,-19.17"/>
<polygon fill="midnightblue" stroke="midnightblue" points="191.88,-47.79 184.1,-54.98 194.67,-54.21 191.88,-47.79"/>
</g>
</g>
</svg>
